<svg width="223" height="340" viewBox="0 0 223 340" fill="none" xmlns="http://www.w3.org/2000/svg">
    <g clip-path="url(#a)">
        <path d="M145.399 320.504c-.728.419-22.438 13.67-22.438 13.67s-10.408 3.931-13.616 4.044c-3.207.113-9.78 1.539-15.534-5.583-5.753-7.126-33.562-47.946-33.562-47.946s-5.946-10.976-8.437-21.374c-2.491-10.398-5.753-19.447-5.753-19.447l-28.574-97.435s-4.028-6.548-1.344-11.554c2.684-5.005 19.179-10.204 19.179-10.204l32.601-1.54s34.584-1.218 38.804 5.714c0 0 3.964 1.155 9.332 21.951 5.37 20.796 11.889 42.62 11.889 42.62l13.682 44.544s2.557 28.883 2.813 30.039c.256 1.155 2.595 37.796 2.684 37.999.089.202-.256 7.703-.256 7.703l-1.47 6.805v-.006Z" fill="#9BE887"/>
        <path d="M14.899 138.042 6.3 136.468l-5.466-9.095 17.174-45.986 42.529 3.284 6.271.275 5.998 9.306-11.412 29.614-15.137.101-12.562 1.543-5.754 1.634-6.136 1.832-3.069 3.079-3.838 5.987Z" fill="#77CD77"/>
        <path d="M28.425 82.248s6.406-21.35 12.269-26.142c5.862-4.789 14.04-5.063 18.402-2.6 4.361 2.464 7.497 7.802 6.815 13.55-.682 5.747-5.86 17.8-5.86 17.8s-8.043.266-7.908-.147c.135-.413 5.725-14.37 5.316-17.382-.408-3.013-2.862-6.707-5.863-6.707-3 0-6.541 1.915-8.995 6.981-2.454 5.067-5.451 15.739-5.451 15.739l-8.725-1.095v.003Zm151.67 48.328-20.379 33.886 3.222 9.133 37.869 9.112 20.81-33.802-3.38-8.266-4.928-1.147-33.214-8.916Z" fill="#77CD77"/>
        <path d="M189.666 132.988s8.218-15.967 13.569-18.89c5.35-2.923 11.869-1.93 14.961.67 3.093 2.599 4.793 7.293 3.406 11.747-1.386 4.454-6.567 13.693-6.567 13.693s-7.108-1.444-6.939-1.75c.17-.306 6.651-10.537 6.772-12.983.121-2.446-1.28-5.739-3.656-6.184-2.376-.445-5.466.546-8.156 4.194-2.689 3.648-6.636 11.66-6.636 11.66l-6.752-2.163-.002.006ZM171.361 26.209l27.99 46.54-4.424 12.54-52.011 12.519-28.58-46.43 4.643-11.349 6.769-1.577 45.613-12.243Z" fill="#77CD77"/>
        <path d="M158.22 29.519S146.932 7.59 139.585 3.573c-7.347-4.018-16.302-2.649-20.551.921-4.249 3.57-6.582 10.017-4.677 16.135 1.904 6.117 9.021 18.805 9.021 18.805s9.76-1.984 9.53-2.403c-.23-.418-9.136-14.47-9.3-17.83-.164-3.358 1.758-7.882 5.023-8.491 3.262-.612 7.508.751 11.201 5.762 3.694 5.011 9.117 16.016 9.117 16.016l9.271-2.97Z" fill="#77CD77"/>
        <path d="M124.203 179.984c-2.689-10.748-5.839-21.417-8.871-32.075-2.195-7.718-4.074-18.214-12.146-22.018-4.694-2.213-10.379-2.152-15.45-2.458-6.153-.37-12.315-.555-18.477-.676a802.224 802.224 0 0 0-18.405-.147c-3.121.011-6.242-.023-9.36.014-2.314.029-4.79.24-6.74 1.618-4.934 3.483-2.765 10.057-1.327 14.811.849 2.799 1.677 5.603 2.508 8.405 3.124 10.534 6.338 21.042 9.51 31.561 3.807 12.607 7.722 25.178 11.47 37.802 2.767 9.318 5.529 18.639 8.32 27.948.517 1.73 1.11 3.454 1.579 5.199 1.982 7.365 4.266 14.491 7.867 21.261 1.462 2.744 3.19 5.338 4.848 7.963 2.974 4.711 5.957 9.416 8.917 14.136 3.498 5.58 7.157 11.091 10.483 16.778a723.129 723.129 0 0 0 8.653 14.45c1.458 2.372 2.917 4.74 4.335 7.134 1.418 2.395 3.116 4.295 5.756 5.009 2.664.719 5.121-.029 7.445-1.366 5.5-3.163 11.041-6.332 16.374-9.769 2.025-1.305 4.005-2.712 5.152-4.904 1.148-2.192 1.502-4.786 1.588-7.296.061-1.742-2.422-1.635-2.629 0-.308 2.438-.895 5.124-2.721 6.891-1.959 1.895-4.856 2.949-7.183 4.319l-7.77 4.578c-1.295.762-2.589 1.527-3.884 2.29-1.148.676-2.344 1.513-3.708 1.643-3.924.373-6.124-4.846-8.011-7.758-6.073-9.369-12.367-18.572-18.397-27.97-5.198-8.102-10.396-16.207-15.5-24.369-3.728-5.962-6.351-12.691-8.281-19.441-.599-2.089-1.076-4.191-1.709-6.265-2.287-7.533-4.525-15.08-6.775-22.625-3.555-11.923-7.171-23.831-10.474-35.826-3.135-11.389-6.639-22.691-9.964-34.025-1.732-5.901-3.438-11.819-5.316-17.677-.88-2.743-2.17-6.279-.872-9.092 1.105-2.394 3.892-2.764 6.23-2.845 3.01-.107 6.022-.116 9.03-.17 11.838-.226 23.661-.503 35.496.014 2.972.13 5.946.269 8.91.52 2.594.219 5.309.58 7.709 1.661 3.483 1.568 6.023 4.635 7.597 8.055 2.083 4.526 3.259 9.509 4.626 14.283 1.406 4.91 2.761 9.835 4.13 14.757 1.479 5.32 2.923 10.646 4.698 15.874.158.468.863.28.742-.205l-.003.003Z" fill="#000"/>
        <path d="M125.294 186.959c.457 1.62.604 3.322 1.055 4.962.452 1.641.953 3.437 1.436 5.153.938 3.345 1.936 6.672 2.897 10.011 1.898 6.591 3.886 13.153 5.69 19.77 1.576 5.789 3.501 11.586 4.49 17.512.21 1.263.397 3.409.553 5.061.609 6.507 1.283 12.989 1.76 19.51.547 7.525 1.064 15.052 1.582 22.576.225 3.258.472 6.513.694 9.768.077 1.15.1 2.316.284 3.454a12.231 12.231 0 0 0 .357 1.612c.04.133.095.647.078.214.031.768 1.222.771 1.191 0-.018-.422.201-1.233.236-1.753.063-.959-.026-1.915-.081-2.871-.158-2.796-.325-5.595-.498-8.391-.451-7.371-1.009-14.733-1.573-22.096-.527-6.857-.863-13.734-1.49-20.579-.184-2.01-.369-4.024-.625-6.025-.589-4.567-1.999-9.043-3.121-13.5-1.881-7.467-4.131-14.855-6.415-22.206-1.171-3.766-2.425-7.527-3.806-11.221a303.807 303.807 0 0 0-2.022-5.283c-.345-.878-.699-1.753-1.061-2.625-.449-1.083-1.131-1.979-1.577-3.068-.008-.02-.04-.014-.034.009v.006Zm-104.13-57.013c-1.89.604-3.973 1.329-5.282 2.914-1.309 1.586-1.59 3.62-1.42 5.584.152 1.747.609 3.437 1.063 5.124.547 2.03 1.157 4.043 1.744 6.065 2.528 8.703 5.017 17.42 7.58 26.113 3.412 11.577 6.875 23.142 10.146 34.762 2.946 10.473 5.903 20.94 8.99 31.373 1.058 3.581 2.117 7.163 3.178 10.744.354 1.193.668 2.458 1.185 3.587.087.191.179.382.28.567.04.078.077.158.114.236.202.405-.158-.326.107.22.126.257.247.517.38.771.04.075.074.15.112.225.198.405-.046-.205.023.026.193.65 1.208.373 1.015-.28l-.034-.118-.242.595h.006c.158-.069.293-.312.273-.48-.023-.196-.046-.395-.072-.592-.017-.144-.026-.289-.052-.43a7.604 7.604 0 0 1-.051-.367c.031.26.026.185-.006-.118-.11-1.063-.377-2.054-.659-3.082-.886-3.244-1.881-6.459-2.83-9.682-2.897-9.852-5.883-19.675-8.9-29.493-3.465-11.264-6.807-22.563-10.138-33.865-2.71-9.191-5.477-18.364-8.225-27.546-.785-2.629-1.573-5.26-2.359-7.888-.97-3.238-2.663-6.817-1.444-10.156.898-2.464 3.352-3.688 5.535-4.792.014-.005.003-.028-.012-.025l-.005.008Zm29.488 131.887c-.187 1.496.23 2.648.754 4.049.524 1.401.831 2.964 1.28 4.428a54.438 54.438 0 0 0 3.222 8.206c1.297 2.628 2.701 5.381 4.312 7.83 1.392 2.114 2.9 4.162 4.327 6.253a3816.22 3816.22 0 0 0 9.57 13.942c4.39 6.372 8.65 12.813 12.94 19.251 1.605 2.409 3.25 4.789 4.867 7.192 1.136 1.69 2.29 3.111 3.95 4.341 1.66 1.231 3.762 2.215 5.911 2.545 2.779.424 5.57-.266 8.274-.875 1.519-.341 2.888-.916 4.372-1.332 1.341-.375 2.724-.632 4.079-.956 1.355-.323 2.566-.679 3.849-1.008.892-.228.512-1.615-.379-1.384-2.992.769-6.674 1.67-9.948 2.002-2.623.266-5.166 1.271-7.807 1.412-2.126.113-4.177-.476-5.98-1.591-1.163-.716-2.178-1.62-3.082-2.643-.19-.216-.365-.459-.27-.326-.253-.358-.478-.74-.716-1.109a254.889 254.889 0 0 0-4.557-6.765c-7.1-10.146-14.332-20.204-21.325-30.428a448.655 448.655 0 0 0-5.046-7.23c-1.824-2.556-3.196-5.291-4.85-7.949-1.83-2.937-3.348-5.918-4.58-9.161-.6-1.583-1.274-3.206-1.642-4.859-.328-1.467-.535-2.663-1.47-3.855-.017-.021-.043 0-.046.02h-.009Z" fill="#000"/>
        <path d="M133.745 213.846c-2.597.561-5.198 1.029-7.787 1.647-5.563 1.328-11.107 2.741-16.656 4.127-12.453 3.108-24.93 6.123-37.368 9.283-2.146.546-4.28 1.132-6.418 1.71-.929.251-1.97.647-2.9.78-.29.04-.166.485.121.445 8.208-1.176 16.409-3.619 24.472-5.624 12.453-3.093 24.947-6.077 37.345-9.384 3.11-.829 6.251-1.583 9.257-2.747.144-.055.092-.268-.063-.234l-.003-.003Z" fill="#000"/>
        <path d="M62.136 231.165c-3.075.901-6.156 1.779-9.257 2.582-3.1.803-6.328 1.161-9.182 2.391-.593.255-.302 1.306.334 1.237 3.078-.344 6.19-1.586 9.185-2.401 2.995-.814 6.15-1.81 9.2-2.79.641-.205.373-1.21-.28-1.019Zm59.896-2.819c-2.837.127-5.742 1.057-8.478 1.782-3.803 1.008-7.58 2.129-11.363 3.212a598.66 598.66 0 0 1-11.05 3.027c-3.095.823-6.71 1.299-9.547 2.787-1.795.941-3.386 2.562-3.5 4.696-.116 2.135.865 4.544 2.208 6.196 1.272 1.56 3.087 2.423 5.104 2.16 1.39-.182 2.776-.615 4.13-.962 6.896-1.773 13.751-3.76 20.56-5.848 4.163-1.277 8.354-2.456 12.502-3.775 2.891-.919 6.199-1.569 8.849-3.068.489-.277.313-1.216-.305-1.135-2.402.312-4.729 1.265-7.054 1.935a3064.66 3064.66 0 0 0-9.832 2.854c-6.887 2.007-13.817 3.896-20.741 5.777-2.4.652-4.787 1.36-7.195 1.975-2.407.615-4.18-.153-5.402-2.426-.572-1.06-1.087-2.458-.995-3.68.106-1.392 1.22-2.412 2.353-3.064 2.692-1.548 6.121-2.141 9.093-3.013 3.349-.985 6.694-1.99 10.054-2.931 3.99-1.118 7.997-2.187 11.967-3.374 2.88-.858 6.006-1.594 8.673-2.998.058-.032.032-.13-.034-.127h.003Z" fill="#000"/>
        <path d="M128.217 238.932c1.936.696 4.461-.642 5.747-2.1 1.539-1.748 2.14-4.341 1.439-6.56-.559-1.759-2.023-3.804-3.847-4.393-1.15-.372-2.393.096-3.521.353-1.199.274-2.925.283-3.788 1.218-.184.2-.086.474.149.567.875.343 1.629-.009 2.532-.208.981-.217 1.97-.491 2.963-.65 1.999-.324 3.665 1.675 4.177 3.486.512 1.811-.147 4.119-1.611 5.398-1.289 1.127-3.153 1.184-4.373 2.372-.178.173-.074.444.138.519l-.005-.002Zm-20.868-6.707-.164.19c-.175.203-.305.497-.201.772.702 1.877 1.421 3.723 2.042 5.632.575 1.77 1.096 3.466 2.011 5.095.069.124.285.075.276-.075-.106-1.857-.601-3.564-1.139-5.338-.578-1.906-1.093-3.83-1.671-5.733-.078-.251-.282-.5-.55-.552l-.313-.063c-.101-.021-.219-.006-.288.078l-.003-.006Zm-20.942 6.007c-.794-.479-2.42.081-3.233.312-1.626.457-3.228 1.069-4.816 1.641-1.28.462-2.41 1.103-3.32 2.149-1.398 1.606-1.188 3.853-.575 5.742.613 1.889 1.58 3.512 3.184 4.563 1.606 1.052 3.162.797 4.945.555 1.12-.15 2.218-.589 3.28-.956.725-.249 2.2-.393 2.425-1.277l-.423.425.02-.006c.745-.225.429-1.401-.322-1.176l-.02.006.59.156c-.567-.514-1.286-.156-1.922.017-1.018.278-2.045.509-3.064.78-.917.246-2.154.526-3.342.217-1.695-.442-2.837-2.308-3.444-3.836-.788-1.987-.733-4.055 1.096-5.413.883-.655 1.99-1.045 3.02-1.392 1.315-.442 2.65-.817 3.956-1.279.613-.217 1.657-.535 1.988-1.141a.07.07 0 0 0-.023-.093v.006ZM38.248 159.3c1.323-2.258 1.226-4.361 1.283-6.883.009-.404-.457-.522-.73-.303-2.834 2.29-5.196 5.101-7.802 7.643-2.612 2.544-5.299 5.005-8.118 7.319l1.64 1.27c2.66-4.257 4.174-9.037 6.107-13.635.978-2.325 1.99-4.648 3.161-6.88 1.03-1.962 2.563-3.865 2.463-6.19-.035-.82-1.01-1.256-1.614-.673-2.38 2.305-4.876 4.659-7.868 6.091-2.819 1.349-5.434 3.368-7.735 5.465.613.477 1.228.95 1.84 1.427 4.883-8.469 9.58-17.486 12.532-26.838.305-.968-1.093-1.872-1.77-1.034a322.88 322.88 0 0 0-7.35 9.491c-2.401 3.22-5.203 6.016-8.005 8.867l1.864 1.444c1.116-2.423 1.89-5.005 2.715-7.539.826-2.533 1.407-5.317 2.512-7.83.408-.933-.67-1.967-1.485-1.149-2.819 2.819-5.226 6.189-7.568 9.413l1.832.499c-.066-1.031.783-2.388 1.188-3.284.444-.985.84-2.377 1.514-3.203.77-.95-.576-2.319-1.355-1.36-.898 1.106-1.554 2.458-2.1 3.766-.49 1.173-1.347 2.761-1.211 4.079.097.97 1.262 1.345 1.832.499 2.129-3.168 4.404-6.461 7.206-9.066l-1.484-1.15c-2.348 4.864-3.395 10.239-5.644 15.123-.538 1.167.857 2.467 1.864 1.445 2.784-2.834 5.051-6.225 7.623-9.255 2.583-3.041 5.046-6.175 7.551-9.288l-1.769-1.034c-2.917 9.297-8.13 17.587-12.513 26.217-.587 1.158.868 2.412 1.84 1.427 2.285-2.314 4.972-4.058 7.411-6.173 1.217-1.054 2.592-1.75 3.958-2.576 1.367-.826 2.707-1.979 3.915-3.131l-1.613-.673c.077 2.259-1.934 4.65-2.874 6.64-.94 1.99-1.738 4.056-2.517 6.121-1.692 4.491-3.665 8.841-6.254 12.887-.688 1.078.777 1.965 1.64 1.271 2.91-2.336 5.724-4.797 8.339-7.463 2.615-2.666 5.086-5.24 6.775-8.457l-.783-.101c.434 2.123-.193 4.618-.59 6.706-.017.087.098.145.147.064v-.006Zm-.687-34.897c-.466-.089-.889-.095-1.36-.106-.576-.015-1.062.15-1.606.332-1.366.462-.572 2.466.777 1.851.518-.234.964-.45 1.372-.849.334-.324.63-.612.909-.994.06-.081 0-.219-.098-.239l.006.005Z" fill="#000"/>
        <path d="M36.839 124.143c-.93-.554-2.04-.147-3.05.023-1.03.174-2.036.471-3.043.746-1.556.421-3.072.964-4.563 1.574a43.291 43.291 0 0 0-4.237 1.993c-2.014 1.086-3.846 2.386-5.805 3.535-.938.552-.115 1.921.843 1.45 1.93-.95 3.961-1.745 5.926-2.654 1.4-.65 2.808-1.289 4.252-1.834 1.444-.546 2.98-1.026 4.467-1.551.926-.327 1.87-.613 2.773-1 .904-.387 2.126-.693 2.604-1.652.112-.222.06-.497-.164-.63h-.003Zm61.786 4.965c.019 0 .019-.031 0-.031-.018 0-.018.031 0 .031Zm22.659 66.155c-.072 2.698.728 5.147 1.461 7.726.734 2.579 1.519 5.372 2.411 7.995.345 1.017 1.821.61 1.602-.442-.564-2.703-1.421-5.407-2.229-8.047-.809-2.64-1.453-5.051-2.868-7.333a.204.204 0 0 0-.377.101Z" fill="#000"/>
        <path d="M125.455 209.933c-1.945.554-3.967.907-5.938 1.349-4.424.99-8.851 1.964-13.27 2.986-9.953 2.305-19.91 4.598-29.863 6.915a131.39 131.39 0 0 0-7.206 1.912c-.897.263-.515 1.675.389 1.409 1.933-.569 4.015-.751 5.983-1.184 4.427-.973 8.837-2.03 13.256-3.041 9.959-2.282 19.924-4.541 29.863-6.921 2.404-.574 4.878-1.039 7.249-1.756 1.061-.32.615-1.978-.461-1.672l-.002.003Z" fill="#000"/>
        <path d="M69.357 224.048c.02-2.891-.886-5.528-1.717-8.278-.832-2.75-1.646-5.774-2.687-8.544a.823.823 0 0 0-1.585.439c.52 2.889 1.593 5.809 2.488 8.599s1.654 5.41 3.124 7.888c.104.173.377.098.377-.101v-.003Z" fill="#000"/>
        <path d="M64.67 208.312c1.937-.546 3.982-.834 5.953-1.236 4.487-.913 8.978-1.805 13.457-2.75 10.05-2.114 20.105-4.216 30.153-6.342 2.419-.512 4.85-1.083 7.226-1.774.898-.26.515-1.672-.388-1.409.216-.064-.334.069-.541.104l-1.211.216c-1.415.249-2.836.468-4.246.748-4.488.893-8.961 1.872-13.443 2.802-10.057 2.091-20.116 4.159-30.15 6.352-2.405.525-4.908.909-7.27 1.614-1.061.318-.615 1.976.46 1.672v.003Zm2.871-124.831c-1.116 1.41-1.625 3.452-2.258 5.122a165.438 165.438 0 0 0-1.806 5.002c-.973 2.834-1.853 5.693-2.724 8.558a175.878 175.878 0 0 1-7.992 21.305c-.472 1.048 1.01 1.686 1.453.615 2.89-6.976 5.517-14.046 7.72-21.27.87-2.85 1.7-5.713 2.613-8.55a168.188 168.188 0 0 1 1.683-4.973c.63-1.765 1.694-3.709 1.864-5.577.023-.269-.38-.448-.553-.231Zm-42.371 44.14c-.598-.179-.995-.474-1.673-.552a57.785 57.785 0 0 0-2.624-.257c-2.477-.176-4.954-.352-7.43-.531-4.103-.295-8.187-.54-12.298-.627-.973-.02-.93 1.392 0 1.49 4.042.428 8.072.76 12.128 1.023 2.442.159 4.882.318 7.324.474a65.41 65.41 0 0 0 2.695.106c.702.018 1.208-.234 1.876-.343.414-.07.354-.679 0-.783h.003ZM72.694 93.55c-1.1 1.398-1.611 3.336-2.282 4.971-.67 1.635-1.329 3.25-1.985 4.876-1.018 2.524-1.979 5.069-2.934 7.619-1.585 4.231-3.161 8.454-4.855 12.642-.38.939 1.188 1.398 1.533.425 1.498-4.203 2.983-8.405 4.545-12.582.923-2.469 1.881-4.927 2.808-7.397a795.113 795.113 0 0 1 1.746-4.61c.69-1.81 1.789-3.78 1.976-5.716.026-.268-.383-.447-.552-.23v.002Zm-56.676 43.308c-.829-1.15-2.742-.875-4.025-.971-1.91-.138-3.777-.251-5.69-.164-.791.034-1.061 1.314-.198 1.461 1.795.309 3.564.457 5.382.558 1.306.072 3.483.673 4.467-.393.113-.121.17-.344.064-.491Z" fill="#000"/>
        <path d="M1.378 126.627c1.14-1.467 1.669-3.555 2.333-5.276a288.94 288.94 0 0 0 2.066-5.509c1.228-3.376 2.393-6.773 3.552-10.175 2.75-8.067 5.754-15.999 9.252-23.774.471-1.049-1.007-1.687-1.453-.615a385.807 385.807 0 0 0-8.95 23.675c-1.156 3.391-2.275 6.797-3.44 10.188a284.3 284.3 0 0 1-1.953 5.499c-.67 1.825-1.764 3.821-1.96 5.756-.025.266.383.448.553.231Z" fill="#000"/>
        <path d="M17.787 81.887c.687.121 1.317.292 1.979.48 1.19.338 2.583.288 3.811.395 3.757.33 7.526.532 11.288.786 8.265.56 16.53 1.219 24.806 1.591 2.368.107 4.738.168 7.103.318.952.06.949-1.43 0-1.49-5.662-.355-11.312-.948-16.973-1.332-8.265-.56-16.535-1.118-24.805-1.597-1.516-.087-3.075-.237-4.591-.208-.835.017-1.666.217-2.512.257-.431.02-.578.716-.106.797v.003ZM.242 126.746l-.11.167c-.164.255-.19.702 0 .954 2.092 2.767 3.939 5.554 5.57 8.644.42.795 1.562.096 1.188-.696-1.444-3.056-3.185-6.152-5.132-8.902-.24-.338-.642-.563-1.062-.433-.187.058-.342.095-.454.266Z" fill="#000"/>
        <path d="M66.618 84.302c.714 1.851 1.758 3.61 2.698 5.355.812 1.51 1.557 3.633 2.929 4.682.362.277.722-.18.673-.52-.236-1.64-1.712-3.362-2.517-4.8-.95-1.693-1.77-3.498-2.822-5.125-.308-.473-1.188-.179-.96.408Zm152.637 55.083c-1.228 1.043-2.025 2.756-2.871 4.113a232.458 232.458 0 0 0-2.612 4.298 433.332 433.332 0 0 0-4.683 8.131c-3.562 6.293-7.298 12.437-11.478 18.338-.59.831.805 1.666 1.375.805 3.972-6.016 7.695-12.2 11.248-18.473 1.542-2.724 3.046-5.465 4.594-8.183a225.541 225.541 0 0 1 2.416-4.153c.82-1.375 2.1-2.938 2.56-4.558.095-.332-.305-.514-.541-.315l-.008-.003Z" fill="#000"/>
        <path d="M198.14 173.577c-.521-.216-.946-.474-1.43-.739-.886-.485-2.036-.659-3.003-.942-2.914-.855-5.868-1.586-8.803-2.371-6.443-1.722-12.87-3.538-19.36-5.078-1.852-.439-3.702-.881-5.554-1.317-.93-.217-1.315 1.17-.395 1.436a938.387 938.387 0 0 0 32.786 8.861c1.202.3 2.488.736 3.722.858.642.063 1.272.008 1.928.089.494.061.486-.641.106-.797h.003Zm23.649-25.417c-1.228 1.042-2.025 2.755-2.871 4.113a225.985 225.985 0 0 0-2.612 4.298 442.167 442.167 0 0 0-4.683 8.13c-3.561 6.294-7.298 12.437-11.478 18.338-.59.832.805 1.667 1.375.806 3.973-6.016 7.695-12.2 11.248-18.474 1.542-2.723 3.046-5.464 4.594-8.182a228.997 228.997 0 0 1 2.416-4.154c.82-1.375 2.1-2.937 2.56-4.557.095-.333-.304-.515-.54-.315l-.009-.003Z" fill="#000"/>
        <path d="M200.674 182.355c-.52-.217-.946-.474-1.43-.739-.886-.486-2.036-.659-3.003-.942-2.914-.855-5.868-1.586-8.802-2.371-6.444-1.722-12.871-3.539-19.36-5.078-1.853-.439-3.703-.881-5.555-1.317-.929-.217-1.315 1.17-.394 1.435a936.143 936.143 0 0 0 32.785 8.862c1.203.3 2.488.736 3.722.858.642.063 1.272.008 1.928.089.495.061.486-.641.106-.797h.003Zm-41.596-17.636c1.225-1.037 2.022-2.739 2.879-4.082a323.627 323.627 0 0 0 2.635-4.208 622.154 622.154 0 0 0 4.747-7.853c3.65-6.118 7.45-12.114 11.573-17.925.589-.832-.806-1.667-1.375-.806a464.255 464.255 0 0 0-11.34 18.061c-1.568 2.625-3.101 5.271-4.658 7.905a316.195 316.195 0 0 1-2.436 4.064c-.866 1.424-2.109 2.914-2.566 4.526-.095.332.305.514.541.315v.003Z" fill="#000"/>
        <path d="M180.118 130.642c.601.249.897.433 1.369.705.834.479 1.95.641 2.868.907 2.894.838 5.822 1.56 8.734 2.325 6.515 1.716 13.014 3.532 19.575 5.066 1.893.442 3.783.884 5.676 1.329.929.216 1.315-1.17.394-1.436-10.882-3.145-21.851-6.045-32.851-8.757-1.206-.298-2.495-.728-3.729-.849-.644-.064-1.274-.006-1.93-.084-.495-.061-.489.641-.106.797v-.003Zm-21.141 33.262-.118.122a.97.97 0 0 0-.147 1.143c1.344 2.323 2.204 4.835 2.998 7.4.261.847 1.542.5 1.326-.367-.665-2.654-1.674-5.196-2.609-7.758-.133-.364-.478-.73-.907-.693-.189.018-.402.006-.546.156l.003-.003Zm38.404 9.872c-.199 1.618.52 3.071.998 4.602.512 1.64.946 3.327 1.565 4.933.359.93 1.723.586 1.507-.419-.38-1.768-1.013-3.498-1.597-5.208-.509-1.496-.817-3.001-1.97-4.121-.201-.197-.478-.035-.506.211l.003.002Z" fill="#000"/>
        <path d="M218.395 140.012c.29 1.649.874 3.278 1.372 4.875.403 1.291.647 2.863 1.55 3.888.279.315.766.049.783-.326.063-1.378-.768-2.871-1.2-4.168-.503-1.508-.894-3.079-1.49-4.552-.253-.627-1.133-.399-1.015.28v.003Zm-3.62.162c1.985-1.86 3.24-4.633 4.678-6.915 1.361-2.158 2.382-4.367 2.928-6.874.458-2.097.892-4.509.397-6.632-.466-2.004-1.74-3.711-3.265-5.046-3.567-3.119-7.816-3.986-12.343-2.79-4.356 1.153-8.113 3.686-10.641 7.438-2.788 4.136-4.356 8.971-7.06 13.165-.434.673.599 1.501 1.122.869 4.807-5.797 6.159-14.644 13.175-18.483 4.071-2.226 8.838-2.969 12.974-.557 1.787 1.043 3.412 2.481 4.284 4.396.96 2.117.543 4.587.086 6.782-.544 2.62-1.674 4.959-2.92 7.307-1.246 2.349-3.075 4.497-4.05 6.964-.15.376.379.607.63.37l.005.006Z" fill="#000"/>
        <path d="M208.715 138.322c1.717-1.574 2.994-3.899 4.194-5.88 1.102-1.823 2.062-3.793 2.448-5.904.592-3.275-.213-7.357-3.938-8.113-3.754-.76-6.435 1.958-8.579 4.638a70.892 70.892 0 0 0-3.823 5.225 77.551 77.551 0 0 0-1.947 3.114c-.555.939-1.252 1.886-1.476 2.96-.121.575.567 1.046 1.016.593 1.15-1.164 1.829-2.975 2.683-4.376a87.843 87.843 0 0 1 3.03-4.598c1.884-2.684 4.102-6.381 7.781-6.473 1.781-.044 3.328.858 3.826 2.631.541 1.927-.026 3.844-.734 5.644-.707 1.799-1.754 3.472-2.554 5.248-.754 1.672-1.732 3.388-2.086 5.202-.017.092.087.159.159.092v-.003ZM60.376 85.05c1.827-2.773 2.75-6.282 3.92-9.367 1.094-2.877 1.842-5.707 1.965-8.798.107-2.683.078-5.788-.998-8.295-.877-2.051-2.465-3.677-4.3-4.899-2.34-1.557-5.127-2.588-7.92-2.845-2.966-.274-5.747.607-8.394 1.883-5.031 2.427-8.95 6.412-11.113 11.582-2.382 5.69-3.144 11.92-5.517 17.622-.314.754.93 1.26 1.306.552 4.562-8.547 4.03-19.944 12.398-26.194 2.14-1.6 4.658-2.952 7.241-3.66 3.055-.837 6.32-.277 9.174 1 2.071.927 4.027 2.313 5.25 4.268 1.424 2.276 1.487 5.116 1.478 7.73-.011 3.286-.794 6.32-1.737 9.442-.944 3.122-2.673 6.374-3.44 9.684-.099.425.454.653.69.292l-.003.003Z" fill="#000"/>
        <path d="M52.617 84.293c1.496-2.314 2.42-5.147 3.36-7.732.941-2.585 1.73-5.208 1.758-7.963.043-4.136-1.841-9-6.6-8.977-4.665.023-7.205 3.945-9.135 7.657a89.5 89.5 0 0 0-5.04 11.59c-.432 1.22-1.027 2.496-1.07 3.799-.02.63.82.797 1.13.306.604-.95.837-2.134 1.2-3.197a96.31 96.31 0 0 1 1.096-3.056 100.502 100.502 0 0 1 2.876-6.82c1.686-3.63 3.562-8.278 8.012-8.994 2.212-.355 4.191.517 5.175 2.594 1.099 2.322.834 5 .337 7.443-.467 2.294-1.3 4.489-1.864 6.756-.564 2.267-1.27 4.324-1.413 6.545-.006.098.13.121.175.05h.003Zm133.19 64.777c2.742-1.211 5.644-1.808 8.636-1.823l-.621-1.086-9.982 14.139c-.535.759.71 1.481 1.242.727l9.983-14.138c.322-.456-.113-1.089-.622-1.086-3.259.017-6.38.705-9.363 2.022-.846.372-.115 1.617.725 1.248l.002-.003Zm-68.85-110.363c.751 2.186 2.388 4.2 3.573 6.175a307.453 307.453 0 0 1 3.325 5.684c2.152 3.758 4.243 7.553 6.378 11.322 4.867 8.599 9.968 17.065 15.45 25.282.57.855 1.962.032 1.376-.806-5.693-8.102-10.808-16.527-15.684-25.143-2.135-3.77-4.266-7.538-6.47-11.267a324.7 324.7 0 0 0-3.403-5.638c-1.153-1.866-2.33-4.341-4.004-5.921-.222-.208-.65-.006-.541.314v-.002Z" fill="#000"/>
        <path d="M146.837 86.197a22.752 22.752 0 0 1 2.204-.223c1.395-.087 2.854-.63 4.211-.962 4.065-.99 8.101-2.111 12.149-3.177 8.845-2.328 17.72-4.566 26.517-7.07 2.505-.714 5.002-1.48 7.522-2.138.924-.242.532-1.678-.394-1.435-6.147 1.608-12.335 3.047-18.482 4.664-8.846 2.331-17.695 4.656-26.521 7.065-1.633.445-3.345.832-4.942 1.407-.845.303-1.631.77-2.482 1.089-.495.182-.297.863.216.782l.002-.002ZM113.474 50.76c.75 2.186 2.387 4.2 3.572 6.175a302.045 302.045 0 0 1 3.326 5.684c2.152 3.758 4.243 7.553 6.377 11.322 4.868 8.599 9.968 17.065 15.451 25.282.57.855 1.962.032 1.375-.806-5.693-8.102-10.808-16.527-15.684-25.143-2.134-3.77-4.266-7.538-6.469-11.267a331.466 331.466 0 0 0-3.403-5.638c-1.154-1.866-2.33-4.341-4.005-5.921-.221-.208-.65-.006-.54.315v-.003Z" fill="#000"/>
        <path d="M143.354 98.25a22.795 22.795 0 0 1 2.203-.223c1.395-.087 2.854-.63 4.212-.962 4.064-.99 8.1-2.111 12.148-3.177 8.845-2.328 17.72-4.566 26.517-7.07 2.505-.714 5.002-1.48 7.522-2.138.924-.243.533-1.678-.394-1.436-6.147 1.61-12.335 3.048-18.482 4.665-8.846 2.331-17.695 4.656-26.52 7.065-1.634.445-3.346.832-4.943 1.407-.845.303-1.631.77-2.482 1.089-.495.181-.296.863.216.782l.003-.003Zm57.499-25.55c-.74-2.176-2.388-4.18-3.585-6.13a499.94 499.94 0 0 1-3.354-5.563c-2.163-3.639-4.295-7.298-6.464-10.935-4.991-8.362-10.172-16.617-15.58-24.715-.57-.855-1.962-.032-1.375.806 5.612 7.98 10.813 16.2 15.813 24.576 2.172 3.637 4.341 7.273 6.556 10.884a501.872 501.872 0 0 0 3.432 5.516c1.217 1.927 2.342 4.31 4.016 5.875.221.208.65.006.541-.315Z" fill="#000"/>
        <path d="M171.079 25.368c-.748.119-1.458.174-2.209.22-1.398.084-2.86.624-4.22.95-4.074.98-8.118 2.085-12.174 3.137-8.864 2.299-17.758 4.508-26.575 6.987-2.512.704-5.014 1.458-7.537 2.12-.924.242-.532 1.678.394 1.435 6.153-1.609 12.361-3.012 18.517-4.612 8.863-2.302 17.732-4.599 26.575-6.979 1.637-.442 3.354-.823 4.951-1.392.845-.3 1.634-.768 2.485-1.083.495-.182.296-.864-.216-.783h.009Zm28.844 46.601-.236.006c-.307.008-.676.167-.814.467-1.585 3.49-2.876 7.285-3.834 11.002-.222.864 1.07 1.219 1.326.367 1.093-3.64 2.474-7.022 4.134-10.416.138-.282.204-.675 0-.953-.147-.199-.288-.482-.576-.473ZM146.958 85.39c-.668.928-1.03 1.503-1.413 2.594a260.75 260.75 0 0 0-1.182 3.452c-.736 2.2-1.556 4.434-2.051 6.704-.219 1.002 1.154 1.352 1.507.419.829-2.175 1.41-4.469 2.109-6.69.337-1.069.682-2.137 1.033-3.203.382-1.161.489-1.935.549-3.125.017-.32-.394-.37-.552-.15Z" fill="#000"/>
        <path d="M117.558 38.834c-.797 1.987-1.303 4.124-1.973 6.16-.322.98-.653 1.956-.99 2.932-.336.976-.797 1.831-.748 2.83.018.373.504.642.783.327 1.208-1.363 1.545-3.766 2.085-5.482.665-2.117 1.467-4.295 1.859-6.484.121-.676-.763-.91-1.016-.28v-.003Zm6.867-.006c-1.447-3.094-3.636-5.863-5.304-8.847-1.565-2.799-3.061-5.67-3.91-8.778-.762-2.798-1.516-6.184-.995-9.083.52-2.9 2.249-5.116 4.39-6.849 2.462-1.993 5.552-3.489 8.73-3.757 3.179-.269 6.223.595 9.033 1.695 5.541 2.166 9.346 6.435 12.163 11.562 2.804 5.11 4.913 10.537 8.601 15.109.509.63 1.576-.197 1.122-.87-3.294-4.898-5.345-10.461-8.256-15.573-2.911-5.113-7.094-9.283-12.747-11.542-3.058-1.222-6.602-2.146-9.919-1.837-3.08.286-6 1.574-8.494 3.382-2.244 1.626-4.249 3.709-5.322 6.308-1.139 2.761-.809 5.676-.366 8.556.573 3.723 1.793 7.246 3.749 10.461 2.131 3.506 4.099 7.527 6.93 10.522.31.33.768-.087.592-.46h.003Z" fill="#000"/>
        <path d="M132.238 36.728c-1.45-5.026-4.784-9.364-6.648-14.234-.895-2.333-1.568-4.794-1.076-7.298.538-2.739 2.563-4.336 5.284-4.417 5.023-.144 8.095 4.59 10.705 8.206a115.888 115.888 0 0 1 4.43 6.597 97.318 97.318 0 0 1 1.898 3.183c.613 1.072 1.154 2.34 2.011 3.293.42.468 1.159-.03 1.016-.593-.553-2.166-2.204-4.297-3.378-6.175a94.836 94.836 0 0 0-4.004-5.93c-2.376-3.232-4.931-7.24-8.696-8.96-2.819-1.284-6.663-1.192-8.895 1.211-2.704 2.912-2.175 8.165-.929 11.594.877 2.415 2.134 4.621 3.463 6.808 1.407 2.31 2.834 4.809 4.664 6.808.063.069.184-.003.158-.093h-.003ZM35.426 95.792c-3.834 6.695-4.073 14.626-7.065 21.645-.36.846.878 1.583 1.243.728 2.986-7.007 3.245-14.976 7.065-21.646.463-.805-.78-1.536-1.243-.727Z" fill="#000"/>
        <path d="M23.045 102.929a69.138 69.138 0 0 0 22.027 5.71c.92.081.918-1.363 0-1.444a67 67 0 0 1-21.299-5.511c-.84-.373-1.57.872-.725 1.248l-.003-.003Z" fill="#000"/>
        <path d="M40.927 99.558c-5.135 3.218-10.273 6.435-15.408 9.656-.782.491-.063 1.741.725 1.247 5.135-3.217 10.273-6.435 15.408-9.655.782-.491.063-1.742-.725-1.248Z" fill="#000"/>
        <path d="M27.9 99.145a140.724 140.724 0 0 0 10.54 14.794c.588.719 1.6-.306 1.02-1.023a137.252 137.252 0 0 1-10.317-14.502c-.486-.788-1.731-.063-1.242.728v.003Zm168.75-81.639c-.993 1.571-2.169 3.059-3.412 4.442-1.243 1.384-2.6 2.479-3.771 3.827-.627.723-.334 1.679.529 2.01 1.988.769 3.374 2.918 4.381 4.68 1.07 1.871 1.91 3.853 2.713 5.849l2.203-.61c-.837-2.111.613-4.419 1.827-6.071 1.289-1.753 2.952-3.313 4.64-4.673h-1.424l.078.135 1.28-.337c-2.966-1.468-7.937-4.197-6.766-8.226.219-.757-.742-1.271-1.286-.752-1.916 1.832-1.179 4.52.348 6.358 1.815 2.18 4.381 3.425 6.982 4.335.498.173.995-.2 1.151-.655.253-.754.204-1.401-.205-2.086-.287-.482-.894-.62-1.377-.364-4.206 2.25-9.965 8.047-7.336 13.22.682 1.343 2.54.165 1.973-1.158-.966-2.253-1.947-4.54-3.311-6.588-1.363-2.048-2.951-3.498-4.709-5.07l-.241 1.89c3.575-1.837 5.79-5.962 6.886-9.668.21-.707-.779-1.089-1.159-.49l.006.002Zm15.657 22.134c-.618.19-.975.643-1.403 1.106-.541.583-1.079 1.008-1.744 1.438-1.357.881-.52 3.148 1.128 2.683.702-.199.998 1.904 1.07 2.256.23 1.115 2.045 1.421 2.534.332.21-.468 1.082-2.651 1.767-2.47.799.212 1.568-.889.86-1.481-1.211-1.014-2.132-1.97-2.793-3.437-.662-1.467-2.586-.332-2.374 1.005.167 1.048.231 1.86.691 2.84.506 1.074 2.315.314 1.921-.815-.166-.477-.46-1.205-.238-1.713h-2.241c.727 1.716 2.301 3.264 4.174 3.605l.469-1.71c-1.022-.162-1.68-.19-2.595.346-.987.578-1.542 1.41-2.037 2.43l2.535.332c-.478-2.3-1.603-4.215-4.134-4.4l.739 2.736c1.436-.67 3.639-3.09 2.445-4.763-.175-.245-.469-.413-.776-.318l.002-.003ZM75.22 210.643c-.734-1.222-2.172-.979-3.01.015-.952 1.132-1.098 2.868-.696 4.248.91 3.12 4.712 4.807 7.025 2.025.59-.708-.423-1.736-1.018-1.022-1.162 1.398-2.946 1.259-4.013-.185a3.784 3.784 0 0 1-.734-1.912 3.32 3.32 0 0 1 .04-1.04c.03-.142.7-2.169 1.16-1.401.46.768 1.72.069 1.243-.728h.002Zm4.326-1.441c-1.786.734-2.399 2.622-1.743 4.402.57 1.548 1.97 3.362 3.832 2.954 1.674-.366 2.614-2.03 2.344-3.676-.337-2.048-2.051-3.244-3.837-3.975-.858-.349-1.229 1.046-.383 1.392.846.347 1.686.815 2.25 1.569.595.797.92 2.14.057 2.897-1.945 1.707-4.536-3.186-2.134-4.171.845-.347.474-1.744-.383-1.392h-.003Zm7.462 5.023a14.234 14.234 0 0 1-1.433-6.011l-1.081.624c1.32.965 2.638 1.935 3.96 2.897.95.693 1.836 1.337 3.059 1.303a.73.73 0 0 0 .621-1.086c-.86-1.557-1.237-3.186-1.174-4.96.026-.762-.96-.918-1.34-.364l-.213.312c-.526.769.72 1.491 1.243.728l.213-.312-1.34-.364c-.073 2.028.39 3.917 1.368 5.69l.622-1.086c-1.197.035-2.293-1.077-3.21-1.75l-3.082-2.253c-.448-.326-1.093.113-1.081.624a15.967 15.967 0 0 0 1.63 6.738c.407.835 1.646.104 1.244-.727l-.006-.003Zm5.932-6.655c1.668-.286 3.337-.575 5.002-.861.912-.156.524-1.548-.382-1.392-1.669.286-3.337.575-5.003.861-.912.156-.523 1.548.383 1.392Z" fill="#000"/>
        <path d="M94.208 207.142a21.219 21.219 0 0 0 2.293 5.22c.483.791 1.729.066 1.243-.728a19.764 19.764 0 0 1-2.15-4.873c-.255-.892-1.645-.511-1.386.384v-.003Zm4.77-1.218a7100.18 7100.18 0 0 1 2.244 5.306c.359.852 1.599.118 1.242-.728-.748-1.768-1.496-3.536-2.243-5.306-.36-.852-1.6-.119-1.243.728Zm5.989 3.899c-.785-1.531-1.527-3.059-1.964-4.731l-1.203.702c2.319 1.929 4.977 3.243 7.931 3.856.512.106 1.059-.333.886-.89a69.31 69.31 0 0 0-1.858-5.251c-.34-.852-1.732-.479-1.387.384a72.047 72.047 0 0 1 1.859 5.251l.886-.889c-2.705-.561-5.167-1.716-7.296-3.487-.532-.442-1.395-.04-1.202.702.469 1.794 1.266 3.434 2.108 5.075.423.826 1.666.098 1.243-.728l-.003.006Zm5.181-6.149c.394 2.004 2.192 6.62 5.02 4.763.201-.133.377-.367.357-.624a15.899 15.899 0 0 0-1.387-5.283c-.385-.844-1.625-.11-1.243.728a13.714 13.714 0 0 1 1.191 4.552l.357-.624c-1.64 1.074-2.71-2.894-2.908-3.899-.179-.91-1.565-.526-1.387.384v.003Zm5.187-.587c1.015 1.577-.086 3.692 1.369 5.179.489.497 1.145.734 1.835.607.878-.162 1.41-.922 2.224-1.208.869-.303.495-1.701-.382-1.392-.607.214-1.025.584-1.56.919-.799.497-1.32.029-1.536-.835-.345-1.378.112-2.721-.707-3.997-.501-.777-1.747-.055-1.243.727Z" fill="#000"/>
        <path d="M116.914 205.895c.898-.378 1.795-.757 2.693-1.132.359-.153.61-.477.503-.89-.089-.341-.526-.656-.886-.505-.897.378-1.795.756-2.692 1.132-.36.153-.61.476-.504.889.089.341.527.656.886.506Zm-.544-3.224a42.101 42.101 0 0 0 3.009-1.478c.814-.442.089-1.69-.725-1.248a41.707 41.707 0 0 1-3.009 1.479c-.845.375-.115 1.617.725 1.247ZM9.157 151.167c.891 2.611 1.438 5.369 2.16 8.032.722 2.663 1.588 5.514 2.341 8.284 1.485 5.45 2.802 10.947 4.511 16.331.227.713 1.2.407 1.093-.304-.84-5.606-2.382-11.053-4.082-16.452-.837-2.648-1.668-5.311-2.658-7.908-.99-2.597-2.327-5.294-3.337-7.995-.005-.017-.034-.008-.028.009v.003Zm78.101-45.168c-.618.191-.975.644-1.404 1.106-.54.584-1.079 1.008-1.743 1.439-1.358.881-.52 3.148 1.128 2.683.702-.199.998 1.903 1.07 2.256.23 1.115 2.045 1.421 2.534.332.21-.468 1.082-2.652 1.766-2.47.8.211 1.568-.889.86-1.481-1.21-1.014-2.131-1.97-2.793-3.438-.661-1.467-2.586-.332-2.373 1.006.167 1.048.23 1.86.69 2.839.507 1.074 2.316.315 1.922-.815-.167-.476-.46-1.204-.239-1.712h-2.24c.727 1.715 2.3 3.263 4.173 3.604l.47-1.71c-1.022-.161-1.68-.19-2.595.347-.987.578-1.542 1.409-2.037 2.429l2.534.332c-.477-2.299-1.602-4.214-4.133-4.399l.739 2.735c1.435-.67 3.639-3.09 2.445-4.762-.175-.246-.469-.413-.777-.318l.003-.003Z" fill="#000"/>
        <path d="m168.775 222.321 28.603 39.865-3.136 11.951-49.28 15.508-28.313-40.275 3.435-10.866 6.171-2.007 42.52-14.176Z" fill="#77CD77"/>
        <path d="M157.064 224.958s-12.094-19.242-19.156-22.35c-7.062-3.108-15.18-1.138-18.799 2.475-3.622 3.616-5.256 9.722-3.026 15.187 2.229 5.465 9.763 16.556 9.763 16.556s8.809-2.597 8.564-2.961c-.244-.364-9.527-12.564-9.944-15.637-.415-3.073.995-7.377 3.943-8.197 2.949-.82 6.953.095 10.742 4.402 3.786 4.309 9.631 13.985 9.631 13.985l8.282-3.463v.003Z" fill="#77CD77"/>
        <path d="M118.122 238.244c.739 1.958 2.437 3.72 3.631 5.433a293.724 293.724 0 0 1 3.506 5.144c2.048 3.073 4.053 6.175 6.093 9.254a382.802 382.802 0 0 0 15.439 21.671c.696.907 1.982-.063 1.249-.967-5.642-6.961-10.814-14.217-15.759-21.689-2.042-3.088-4.09-6.169-6.193-9.217a293.601 293.601 0 0 0-3.619-5.121c-1.226-1.692-2.284-3.656-3.872-4.872-.219-.168-.573.112-.475.367v-.003Z" fill="#000"/>
        <path d="M147.867 278.802c.719-.159 1.412-.254 2.137-.35 1.309-.173 2.641-.771 3.898-1.167 3.774-1.19 7.511-2.507 11.262-3.769 8.285-2.79 16.61-5.491 24.835-8.454 2.333-.84 4.657-1.733 7.007-2.522.901-.303.515-1.741-.394-1.435-5.768 1.932-11.587 3.694-17.352 5.638-8.273 2.79-16.561 5.557-24.805 8.437-1.534.534-3.191.993-4.658 1.692-.762.364-1.461.835-2.241 1.19-.434.2-.115.838.311.743v-.003Zm-32.288-28.875c.737 1.95 2.437 3.703 3.642 5.398a538.252 538.252 0 0 1 3.538 5.038c2.066 2.977 4.111 5.967 6.188 8.936 5.031 7.186 10.244 14.242 15.583 21.198.696.907 1.982-.064 1.249-.968-5.573-6.871-10.831-13.954-15.903-21.203a860.05 860.05 0 0 0-6.288-8.902 464.604 464.604 0 0 0-3.651-5.02c-1.228-1.667-2.295-3.628-3.883-4.841-.219-.167-.573.113-.475.367v-.003Z" fill="#000"/>
        <path d="M145.324 290.485c.719-.159 1.412-.254 2.137-.349 1.309-.174 2.641-.772 3.898-1.167 3.774-1.19 7.511-2.507 11.262-3.77 8.285-2.79 16.61-5.49 24.835-8.454 2.333-.84 4.657-1.733 7.007-2.521.901-.303.515-1.742-.394-1.436-5.767 1.933-11.587 3.695-17.352 5.638-8.273 2.79-16.561 5.558-24.805 8.437-1.534.535-3.191.994-4.658 1.693-.762.364-1.461.834-2.241 1.19-.434.199-.115.837.311.742v-.003Zm51.798-28.75c-.731-1.935-2.405-3.674-3.59-5.367a298.414 298.414 0 0 1-3.392-4.95c-1.933-2.883-3.826-5.794-5.751-8.68-4.74-7.108-9.734-14.04-14.929-20.819-.694-.907-1.983.067-1.249.968 5.431 6.692 10.454 13.642 15.235 20.813 1.93 2.897 3.866 5.791 5.854 8.651a291.26 291.26 0 0 0 3.507 4.936c1.185 1.632 2.264 3.613 3.84 4.815.221.167.572-.113.475-.367Z" fill="#000"/>
        <path d="M168.665 221.931c-.719.159-1.412.254-2.137.349-1.309.174-2.641.771-3.898 1.167-3.774 1.19-7.511 2.507-11.262 3.769-8.285 2.791-16.61 5.491-24.835 8.455-2.333.84-4.657 1.733-7.007 2.521-.901.303-.515 1.742.394 1.436 5.768-1.933 11.587-3.695 17.352-5.638 8.273-2.791 16.561-5.558 24.806-8.437 1.533-.535 3.19-.994 4.657-1.693.762-.364 1.461-.835 2.241-1.19.434-.199.115-.837-.311-.742v.003Zm28.822 39.882-.202.02c-.451.046-.747.269-.906.693-1.251 3.342-2.197 6.967-2.853 10.482-.161.864 1.124 1.242 1.326.367.825-3.596 1.953-6.952 3.34-10.349.129-.318-.041-.682-.242-.919-.118-.135-.253-.317-.463-.297v.003Zm-49.537 16.163c-1.145 1.594-1.392 3.463-1.792 5.372-.4 1.909-.886 3.966-1.174 5.959-.141.973 1.206 1.412 1.508.419.584-1.927.86-3.966 1.231-5.945.371-1.978.949-3.723.78-5.655-.026-.303-.377-.396-.553-.15Z" fill="#000"/>
        <path d="M118.709 238.302c-.633 1.943-.981 4.006-1.49 5.99a174.12 174.12 0 0 1-.719 2.712c-.259.95-.679 1.895-.567 2.883.038.338.509.678.783.326 1.116-1.45 1.294-3.824 1.717-5.586.486-2.03 1.079-4.107 1.309-6.184.069-.615-.857-.679-1.033-.141Zm8.247-1.265c-1.524-2.816-3.765-5.274-5.517-7.955-1.686-2.576-3.328-5.254-4.344-8.179-.88-2.531-1.746-5.575-1.568-8.275.179-2.701 1.764-5.269 3.772-7.117 2.108-1.944 4.746-3.475 7.571-4.032 3.075-.604 6.412.063 9.352 1.025 5.239 1.713 9.045 5.436 11.976 10.002 3.017 4.7 5.373 9.777 9.199 13.905.645.696 1.557-.307 1.01-1.014-3.452-4.477-5.736-9.696-8.877-14.372-3.142-4.677-7.526-8.388-13.138-10.092-2.917-.887-6.182-1.456-9.22-.971-3.038.485-5.549 1.898-7.81 3.746-2.042 1.673-3.809 3.81-4.675 6.337-.955 2.788-.397 5.722.256 8.518.794 3.388 2.161 6.557 4.169 9.396 2.244 3.174 4.367 6.912 7.255 9.54.316.286.802-.072.592-.459l-.003-.003Z" fill="#000"/>
        <path d="M134.229 234.533c-1.58-4.509-4.827-8.327-6.939-12.591-1.084-2.192-1.996-4.56-1.789-7.044.227-2.721 1.939-4.532 4.637-4.835 4.795-.538 8.017 3.76 10.747 7.044a107.072 107.072 0 0 1 4.666 6.025 97.505 97.505 0 0 1 2.066 2.993c.67 1.011 1.193 2.082 2.045 2.891.423.401 1.202.009 1.015-.592-.63-2.002-2.335-3.925-3.552-5.612a93.862 93.862 0 0 0-3.924-5.087c-2.503-3.001-5.256-6.761-8.984-8.275-2.793-1.135-6.533-.843-8.567 1.612-2.356 2.842-1.645 7.645-.356 10.791.955 2.322 2.33 4.373 3.754 6.424 1.504 2.166 3.095 4.546 5.025 6.348.064.061.19 0 .158-.092h-.002Zm26.718 4.551a153.953 153.953 0 0 0-7.105 22.584c-.21.904 1.176 1.291 1.386.384a153.187 153.187 0 0 1 7.106-22.583c.345-.861-1.044-1.237-1.387-.385Z" fill="#000"/>
        <path d="M148.442 247.232a120.22 120.22 0 0 1 19.97 8.275c.82.431 1.548-.817.725-1.247a122.528 122.528 0 0 0-20.312-8.42c-.886-.277-1.266 1.118-.383 1.392Z" fill="#000"/>
        <path d="M153.534 242.75a193.416 193.416 0 0 0 7.413 16.683c.417.829 1.66.098 1.243-.728a188.562 188.562 0 0 1-7.269-16.339c-.334-.855-1.723-.483-1.387.384Z" fill="#000"/>
        <path d="M151.59 252.449a43.171 43.171 0 0 0 14.136-6.187c.765-.514.046-1.765-.725-1.248a42.044 42.044 0 0 1-13.791 6.04c-.9.213-.518 1.606.383 1.392l-.003.003Zm43.405-7.438c.556 5.589 5.46 9.419 8.285 13.896.648 1.025 1.361 2.111 1.893 3.194.817 1.673.026 3.594-.739 5.165-1.962 4.035-3.953 8.015-5.693 12.154-.273.653.601 1.227.978.575 2.241-3.902 4.548-7.903 6.242-12.082.36-.893.711-1.837.806-2.802.066-.676-.069-1.334-.066-2.016.008-1.314.103-2.588-.452-3.818-2.46-5.454-8.371-8.483-10.089-14.422-.178-.618-1.234-.534-1.165.159v-.003ZM155.352 42.805c-3.679-.43-7.79 1.77-8.909 5.465-.538 1.776.032 3.518 1.487 4.641 1.671 1.289 3.792 1.332 5.768.835 3.299-.832 8.078-3.174 7.45-7.316-.575-3.807-5.074-5.052-7.772-2.547-.682.632.336 1.652 1.018 1.022 2.52-2.337 6.547.358 5.054 3.567-1.07 2.3-4.323 3.541-6.633 4-1.493.298-3.162.16-4.307-.953-1.28-1.245-.845-3.004.078-4.34 1.513-2.193 4.183-3.23 6.769-2.927.918.107.909-1.337 0-1.444l-.003-.003Z" fill="#000"/>
        <path d="M156.428 51.505c-2.089.268-3.553 1.548-4.652 3.301-1.266 2.019-2.353 4.653-2.649 7.013-.561 4.471 2.862 8.734 7.145 9.673 4.822 1.054 9.637-1.436 12.281-5.465 2.324-3.54 4.203-10.002.463-13.249-2.085-1.81-5.158-2.385-7.833-2.47-3.029-.094-6.001.63-8.702 1.982-.829.416-.101 1.661.725 1.248 2.482-1.242 5.201-1.869 7.977-1.785 2.477.075 5.745.615 7.428 2.651 1.682 2.037 1.035 5.494.201 7.857-.834 2.363-2.442 4.783-4.637 6.259-4.324 2.914-10.725 2.207-13.043-2.903-1.226-2.698-.308-5.395.797-7.963.851-1.982 2.134-4.408 4.499-4.711.906-.115.917-1.563 0-1.444v.006ZM45.227 138.553c1.855 4.746 3.915 9.393 5.96 14.061a.35.35 0 0 0 .311.179c1.427-.156 2.871-.249 4.31-.165 1.544.092 3.037.5 4.568.685 1.145.138 2.171.023 3.282-.252.765-.19 2.353-.303 2.92-.898.52-.546.192-1.184-.038-1.791-.52-1.386-1.07-2.761-1.614-4.136-1.101-2.796-2.298-5.548-3.342-8.367-.13-.347-.394-.578-.771-.59-2.425-.08-4.868.012-7.293.084-1.188.035-2.373.072-3.56.113-1.359.046-2.93.505-4.25.248-1.13-.219-1.056 1.583 0 1.312 1.332-.344 2.874.028 4.25.011 1.187-.017 2.372-.029 3.56-.04 2.428-.021 4.868.003 7.293-.122l-.69-.398c1.605 3.417 2.971 6.949 4.395 10.444.302.742.52 1.629.935 2.311.423-.162.454-.188.092-.075l-.742.208-.993.277c-2.016.575-3.616.416-5.67.167-1.585-.19-3.187-.121-4.772.049-1.162.125-1.597.278-2.097-.909-.386-.913-.768-1.826-1.148-2.739a233.823 233.823 0 0 0-4.381-9.892c-.135-.289-.636-.081-.518.219l.003.006Zm37.596 2.328c-.208-.965-.544-1.866-.941-2.767-.055-.127-.228-.214-.363-.208-2.62.133-5.241-.188-7.867-.234-1.326-.023-2.667-.112-3.99-.084a48.93 48.93 0 0 0-1.913.081c-.351.021-1.08.257-1.413.182-1.133-.251-1.053 1.615 0 1.312.314-.09.849.08 1.18.092.632.02 1.268.014 1.901.009 1.41-.009 2.822-.133 4.235-.182 2.626-.09 5.247-.425 7.867-.338l-.402-.309c.322.93.69 1.814 1.188 2.663.166.286.584.092.517-.22v.003Z" fill="#000"/>
        <path d="M65.856 138.677a91.524 91.524 0 0 0 2.41 6.3c.99 2.328 1.78 4.696 2.652 7.068.084.222.294.447.556.424 2.013-.182 4.033-.759 6.06-.699 1.103.032 2.181.332 3.292.318 1.007-.014 2.097-.384 3.084-.237.986.147 3.21 1.034 3.256-.765.026-1-.73-2.23-1.09-3.14-.265-.679-.507-1.378-.806-2.039-.33-.728-.76-1.196-.874-2.031-.136-.956-1.824-.346-1.24.526.624.927.889 2.663 1.266 3.723.184.514.362 1.028.55 1.54.091.254.186.511.281.765.02.549.158.656.417.318.397-.24.288-.321-.33-.24l-.766-.121c-.305-.041-.604-.081-.915-.067-.805.038-1.593.275-2.413.304-1.657.057-3.262-.33-4.92-.153-1.688.181-3.33.609-5.008.863l.65.266c-1.907-4.362-3.587-8.83-5.6-13.139-.136-.289-.622-.087-.518.219l.006-.003Zm39.286 11.897c-1.317-4.141-2.825-8.2-4.329-12.278-.052-.144-.184-.283-.354-.268a22.078 22.078 0 0 1-6.823-.52c-1.148-.269-2.29-.564-3.478-.419-.996.121-2.463.335-3.357.791-.48.246-.676.532-.619 1.095.132 1.248.91 2.651 1.332 3.83 1.05 2.92 2.198 5.797 3.182 8.74.115.347.414.601.788.601 2.163.014 4.35-.148 6.51-.257 1.064-.052 2.129-.107 3.193-.171 1.133-.066 2.356-.534 3.475-.332 1.185.217.995-1.638 0-1.311-1.108.361-2.327.037-3.475.078-1.064.037-2.129.069-3.193.098-2.16.058-4.356.049-6.51.257l.705.407c-1.456-3.295-2.658-6.704-3.927-10.077-.147-.393-.245-.994-.5-1.335l-.2-.534c-.422.182-.462.223-.12.116.65-.038 1.38-.373 2.008-.535 1.743-.456 3.202.003 4.936.217 1.177.144 2.382.139 3.565.104.563-.017 1.263-.159 1.823-.069.51.08.4.017.613.502.19.431.317.901.472 1.346 1.176 3.394 2.39 6.747 3.731 10.078.132.329.659.205.547-.151l.005-.003Zm-41.694 23.728c1.274-.063 2.603-.029 3.852.231.88.182 1.697.431 2.606.312 1.018-.136 2.008-.583 2.972-.921.402-.142 1.156-.237 1.392-.688.264-.511-.305-1.374-.472-1.787-.48-1.185-.946-2.366-1.386-3.565a307.967 307.967 0 0 0-2.94-7.749c-.104-.26-.323-.497-.627-.48-4.853.249-9.706.754-14.56.933-.48.018-.865.471-.724.956.679 2.375 1.487 4.708 2.304 7.039.544 1.554.97 3.244 1.688 4.723.377.777.559 1.481.82 2.258.28.826 1.588.471 1.306-.361-1.438-4.263-2.896-9.525-4.666-14.06l-.724.956c4.812-.633 9.717-.768 14.558-1.138l-.563-.324c.825 1.855 1.625 3.724 2.476 5.566.46.994.912 1.99 1.347 2.995.342.798 1.265 2.34 1.271 3.209.006 1.283-4.085 1.655-5.092 1.468-1.68-.315-3.13-.35-4.838-.139-.351.043-.374.586 0 .569v-.003Zm30.522-3.024c-1.41-4.104-2.992-8.122-4.583-12.163-.08-.208-.239-.289-.457-.26-2.618.361-5.124-.06-7.727.116-2.25.153-4.321.491-6.478 1.17-.556.173-1.088.3-1.183.956-.147 1.034.869 2.64 1.234 3.587 1.18 3.067 2.489 6.086 3.608 9.173.112.312.397.601.756.578 2.376-.139 4.741-.572 7.085-.988 1.26-.225 2.52-.459 3.78-.679 1.26-.219 2.414-.785 3.66-.647.986.11.78-1.698-.182-1.337-1.11.419-2.284.231-3.434.402-1.263.187-2.52.392-3.78.592-2.446.387-4.89.742-7.339 1.106l.886.361c-1.642-3.515-3.012-7.178-4.45-10.782-.058-.145-.595-1.335-.593-.979-.247.107-.227.107.064.005l.702-.216c.768-.237 1.533-.532 2.315-.714 1.214-.283 2.494-.381 3.731-.517 1.32-.144 2.587-.072 3.91-.124.846-.032 1.694-.208 2.537-.219.998-.015 1.004.595 1.332 1.479 1.289 3.474 2.626 6.905 4.08 10.314.126.294.62.083.517-.22l.008.006Zm-.45-12.351c1.353 4.061 2.909 8.027 4.457 12.019.077.196.235.289.445.254 2.5-.43 4.876-.04 7.373-.167 1.698-.087 3.869-.33 5.337-1.266.463-.294.549-.603.489-1.123-.127-1.075-.774-2.305-1.14-3.33-.909-2.559-1.947-5.072-2.764-7.663-.104-.329-.406-.586-.762-.584-2.089.032-4.18.208-6.26.367-1.01.078-2.02.159-3.026.243-1.154.095-2.55.632-3.665.436-1.214-.214-.958 1.661 0 1.311 1.061-.387 2.307-.089 3.414-.156 1.108-.066 2.184-.124 3.277-.185 2.086-.112 4.186-.19 6.26-.427l-.682-.393c.906 2.112 1.665 4.278 2.48 6.424a219.72 219.72 0 0 1 1.412 3.818c.167.246.152.321-.04.223-.133.179-1.272.459-1.485.537-1.573.56-3.242.673-4.902.705-1.887.037-3.641.248-5.505.537l.445.254c-1.487-4.047-2.954-8.076-4.634-12.044-.124-.295-.618-.084-.518.219l-.005-.009Zm-12.078 34.75c-1.508-4.052-3.165-8.021-4.836-12.01-.084-.202-.242-.306-.463-.263-2.575.489-5.052.824-7.67.503-2.617-.321-5.382-.159-7.818 1.115-.544.283-.803.578-.685 1.236.233 1.317.967 2.695 1.332 3.998.849 3.035 1.605 6.039 2.73 8.988.106.277.374.581.708.543 2.718-.306 5.388-.852 8.06-1.424 1.39-.297 2.776-.609 4.163-.91 1.386-.3 2.77-.999 4.174-.93 1.038.052.716-1.712-.182-1.337-1.2.503-2.517.384-3.78.627-1.458.28-2.914.569-4.37.858-2.758.545-5.508 1.115-8.264 1.666l.831.338c-1.182-2.452-1.723-5.216-2.462-7.827-.363-1.274-.742-2.545-1.211-3.784-.305-.806-.573-.82.285-1.112.572-.194 1.13-.425 1.697-.627 2.109-.742 4.266-.306 6.45-.355 2.183-.049 4.17-.485 6.204-.843l-.463-.263c1.628 4.041 3.257 8.058 5.046 12.027.132.291.63.084.518-.22l.005.006Zm16.206-5.866c-.365-1.415-.874-2.732-1.438-4.081-.621-1.491-1.035-3.013-1.553-4.538-.08-.237-.308-.459-.578-.442-2.218.153-4.416.517-6.628.699-1.088.09-2.146.162-3.23.324-.51.075-1.022.147-1.526.245-.535.104-1.245.416-1.794.367-1.002-.087-.763 1.698.18 1.337.521-.199 1.278-.095 1.827-.138.512-.044 1.025-.11 1.537-.174 1.081-.132 2.131-.338 3.201-.528 2.184-.387 4.404-.578 6.594-.95l-.676-.278c.693 1.531 1.44 2.993 1.996 4.587.457 1.308.946 2.553 1.568 3.787.147.291.595.086.518-.22l.002.003Z" fill="#000"/>
        <path d="M80.604 181.231c.602 1.912 1.364 3.715 2.15 5.56.885 2.083 1.466 4.281 2.277 6.395.136.35.432.543.812.462 3.167-.667 6.328-.67 9.496-1.196.678-.112 1.349-.239 2.033-.314.409-.044 1.047-.049 1.398-.309.783-.578-.014-.902.09-1.54.253-1.571-2.12-.557-1.134.301l.153.401.808-.462c-1.884-.266-4.108.294-5.975.713-1.19.266-2.396.162-3.601.35-1.206.188-2.42.502-3.622.777l.745.303c-.883-2.082-1.988-4.064-2.8-6.175-.715-1.872-1.423-3.697-2.318-5.488-.144-.289-.612-.087-.517.219l.005.003Zm17.925-1.857c1.346 3.891 3.901 7.131 5.431 10.932.078.191.236.304.449.255 1.283-.292 2.589-.526 3.909-.489 1.16.032 2.296.336 3.461.246 1.346-.104 3.305-.708 4.413-1.45.457-.306.512-.609.451-1.129-.132-1.124-.747-2.32-1.119-3.397-.86-2.504-1.858-4.965-2.649-7.489-.095-.301-.394-.584-.731-.558-2.137.153-4.249.532-6.357.916-1.096.199-2.189.41-3.282.612-1.174.217-2.489.855-3.68.711-.958-.119-.834 1.782.343 1.268.963-.422 2.255-.217 3.293-.382a446.8 446.8 0 0 0 3.527-.569c2.12-.346 4.24-.69 6.355-1.063l-.855-.349c.797 1.854 1.416 3.789 2.112 5.684.613 1.664 1.493 3.434 1.795 5.182l.17-.647c-.527.488-1.81.826-2.463 1.074-.938.356-1.772.46-2.779.428-2.134-.07-4.033.263-6.115.699l.448.254c-1.475-3.859-3.961-7.195-5.618-10.958-.13-.292-.621-.084-.518.219h.009Z" fill="#000"/>
    </g>
    <defs>
        <clipPath id="a">
            <path fill="#fff" d="M0 0h223v340H0z"/>
        </clipPath>
    </defs>
</svg>