<svg width="234" height="336" viewBox="0 0 234 336" fill="none" xmlns="http://www.w3.org/2000/svg">
    <g clip-path="url(#a)">
        <path d="M35.846 168.995s20.88 33.348 56.375 47.641c35.494 14.292 86.201 4.764 114.836-27.692 28.634-32.455 34.003-71.461 14.913-114.338-19.089-42.877-49.215-53.891-78.744-61.037-29.53-7.146-79.64 9.528-101.414 37.517-21.774 27.99-34.003 76.226-5.965 117.912v-.003Z" fill="#77CD77"/>
        <path d="M68.64 179.434v-45.583s-1.385-15.591 18.856-15.591h84.663s15.549-1.754 15.549 22.686-.149 109.107-.149 109.107-.934 10.585-8.119 27.131c-7.186 16.547-22.252 50.613-22.252 50.613s-1.939 7.31-13.539 7.286c-11.599-.024-35.318-.271-35.318-.271s-8.206-.807-12.483-14.09l-23.949-55.731s-3.01-10.528-3.069-35.662c-.06-25.134-.188-49.895-.188-49.895h-.003Z" fill="#9BE887"/>
        <path d="M162.235 17.797c-20.158-8.385-43.16-7.807-64.037-2.424-17.607 4.541-34.2 13.554-47.604 25.819C36.332 54.239 26.06 71.14 21.38 89.902c-5.094 20.42-3.087 41.876 4.606 61.388 6.344 16.097 16.503 31.61 30.337 42.27a87.077 87.077 0 0 0 4.707 3.355c.674.45 1.518-.613.877-1.134-12.99-10.591-23.59-23.886-30.603-39.116-8.346-18.128-12.14-38.801-9.053-58.605 2.99-19.178 12.006-36.93 25.467-50.892 12.358-12.816 27.948-22.222 44.765-27.966 9.754-3.332 19.779-5.49 30.081-6.148 10.78-.685 21.61.36 32.128 2.79 2.529.583 5.043 1.226 7.531 1.97.012.004.018-.014.006-.02l.006.003Zm25.902 186.434c11.433-6.354 21.038-15.772 28.545-26.42 7.937-11.252 13.289-23.898 15.711-37.463 5.005-28.043-1.859-58.575-17.831-82.142-9.166-13.525-21.321-26.021-36.014-33.49-.835-.425-1.495.721-.731 1.248 11.991 8.242 22.848 17.863 31.426 29.669C217.5 67 223.85 79.698 227.668 93.225c3.818 13.527 4.972 27.652 3.302 41.516-1.671 13.863-6.225 26.348-13.053 38.068-7.343 12.604-18.257 22.662-29.786 31.404-.012.009 0 .024.012.018h-.006Z" fill="#000"/>
        <path d="m227.635 150.832-.555 2.096c-.006.018.024.027.03.009l.555-2.097c.005-.017-.024-.026-.03-.008Z" fill="#000"/>
        <path d="M228.434 148.503c-1.485 4.228-2.616 8.581-4.25 12.762-1.635 4.18-3.755 8.307-6.162 12.172-4.853 7.796-11.201 14.727-18.112 20.757-1.959 1.709-4 3.272-6.088 4.818-2.04 1.515-4.357 2.858-6.216 4.588-1.157 1.078.311 2.656 1.593 2.06 2.082-.964 3.991-2.599 5.793-4.007 1.801-1.409 3.671-3.055 5.464-4.63a103.59 103.59 0 0 0 9.957-10.008c6.019-6.956 11.098-14.927 14.675-23.401 2.04-4.832 3.737-9.772 3.844-15.048.006-.295-.402-.325-.495-.066l-.003.003ZM38.197 58.396c1.969-.238 2.938 1.855 2.804 3.523-.134 1.667-1.074 3.296-1.387 4.993-.373 2.03.146 4.4 2.216 5.267 1.196.5 2.288.667 3.1 1.78.81 1.114 1.064 2.451 1.201 3.729.307 2.87-.116 5.758.143 8.635.46 5.103 3.2 10.82 8.928 11.377 3.367.328 7.033-.718 10.347-1.227 3.496-.539 7.72-1.876 11.182-.711 3.037 1.024 5.554 3.54 8.098 5.404 2.554 1.873 5.187 3.641 7.925 5.234 5.378 3.13 11.222 5.625 17.42 6.515 6.619.95 12.754-.342 18.97-2.587 6.04-2.183 11.922-4.496 18.156-6.101 11.03-2.841 23.755-4.865 32.536-12.762 1.912-1.721 1.509-3.984-.868-4.96-1.244-.513-2.649-.608-3.955-.912-1.647-.384-3.263-.878-4.862-1.417-.96-.325-1.936-.742-1.306-1.89.381-.695 1.142-1.338 1.646-1.94a126.277 126.277 0 0 0 3.039-3.757c2.059-2.65 4.203-5.485 5.659-8.525 2.586-5.401-4.513-10.641-8.74-12.577a21.5 21.5 0 0 0-8.128-1.926c-.626-.027-1.443.074-1.992-.286-.606-.4-.832-1.266-1.301-1.796-.892-1.012-2.18-1.093-3.445-1.069-13.688.26-26.955 6.512-40.693 3.532a75.794 75.794 0 0 1-9.578-2.73c-2.243-.81-5.309-2.41-4.608-5.295.65-2.68 3.728-4.37 5.977-5.538a105.66 105.66 0 0 1 9.712-4.437 112.184 112.184 0 0 1 9.894-3.394c2.437-.715 4.921-1.459 7.164-2.677 2.04-1.107 3.839-2.718 4.716-4.907.602-1.5.558-3.171 1.166-4.657.466-1.137 1.286-2.144 2.225-2.924 2.118-1.753 4.647-2.358 7.344-2.42.593-.012.593-.935 0-.92-4.4.098-10.204.967-12.071 5.576-.585 1.445-.573 3.05-1.17 4.479-.504 1.215-1.425 2.215-2.484 2.977-2.121 1.534-4.683 2.275-7.165 2.993-6.413 1.852-12.662 4.183-18.669 7.098-4.211 2.043-11.245 5.815-8.921 11.654.907 2.278 3.09 3.58 5.27 4.446 3.019 1.197 6.291 1.995 9.453 2.7 6.624 1.477 13.16 1.218 19.808.045 6.738-1.188 13.363-3.12 20.205-3.66.886-.068 1.796-.148 2.688-.121 1.008.03 1.545.235 2.132 1.095.77 1.126 1.34 1.888 2.774 2.141 1.337.239 2.712.134 4.057.375 1.578.283 3.135.766 4.59 1.442a18.963 18.963 0 0 1 7.09 5.675c.445.58.937 1.206 1.173 1.911.396 1.191-.108 2.141-.686 3.145-.851 1.48-1.796 2.909-2.751 4.32-1.983 2.927-4.229 5.526-6.582 8.15-1.826 2.033-1.802 4.33.87 5.517 2.971 1.322 6.088 1.706 9.172 2.585.958.274 1.295.437.546 1.28-.441.497-1.082.884-1.616 1.277a37.602 37.602 0 0 1-3.911 2.507c-5.264 2.945-11.099 4.672-16.909 6.176-5.789 1.501-11.651 2.769-17.318 4.702-6.463 2.203-12.685 5.374-19.549 6.178-13.04 1.525-25.201-5.857-35.107-13.485-2.449-1.885-4.963-3.785-8.128-4.172-3.355-.408-6.851.69-10.105 1.376-1.718.363-3.436.723-5.155 1.087-1.977.416-4.071.875-6.081.372-2.965-.742-4.952-3.523-5.778-6.319-.966-3.266-.582-6.601-.653-9.945-.048-2.18-.367-4.612-1.682-6.425-.543-.745-1.253-1.367-2.106-1.733-1.468-.638-2.912-.51-3.377-2.385-.713-2.856 1.635-5.479 1.071-8.343-.355-1.802-1.805-3.341-3.728-3.05-.4.06-.31.763.095.712h.003Zm-12.423 86.766c1.354-3.603 3.61-9.981 8.578-9.346 2.384.303 3.06 2.962 4.278 4.642 1.154 1.593 2.744 2.757 4.53 3.561 3.66 1.643 8.126 1.947 11.23 4.675a11.235 11.235 0 0 1 3.47 5.722c.489 1.989.06 3.999.241 6.012.19 2.117 1.145 4.014 3.27 4.74 1.18.405 2.332.465 3.387 1.197 1.286.891 1.787 1.954 2.27 3.395.2.595 1.095.652 1.268 0 .549-2.052-.528-4.586-2.156-5.875-.943-.747-1.927-1.06-3.079-1.337-1.387-.333-1.837-.917-2.102-2.313-.439-2.299-.15-4.616-.854-6.89a13.58 13.58 0 0 0-3.773-5.976c-3.633-3.323-8.545-3.451-12.697-5.729-2.342-1.287-3.052-3.353-4.465-5.452-1.304-1.936-3.225-3.147-5.614-3.01-2.58.148-4.793 1.601-6.198 3.718-1.632 2.46-1.769 5.372-1.882 8.225-.006.184.244.193.3.041h-.002Z" fill="#000"/>
        <path d="M187.555 156.799c.176-.474.63-.828.88-1.26.266-.458.481-.947.761-1.402.588-.956 1.148-1.963 1.921-2.781 1.503-1.59 3.842-2.636 6.031-1.992 3.526 1.036 4.841 5.395 8.259 6.735 2.017.789 4.286.476 6.38.247 2.094-.229 4.105-.548 6.017-1.37a10.79 10.79 0 0 0 1.327-.661c.289-.172.787-.747 1.145-.699.985.128.483 2.59.239 3.287-.779 2.215-2.741 3.734-4.254 5.434-1.592 1.792-2.609 3.859-2.899 6.25-.14 1.149-.191 2.438.212 3.54.188.512.441.995.752 1.441.101.146.217.286.328.423.358.447 2.729 3.034.164 3.168-.266.015-.364.45-.066.494 2.494.37 1.143-2.79 1.083-3.924-.143-2.692-.239-5.657 1.214-8.03 2.273-3.719 8.071-8.123 5.08-13.09-1.522-2.525-3.332.081-5.071.879-2.559 1.176-5.852 1.539-8.644 1.557-5.414.039-6.136-6.852-11.069-8.004-2.53-.589-5.345.265-7.242 1.998-1.008.923-1.96 2.18-2.44 3.469-.236.634-.346 1.349-.43 2.016-.119.935.206 1.31.212 2.26 0 .065.09.071.11.015Zm-18.039-38.676c.054 0 .054-.084 0-.084s-.054.084 0 .084Z" fill="#000"/>
        <path d="M68.884 143.292c.113-3.251.218-6.512.43-9.757.187-2.88.64-5.89 2.302-8.326 3.254-4.776 10.076-5.987 15.424-6.044 3.412-.039 6.848.179 10.264.205 11.23.093 22.463.245 33.693.402 10.183.143 20.372.09 30.558.102 5.658.009 11.642-.742 16.927 1.7 2.267 1.045 4.328 2.611 5.584 4.797 1.417 2.465 1.643 5.392 1.754 8.173.128 3.255.14 6.512.149 9.767.024 8.655.018 17.314.024 25.973.009 13.533.012 27.063.021 40.596.006 9.999.006 19.994.024 29.993.003 2.126.128 4.264.083 6.39-.173 8.554-2.678 16.793-6.025 24.603-5.545 12.932-11.057 25.875-16.635 38.792-1.936 4.478-3.806 8.986-5.727 13.47-1.124 2.624-2.475 5.289-4.581 7.263-2.124 1.989-4.895 2.617-7.732 2.742-3.114.137-6.245.033-9.362.089-5.718.105-11.424.185-17.139.373-.633.02-.633.961 0 .979a593.83 593.83 0 0 0 18.299.212c5.417-.015 11.818 1.25 16.497-2.204 4.105-3.031 5.999-8.179 8.045-12.675 5.98-13.137 11.674-26.408 17.506-39.614 3.102-7.027 6.526-14.015 8.322-21.516 1.261-5.273 1.747-10.54 1.607-15.936-.208-8.101-.027-16.233-.035-24.338-.015-13.822-.027-27.647-.042-41.469-.009-10.454-.018-20.911-.039-31.365 0-1.025-.003-2.049-.009-3.073-.024-4.907.31-10.157-.841-14.965-1.235-5.157-5.139-8.716-10.025-10.484-4.886-1.769-9.634-1.409-14.496-1.325-8.224.137-16.459.023-24.683.035-12.408.018-24.813.289-37.218.423-2.99.033-5.978.096-8.967.104-3.853.012-7.69-.166-11.492.626-4.802 1-9.267 3.877-11.269 8.492-2.21 5.094-1.426 11.404-1.31 16.79 0 .072.108.072.111 0h.003Zm45.063 191.684c-2.89-.057-6.034-.054-8.695-1.325-2.29-1.096-3.94-3.466-5.181-5.604-.84-1.45-1.515-2.954-2.162-4.493-1.963-4.678-3.857-9.38-5.831-14.051-5.226-12.354-10.56-24.664-15.898-36.973-3.293-7.587-5.835-15.429-6.273-23.743-.134-2.555.027-5.121.033-7.679.026-12.172.071-24.347-.006-36.52a3836.839 3836.839 0 0 0-.567-45.378c-.027-1.426-.116-2.855-.182-4.282-.02-.485-.73-.485-.755 0-.704 14.876-.608 29.809-.778 44.7-.152 13.223-.108 26.446-.122 39.667 0 2.367-.093 4.734-.096 7.098-.009 8.611 2.273 17.172 5.676 25.03 5.23 12.071 10.33 24.219 15.833 36.168C91.308 312.721 93.635 317.87 96 323c2.26 4.904 4.772 10.061 10.425 11.663 2.457.697 4.999.563 7.519.399.054-.003.054-.083 0-.083l.003-.003Z" fill="#000"/>
        <path d="M113.676 334.883c-.427-.556-.931-.542-1.599-.625-1.265-.161-2.538-.28-3.788-.533-2.371-.479-4.644-1.307-6.431-2.995-1.786-1.689-2.923-3.809-3.824-6.018-.9-2.209-1.446-4.568-2.613-6.61-.208-.369-.748-.113-.665.28.567 2.62 1.554 5.315 2.634 7.768.94 2.141 2.165 4.216 3.919 5.794 1.754 1.579 3.875 2.511 6.136 2.981 1.19.247 2.422.411 3.636.488.868.054 1.93.295 2.577-.375.036-.036.054-.107.021-.152l-.003-.003ZM77.235 119.945c-3.835 1.673-6.68 4.532-7.952 8.608-.76 2.445-.781 5.19-.903 7.721-.123 2.531-.522 5.687.373 8.063.104.283.608.372.668 0 .182-1.146.014-2.34.023-3.501.01-1.162.066-2.281.135-3.422.14-2.382.274-4.802.552-7.17.507-4.314 3.063-8.39 7.116-10.281.012-.006 0-.024-.012-.018ZM69.72 224.478c4.226.283 8.527.105 12.76.12 9.12.032 18.245.035 27.366.029 10.872-.006 21.744-.024 32.614-.056 9.5-.03 19-.081 28.5-.176 4.984-.051 10.028-.018 15-.423.176-.015.352-.03.48-.044.37-.042.376-.629 0-.587-1.297.149-2.66.051-3.964.045-2.929-.009-5.858.003-8.787.003-9.121-.003-18.243.074-27.364.104-10.872.036-21.744.056-32.613.062-9.503.006-19.003 0-28.506-.023-5.005-.015-10.008-.048-15.01-.111-.16 0-.322-.009-.483-.02-.692-.048-.689 1.027 0 1.074l.006.003Zm24.243 10.285c11.075-.2 22.17-.137 33.248-.206a779.55 779.55 0 0 1 21.408.185c3.677.077 7.355.179 11.033.289 1.834.053 3.651.113 5.476.271 1.793.155 3.582.128 5.306.729 1.725.602 3.541 1.965 3.905 3.916.364 1.95-.743 3.656-2.079 4.856-3.159 2.829-7.63 2.707-11.633 3.002-.2.014-.203.327 0 .312 3.487-.256 7.293.28 10.607-1.152 2.273-.983 4.25-3.475 4.373-5.976.137-2.859-2.103-4.991-4.651-5.86-1.515-.515-3.137-.628-4.724-.676-2.088-.065-4.191.009-6.288-.045a1132.15 1132.15 0 0 0-45.29-.208c-6.896.104-13.792-.068-20.685.042-.337.006-.337.53 0 .524l-.006-.003Zm63.825 13.292c-6.503-.456-12.99-1.016-19.513-1.126-6.443-.11-12.898-.25-19.34-.089-5.739.143-11.487-.096-17.226.053-4.93.128-9.935.28-14.812-.55-1.223-.209-2.571-.391-3.532-1.245-1.133-1.01-1.622-2.588-1.616-4.067.011-3.645 2.72-6.14 6.278-6.441.25-.021.26-.408 0-.399-2.35.089-4.793.911-6.27 2.829-1.398 1.819-1.709 4.612-.865 6.729.788 1.98 2.78 2.987 4.755 3.427 2.494.554 5.04.819 7.597.81 2.819-.012 5.65-.092 8.468-.152 3.001-.062 5.998.122 9.002.078 7.361-.113 14.729.044 22.099.041 4.033 0 8.075.182 12.104.102 4.287-.084 8.585-.078 12.874.023.015 0 .012-.02 0-.02l-.003-.003Z" fill="#000"/>
        <path d="M157.832 247.665c-3.057-.447-6.219-.325-9.306-.325-3.087 0-6.27-.202-9.303.447-.197.042-.131.312.045.327 3.066.307 6.18-.104 9.258-.146 3.078-.041 6.186.212 9.262.021.176-.012.241-.3.044-.327v.003Zm-30.17-13.03c-.787 3.999-.391 8.685.388 12.66.063.325.588.25.576-.077-.072-2.087-.197-4.133-.179-6.226.018-2.093.173-4.175.08-6.238-.021-.471-.763-.625-.865-.116v-.003Zm-35.17-91.602c-1.491 1.492-2.983 2.981-4.435 4.508-.725.762-1.465 1.522-2.145 2.323-.29.342-.611.67-.56 1.158.113 1.122 2.323 2.057 3.143 2.573a48.66 48.66 0 0 0 5.107 2.775c.862.408 1.62-.876.751-1.287a48.911 48.911 0 0 1-3.749-1.956c-.596-.345-3.502-1.783-3.502-2.358 0-.346 1.167-1.283 1.417-1.551.525-.56 1.053-1.114 1.587-1.665 1.134-1.17 2.288-2.319 3.44-3.472.68-.679-.377-1.733-1.057-1.054l.003.006Zm10.285-5.881c-2.172 8.052-4.34 16.103-6.511 24.151-.251.926 1.187 1.322 1.437.396 2.172-8.051 4.34-16.102 6.512-24.151.25-.926-1.188-1.322-1.438-.396Zm3.695 13.7 8.352.072c.96.008.96-1.48 0-1.489l-8.352-.072c-.96-.009-.96 1.48 0 1.489Zm12.859-.003h.131c.102.003.2-.018.287-.065a.53.53 0 0 0 .238-.155.572.572 0 0 0 .155-.238.56.56 0 0 0 .066-.286l-.027-.197a.738.738 0 0 0-.191-.327l-.152-.116a.723.723 0 0 0-.376-.102h-.131a.551.551 0 0 0-.286.066.526.526 0 0 0-.239.155.566.566 0 0 0-.155.238.556.556 0 0 0-.066.286l.027.196a.757.757 0 0 0 .191.328l.152.116a.731.731 0 0 0 .376.101ZM83.67 172.684h.13c.102.003.2-.018.287-.066a.525.525 0 0 0 .239-.155.568.568 0 0 0 .155-.238.56.56 0 0 0 .065-.286l-.027-.196a.744.744 0 0 0-.19-.328l-.153-.116a.731.731 0 0 0-.376-.101h-.13a.562.562 0 0 0-.287.065.534.534 0 0 0-.239.155.576.576 0 0 0-.155.238.563.563 0 0 0-.065.286l.026.197a.74.74 0 0 0 .191.327l.152.116a.722.722 0 0 0 .376.102Zm5.75-.611v.131c-.003.102.018.2.066.286.03.092.08.173.155.238a.569.569 0 0 0 .238.155.56.56 0 0 0 .287.066l.197-.027a.743.743 0 0 0 .328-.191l.116-.152a.723.723 0 0 0 .102-.375v-.131a.556.556 0 0 0-.066-.286.531.531 0 0 0-.155-.238.578.578 0 0 0-.239-.155.568.568 0 0 0-.286-.065l-.197.027a.741.741 0 0 0-.328.19l-.116.152a.723.723 0 0 0-.102.375Zm9.363.48h.083c.96 0 .96-1.489 0-1.489h-.083c-.96 0-.96 1.489 0 1.489h.083c.96 0 .96-1.489 0-1.489h-.083c-.96 0-.96 1.489 0 1.489Zm17.893-7.59c-2.684.143-5.697 2.37-5.5 5.327.212 3.216 4.68 3.534 6.762 2.099.785-.542.039-1.831-.752-1.286-1.431.985-5.175.926-4.411-1.692.498-1.715 2.159-2.867 3.904-2.959.955-.051.961-1.54 0-1.489h-.003Zm8.355-.012c-2.106.107-4.03 1.37-4.808 3.359-.823 2.102.241 4.106 2.526 4.43 2.002.286 4.036-.962 4.588-2.927.581-2.069-.818-4.109-2.971-4.219-.961-.048-.958 1.441 0 1.489 1.536.077 1.963 1.81 1.244 2.971-.624 1.004-1.972 1.51-3.102 1.117-1.45-.503-1.211-2.049-.495-3.079.715-1.03 1.816-1.59 3.018-1.652.955-.048.961-1.537 0-1.489Zm5.282 1.742.036-.039c.269-.295.302-.759 0-1.054l-.05-.051a.762.762 0 0 0-1.056 0c-.588.566-.343 1.85-.331 2.57.02 1.26.143 2.507.319 3.752.131.944 1.569.542 1.437-.396a27.068 27.068 0 0 1-.268-3.987c0-.122.045-1.03-.101-.887h-1.056l.05.05v-1.054l-.035.039c-.642.708.408 1.765 1.055 1.054v.003Z" fill="#000"/>
        <path d="M130.296 166.526c1.93-.634 4.405.256 4.346 2.608-.069 2.772-3.401 2.591-5.354 2.385-.955-.101-.946 1.388 0 1.489 1.727.182 3.582.301 5.109-.685 1.205-.777 1.811-2.12 1.724-3.531-.188-3.115-3.481-4.603-6.222-3.701-.907.298-.519 1.736.397 1.435Zm7.937-1.268c-.591 1.637-1.477 4.627-.442 6.259.97 1.527 3.305 1.042 4.689.527.892-.331.507-1.769-.397-1.436-.593.221-1.202.414-1.843.435-1.005.03-1.235-.497-1.321-1.462-.117-1.298.319-2.718.751-3.927.326-.903-1.115-1.293-1.437-.396Z" fill="#000"/>
        <path d="m139.277 169.194 2.792-.631c.93-.212.54-1.647-.397-1.435-.936.211-1.861.419-2.792.631-.93.211-.54 1.646.397 1.435Zm.197-3.457a25.887 25.887 0 0 1 3.319-.054c.961.048.958-1.441 0-1.488a25.706 25.706 0 0 0-3.319.053c-.949.078-.958 1.566 0 1.489Zm12.408-3.356a104.43 104.43 0 0 0-5.918 10.094c-.435.852.85 1.605 1.289.751a103.9 103.9 0 0 1 5.918-10.094c.531-.801-.758-1.549-1.289-.751Zm-63.807 20.962c-2.589 3.907-4.468 8.186-6.318 12.473-.375.87.91 1.629 1.29.751 1.848-4.288 3.73-8.567 6.317-12.473.53-.801-.761-1.549-1.289-.751Zm6.885.265a66.912 66.912 0 0 0-5.847 12.196c-.325.903 1.115 1.293 1.438.396a64.842 64.842 0 0 1 5.697-11.838c.5-.819-.788-1.57-1.289-.751v-.003Zm5.83 9.034c1.453-.747 2.893-1.53 4.361-2.245 2.174-1.063 2.201 1.257 3.23 2.561 1.608 2.039 4.286-.402 5.778-1.438.781-.545.039-1.835-.752-1.287-.665.462-1.336.911-2.025 1.337-.788.486-1.366 1.004-2.022.131-.707-.935-.859-2.403-1.963-3.025-.829-.467-1.751-.161-2.547.208-1.632.754-3.213 1.65-4.812 2.472-.853.441-.098 1.724.752 1.286Zm18.938-1.298h.265a.779.779 0 0 0 .528-.217.56.56 0 0 0 .155-.239.554.554 0 0 0 .066-.285c-.009-.194-.072-.393-.218-.527a.774.774 0 0 0-.528-.218h-.265a.78.78 0 0 0-.528.218.56.56 0 0 0-.155.238.556.556 0 0 0-.066.286c.009.193.072.393.218.527a.773.773 0 0 0 .528.217Zm7.179-1.254-.265.131a.567.567 0 0 0-.209.191.554.554 0 0 0-.134.253.558.558 0 0 0-.012.298c.006.098.033.19.089.277.102.158.257.298.445.342l.196.027c.135 0 .26-.036.376-.101l.266-.131a.566.566 0 0 0 .209-.191.568.568 0 0 0 .134-.253.558.558 0 0 0 .012-.298.554.554 0 0 0-.09-.277.765.765 0 0 0-.444-.342l-.197-.027a.762.762 0 0 0-.376.101ZM209.664 9.716c-1.751.899-2.921 3.049-4.093 4.576a171.69 171.69 0 0 1-4.343 5.41c-.999 1.197.242 3.052 1.721 2.228 2.288-1.275 4.433.789 5.739 2.495 1.42 1.858 2.694 3.847 3.94 5.824l1.99-1.986c-3.767-2.579-2.631-8.022 1.948-8.668 1.312-.184 1.399-2.159.358-2.733-2.443-1.355-4.155-3.624-4.838-6.316-.513-2.015-3.672-1.158-3.129.86.948 3.52 3.23 6.355 6.454 8.04l.758-2.787c-3.248.393-6.183 2.603-6.887 5.914-.704 3.31.904 6.762 3.868 8.197 1.208.584 2.849-.676 1.99-1.986-2.771-4.207-7.373-12.524-13.622-9.302l1.721 2.227a84.72 84.72 0 0 0 4.51-5.5c1.252-1.67 2.988-3.611 3.197-5.755.069-.685-.763-1.003-1.282-.735v-.003ZM8.02 55.106c-.75 1.819-1.753 3.644-2.976 5.192-1.223 1.549-2.747 2.716-4.352 3.93C-.913 65.445.51 68.086 2.3 66.975c1.625-1.01 3.499.23 4.3 1.733 1.072 1.998.803 4.493.568 6.658l2.77-.375c-.596-2.058.302-4.169 1.76-5.643.797-.807 1.695-1.468 2.658-2.054.433-.262.874-.51 1.319-.748.298-.157.596-.315.897-.467.558-.107.597-.28.12-.518l-.373-1.403-.057.197 2.115-.86c-3.597-1.793-9.414-4.19-8.444-9.127.203-1.039-.79-1.816-1.745-1.34-3.192 1.59-.883 6.045.728 7.9 2.177 2.507 5.333 3.972 8.351 5.196.749.303 1.548-.34 1.772-1.004.555-1.65-1.306-2.596-2.696-2.161-1.853.577-3.81 1.804-5.345 2.96-3.019 2.268-5.083 6.05-3.786 9.828.534 1.551 2.613 1.197 2.771-.375.313-3.112.34-6.607-1.786-9.141-1.68-2.001-4.615-3.13-7.13-2.153l1.227 2.906c4.143-2.063 7.293-6.75 8.014-11.234.245-1.525-1.709-2.043-2.29-.632l.003-.011ZM226.794 32.05c-.248 1.638-.704 3.136-1.709 4.47-.546.723-.108 1.87.599 2.284.552.321 1.059.696 1.578 1.069l.665.476c.507.587.904.378 1.187-.625l2.07 1.575c-.053-.423-.569-3.118.469-2.999 1.557.182 1.965-1.84 1.16-2.796-1.005-1.19-2.016-2.739-3.565-3.18-1.067-.303-1.876.691-1.685 1.683.296 1.518 1.864 2.748 2.926 3.814l.725-2.74c-3.376.572-3.842 3.788-3.245 6.65.236 1.122 1.509 1.378 2.401.976 1.232-.557 1.626-2.066 1.08-3.251-.677-1.471-2.58-2.245-3.741-3.273l.263 2.025c1.345-1.977 1.67-4.204.737-6.405-.34-.8-1.787-.607-1.918.25l.003-.002ZM61.743 262.326c1.4 7.635 3.723 14.843 6.577 22.058 2.855 7.214 5.677 14.137 9.444 20.721.456.798 1.897.256 1.533-.646-2.86-7.123-6.12-14.066-8.886-21.23-2.765-7.164-5.339-14.099-8.334-21.043-.086-.199-.366-.048-.33.14h-.004Zm132.545-19.988c-.006 1.524-.612 3.144-.737 4.686-.125 1.543-.164 3.133-.2 4.687-.063 2.778.161 5.61-.43 8.346-1.052 4.883-4.313 9.314-3.981 14.444.044.688 1.163.95 1.291.176.847-5.178 3.74-9.722 4.611-14.858.451-2.656.367-5.422.328-8.105-.02-1.554-.047-3.135-.158-4.687-.11-1.551-.704-3.162-.695-4.686 0-.018-.026-.018-.026 0l-.003-.003ZM65.01 17.761c3.933-1.62 7.823-3.365 11.79-4.907 4.012-1.557 8.214-2.57 12.193-4.195.552-.224.567-1.224-.155-1.153-4.328.432-8.495 2.055-12.491 3.698-3.997 1.644-7.908 3.657-11.442 6.301-.114.086-.054.322.107.256h-.003ZM75.759 6.988c2.118-1.59 4.793-2.566 7.299-3.385 2.535-.831 5.106-1.489 7.764-1.778 1.157-.125 1.154-1.956 0-1.813-2.712.336-5.37.95-7.875 2.06-2.744 1.218-4.874 3.043-7.245 4.824-.056.042 0 .14.057.095v-.003Zm117.014 190.458c.125 0 .125-.197 0-.197-.126 0-.126.197 0 .197Z" fill="#000"/>
        <path d="M191.248 198.562c-.734-1.415-1.795-2.582-2.586-3.972l-.892 1.158c2.938.944 5.888 1.867 8.862 2.689.537.148 1.035-.59.573-.983-3.344-2.841-6.368-6.11-9.193-9.457l-.695.9a102.301 102.301 0 0 0 14.088 5.445c.686.209.96-.702.456-1.077-3.046-2.248-6.094-4.559-8.197-7.763-1.566-2.388-2.842-5.011-5.416-6.476l-.63 1.075c6.163 3.439 12.355 7.265 18.965 9.799.823.316 1.291-.95.584-1.385-3.582-2.197-6.854-5.097-9.888-7.991-3.033-2.895-5.92-6.09-8.435-9.511l-.826 1.072a157.588 157.588 0 0 1 10.043 4.038c.659.292 1.238-.623.579-.989a58.47 58.47 0 0 0-10.234-4.457c-.767-.25-1.122.703-.71 1.221 2.666 3.373 5.503 6.619 8.608 9.602 3.105 2.984 6.547 5.536 9.947 8.206l.919-1.188c-6.38-3.061-12.706-6.089-18.919-9.492-.704-.384-1.331.682-.63 1.075 2.84 1.59 3.991 4.8 5.888 7.271 2.13 2.772 4.963 4.859 7.758 6.914l.457-1.078a99.152 99.152 0 0 1-13.822-5.297.576.576 0 0 0-.695.899c2.851 3.38 5.965 6.441 9.172 9.478l.572-.983c-2.89-1.096-5.822-2.096-8.754-3.076-.677-.226-1.208.584-.892 1.159.871 1.572 1.924 2.971 3.681 3.525.209.066.361-.173.268-.348l-.006-.003Zm12.089-19.664c1.166.572 2.213 1.376 3.395 1.95 1.067.518 2.189.864 3.316 1.224.415.131.707-.524.302-.715-1.071-.497-2.121-1.027-3.237-1.417-1.223-.429-2.544-.658-3.734-1.143-.06-.024-.098.074-.042.101ZM55.37 174.372a174.044 174.044 0 0 1 10.582-6.673l-.406-.527c-2.651 2.921-5.765 5.369-8.13 8.552-2.608 3.513-4.818 7.378-7.028 11.145-.215.366.227.854.602.601a173.493 173.493 0 0 1 17.327-10.195l-.71-.92c-2.082 2.596-4.587 4.758-6.955 7.084-2.07 2.036-4.57 4.478-5.366 7.345-.135.488.402.864.829.637 1.82-.967 3.686-1.789 5.572-2.617 2.058-.905 4.026-1.849 6.237-2.31l-.63-1.078c-1.431 1.646-2.72 3.376-4.235 4.954-1.238 1.29-2.59 2.552-3.657 3.987-.585.783.519 1.68 1.267 1.266 2.094-1.159 4.886-1.435 7.255-1.31l-.576-.754c-.537 1.632-1.432 3.195-2.058 4.806-.388.998 1.252 1.459 1.616.447.585-1.62.925-3.359 1.59-4.934.167-.399-.241-.712-.575-.753-1.522-.191-2.79-.608-4.358-.423-1.375.161-2.634.646-3.83 1.328L61 195.295c2.252-3.105 5.637-5.601 7.307-9.096.254-.53-.3-1.278-.883-.882-1.864 1.269-3.913 2.031-5.995 2.883-1.906.783-3.794 1.554-5.75 2.191l.638.828c.823-1.45 1.536-2.975 2.607-4.264.975-1.176 2.102-2.23 3.224-3.266 2.255-2.091 4.593-4.1 6.377-6.625.352-.498-.322-1.075-.802-.801a405.36 405.36 0 0 0-17.181 10.445l.603.601c2.383-3.576 4.512-7.336 6.997-10.844 2.315-3.266 5.521-5.708 7.925-8.894.215-.283-.19-.604-.46-.458a79.83 79.83 0 0 0-10.469 6.863c-.22.17-.017.551.227.387l.003.009Z" fill="#000"/>
        <path d="M65.988 199.473c.528.173 1.056.357 1.59.515.533.158.826.238 1.258-.152.05-.044.069-.125.05-.19-.16-.56-.458-.635-.998-.784-.54-.148-1.083-.265-1.623-.396-.656-.157-.916.798-.277 1.004v.003Z" fill="#000"/>
    </g>
    <defs>
        <clipPath id="a">
            <path fill="#fff" d="M0 0h234v336H0z"/>
        </clipPath>
    </defs>
</svg>