<svg width="348" height="320" viewBox="0 0 348 320" fill="none" xmlns="http://www.w3.org/2000/svg"><g clip-path="url(#a)"><path d="m101.041 319.153-29.536-.52-16.145-14.397s-27.466-22.944-34.233-46.067-16.365-75.117-16.365-75.117l-3.75-17.182s-2.149-8.776 8.916-15.387c0 0 3.024-2.536 8.232-2.607 5.209-.071 21.503-.847 21.503-.847l.392-96.751s-.207-9.018 3.593-11.134 4.141-2.757 18.102-2.757 119.426.178 119.426.178l45.276-.42 5.621-28.366s.818-7.251 8.403-7.244 67.042 0 67.042 0l8.141.292 4.02 1.546s4.639 2.478 5.941 5.406 2.27 6.675.975 11.27-3.173 17.423-3.173 17.423 6.226-.534 8.581 2.843 3.358 7.437 3.38 10.956.718 185.58.718 185.58.904 8.007-14.394 8.028-185.309.442-185.309.442 2.242 13.805-1.807 25.63-22.172 42.014-22.172 42.014l-6.667 4.837-4.704 2.351z" fill="#9BE887"/><path d="M231.219 99.059c.192-.207 71.631.235 71.631.235s9.016.712 10.674-9.026S325.62 24.02 325.62 24.02s2.611-9.495.712-14.012c-1.9-4.516-3.081-5.933-7.827-7.835L315.658.812l-9.129-.064-44.351-.121h-20.279s-9.727-1.546-10.908 11.397l-13.64 70.758s-3.081 5.342 1.544 9.025 6.525 6.055 8.418 6.532 3.913.713 3.913.713zM22.494 147.741l82.774-.713s10.673-.947 12.808 10.208l17.312 80.26s4.07 18.607-.811 32.455-21.959 40.675-21.959 40.675l-11.584 8.519-29.536-.52s-27.188-23.436-36.439-36.258c0 0-11.15-7.601-19.446-47.492-8.297-39.892-14.601-69.012-14.601-69.012s-.797-11.262 8.916-15.387c1.273-.541 4.98-2.5 4.98-2.5l7.593-.235z" fill="#9BE887"/><path d="M232.294 5.856c-2.804 8.64-4.234 17.887-5.956 26.784-2.597 13.392-5.265 26.777-7.542 40.233-.62 3.64-1.196 7.288-1.829 10.92-.057.335.42.478.512.143 2.441-8.783 4.013-17.901 5.728-26.841 2.562-13.392 5.394-26.756 7.649-40.205.605-3.626.954-7.351 1.857-10.92.072-.27-.334-.378-.419-.114" fill="#000"/><path d="M218.155 78.786c-.911 3.504-4.141 10.97.804 13.007 1.508.62 3.294.577 4.91.598 5.315.079 10.637.036 15.953.036 15.831 0 31.663.35 47.488.342 2.925 0 5.863.107 8.774-.114 1.323-.1 2.775-.42 4.105-.342.214.014.214-.32 0-.335-23.652-1.432-47.488-.591-71.212-.854-1.97-.022-3.941-.015-5.905-.072-.385-.014-.776 0-1.16-.021-2.284-.136-1.459.078-3.046-1.874-1.487-1.823-1.366-1.795-1.174-3.74.214-2.208.377-4.409.527-6.624 0-.036-.057-.043-.064-.007" fill="#000"/><path d="M308.458 72.93c-.534 2.5-1.203 4.944-1.722 7.459-.52 2.514-.826 6.083-2.128 8.327s-6.525 2.515-9.186 2.579c-3.024.071-6.105-.542-9.108-.157-.512.064-.733.84-.135.983 3.992.933 8.453.214 12.531.413 2.156.107 4.532.35 6.076-1.375 1.658-1.852 1.985-4.972 2.519-7.287.847-3.711 1.181-7.138 1.288-10.913 0-.071-.114-.093-.128-.014z" fill="#000"/><path d="M320.725 7.743c-3.85 13.343-6.241 27.09-8.724 40.76-2.441 13.4-5.244 26.913-6.689 40.469-.021.228.335.264.392.05 3.614-13.207 5.571-27.02 8.062-40.476s4.411-27.275 7.151-40.753c.028-.128-.157-.178-.192-.05m-89.491 1.276c1.209-2.828 2.54-5.607 5.479-6.946 2.312-1.061 4.959-1.04 7.457-1.047q1.782-.002 3.564.007c4.996.014 9.991.164 14.986.171 12.879.014 25.779-.491 38.637-.178 3.622.093 7.571.734 11.164.093.363-.064.363-.677 0-.741-3.216-.577-6.788-.121-10.026 0-6.454.25-12.921-.264-19.361-.3-12.16-.07-24.314-.02-36.474-.05-2.362 0-4.796-.142-7.13.236-5.059.805-7.037 4.131-8.36 8.733-.007.036.042.064.064.029z" fill="#000"/><path d="m310.842 1.418 1.103-.171c.042 0 .021-.071-.015-.064l-1.103.17c-.042 0-.021.072.015.065" fill="#000"/><path d="M308.479.834c4.169.505 11.214-.378 11.235 5.649.007 2.044-.875 3.982-.911 5.99-.028 1.724-.107 3.206-.576 4.93-.918 3.405-1.701 6.796-2.27 10.279-.534 3.248-1.736 6.475-1.793 9.766 0 .364.47.378.591.079.953-2.43 1.017-5.03 1.551-7.573.533-2.543 1.181-5.007 1.636-7.55.484-2.693.527-5.713 1.48-8.235.769-2.037 1.331-4.203 1.573-6.376s-.043-4.765-1.886-6.226c-2.633-2.08-7.578-.983-10.63-.783-.022 0-.022.035 0 .035z" fill="#000"/><path d="M316.498 1.354c6.553 1.602 10.737 8.477 9.77 14.952-.193 1.31-.484 2.607-.719 3.91-1.039 5.635-2.064 11.27-3.095 16.905-2.64 14.417-5.387 28.807-7.863 43.253-.697 4.075-1.124 8.207-1.886 12.267-.113.612.819.869.933.256 4.617-24.675 9.335-49.337 13.832-74.048.413-2.258.854-4.445.512-6.76-.797-5.407-6.14-10.059-11.42-10.928-.121-.021-.178.164-.05.193zM217.714 89.08c-.021-.036.021-.115.028-.15l.036-.136c.036-.135-.199-.135-.164 0l.036.136s.043.114.028.15.05.035.029 0zm-.491-.748c.044 0 .044-.065 0-.065-.043 0-.043.065 0 .065" fill="#000"/><path d="M216.44 87.612c-.313 1.816.143 2.728 1.331 4.103 1.985 2.293 4.632 5.157 7.307 6.66 2.299 1.29 5.024 1.275 7.593 1.304 4.888.057 9.776.021 14.658.021 15.07 0 30.155.142 45.218.043 4.277-.029 8.717-.435 12.958-.307.405.015.405-.62 0-.634-22.805-.698-45.732-.534-68.579-.698-1.637-.014-3.273 0-4.903-.042-2.049-.05-4.283-.072-6.112-1.112-1.494-.847-2.74-2.315-3.963-3.497-1.409-1.36-4.554-3.676-4.718-5.735-.036-.42-.704-.584-.783-.106z" fill="#000"/><path d="M295.963 99.315c3.749.941 10.345 1.589 13.654-1.054 1.452-1.161 2.846-2.885 3.629-4.566 1.195-2.565.384-4.901 1.053-7.565.043-.178-.228-.307-.306-.129-1.409 3.235-1.067 6.903-3.365 9.852-3.444 4.424-9.692 3.085-14.651 3.363-.057 0-.071.085-.014.1M52.144 36.85c20.015 1.126 40.216.157 60.261 0 29.65-.235 59.272.128 88.915.15 8.154 0 16.301-.214 24.441-.307.641 0 .648-1.011 0-1.004-20.079.22-40.174-.093-60.261.292-29.636.57-59.279-.278-88.915-.22-8.161.014-16.308-.158-24.441.476-.385.029-.392.578 0 .599z" fill="#000"/><path d="M59.437 36.593c-5.792-1.425-12.246-2.265-16.928 2.4-3.315 3.299-3.273 8.093-3.308 12.46-.043 6.29-.014 12.58 0 18.87.035 18.649.007 37.284-.306 55.926-.114 6.896-.59 13.884-.2 20.772.072 1.254 1.843 1.24 1.936 0 1.017-13.342-.17-27.033-.157-40.411.022-16.249.178-32.498.35-48.746.028-2.443.035-4.88.07-7.323.057-4.58.413-9.21 4.796-11.775 3.9-2.287 9.364-2.08 13.747-2.144.022 0 .022-.029 0-.036z" fill="#000"/><path d="M40.261 50.185c6.077 1.104 12.466.72 18.607.727 14.416.014 28.832.007 43.248 0 32.653-.007 65.306-.014 97.952-.05 7.691-.007 15.689-.976 23.36-.385.405.029.405-.605 0-.634-6.305-.484-12.716-.377-19.034-.498-14.366-.264-28.761-.057-43.134-.043-32.539.028-65.078.071-97.61.071-5.515 0-11.022-.007-16.537.057-2.284.029-4.54.47-6.824.527-.128 0-.163.207-.028.228m283.694-13.762c4.155.534 8.382 2.991 9.791 7.159.776 2.28.74 4.786.761 7.166.014 1.168.014 2.336.022 3.505.021 4.181.035 8.355.057 12.537q.072 20.3.177 40.589c.164 31.771.193 63.534-.007 95.305-.057 9.232-.042 18.45.043 27.675.014 1.246 1.95 1.246 1.935 0-.227-23.358-.434-46.737-.498-70.102-.085-31.315.1-62.637.05-93.952 0-4.559-.014-9.125-.028-13.684-.015-2.614.085-5.264-.413-7.836-1.124-5.82-6.176-8.626-11.897-8.405-.021 0-.021.028 0 .035zM51.802 40.989c-1.046-.57-1.985-.77-2.974.021a3.16 3.16 0 0 0-1.174 2.871c.284 2.557 3.11 3.505 5.265 2.6 2.156-.905 3.017-3.604 1.601-5.535-.633-.862-1.707-1.332-2.775-1.268s-2.526.884-2.398 2.073c.064.599.541 1.069 1.182.905.79-.207 1.536-1.247 2.426-.499.982.826.249 2.308-.697 2.771-1.103.541-2.775.093-2.832-1.325-.043-.969 1.288-1.966 2.191-1.959.342 0 .484-.484.178-.655zm10.588.099c-1.16-.278-2.135-.449-3.223.25a2.83 2.83 0 0 0-1.338 2.507c.078 2.258 2.348 3.626 4.426 3.106 1.836-.463 4.333-2.679 3.024-4.723-1.167-1.824-4.732-2.102-6.197-.599-.37.385-.079.962.412.998 1.36.107 2.69-.698 4.02.043 1.715.947-.54 2.678-1.636 2.92-1.203.264-2.725-.605-2.512-2.009.121-.812.91-1.147 1.608-1.36.513-.157.918-.4 1.423-.577.25-.086.292-.477 0-.549zm10.218-.263c-2.213-.862-4.27 1.296-3.707 3.519.619 2.429 3.287 3.426 5.536 2.693s3.721-3.12 2.07-5.229c-1.323-1.681-4.81-2.565-6.147-.427-.185.299-.136.769.128 1.011.668.613 1.316-.178 1.978-.349 1.316-.328 3.714.933 2.846 2.486-.797 1.446-3.138 1.767-4.29.606-1.353-1.347-.42-3.612 1.494-3.633.412 0 .448-.549.092-.691zM50.422 70.779c1.722-.256 3.664.086 5.393.121 4.213.1 8.418.057 12.63.043 13.427-.043 26.854-.022 40.281 0 29.778.057 59.564.135 89.349.256 7.215.029 14.537-.434 21.745-.135.47.021.47-.712 0-.734-19.326-.805-38.715-.484-58.055-.548-30.056-.093-60.119-.136-90.175-.007-5.016.021-10.04 0-15.056.206-1.971.086-4.27-.028-6.198.47-.213.057-.12.35.086.32z" fill="#000"/><path d="M320.874 50.52c1.822.897 3.964.797 5.963.89 2.668.12 5.358.185 8.026.178 1.018 0 .997-1.496 0-1.567a131 131 0 0 0-8.026-.35c-1.992-.02-4.113-.213-5.963.585-.099.043-.092.213 0 .256zm2.007-13.799c1.786.791 3.97.513 5.87 1.169 1.48.505 2.554 1.396 3.394 2.72.519.82.804 1.668 1.501 2.344.249.243.776.086.74-.306-.213-2.222-2.205-4.63-4.205-5.563-1.743-.82-5.628-2.045-7.3-.763-.121.093-.178.321 0 .406zm-5.899 34.863c1.701.726 3.828.292 5.657.32 1.957.029 4.042.42 5.97.114.242-.035.199-.385 0-.449-1.857-.59-4.028-.456-5.97-.477-1.807-.021-3.999-.37-5.657.406-.028.014-.035.071 0 .086M25.596 147.898c-4.775-.015-9.87-2.394-14.288.662-3.565 2.472-3.622 6.874-3.045 10.764.768 5.164 2.077 10.279 3.173 15.379 3.337 15.572 6.738 31.115 9.89 46.73 1.21 5.977 2.178 12.067 3.75 17.958.186.684 1.118.378 1.032-.285-1.558-11.454-4.518-22.852-6.83-34.171-2.704-13.214-5.01-26.499-7.557-39.749-.52-2.692-1.267-5.435-1.438-8.178-.291-4.601 1.872-7.942 6.803-8.241 2.889-.178 5.67-.079 8.538-.684.114-.022.086-.2-.028-.2zm1.294 95.198c1.16 13.32 10.717 26.007 18.985 35.973 4.917 5.927 10.389 11.376 16.031 16.605 5.956 5.521 13.1 10.386 18.344 16.569 1.145 1.353 3.195-.997 1.537-1.995-6.454-3.868-12.168-9.837-17.675-14.937-5.507-5.101-10.808-10.5-15.718-16.228-4.611-5.385-8.909-11.134-12.353-17.345-3.443-6.212-5.806-12.552-9.022-18.678-.028-.057-.128-.036-.121.036z" fill="#000"/><path d="M12.56 148.61c-5.173 1.51-10.154 5.748-11.91 10.998-1.103 3.299-.37 6.547.32 9.838 1.153 5.492 2.291 10.991 3.43 16.484 3.508 16.889 6.966 33.793 10.452 50.683 1.075 5.193 1.936 10.45 3.6 15.494.136.406.833.37.784-.107-1.053-11.476-4.241-22.945-6.518-34.221a49231 49231 0 0 1-8.98-44.558c-.37-1.83-.74-3.654-1.103-5.485-.747-3.718-.868-6.902 1.203-10.229 2.227-3.583 6.112-5.549 8.851-8.669.086-.093 0-.264-.128-.221zm52.47 165.193c.348.413.761.762 1.216 1.061.64.421.933.727 1.488 1.318.818.869 1.778 1.482 2.511 2.458 1.302 1.731 3.288-.834 1.665-1.667-1.188-.613-2.084-1.553-3.194-2.244-1.01-.627-1.644-1.624-2.676-2.23-.854-.505-1.58.606-1.003 1.304z" fill="#000"/><path d="M16.808 240.759c-.847 5.919 1.551 12.551 3.63 18.008 2.39 6.283 5.791 12.337 9.37 18.015 7.777 12.323 18.607 21.919 28.882 32.055 1.138 1.126 2.924-.776 1.722-1.723-10.88-8.57-20.471-18.927-28.526-30.175-3.928-5.485-6.902-11.27-9.364-17.531-2.462-6.262-2.953-12.602-5.166-18.649-.085-.228-.505-.307-.548 0m53.964 77.995c1.921.313 3.97-1.496 5.5-2.472 1.879-1.197 4.156-2.565 5.5-4.367.477-.634-.405-1.197-.96-.962-2.163.934-4.127 2.821-6.062 4.175-1.352.947-3.473 1.831-4.07 3.462-.022.064.028.157.092.164" fill="#000"/><path d="M71.505 319.33c9.77.663 19.738.449 29.536.67 1.096.021 1.096-1.738 0-1.703-9.933.3-19.624 0-29.536-.37-.904-.036-.89 1.339 0 1.403" fill="#000"/><path d="M80.634 311.58c5.195 1.019 11.15.093 16.444.021 5.294-.071 10.41-.085 15.612-.199l-.506-1.225c-3.365 3.163-7.521 5.884-11.377 8.448-.733.485-.086 1.61.69 1.183 4.312-2.372 8.119-5.272 11.705-8.613.455-.427.107-1.239-.505-1.225-5.202.1-10.41.093-15.612.071-5.258-.021-11.349-.797-16.444.52-.49.129-.526.927 0 1.033zm-65.79-163.468c5.067.705 10.34.306 15.448.363 5.6.057 11.2-.043 16.807-.057 10.737-.036 21.474-.136 32.212-.171 5.6-.022 11.2 0 16.806.035s12.275-.975 17.035 1.895c3.8 2.301 3.977 6.696 4.789 10.607a7065 7065 0 0 0 12.117 57.116c.996 4.616 2.071 9.161 3.337 13.698.577 2.066 1.239 4.182 1.601 6.305.029.149.249.085.228-.064-1.017-5.991-1.807-11.946-3.024-17.916-2.291-11.241-4.732-22.446-7.101-33.672-1.829-8.641-3.672-17.289-5.465-25.937-.647-3.127-.825-6.689-2.832-9.275s-5.415-3.832-8.652-4.231c-5.778-.705-11.82-.285-17.633-.306-12.601-.043-25.21-.2-37.811-.029-6.532.086-13.071.15-19.603.328-5.992.164-12.338-.071-18.244.983-.157.028-.164.299 0 .32z" fill="#000"/><path d="M136.248 243.274c1.231 12.38-.868 24.226-5.991 35.531s-11.342 21.036-17.781 31.002c-.434.669.597 1.239 1.053.619 7.443-10.243 14.224-21.662 19.204-33.316 2.206-5.15 3.885-10.543 4.547-16.12.726-6.134-.099-11.733-1.01-17.709 0-.015-.022-.007-.022 0zM28.2 176.883c-.156 6.375 1.651 13.1 2.91 19.319a1026 1026 0 0 0 4.191 19.675c1.46 6.539 3.053 13.057 4.625 19.575.783 3.227 1.231 9.602 5.01 10.892.22.078.42-.2.299-.392-1.395-2.322-2.512-4.096-3.195-6.767s-1.295-5.4-1.872-8.114c-1.302-6.112-2.69-12.202-3.97-18.314s-2.42-11.79-3.572-17.695-1.914-12.53-4.191-18.215c-.05-.121-.235-.114-.235.029zm19.219 69.981c6.276 1.203 12.48.619 18.8.805 5.35.156 10.65.463 15.995.748 6.873.363 13.982.477 20.855.021 5.216-.342 10.453-.071 15.676-.385.412-.021.412-.619 0-.641-11.855-.62-23.88-1.004-35.749-.726-5.35.121-10.637.448-15.995.37-6.56-.1-13.036.841-19.568-.221-.014 0-.021.021 0 .029z" fill="#000"/><path d="M114.105 209.031c1.061 7.75 2.633 15.351 4.028 23.044.669 3.704 1.757 7.373 2.241 11.106.776 5.969-6.66 4.017-10.175 4.359-.121.014-.178.214-.029.235 2.42.392 4.867.178 7.308.435 1.089.114 2.021.505 3.11-.022 2.369-1.147 1.978-4.103 1.6-6.254-1.914-11.07-4.689-22.204-7.77-32.989-.057-.206-.334-.114-.306.086zm-5.749 39.606h-.235s-.021.029 0 .029h.235s.021-.029 0-.029M28.45 175.843c2.547-4.951 10.7-3.476 15.51-3.548q8.007-.117 16.004-.171c10.395-.064 20.805-.292 31.194.065 3.977.135 11.655-.528 14.366 2.956 1.238 1.595 1.537 4.431 1.964 6.333.775 3.412 1.466 6.859 2.149 10.293.875 4.438 1.096 9.681 3.045 13.77.249.52 1.003.228 1.018-.278.178-5.186-1.943-10.963-2.868-16.085-.697-3.854-1.352-7.75-2.433-11.519-.562-1.959-1.132-3.804-2.882-4.993-4.02-2.728-10.446-1.852-15.035-1.966-12.943-.328-25.908.135-38.858.221-6.155.042-12.8-.642-18.906.149-2.426.314-5.585 1.738-4.824 4.695.064.249.441.313.562.071zm-2.377-24.818c-4.277-.62-9.172.171-10.553 4.958-.683 2.379 0 4.986.47 7.337.797 4.046 1.316 8.227 2.483 12.181.043.135.278.121.264-.036-.513-4.317-1.722-8.605-2.662-12.851-.683-3.084-1.416-6.339 1.238-8.825 2.284-2.13 5.743-2.729 8.724-2.572.114 0 .142-.178.028-.2zm-6.838 29.113c1.081 8.15 2.96 16.128 4.568 24.185s3.138 16.163 4.852 24.212c2.768 12.993 6.198 28.052 15.427 38.161.114.128.334-.036.242-.186-3.928-6.197-7.393-12.224-9.848-19.183-2.32-6.568-3.928-13.35-5.351-20.16-3.266-15.643-5.557-31.642-9.72-47.057-.021-.093-.185-.078-.17.021zm32.219 95.098c2.156 3.049 4.739 5.955 7.755 8.178.1.071.221-.086.129-.171-2.768-2.572-5.444-5.115-7.877-8.014 0 0-.014 0-.007.007M32.17 152.342c5.914.67 12.154.1 18.081-.249a853 853 0 0 1 18.088-.848c12.025-.442 24.036-.37 36.026.748.056 0 .071-.093.014-.107-11.705-1.752-23.553-1.567-35.35-1.068-6.027.256-12.054.634-18.087.79-6.22.164-12.595-.128-18.778.463-.171.015-.171.25 0 .271zm72.799-.234c3.444 1.075 5.144 3.86 7.371 6.432.086.1.242-.028.178-.135-1.643-2.807-4.241-5.692-7.499-6.476-.114-.028-.164.143-.05.179m8.453 8.455c.783 9.019 2.789 18.023 4.497 26.898 1.807 9.389 3.707 18.692 6.269 27.91.05.164.292.1.256-.071-1.836-9.125-3.942-18.2-5.764-27.326-1.821-9.125-2.974-18.385-5.016-27.446-.028-.136-.263-.107-.249.035zm12.125 60.343c1.943 9.253 2.996 18.364 4.027 27.739.022.213.321.22.335 0 .47-9.154-1.359-19.134-4.348-27.746 0-.007-.014 0-.014 0zm-75.915 7.465c.484 2.693 1.067 5.364 1.594 8.05.028.149.192.249.334.256 8.503.086 16.999.193 25.502.371.235 0 .47-.214.455-.456-.12-2.087-.02-7.159-1.33-8.84-.925-1.197-2.412-1.226-3.821-1.204-7.543.107-15.1.028-22.635.406a.614.614 0 0 0-.583.762c.256 1.076.512 2.151.79 3.227.12.456.918.377.854-.114-.143-1.147-.313-2.287-.477-3.434l-.584.763c4.967-.171 9.927-.292 14.893-.342 2.547-.029 5.209-.271 7.742-.093 2.995.214 2.71.556 3.252 2.828.284 1.197.483 2.422.668 3.64.235 1.582.228 1.688-1.337 1.945-1.345.214-2.882 0-4.248 0-2.832 0-5.664 0-8.503-.029-2.569-.035-6.006.471-8.503-.106-1.985-.456-2.085-1.29-2.412-3.142-.27-1.574-.555-3.148-.833-4.723-.092-.534-.904-.306-.811.221zm31.643 0c.483 2.693 1.067 5.364 1.593 8.05.029.149.193.249.335.256 8.503.086 16.999.193 25.502.371.235 0 .469-.214.455-.456-.121-2.087-.021-7.159-1.33-8.84-.925-1.197-2.413-1.226-3.821-1.204-7.543.107-15.1.028-22.635.406a.614.614 0 0 0-.583.762c.256 1.076.512 2.151.79 3.227.12.456.918.377.853-.114-.142-1.147-.313-2.287-.476-3.434l-.584.763a612 612 0 0 1 14.893-.342c2.547-.029 5.209-.271 7.742-.093 2.995.214 2.711.556 3.251 2.828.285 1.197.484 2.422.669 3.64.235 1.582.228 1.688-1.337 1.945-1.345.214-2.882 0-4.248 0-2.832 0-5.664 0-8.503-.029-2.57-.035-6.006.471-8.503-.106-1.986-.456-2.085-1.29-2.412-3.142-.27-1.574-.555-3.148-.833-4.723-.093-.534-.904-.306-.811.221z" fill="#000"/><path d="M39.791 174.832c-3.116.092-6.638-.136-7.008 3.818-.25 2.607.498 5.471.89 8.056.554 3.619.945 7.338 1.828 10.885.05.214.405.178.391-.05-.285-4.131-1.138-8.284-1.821-12.366-.157-.905-.328-1.81-.491-2.714-.491-2.707-.861-2.743.668-4.915 1.345-1.917 1.73-1.575 3.722-1.974.711-.142 1.174-.22 1.864-.448.15-.05.135-.292-.036-.292zm-2.903 28.216c0 1.417.157 2.806.37 4.21.15.99.214 2.015.868 2.799.128.15.349.05.399-.107.348-.983-.007-2.108-.228-3.106-.292-1.31-.598-2.593-1.067-3.846-.064-.178-.342-.164-.342.042zm298.822 32.568c-1.551 2.921-2.818 5.649-6.219 6.718-3.223 1.011-6.639.619-9.962.619-1.273 0-2.54-.042-3.814-.064-3.216-.064-6.432-.035-9.648-.043-13.448-.035-26.897-.028-40.345-.028-17.831 0-35.663.014-53.494.028-16.309.015-32.603.613-48.912.606-8.695 0-17.746.285-26.277.292-.755 0-.755 1.168 0 1.168 23.53-.007 47.574.435 71.261.406 32.404-.035 64.808-.406 97.205-.52 3.557-.014 7.115-.071 10.673-.014 7.891.128 19.055 1.361 20.364-8.933.057-.456-.64-.598-.839-.228zm-193.577 30.616c-1.893 7.002-4.582 14.14-7.67 20.701-3.039 6.447-7.294 11.939-10.873 18.029-.306.52.384 1.026.819.634 5.386-4.965 9.207-12.209 12.238-18.777s4.753-13.307 5.671-20.558c.014-.107-.156-.121-.185-.022zm5.6 4.738c-1.359 2.386-2.042 5.029-2.967 7.6-1.046 2.9-2.462 5.635-3.422 8.563-.185.563.633 1.075 1.024.598 3.466-4.217 6.234-11.255 5.394-16.761 0-.015-.021-.015-.029 0M10.952 123.906c-.783 1.268-.669 2.927-.726 4.381-.064 1.666-.128 3.312.463 4.893.156.421.868.67 1.096.143.654-1.51.747-3.063.768-4.694.021-1.632.263-3.313-.505-4.716-.235-.435-.861-.399-1.103 0z" fill="#000"/><path d="M7.266 129.17c1.438.356 2.968.2 4.426.107 1.231-.078 2.676.171 3.594-.798a.545.545 0 0 0 0-.755c-.99-1.033-2.598-.662-3.886-.513-1.465.171-3.01.499-4.205 1.396-.199.15-.206.492.071.563m335.097-46.331c-1.124 3.255-1.082 6.953-1.21 10.358-.156 3.889-.22 7.785-.199 11.675.043 7.33.356 14.81 1.608 22.04.064.363.626.271.626-.086.008-7.543-.419-15.094-.455-22.638-.014-3.661.05-7.33.185-10.991.121-3.406.591-6.996-.036-10.358-.049-.278-.434-.228-.512 0zm5.123.677c-1.793 4.046-1.196 8.733-1.324 13.078-.163 5.478-1.095 10.977-.974 16.448.007.428.604.506.732.1 2.996-9.553 1.445-19.725 1.993-29.505.014-.214-.328-.32-.42-.114zm-8.076-64.624c-.79 2.593-.939 5.157.327 7.65.292.577 1.288.463 1.416-.185.513-2.593.036-4.979-.661-7.465-.15-.541-.918-.527-1.082 0" fill="#000"/><path d="M336.386 23.665c2.405.349 4.824.22 7.243-.022.683-.071.947-1.104.171-1.282-2.483-.577-5.052-.591-7.414.406-.363.15-.52.826 0 .905zM46.025 24.932c-6.881-1.047-14.46.97-17.291 8.007-1.501 3.726-1.245 7.843-1.082 11.768.235 5.57-.512 11.02-.526 16.562 0 .663 1.039.84 1.18.157 1.58-7.523.613-15.102 1.218-22.66.355-4.438 1.914-8.27 6.105-10.336 3.223-1.589 7.009-2.237 10.396-3.455.02-.007.028-.05 0-.05z" fill="#000"/><path d="M38.638 18.75c-5.258.063-10.815 1.324-14.629 5.313-3.536 3.705-4.29 11.298-2.981 16.014.163.584 1.088.484 1.074-.142-.135-5.585-.555-12.659 4.746-16.057 1.85-1.19 4.02-1.859 6.105-2.529s3.743-1.524 5.728-2.429c.086-.043.043-.178-.05-.17zm13.292 84.833c-.263 2.393-.135 4.787-.32 7.18-.043.499.462.941.932.934 31.671-.357 63.328-.35 94.999-.756 4.732-.064 9.463-.114 14.181-.299.221-.007.221-.356 0-.349-12.416.499-25.039-.278-37.47-.328-19.176-.078-38.345-.256-57.529-.22-4.703.007-9.492-.243-14.18.085l.931.933c.05-2.407-.291-4.78-.32-7.18-.007-.812-1.146-.769-1.231 0z" fill="#000"/><path d="M162.277 110.122c.263-2.393.135-4.787.32-7.18.043-.499-.462-.941-.932-.934-31.671.357-63.328.349-94.999.755-4.731.065-9.463.114-14.18.3-.221.007-.221.356 0 .349 12.416-.499 25.039.278 37.47.327 19.176.079 38.345.257 57.528.221 4.703-.007 9.492.242 14.181-.085l-.932-.933c-.05 2.407.292 4.779.32 7.18.007.812 1.146.769 1.231 0zm-108.71 12.473s.036-.057 0-.057-.036.057 0 .057" fill="#000"/><path d="M52.485 122.559a56 56 0 0 0 .214 7.416c.042.47.391.983.939.94 10.104-.798 20.414-.435 30.533-.392 15.397.064 30.788-.021 46.186.086 3.928.028 8.268-.449 12.153-.072.548.05.541-.804 0-.854-9.613-.934-20.243-.57-30.169-.606-15.512-.057-31.03.2-46.543-.014-4.034-.057-8.126-.314-12.16-.021l.94.94a55 55 0 0 1-.164-7.416c.056-1.239-1.872-1.239-1.922 0zm89.976 7.074s.035-.057 0-.057-.036.057 0 .057" fill="#000"/><path d="M143.542 129.611a56 56 0 0 0-.213-7.415c-.043-.47-.392-.983-.939-.941-10.104.798-20.415.435-30.533.392-15.398-.064-30.789.022-46.187-.085-3.927-.029-8.268.449-12.153.071-.548-.05-.54.805 0 .855 9.613.933 20.244.57 30.17.605 15.511.057 31.03-.199 46.542.015 4.035.057 8.126.313 12.161.021l-.94-.94c.221 2.479.278 4.929.164 7.415-.057 1.24 1.871 1.24 1.921 0zm-6.76 87.847c5.543-.933 13.008-.349 19.006-.399 13.697-.121 27.402-.149 41.099-.199 31.152-.114 62.296-.207 93.448-.207 8.517 0 17.048-.192 25.558-.192.669 0 .669-1.04 0-1.04-21.289 0-42.6-.242-63.897-.371a6296 6296 0 0 0-92.7.114c-5.315.043-10.631.093-15.939.207-2.319.05-4.767-.079-7.058.313-1.167.2-.669 1.973.491 1.781zm8.055 2.764c-.128.57 0 1.054.114 1.617.114.534.228 1.061.605 1.467s1.039.178 1.195-.313c.157-.492.029-1.033-.085-1.517-.114-.485-.185-1.005-.513-1.425-.341-.449-1.166-.499-1.316.171m52.349-.307c-.029.755-.264 1.653-.036 2.387.164.527.911.662 1.195.156.498-.883.1-1.987-.441-2.735-.22-.306-.704-.214-.718.192m55.031-.206c.007.449.178.812.263 1.254s.107.848.313 1.232c.207.385.783.364 1.004 0 .533-.883.064-2.407-.755-2.956-.348-.235-.832.079-.825.47m55.672.035c-.641.812-.598 2.18-.128 3.085.306.591 1.252.591 1.565 0 .47-.898.512-2.265-.128-3.085-.285-.363-1.018-.356-1.302 0zm-20.934-95.66c2.483-.015 6.909-.649 9.257.278.733.284.107-.912.534.47.426 1.382.135 3.383.163 4.829.114 5.777.121 11.562.185 17.339.164 14.639.093 29.292.022 43.944-.029 5.486-.064 10.971-.057 16.456 0 .89 1.387.897 1.387 0 .036-24.576.74-49.166.391-73.735-.049-3.37.221-7.031-.419-10.365-.079-.413-.506-.648-.883-.677a85 85 0 0 0-10.58-.092c-.989.05-1.004 1.553 0 1.553" fill="#000"/><path d="M296.874 206.566c-2.484.014-6.91.648-9.258-.278-.733-.285-.106.912-.533-.47s-.136-3.384-.164-4.83c-.114-5.777-.121-11.561-.185-17.338-.164-14.639-.093-29.292-.021-43.945.028-5.485.064-10.97.057-16.455 0-.89-1.388-.897-1.388 0-.036 24.576-.74 49.166-.391 73.735.049 3.369-.221 7.031.419 10.365.079.413.506.648.883.676 3.536.257 7.037.278 10.581.093.989-.05 1.003-1.553 0-1.553m-76.072-57.807c2.633.008 5.308.278 7.934.207 1.971-.057 1.444-.641 1.871.584.477 1.375.157 3.562.185 5.001.107 5.684.292 11.369.285 17.039-.015 11.939-.178 23.878-.171 35.817 0 .89 1.387.897 1.387 0 .022-11.234.2-22.46.264-33.694.028-5.599.234-11.191.163-16.797-.042-2.928.107-6.048-.448-8.94-.078-.413-.505-.648-.889-.677-3.544-.249-7.031-.299-10.581-.085-.989.057-1.003 1.545 0 1.553z" fill="#000"/><path d="M230.721 206.566c-2.633-.007-5.308-.278-7.934-.207-1.971.057-1.444.642-1.871-.584-.477-1.375-.157-3.561-.185-5-.107-5.685-.292-11.369-.285-17.04.014-11.939.178-23.878.171-35.816 0-.891-1.388-.898-1.388 0-.021 11.233-.199 22.46-.263 33.694-.028 5.599-.235 11.19-.164 16.797.043 2.927-.106 6.047.449 8.94.078.413.505.648.889.676 3.544.25 7.03.299 10.581.086.989-.057 1.003-1.546 0-1.553zm-77.359-7.572c3.522.271 7.065-.05 10.58.2l-.711-.542c.142.641.398 2.052 1.387 1.632.52-.221.619-.941.392-1.404a.73.73 0 0 0-.634-.363c-.804.057-.775.855-.818 1.453-.185 2.458-.1 4.965-.085 7.423 0 .89 1.38.897 1.387 0 .007-1.774.022-3.555.071-5.329.015-.513.328-1.923.114-2.414-.163-.364-1.338-.186-1.373-.35.014.079 1.167-.092 1.202-.185.05-.142-.185-.726-.213-.869-.071-.335-.399-.52-.712-.541-3.614-.292-7.151-.755-10.78-.242-.917.128-.604 1.46.207 1.524z" fill="#000"/><path d="M163.28 206.567c-3.522-.271-7.065.05-10.58-.199l.711.541c-.142-.641-.398-2.052-1.387-1.631-.52.221-.619.94-.392 1.403a.73.73 0 0 0 .634.363c.804-.057.775-.854.818-1.453.185-2.457.099-4.965.085-7.422 0-.891-1.38-.898-1.387 0a225 225 0 0 1-.071 5.328c-.015.513-.328 1.923-.114 2.415.163.363 1.337.185 1.373.349-.014-.079-1.167.092-1.203.185-.049.142.185.727.214.869.071.335.398.52.711.541 3.615.293 7.152.756 10.78.243.918-.129.605-1.461-.206-1.525zm146.167-100.84c-5.33 7.123-13.719 3.483-21.041 5.948-5.073 1.709-9.165 5.221-13.085 8.747-5.814 5.222-11.862 9.432-19.169 12.31-6.596 2.6-13.406 4.06-20.4 5.079-7.002 1.018-14.239 2.073-20.322 5.948-4.91 3.127-9.393 7.65-12.581 12.516-3.664 5.592-4.269 12.302-6.19 18.549-2.092 6.81-6.831 10.507-13.47 12.544-16.436 5.058-34.253 2.002-50.584 7.594-1.223.42-.725 2.322.541 1.959 15.121-4.345 31.01-2.864 46.23-6.511 5.4-1.296 11.1-3.141 14.885-7.444 3.914-4.452 4.746-10.471 6.141-16.028 1.971-7.821 6.261-13.812 12.466-18.905 6.461-5.314 14.025-7.01 22.108-8.256 13.818-2.13 27.352-6.105 38.16-15.387 5.65-4.851 11.164-10.521 18.785-11.946 6.589-1.232 14.551.933 18.038-6.425a.294.294 0 0 0-.505-.3zm-24.47-75.702c1.65-7.151-3.459-13.078-11.343-13.078-7.883 0-15.732 5.934-17.383 13.078l-.967 4.182h-5.906l-6.945 30.075 18.18 9.033 22.364-9.033 6.916-29.94h-5.905zm-21.397 0c.776-3.369 4.497-6.069 8.439-6.069s6.418 2.7 5.636 6.07l-.968 4.18h-14.082l.968-4.18zm12.36 29.399-13.356 5.4-10.865-5.393 4.177-18.072h24.221l-4.17 18.072zM3.068 159.958c2.384-1.204 4.846-2.187 7.38-3.021l-.47-.812c-3.65 3.469-6.817 7.779-8.14 12.709-.115.413.37.626.661.384 1.743-1.403 3.864-3.17 6.048-3.832 2.014-.613.883-.713.726.085-.128.656-1.352 1.981-1.68 2.501-1.757 2.792-2.966 5.706-4.176 8.754-.085.221.213.428.398.307 1.509-.955 3.074-2.323 4.725-2.985q.556-.553 1.338-.328c.903-.206 1.053-.05.448.456.007-.078-1.501 2.009-1.103 1.446-1.807 2.55-3.18 5.393-4.255 8.313-.142.392.391.827.74.57 2.199-1.631 4.32-3.091 7.087-3.547l-.669-.869c-1.458 2.464-2.284 5.007-2.59 7.857-.042.42.527.741.868.498 1.281-.933 2.356-1.531 3.893-2.108l-.64-.834c-1.844 2.586-2.64 5.322-2.513 8.492.015.413.456.691.826.477a11 11 0 0 1 2.59-1.19c.662-.235.377-1.303-.292-1.061a17.7 17.7 0 0 0-2.853 1.304l.825.477c-.12-2.964.662-5.514 2.391-7.914.277-.392-.192-.998-.64-.834a17 17 0 0 0-4.17 2.208l.868.499c.299-2.657 1.096-4.965 2.462-7.259.292-.484-.185-.947-.669-.869-2.946.47-5.123 2.045-7.379 3.904l.84.491c1.174-4.195 3.202-7.579 5.906-10.955.092-.114.1-.25 0-.364-1.537-1.809-4.71 1.831-6.176 2.387l-1.06.648a9 9 0 0 1 .882-2.216c.498-1.097 1.095-2.144 1.679-3.191a62 62 0 0 1 3.842-6.098c.207-.285-.135-.669-.44-.577-3.246.976-5.8 2.857-8.547 4.773l.541.542c2.199-4.595 4.455-8.677 8.098-12.331.348-.349-.007-.926-.47-.812-2.718.662-5.258 1.617-7.777 2.828-.754.363-.093 1.503.654 1.125zM318.156 45.085c-.483-.976-3.138-5.827-2.469-6.29.954-.656 5.223.819 6.369 1.047.306.057.69-.207.555-.556-1.672-4.424-3.352-8.847-5.031-13.27l-.605.605c1.872.783 3.722 1.624 5.55 2.507.392.192.819-.2.605-.605-.306-.577-4.355-7.516-3.985-8 .876-1.154 5.636 1.738 6.81 2.479.334.207.655-.192.505-.506-1.551-3.198-2.789-6.496-3.977-9.837-.15-.428-1.609-3.683-1.409-3.89.348-.363 4.07 1.852 4.611 2.13.384.193.832-.306.483-.627-1.978-1.837-3.963-3.597-6.162-5.171-.348-.25-.676.327-.334.577 2.113 1.574 4.127 3.234 5.934 5.157l.484-.627c-1.85-.919-3.721-1.81-5.578-2.714-.235-.114-.612.079-.491.378 1.537 3.81 2.725 7.75 4.297 11.547 1.082 2.614 1.715 2.45-.825 1.318-1.672-.748-3.437-1.197-5.216-1.596a.416.416 0 0 0-.462.606c1.572 3.048 2.981 6.183 4.561 9.224l.605-.605a63 63 0 0 0-5.735-2.7c-.335-.142-.733.278-.605.606 1.273 3.312 2.554 6.625 3.828 9.937l.768 1.987c-.049.791-.512.89-1.394.307-1.551.05-3.401-.634-4.953-.855-.242-.036-.54.15-.434.434.932 2.55 2.014 4.844 3.572 7.088.064.086.192.014.143-.085z" fill="#000"/></g><defs><clipPath id="a"><path fill="#fff" d="M.087 0h347.826v320H.087z"/></clipPath></defs></svg>