<svg width="252" height="337" viewBox="0 0 252 337" fill="none" xmlns="http://www.w3.org/2000/svg">
    <g clip-path="url(#a)">
        <path d="M126.149 318.662c.701.401 21.593 13.089 21.593 13.089s10.016 3.764 13.103 3.872c3.086.107 9.412 1.474 14.949-5.346 5.536-6.82 32.297-45.907 32.297-45.907s5.723-10.509 8.12-20.465c2.397-9.956 5.537-18.62 5.537-18.62l27.497-93.288s3.876-6.27 1.293-11.062c-2.583-4.793-18.456-9.771-18.456-9.771l-31.374-1.474s-33.28-1.167-37.341 5.47c0 0-3.815 1.107-8.981 21.018-5.166 19.912-11.441 40.808-11.441 40.808l-13.166 42.649s-2.461 27.655-2.708 28.761c-.246 1.107-2.497 36.19-2.583 36.383-.086.194.247 7.376.247 7.376l1.414 6.515v-.008Z" fill="#9BE887"/>
        <path d="m59.433 228.783 75.852-8.573 13.011-42.312 8.305-29.344s1.476-13.767 12.673-16.839c11.198-3.073 38.142-1.72 38.142-1.72h4.061l-30.39-75.222-16.242-38.224L90.9 85.01 6.744 76.53l26.083 76.082 26.606 76.172Z" fill="#77CD77"/>
        <path d="M146.826 183.963c3.33-9.765 5.761-19.845 8.62-29.756 2.16-7.492 3.906-18.04 12.236-21.206 4.922-1.87 10.747-1.648 15.929-1.867 5.728-.24 11.455-.312 17.189-.271 5.658.042 11.314.183 16.972.291 2.86.055 5.731.03 8.587.171 2.287.113 4.809.661 5.706 3.039 1.257 3.338-.626 7.215-1.628 10.487-.897 2.926-1.783 5.857-2.668 8.786-3.029 10.011-5.933 20.061-8.884 30.094-3.441 11.693-6.771 23.413-10.268 35.091-2.602 8.69-5.201 17.379-7.823 26.062-2.331 7.713-4.233 15.512-7.801 22.799-1.5 3.061-3.278 5.874-5.102 8.742-2.633 4.145-5.263 8.291-7.923 12.42-3.311 5.138-6.625 10.276-9.938 15.414-3.001 4.658-6.251 9.143-9.282 13.784-1.72 2.63-3.453 5.251-5.144 7.901-1.426 2.231-2.97 4.933-6.088 4.372-1.179-.213-2.222-.935-3.238-1.529-1.324-.778-2.65-1.552-3.973-2.329-2.569-1.507-5.141-3.014-7.71-4.522-2.151-1.261-4.836-2.206-6.602-4.012-1.645-1.682-2.176-4.196-2.461-6.447-.2-1.562-2.589-1.673-2.53 0 .08 2.398.387 4.837 1.528 6.986 1.204 2.268 3.308 3.642 5.414 4.986 5.1 3.255 10.393 6.358 15.689 9.284 2.231 1.231 4.692 1.789 7.175.965 2.483-.824 4.083-2.851 5.368-5.064.443-.763.902-1.512 1.365-2.264 5.376-8.737 10.586-17.564 16.056-26.239 5.395-8.56 10.838-17.086 16.225-25.648 3.469-5.508 6.013-11.609 7.945-17.812.778-2.497 1.337-5.05 2.098-7.55 2.243-7.356 4.427-14.732 6.628-22.099 3.521-11.792 7.164-23.548 10.735-35.321 3.347-11.034 6.691-22.068 10.047-33.1 1.705-5.608 3.471-11.217 5.088-16.85 1.137-3.966 1.511-9.085-2.5-11.585-1.935-1.206-4.355-1.308-6.569-1.319-3.037-.014-6.077-.014-9.116-.014-11.832 0-23.686.097-35.499.824-4.819.296-10.3.244-14.702 2.5-3.228 1.657-5.456 4.519-6.951 7.758-2.002 4.328-3.187 9.007-4.491 13.578-1.381 4.845-2.715 9.704-4.072 14.558-1.461 5.238-3.017 10.448-4.343 15.722-.117.464.559.644.714.196l-.008-.006Z" fill="#000"/>
        <path d="M145.029 190.437c-.625 1.521-1.514 2.896-2.139 4.442a230.41 230.41 0 0 0-1.872 4.798c-1.179 3.122-2.253 6.277-3.311 9.441-2.112 6.311-3.934 12.732-5.733 19.14-1.999 7.127-3.992 14.253-4.709 21.629-.606 6.239-.902 12.503-1.39 18.756a2239.963 2239.963 0 0 0-1.575 21.515c-.216 3.155-.396 6.316-.576 9.475-.063 1.109-.185 2.231-.146 3.34.022.634.266 1.474.243 1.992-.03.738 1.119.735 1.146 0-.013.351.1-.291.15-.482.089-.332.158-.636.216-.962.166-.932.208-1.867.274-2.81.177-2.61.365-5.218.554-7.829.517-7.077.985-14.156 1.495-21.233.47-6.549 1.14-13.056 1.724-19.591.18-2.011.36-4.024.609-6.026.047-.385.009-.147.08-.581.139-.832.316-1.656.502-2.478.728-3.244 1.63-6.446 2.538-9.643 2.021-7.099 3.937-14.223 6.071-21.289a540.95 540.95 0 0 0 3.114-10.614l1.457-5.193c.265-.952.55-1.9.783-2.86.232-.959.246-1.958.52-2.931.006-.022-.025-.028-.033-.009l.008.003Zm100.23-54.554c2.176 1.095 4.579 2.309 5.39 4.789.811 2.481-.028 5.056-.773 7.37l-.34 1.051c-.676 2.108-1.285 4.24-1.924 6.361-2.494 8.296-5.025 16.582-7.486 24.887-3.186 10.757-6.331 21.526-9.653 32.245-3.023 9.76-6.043 19.519-8.936 29.317l-3.023 10.235c-.338 1.145-.709 2.298-.977 3.463-.108.47-.163.957-.211 1.438-.024.246-.035.398.006.047a6.261 6.261 0 0 1-.058.381c-.025.144-.039.293-.053.437-.016.183-.044.363-.066.542-.02.163.111.393.263.457h.005l-.232-.57-.033.113c-.186.625.789.891.977.269.066-.222-.141.304.016-.014.042-.083.081-.166.122-.246.125-.238.244-.479.357-.722.266-.575-.072.102.045-.133.044-.088.108-.18.155-.271a12.6 12.6 0 0 0 .304-.617c.236-.514.388-1.059.559-1.595.967-3.04 1.841-6.107 2.752-9.162a2446.156 2446.156 0 0 0 8.391-28.98c3.178-11.197 6.475-22.359 9.783-33.518 2.616-8.827 5.171-17.674 7.751-26.51.695-2.384 1.418-4.759 2.09-7.151 1.008-3.587 2.553-8.183-.235-11.303-1.268-1.416-3.189-2.079-4.95-2.638-.013-.006-.022.016-.011.025l-.005.003Zm-28.408 126.236c-.726.921-1.044 1.809-1.282 2.965-.302 1.462-.773 2.82-1.287 4.225-1.016 2.774-2.149 5.539-3.668 8.084-1.421 2.373-2.705 4.881-4.228 7.187-1.304 1.975-2.76 3.864-4.119 5.799-3.026 4.304-6.002 8.643-9.011 12.957-4.111 5.893-8.324 11.717-12.463 17.588a319.94 319.94 0 0 0-4.941 7.191c-.512.768-.994 1.565-1.526 2.323-.088.127.02-.023.056-.07a5.112 5.112 0 0 1-.271.33c-.366.409-.74.807-1.144 1.175-1.456 1.33-3.222 2.326-5.16 2.746-2.705.584-5.512-.312-8.161-.83-1.381-.268-2.777-.268-4.144-.553-1.232-.257-2.456-.575-3.676-.874-1.124-.273-2.647-.591-3.566-.826-.858-.219-1.224 1.106-.365 1.324.974.249 1.935.545 2.917.78 1.038.246 2.074.49 3.115.727 1.27.291 2.4.753 3.629 1.145 2.35.75 5.13 1.303 7.596 1.463 2.076.136 4.131-.323 6.002-1.208 4.418-2.094 6.741-6.485 9.357-10.365 4.105-6.087 8.108-12.227 12.288-18.266 2.78-4.016 5.579-8.02 8.339-12.052 1.616-2.359 3.227-4.724 4.866-7.066 1.761-2.517 3.181-5.13 4.695-7.796a48.18 48.18 0 0 0 3.87-8.805c.51-1.557.881-3.145 1.351-4.71.471-1.565 1.194-2.854.978-4.571 0-.02-.028-.039-.045-.02l-.002.003Z" fill="#000"/>
        <path d="M136.868 216.413c2.384.919 4.856 1.555 7.32 2.21 5.318 1.413 10.66 2.727 16.001 4.06 11.978 2.989 23.943 6.059 35.966 8.863 2.998.7 6.09 1.438 9.107 1.87.277.038.399-.385.117-.426-2.434-.346-4.97-1.375-7.372-1.983-5.335-1.347-10.678-2.649-16.021-3.966-11.989-2.951-23.948-6.048-35.963-8.896-3.026-.717-6.06-1.306-9.094-1.958-.149-.033-.202.171-.061.224v.002Z" fill="#000"/>
        <path d="M205.572 233.748c2.938.94 5.878 1.866 8.853 2.671 2.882.78 5.878 1.969 8.84 2.298.612.067.891-.94.321-1.183-2.746-1.178-5.938-1.543-8.837-2.29a282.218 282.218 0 0 1-8.908-2.473c-.628-.182-.886.778-.269.977Zm-57.401-3.554c2.187 1.145 4.737 1.8 7.101 2.5 3.364.996 6.744 1.922 10.121 2.862 5.924 1.651 11.851 3.33 17.739 5.108 2.071.625 5.39 1.654 5.59 4.254.155 2.018-1.207 4.823-3.026 5.788-1.429.757-3.07.08-4.518-.31a365.609 365.609 0 0 1-3.488-.96c-6.47-1.811-12.959-3.548-19.428-5.351-3.64-1.015-7.259-2.113-10.893-3.147-2.603-.741-5.249-1.834-7.934-2.179-.596-.078-.764.821-.294 1.087 2.223 1.25 4.93 1.797 7.353 2.566 3.405 1.084 6.829 2.096 10.256 3.097 6.921 2.025 13.809 4.165 20.788 5.988 2.594.677 6.101 2.204 8.676 1.048 3.346-1.505 5.669-7.069 3.297-10.172-2.151-2.815-6.218-3.208-9.435-4.051-3.275-.86-6.561-1.698-9.819-2.622-4.202-1.189-8.391-2.453-12.61-3.578-3.039-.811-6.284-1.906-9.442-2.044-.064-.003-.089.091-.034.122v-.006Z" fill="#000"/>
        <path d="M142.383 239.71c-1.118-1.081-2.804-1.173-4.028-2.129-1.523-1.19-2.281-3.46-1.733-5.31.471-1.588 1.996-3.609 3.818-3.38.941.119 1.896.412 2.821.617.924.205 1.782.595 2.665.249.227-.088.322-.351.144-.542-.802-.866-2.292-.863-3.407-1.115-1.116-.251-2.353-.743-3.48-.434-1.833.506-3.297 2.522-3.848 4.251-.665 2.085-.119 4.474 1.276 6.159 1.218 1.468 3.732 2.812 5.636 2.132.205-.072.302-.332.133-.498h.003Zm19.671-5.998-.301.06c-.261.053-.457.288-.529.529-.556 1.822-1.052 3.664-1.608 5.489-.518 1.698-.994 3.333-1.097 5.111-.008.144.2.191.266.072.88-1.563 1.381-3.181 1.935-4.879.595-1.828 1.29-3.595 1.966-5.392.096-.26-.028-.542-.194-.739l-.158-.182c-.069-.08-.183-.092-.277-.075l-.003.006Zm20.409 5.915c.318.581 1.32.885 1.913 1.092 1.207.423 2.436.772 3.648 1.173.989.326 2.04.683 2.915 1.269 1.885 1.272 1.982 3.324 1.207 5.296-.556 1.408-1.589 3.075-3.089 3.598-.82.285-1.589.083-2.422.033-.427-.025-.349.011-.914-.135-1.016-.266-2.04-.501-3.053-.775-.612-.166-1.302-.508-1.85-.016l.568-.15-.02-.005c-.722-.216-1.029.91-.31 1.126l.02.005-.407-.406c.216.84 1.647.987 2.334 1.222 1.021.351 2.079.769 3.155.915 1.722.23 3.217.473 4.759-.531 1.542-1.004 2.503-2.652 3.065-4.369.595-1.817.783-3.952-.554-5.498-.869-1.007-1.968-1.618-3.195-2.058-1.528-.547-3.07-1.133-4.634-1.57-.8-.224-2.345-.761-3.111-.299a.064.064 0 0 0-.023.089l-.002-.006Zm46.51-75.725c-.382-2.002-.986-4.388-.568-6.421l-.753.097c1.625 3.08 4.092 5.633 6.52 8.097 2.516 2.553 5.224 4.909 8.025 7.146.822.658 2.245-.177 1.578-1.217-2.491-3.874-4.391-8.039-6.018-12.339-.748-1.978-1.515-3.949-2.423-5.86-.908-1.911-2.84-4.19-2.765-6.358l-1.553.644c1.099 1.043 2.264 2.077 3.563 2.873 1.376.844 2.785 1.533 4.016 2.592 2.351 2.021 4.934 3.694 7.132 5.91.927.934 2.342-.247 1.771-1.367-4.219-8.263-9.235-16.197-12.042-25.102l-1.702.99c2.408 2.981 4.778 5.985 7.267 8.894 2.488 2.909 4.656 6.148 7.336 8.861.96.973 2.314-.255 1.793-1.383-2.164-4.677-3.172-9.823-5.431-14.48l-1.428 1.1c2.699 2.495 4.886 5.65 6.934 8.681.548.811 1.669.454 1.764-.478.127-1.264-.695-2.782-1.166-3.905-.526-1.253-1.157-2.547-2.021-3.606-.75-.918-2.046.39-1.304 1.302.648.797 1.025 2.119 1.457 3.067.384.852 1.207 2.166 1.143 3.145l1.763-.479c-2.253-3.086-4.57-6.313-7.283-9.013-.778-.774-1.827.202-1.429 1.101 1.061 2.406 1.598 5.006 2.417 7.497.82 2.492 1.539 4.898 2.613 7.218l1.794-1.383c-2.696-2.729-5.392-5.409-7.704-8.49a311.503 311.503 0 0 0-7.073-9.087c-.651-.802-1.996.064-1.703.99 2.838 8.955 7.361 17.589 12.059 25.697l1.772-1.366c-2.217-2.008-4.731-3.941-7.444-5.232-2.879-1.372-5.282-3.629-7.571-5.833-.582-.561-1.52-.141-1.553.644-.095 2.227 1.381 4.049 2.369 5.927 1.127 2.14 2.104 4.361 3.043 6.587 1.86 4.406 3.316 8.98 5.877 13.056l1.578-1.217c-2.713-2.215-5.299-4.571-7.812-7.007-2.514-2.437-4.781-5.125-7.508-7.318-.26-.21-.712-.097-.703.291.055 2.411-.039 4.427 1.234 6.59.047.08.158.025.142-.061l-.003.005Zm.426-33.122c.269.362.554.639.875.951.396.382.822.587 1.32.813 1.282.578 2.085-1.324.748-1.772-.521-.174-.988-.332-1.545-.318-.454.011-.858.016-1.309.102-.092.017-.15.152-.094.23l.005-.006Z" fill="#000"/>
        <path d="M230.028 130.905c.459.918 1.605 1.2 2.505 1.581.814.346 1.667.606 2.503.896 1.486.52 2.992.988 4.465 1.544 1.337.503 2.644 1.092 3.942 1.687 1.941.89 3.945 1.678 5.849 2.61.922.451 1.717-.86.812-1.388-1.888-1.101-3.652-2.345-5.587-3.385a42.573 42.573 0 0 0-4.078-1.908c-1.392-.567-2.893-1.104-4.39-1.507-.969-.263-1.941-.548-2.929-.714-.988-.166-2.038-.553-2.934-.022-.216.127-.266.387-.158.603v.003Zm-59.3 4.149c.017 0 .017-.029 0-.029s-.017.029 0 .029Zm-21.391 62.3c-1.362 2.187-2.004 4.568-2.76 7.021-.756 2.453-1.603 5.116-2.146 7.705-.21 1.007 1.207 1.399 1.542.423.858-2.511 1.589-5.102 2.32-7.655.731-2.552 1.478-4.815 1.406-7.398-.005-.193-.26-.262-.362-.096Z" fill="#000"/>
        <path d="M145.243 213.098c1.86.558 3.801.926 5.689 1.377 4.241 1.012 8.482 2.024 12.734 2.992 9.586 2.185 19.173 4.361 28.754 6.555 2.317.53 4.767.76 7.046 1.429.866.255 1.237-1.098.373-1.349-6.057-1.773-12.247-3.059-18.392-4.475-9.581-2.207-19.16-4.416-28.758-6.549-2.325-.517-4.711-.926-7.003-1.579-1.03-.293-1.465 1.292-.443 1.602v-.003Z" fill="#000"/>
        <path d="M200.033 225.111c1.415-2.373 2.162-4.928 3.006-7.553.845-2.624 1.894-5.467 2.395-8.232a.792.792 0 0 0-1.525-.421c-1 2.652-1.761 5.468-2.586 8.181-.825 2.712-1.672 5.157-1.653 7.925 0 .194.263.263.363.097v.003Z" fill="#000"/>
        <path d="M204.62 208.349c-1.855-.55-3.818-.854-5.706-1.266-4.302-.938-8.604-1.872-12.914-2.766-9.678-2.002-19.359-3.996-29.034-6.009-1.639-.34-3.289-.62-4.939-.907-.492-.086-.985-.172-1.478-.26-.144-.028-.288-.053-.432-.08-.16-.028-.423-.105-.216-.045-.869-.251-1.237 1.101-.373 1.35 6.087 1.759 12.391 2.84 18.589 4.137 9.675 2.025 19.348 4.049 29.037 6.004 2.322.467 4.739.802 7.023 1.444 1.033.29 1.464-1.297.443-1.602Zm-46.026-34.983c2.126.572 4.26.932 6.439 1.242.939.135 1.877.26 2.821.356.944.097 2.076.368 3.029.031.42-.15.539-.728.127-.971-.748-.442-1.509-.426-2.367-.525-1.135-.133-2.27-.263-3.405-.382-2.179-.23-4.338-.484-6.528-.589-.487-.025-.576.716-.113.841l-.003-.003Zm17.191 2.42c1.249.758 2.988 1.482 4.471 1.258.496-.075.463-.744.128-.971-1.16-.793-3.12-.876-4.474-.746-.235.022-.346.323-.125.459Zm10.295 1.844c1.703.935 3.674 1.151 5.556 1.543 2.035.424 4.067.847 6.102 1.273 3.892.818 7.923 1.963 11.904 2.19.706.041.761-.957.157-1.173-3.781-1.335-7.981-1.828-11.912-2.583-1.954-.373-3.906-.752-5.857-1.134-1.952-.381-3.835-.948-5.778-.746-.31.033-.49.453-.172.628v.002Zm-22.428-18.7c.997.207 2.076.335 3.098.429.434.038.877.052 1.309-.033.537-.106 1.282-.628 1.847-.437.379.127.603-.307.467-.609-.575-1.289-2.081-.373-3.061-.321-1.307.07-2.702-.594-3.826.343-.213.177-.1.573.166.628Zm12.662.498c4.219 1.327 8.842 1.454 13.221 1.95 2.232.251 4.466.553 6.702.76 1.224.113 3.267.412 3.915-.94.111-.23-.028-.437-.269-.468-.761-.096-1.531.092-2.303.014-.894-.088-1.788-.238-2.685-.337l-6.165-.689c-4.067-.453-8.241-1.255-12.333-.926-.357.027-.449.522-.086.636h.003Zm24.669 1.328c.018 0 .018-.026 0-.026-.017 0-.017.026 0 .026Zm2.281 1.379c2.059.708 4.111 1.112 6.259 1.458 1.749.279 3.964.854 5.703.478.454-.097.584-.841.135-1.042-1.647-.744-3.856-.689-5.644-.872-2.151-.221-4.241-.417-6.406-.378-.211.002-.241.29-.047.356ZM5.608 76.49c1.974 5.383 3.632 10.913 5.465 16.345 4.039 11.961 8.16 23.891 12.258 35.832 4.9 14.281 9.938 28.515 14.883 42.783 4.307 12.433 8.617 24.867 12.939 37.298 2.236 6.432 4.398 12.898 6.757 19.286.064.175.127.349.197.52.41 1.026 2.093.578 1.677-.462-2.131-5.32-3.795-10.874-5.658-16.291-4.12-11.98-8.22-23.969-12.322-35.954-4.886-14.281-9.653-28.601-14.584-42.865-4.293-12.426-8.537-24.871-12.922-37.263-2.267-6.402-4.404-12.87-6.94-19.176-.092-.224-.18-.448-.277-.669-.36-.827-1.783-.235-1.47.62l-.003-.003Z" fill="#000"/>
        <path d="M5.943 77.03c1.548-.304 4.097 1.062 5.6 1.44 2.005.507 4.153.612 6.202.83 6.231.67 12.482 1.165 18.73 1.665 14.276 1.143 28.555 2.343 42.842 3.358 2.611.185 5.216.398 7.824.622 1.359.116 2.536.07 3.698.484 1.163.415 1.6-1.377.49-1.776-1.035-.37-2.17-.503-3.25-.674-2.19-.349-4.393-.603-6.597-.852-6.48-.739-12.983-1.245-19.483-1.74-14.23-1.086-28.464-2.112-42.688-3.296-2.394-.2-4.794-.531-7.194-.628-.695-.027-1.332.047-2.124-.047-1.096-.127-2.862-.758-4.288-.263-.553.194-.332.988.241.874l-.003.003Zm52.842 25.675c.872.235 1.711.611 2.578.821.822.199 1.71.208 2.552.293 1.664.166 3.327.299 4.994.429 3.338.263 6.68.528 10.016.824 2.566.227 5.135.509 7.707.678 1.37.088 2.868.077 4.207.42.97.246 1.695-1.239.71-1.681-1.31-.589-2.755-.819-4.162-1.062-2.516-.434-5.074-.647-7.618-.855a836.112 836.112 0 0 0-9.875-.741c-1.824-.13-3.648-.268-5.475-.354-.83-.039-1.68-.135-2.511-.116-1 .022-1.999.343-2.998.456-.48.056-.654.75-.122.891l-.003-.003Zm-23.309-2.464c.51.476.878.924 1.572 1.136 1.063.327 2.223.418 3.32.554 3.35.417 6.818.984 10.19.616.98-.105 1.315-1.51.243-1.808-3.144-.871-6.46-.9-9.692-1.223-1.087-.11-2.17-.23-3.258-.334-.836-.08-1.353.22-2.057.282-.368.03-.628.487-.32.774l.002.003Zm48.307 24.886c.709.36 1.005.689 1.821.802.911.128 1.844.15 2.76.194 1.526.072 3.051.155 4.574.263 1.76.124 3.599.049 5.343.282.946.127 1.193-1.292.465-1.715-1.606-.932-3.624-1.018-5.43-1.12a180.276 180.276 0 0 0-4.71-.191c-.828-.025-1.656-.052-2.484-.019-1.03.041-1.437.329-2.34.722-.31.135-.281.639 0 .782Zm-40.465-1.584c3.6 2.024 8.347 1.662 12.352 1.806 7.265.262 14.565.6 21.823.152 1.202-.075 1.168-1.72 0-1.842-7.04-.73-14.135-.606-21.202-.796a495.536 495.536 0 0 1-8.09-.277c-.99-.041-1.87-.069-2.834.091-.543.089-1.149.125-1.697.036-.476-.074-.833.559-.349.83h-.003ZM60.03 230.559c.906-.354 1.941-.467 2.893-.63a187.17 187.17 0 0 1 5.814-.88c5.802-.81 11.621-1.524 17.438-2.229 13.052-1.584 26.108-3.141 39.124-4.994 3.53-.504 7.079-.952 10.572-1.66 1.03-.207.596-1.783-.434-1.576.158-.033-.319.047-.272.039a113.206 113.206 0 0 1-2.591.271c-1.976.188-3.956.381-5.932.569-5.905.559-11.81 1.09-17.709 1.715-13.08 1.388-26.155 2.873-39.191 4.627-2.334.315-4.67.633-6.996 1.012-1.16.188-2.439.304-3.543.733-1.847.719-1.041 3.73.828 3v.003Z" fill="#000"/>
        <path d="M89.763 84.923c1.528 4.115 2.978 8.26 4.537 12.364 3.256 8.559 6.459 17.138 9.72 25.697 4.036 10.589 8.067 21.184 12.094 31.776 3.882 10.204 7.718 20.428 11.691 30.597 2.882 7.378 5.766 14.754 8.712 22.105l.722 1.8c.532 1.319 2.686.78 2.176-.6-2.541-6.894-5.066-13.794-7.607-20.689-3.712-10.069-7.516-20.105-11.303-30.146-4.028-10.683-8.056-21.367-12.089-32.047a4770.58 4770.58 0 0 0-10.27-26.886c-1.856-4.823-3.61-9.732-5.828-14.405-.086-.18-.169-.36-.26-.537-.629-1.258-2.799-.376-2.3.968l.005.003Z" fill="#000"/>
        <path d="M92.165 85.288c3.245-2.279 6.18-5.08 9.141-7.799 5.684-5.218 11.35-10.456 17.017-15.694 12.56-11.61 25.117-23.227 37.586-34.937 3.468-3.257 6.86-6.664 10.494-9.74.881-.743-.39-2.005-1.265-1.263-8.892 7.522-17.327 15.63-25.875 23.534-12.557 11.615-25.048 23.302-37.597 34.925-3.51 3.25-6.965 6.516-10.317 9.917-.52.529.171 1.513.816 1.06v-.003Z" fill="#000"/>
        <path d="M164.289 16.56c.373.688.645 1.817.899 2.71.582 2.05 1.429 4.049 2.251 6.015 2.691 6.432 5.312 12.893 7.928 19.356 7.397 18.271 14.875 36.507 22.366 54.737 4.196 10.213 8.448 20.404 12.692 30.597.357.86 1.778.501 1.426-.392-7.422-18.891-14.81-37.794-22.302-56.657-6.248-15.733-12.64-31.413-19.234-47.005-1.417-3.35-2.846-7.188-5.229-9.973-.385-.45-1.06.125-.795.614l-.002-.002ZM52.454 145.667c1.899.923 4.435 1.161 6.494 1.203 3.973.077 7.945-.033 11.915-.161 8.97-.287 17.947-.522 26.914-.885 1.741-.069 3.482-.107 5.226-.105.969 0 2.021-.033 2.749.183 1.171.346 1.553-1.336.49-1.776-1.996-.824-4.606-.677-6.719-.746-3.997-.13-8 .019-11.997.168-8.95.332-17.897.767-26.853.985-1.692.041-3.341.006-5 .299-.866.152-2.007.207-2.873.008-.48-.111-.833.595-.349.83l.003-.003Zm61.213 41.59c1.077.329 2.276.249 3.394.335.709.055 1.351.035 2.043-.128.692-.163.828-1.037.407-1.537-.545-.647-1.373-.827-2.181-.902-1.169-.108-2.539-.169-3.663.18-1.008.312-1.016 1.742 0 2.052Zm-48.554 1.178c3.322 1.715 7.702 1.162 11.287 1.015 6.627-.271 13.257-.672 19.876-1.112 3.71-.249 7.403-.572 11.096-.99 1.151-.13 1.215-1.814 0-1.842-12.325-.257-24.624 1.383-36.94 1.726-1.094.031-2.08.172-3.143.346-.57.094-1.254.135-1.827.025-.476-.092-.836.578-.349.829v.003Zm24.541-22.707c.598.124 1.155.395 1.753.492.703.113 1.431.039 2.14.019 1.207-.033 2.414-.105 3.62-.168 2.24-.119 4.48-.224 6.722-.294 1.722-.052 3.449-.052 5.166-.143.916-.05 2.01-.197 2.915-.014.96.193 1.708-1.2.709-1.682-2.401-1.158-5.606-.86-8.175-.757-2.281.088-4.56.221-6.838.367-1.376.089-2.749.169-4.122.307-.626.064-1.287.075-1.905.205-.722.152-1.298.556-1.987.799-.39.139-.47.777 0 .874l.002-.005Zm-31.738 1.136c.324.216.692.324 1.03.509-.238-.13.387.276.545.346.307.135.662.16.991.188 1.85.168 3.712.121 5.567.069 5.285-.152 10.647-.271 15.854-1.25 1.066-.199.745-1.756-.243-1.809-5.136-.268-10.274.34-15.403.553-1.744.072-3.494.141-5.238.161-1.268.014-1.797.456-2.873.387-.48-.031-.58.614-.23.846Zm36.641 42.702c.891.069 1.772.302 2.658.34.886.039 1.802-.121 2.68-.199 1.622-.138 3.238-.32 4.858-.495a615.74 615.74 0 0 1 9.783-.987c2.522-.229 5.047-.404 7.569-.636 1.276-.119 2.94-.429 4.172-.13.966.235 1.705-1.247.708-1.681-1.293-.565-2.785-.581-4.172-.614-2.624-.061-5.248.193-7.859.448-3.322.323-6.641.699-9.958 1.081-1.727.199-3.452.393-5.173.633-.878.122-1.8.177-2.664.374-.93.21-1.802.691-2.72.973-.505.155-.386.852.12.891l-.002.002Zm-21.507 1.198c.167.157.886.721.316.121.318.335.382.628.875.808.983.359 2.33.229 3.35.202 3.377-.097 6.959-.147 10.206-1.148 1.036-.318.767-1.709-.243-1.809-3.19-.312-6.409.283-9.598.451-1.024.056-2.054.061-3.076.13-.423.031-.8.086-1.157.329-.573.387.41.05-.349.141-.362.042-.634.479-.32.775h-.004Zm70.581-143.328c.54-.293.989-.207 1.501-.602.645-.498 1.254-1.057 1.877-1.582a298.268 298.268 0 0 0 3.604-3.084c2.162-1.883 4.327-3.764 6.489-5.644 2.162-1.88 4.319-3.963 6.475-5.965.593-.55-.199-1.626-.88-1.14-2.403 1.715-4.648 3.607-6.882 5.531l-6.279 5.426a304.72 304.72 0 0 0-3.743 3.283c-.606.542-1.226 1.076-1.821 1.629-.565.525-.51.962-.944 1.546-.28.376.249.796.603.602Zm-25.729 22.282c.061-.03.122-.064.186-.091.263-.122.147.008.102-.011.327.135.692-.045.936-.246 5.977-4.962 11.995-9.981 17.496-15.462.565-.562-.205-1.651-.88-1.14-6.268 4.73-12.098 10.042-17.975 15.246-.255.225-.33.617-.247.935-.06-.23-.06-.036-.218.172-.296.384.254.771.603.603l-.003-.006Zm6.611 19.325c.521-.345 1.127-.782 1.567-.932 1.47-.497 2.76-1.833 3.995-2.801 3.734-2.932 7.463-5.868 11.175-8.828 8.328-6.628 16.821-13.1 24.965-19.953 2.071-1.742 4.108-3.537 6.218-5.235.728-.586-.305-1.606-1.027-1.026.205-.166-.302.227-.427.318-.384.29-.769.581-1.157.871-1.223.921-2.447 1.84-3.671 2.76-3.823 2.874-7.546 5.866-11.289 8.839-8.335 6.618-16.69 13.21-24.978 19.889-1.371 1.104-3.112 2.152-4.291 3.46-.454.503-.512.885-1.019 1.374l-.595.573c-.352.343.111.973.534.691Zm21.153 8.615c.623-.371 1.304-.492 1.91-.849.772-.454 1.481-1.148 2.19-1.695 1.439-1.115 2.881-2.227 4.318-3.344 3.012-2.34 5.991-4.726 8.983-7.091 4.693-3.705 9.451-7.34 14-11.222 1.032-.882 2.043-1.803 3.103-2.652.728-.586-.304-1.607-1.027-1.026.202-.163-.125.086-.191.135l-.556.407-1.866 1.36a198.933 198.933 0 0 0-5.828 4.398c-5.522 4.347-11.048 8.694-16.573 13.039-1.606 1.264-3.195 2.547-4.79 3.825l-2.397 1.924c-.797.642-1.132 1.402-1.808 2.094-.346.354.097.954.535.691l-.003.006Zm-12.881 10.821c2.192-1.579 4.557-3.202 6.298-5.265.529-.628-.122-1.521-.88-1.14-2.414 1.214-4.546 3.125-6.584 4.898-.811.708.275 2.149 1.166 1.507Zm46.455-11.159.166.114c.258.177.717.188.975 0 2.798-2.049 5.752-4.118 8.097-6.687.545-.597-.144-1.563-.88-1.14-3.023 1.732-5.731 4.066-8.386 6.314-.238.202-.36.644-.249.938.069.185.108.345.28.461h-.003Zm-38.687 30.841c.266-.16.54-.376.825-.492.144-.058-.291.072.088-.011.205-.044.405-.011.615-.091.393-.153.761-.551 1.096-.808 1.772-1.372 3.544-2.741 5.313-4.112 5.348-4.143 10.624-8.382 15.934-12.572 3.256-2.569 6.423-5.219 9.576-7.912.62-.528-.211-1.626-.881-1.14-10.442 7.578-20.518 15.686-30.573 23.767-.393.318-.803.622-1.185.951-.437.379-.421.634-.664 1.093.105-.199-.238.166-.382.32-.097.108-.202.211-.302.316-.338.356.094.957.534.691h.006Zm-116.948-46.96a45.82 45.82 0 0 0 3.668-3.656l-1.182-.49c.094 2.071.413 4.104.96 6.103.236.858 1.57.493 1.335-.367a26.148 26.148 0 0 1-.91-5.736c-.025-.561-.762-.96-1.183-.49a45.802 45.802 0 0 1-3.668 3.657c-.667.591.316 1.568.98.979Zm8.915 23.816c.379-.49.772-.96 1.223-1.383.235-.221.966-1.026 1.304-1.045-.139-.349-.141-.235-.011.34.008.235-.017.467-.075.694-.091.484-.288.954-.482 1.405-.623 1.468-1.265 2.771-1.035 4.405.066.471.667.592 1.016.412a10.43 10.43 0 0 1 3.095-1.009l-.673-1.156-.36.398c-.598.659.38 1.64.98.979l.36-.398c.487-.539 0-1.267-.672-1.156a11.528 11.528 0 0 0-3.428 1.148l1.016.412c-.343-2.439 2.353-4.53 1.52-7.027-.833-2.498-4.033 1.067-4.756 2.002-.54.694.435 1.681.98.979h-.003Zm8.23 21.609c.609-.37 1.229-.666 1.932-.824a5.332 5.332 0 0 1 1.18-.135c-.2-.202-.364-.191-.488.03-.43.177-.92.858-1.26 1.176-.479.448-.957.896-1.44 1.344-.528.492.031 1.302.673 1.156.681-.155 1.775-.559 2.448-.374 1.115.307.822 1.032.119 1.679-.897.827-2.057 1.468-3.051 2.168-.722.509-.03 1.709.698 1.195 1.486-1.046 4.626-2.459 4.434-4.679-.213-2.512-3.396-1.687-5.018-1.322l.672 1.156c.95-.888 2.002-1.732 2.877-2.688.426-.468.824-1.154.382-1.762-.964-1.322-3.857.072-4.864.686-.759.462-.064 1.659.697 1.194h.008Zm6.737 18.477c-.329 1.994.061 3.871 1.271 5.508.205.277.617.484.947.249 1.143-.824 1.893-1.814 2.367-3.144h-1.335l.762 3.327c.133.578.144 1.399.625 1.822.233.205.562.271.84.108l.113-.066c.254-.15.412-.492.318-.78l-.033-.1c-.272-.843-1.609-.484-1.335.368l.034.1.318-.78-.113.066.838.108c-.133-.116-.351-1.573-.445-1.98l-.584-2.558c-.164-.711-1.122-.6-1.335 0a4.693 4.693 0 0 1-1.73 2.317l.947.249c-.972-1.313-1.398-2.82-1.133-4.444.145-.871-1.19-1.244-1.334-.368l-.003-.002Zm5.986 22.104c-.227 1.466-.451 2.932-.678 4.397-.103.67.611 1.165 1.157.672.257-.232 1.741-1.576 2.07-.713.153.398-.462.965-.683 1.192-.62.639-1.29 1.217-1.99 1.764-.701.548.284 1.521.98.979 1.11-.868 3.977-2.768 2.967-4.533-1.01-1.764-3.187-.688-4.324.335l1.157.672.678-4.397c.136-.871-1.199-1.244-1.334-.368Z" fill="#000"/>
        <path d="M54.572 188.059c.905-.639 1.813-1.275 2.718-1.914.723-.508.033-1.709-.698-1.194-.905.639-1.813 1.275-2.718 1.913-.723.509-.033 1.709.698 1.195Zm7.737 20.575c-2.206.307-2.472 3.93-2.378 5.625.116 2.096 1.758 2.984 3.654 2.121 1.047-.475 3.898-2.596 2.27-3.846-1.628-1.25-3.543.984-3.984 2.353-.274.849 1.064 1.214 1.335.368.152-.47.382-.888.761-1.211.432-.371.79-.451.404.06-.384.512-1.373 1.234-2.045 1.228-1.282-.014-1.063-1.573-.972-2.45.08-.788.277-2.765 1.323-2.912.878-.122.504-1.455-.368-1.333v-.003Zm43.266-115.329a40.857 40.857 0 0 1 3.505-2.398l-1.016-.78a23.188 23.188 0 0 0-1.044 7.49c.022.887 1.406.89 1.384 0a22.05 22.05 0 0 1 .994-7.124c.177-.576-.509-1.093-1.016-.78a41.462 41.462 0 0 0-3.505 2.397c-.697.534-.011 1.734.698 1.195Z" fill="#000"/>
        <path d="M106.417 96.225a11.78 11.78 0 0 1 3.283-1.543c.853-.249.49-1.584-.368-1.333-1.287.376-2.5.935-3.615 1.682-.737.492-.045 1.692.697 1.194h.003Zm7.901 11.742c-1.667.827-3.248 2.661-2.146 4.583.479.832 1.29 1.186 2.226 1.12.717-.05 1.725-.6 2.281.13.626.819-.249 1.833-.916 2.226-.13.078-.814.47-.911.396.03.022.343-.584.371-.636.349-.637.722-1.253 1.033-1.911.503-1.071 1.157-2.34 1.198-3.54.056-1.568-2.054-3.034-2.962-1.247-.401.79.792 1.493 1.196.696l.396.357-.086.584c-.083.356-.224.713-.354 1.056a18.889 18.889 0 0 1-1.019 2.257c-.418.782-1.188 1.654-1.127 2.602.133 2.049 2.669.899 3.577.136 1.248-1.049 1.675-3.103.304-4.268-.672-.572-1.475-.514-2.292-.373-.556.097-1.304.31-1.722-.288-.191-.273-.185-.771-.102-1.081.21-.788 1.077-1.275 1.75-1.609.797-.396.096-1.59-.698-1.195l.003.005Zm9.14 22.241c.355-1.27-.991-2.119-2.098-1.563-1.24.62-2.361 2.633-1.877 3.999.534 1.505 2.345 1.579 3.535.805 1.315-.855 1.838-2.42 1.528-3.913-.185-.891-1.453-.49-1.334.367.316 2.265.695 4.478 1.863 6.477.449.769 1.647.072 1.196-.697-1.105-1.888-1.428-4.012-1.725-6.147l-1.334.367c.166.802-.161 2.252-1.13 2.473-.293.238-.55.135-.772-.307-.617-.213-.709-.556-.277-1.032l.233-.354a2.16 2.16 0 0 1 .861-.84c-.241.857 1.093 1.225 1.334.367l-.003-.002Zm2.581 19.762a13.651 13.651 0 0 0 2.369 5.033c.529.703 1.73.014 1.196-.697a12.696 12.696 0 0 1-2.231-4.704c-.211-.865-1.545-.498-1.334.368Zm3.391-1.281c-.352 1.618-.144 3.383.828 4.76.78 1.103 2.342 1.759 3.322.492s.268-3.039-.477-4.176c-.794-1.217-2.289-1.883-3.62-1.103-.767.45-.072 1.645.697 1.194.77-.45 1.503.211 1.891.877.34.586.988 1.93.208 2.304-1.479.705-1.695-3.161-1.518-3.98.189-.868-1.146-1.239-1.334-.368h.003Zm5.326 20.634a15.764 15.764 0 0 0 1.863 6.075c.426.78 1.622.083 1.196-.696a13.956 13.956 0 0 1-1.675-5.377c-.086-.876-1.473-.887-1.384 0v-.002Zm2.505-.705a48.095 48.095 0 0 0 2.694 5.298c.451.766 1.65.072 1.196-.697a46.982 46.982 0 0 1-2.694-5.298c-.351-.816-1.544-.111-1.196.697Zm5.238 21.9c.066.163.135.326.188.495.022.066.03.146.058.21.022.05.006-.009 0-.009 0 0 .031-.121.053-.154a.686.686 0 0 0-.058.102c-.252.523-.025 1.076.18 1.573.141.346.459.592.852.484.327-.088.626-.503.485-.851-.067-.164-.136-.327-.189-.495-.022-.067-.03-.147-.058-.211-.022-.049-.005.009 0 .009 0 0-.03.121-.052.155.022-.031.041-.07.058-.103.252-.522.025-1.075-.18-1.573-.141-.346-.46-.592-.853-.484-.326.088-.625.503-.484.852Zm5.476-22.257c.83-.23 1.534-.788 2.035-1.482.431-.603.993-1.817 1.818-1.859.529-.025.859-.622.521-1.062-.338-.439-.994-.276-1.157.224-.258.786-1.595 1.007-2.287 1.261-.803.296-1.525.83-1.968 1.566-.415.691.271 1.565 1.041 1.352h-.003Zm62.196-61.792a97.378 97.378 0 0 0 3.039 7.359c.881 1.908 1.631 4.333 3.273 5.755 3.513 3.042 7.549-.238 11.347-.49.811-.052.792-1.164 0-1.244-1.791-.186-3.455.254-5.188.625-1.733.37-3.649.644-4.955-.927-1.307-1.571-1.968-3.556-2.841-5.312a94.82 94.82 0 0 0-3.418-6.295c-.385-.647-1.531-.224-1.257.529Zm-90.608 137.707c-.567 7.105-.891 14.265-1.151 21.389-.128 3.473-.211 6.947-.319 10.42-.11 3.659-.326 7.315-.03 10.968.044.537.927.758 1.019.138.514-3.501.562-7.027.683-10.558.122-3.532.255-7.13.374-10.695.238-7.201.36-14.458.255-21.662-.009-.539-.789-.525-.831 0ZM.016 82.196c1.29 4.876 3.09 9.594 5.65 13.946.216.365.886.12.712-.298-1.91-4.602-3.86-9.184-5.562-13.87-.18-.494-.938-.303-.8.222ZM177.648 5.794c-.891 2.931-2.627 6.247-5.232 8-.88.592-.069 2.019.842 1.435 1.879-1.202 2.998.518 3.665 2.083.725 1.698 1.401 3.42 2.157 5.105l1.799-1.05c-1.802-2.76.05-6.931 3.651-6.489.764.094 1.188-1.045.632-1.526-1.31-1.131-2.821-2.041-4.272-2.979-.717-.464-1.556-.88-2.01-1.623-.396-.65-.412-1.524-.542-2.273-.075-.426-.618-.47-.889-.235-1.47 1.269-.725 3.387.52 4.535.753.694 1.695 1.225 2.545 1.792 1.151.772 2.314 1.58 3.565 2.185l.451-1.665c-2.261.127-4.368.89-5.586 2.937-1.218 2.046-1.033 4.455.138 6.388.584.965 2.364.33 1.905-.802-.551-1.35-1.152-2.682-1.736-4.018-.47-1.081-.875-2.32-1.664-3.225-1.306-1.496-3.557-1.717-5.168-.58l1.008 1.305c2.948-2.453 4.972-5.232 5.215-9.173.036-.584-.833-.667-.994-.136v.009ZM157.005.252c-.47.832-1.102 2.254-1.962 2.743-.95.54-.117 1.87.841 1.438.424-.19 1.177 2.18 1.348 2.564l1.8-1.051c-.427-.694-.158-1.59.8-1.535.8.047 1.146-.995.634-1.526-.571-.59-2.121-1.226-2.331-2.008-.28-1.046-1.758-.772-1.825.246-.108 1.687 1.927 2.743 3.284 3.255l.238-1.756c-2.309.243-3.688 2.165-2.6 4.372.512 1.043 2.359.296 1.905-.802-.703-1.7-1.716-4.651-4.092-3.2l1.011 1.308c1.124-1.178 2.109-1.993 1.896-3.794-.055-.462-.673-.733-.944-.254h-.003ZM45.002 236.292c-.47.832-1.102 2.254-1.963 2.743-.95.539-.116 1.87.842 1.438.423-.191 1.176 2.179 1.348 2.564l1.8-1.051c-.427-.694-.159-1.59.8-1.535.8.047 1.145-.995.633-1.526-.57-.589-2.12-1.226-2.33-2.008-.28-1.046-1.759-.772-1.825.246-.108 1.687 1.927 2.743 3.283 3.255l.238-1.756c-2.309.243-3.687 2.165-2.6 4.372.513 1.043 2.36.296 1.905-.802-.703-1.701-1.716-4.651-4.091-3.2l1.01 1.309c1.124-1.179 2.11-1.994 1.897-3.795-.056-.462-.673-.733-.944-.254h-.003Zm110.043-26.139a59.313 59.313 0 0 1 4.194-4.359l-1.157-.304c.496 1.847.988 3.695 1.484 5.542l1.016-.78-.139-.069.344.597.008-.174c.042-.89-1.343-.888-1.384 0l-.008.174a.674.674 0 0 0 .343.598l.138.069c.529.268 1.18-.174 1.016-.78-.495-1.847-.988-3.695-1.484-5.542-.138-.517-.783-.656-1.157-.304a59.911 59.911 0 0 0-4.194 4.358c-.581.669.393 1.651.98.979v-.005Z" fill="#000"/>
        <path d="M156.197 208.457c1.342.598 2.721.96 4.185 1.098.886.083.881-1.3 0-1.383a11.15 11.15 0 0 1-3.488-.909c-.805-.36-1.511.832-.697 1.194Zm6.012-2.218-.531 3.54c-.092.603-.576 1.906-.191 2.453.291.415.916.476 1.196 0a.89.89 0 0 0 .135-.534c-.052-.885-1.436-.89-1.384 0l.053-.163h1.196c.205.293.216-.611.238-.757l.219-1.466c.135-.902.271-1.803.404-2.705.133-.901-1.205-1.247-1.335-.368Z" fill="#000"/>
        <path d="M163.018 206.95a2.405 2.405 0 0 1 1.508.183c.338.16 1.174.708 1.05 1.205-.106.429-.861.515-1.202.545-.62.055-1.199-.077-1.769-.315-.822-.343-1.179.995-.368 1.333 1.42.592 4.712.633 4.728-1.601.017-2.086-2.632-3.004-4.316-2.683-.874.166-.503 1.499.369 1.333Zm4.684.365a69.465 69.465 0 0 1-.972 5.738c-.183.869 1.152 1.239 1.334.368a74.613 74.613 0 0 0 1.022-6.106c.111-.882-1.276-.874-1.384 0Z" fill="#000"/>
        <path d="M168.458 208.15c.741-.257 2.74-.738 2.25.791-.393 1.22-1.83 1.212-2.879 1.178-.891-.03-.888 1.353 0 1.383 1.866.061 4.175-.506 4.321-2.771a2.107 2.107 0 0 0-1.123-2.03c-.939-.5-1.999-.21-2.938.116-.836.291-.476 1.629.369 1.333Zm4.34-.061a22.639 22.639 0 0 0-1.079 6.245c-.031.896 1.323.879 1.384 0l.033-.49c.061-.887-1.323-.885-1.384 0l-.033.49h1.384a21.21 21.21 0 0 1 1.03-5.877c.274-.849-1.061-1.211-1.335-.368Z" fill="#000"/>
        <path d="M173.371 208.739c.726.23 2.996 1.109 1.963 2.016-.57.504-1.982.7-2.696.869-.507.119-.673.802-.305 1.156a10.603 10.603 0 0 0 3.162 2.14c.808.354 1.514-.838.697-1.195a9.557 9.557 0 0 1-2.881-1.924l-.305 1.156c1.279-.305 4.056-.753 4.227-2.442.172-1.69-2.25-2.719-3.496-3.111-.853-.269-1.215 1.067-.368 1.333l.002.002Z" fill="#000"/>
        <path d="M179.517 209.403c-1.481.799-2.649 2.24-2.519 4.002.116 1.557 1.342 2.873 2.989 2.55 3.403-.67 3.367-6.082-.033-6.729-.869-.166-1.243 1.167-.368 1.333 1.869.354 2.24 3.385.318 3.994-1.245.395-1.71-1.01-1.47-1.972.241-.963.978-1.552 1.78-1.986.803-.434.086-1.618-.697-1.195v.003Zm3.931 1.717a29.29 29.29 0 0 1 1.708 5.307c.136.603.963.648 1.265.166l3.103-4.958c.474-.758-.722-1.452-1.196-.697-1.035 1.654-2.067 3.305-3.103 4.958l1.265.166a31.089 31.089 0 0 0-1.846-5.638c-.355-.813-1.548-.111-1.196.696Zm6.68.753a31.16 31.16 0 0 0-1.371 5.265c-.094.559.305.927.853.852.886-.124 1.647.102 2.392.559.745.456 1.456-.728.698-1.195-1.091-.672-2.199-.877-3.458-.7l.853.852a30.759 30.759 0 0 1 1.37-5.265c.299-.841-1.038-1.201-1.334-.368h-.003Z" fill="#000"/>
        <path d="M190.377 215.451c.864.246 1.766.194 2.625.437.858.243 1.223-1.09.368-1.333-.856-.243-1.766-.193-2.625-.437-.858-.243-1.223 1.09-.368 1.333Zm.725-2.884c1.085-.174 2.115.116 3.026.705.75.484 1.445-.711.698-1.195-1.241-.802-2.639-1.076-4.092-.843-.878.141-.504 1.474.368 1.333Z" fill="#000"/>
    </g>
    <defs>
        <clipPath id="a">
            <path fill="#fff" d="M0 0h252v337H0z"/>
        </clipPath>
    </defs>
</svg>