<svg width="106" height="21" viewBox="0 0 106 21" fill="none" xmlns="http://www.w3.org/2000/svg">
    <path d="M9.73754 10.697C9.73754 11.2586 10.1731 11.6974 10.7307 11.6974C11.2882 11.6974 11.7238 11.2586 11.7238 10.697C11.7238 10.1354 11.2882 9.69658 10.7307 9.69658C10.1731 9.71413 9.73754 10.1529 9.73754 10.697ZM18.0659 9.71413C17.5084 9.71413 17.0728 10.1529 17.0728 10.7145C17.0728 11.2762 17.5084 11.7149 18.0659 11.7149C18.6235 11.7149 19.0591 11.2762 19.0591 10.7145C19.0591 10.1529 18.6235 9.71413 18.0659 9.71413ZM18.0659 17.226C17.5084 17.226 17.0728 17.6647 17.0728 18.2264C17.0728 18.788 17.5084 19.2268 18.0659 19.2268C18.6235 19.2268 19.0591 18.788 19.0591 18.2264C19.0591 17.6647 18.6235 17.226 18.0659 17.226Z" fill="white"/>
    <path d="M20.1752 1.44755C19.1821 0.201424 17.4049 0.148774 16.3595 1.13163L16.2375 1.25449L15.9936 1.44755C15.0005 2.25489 13.5195 2.18469 12.596 1.25449V1.18428C12.2824 0.868363 11.8643 0.62265 11.4287 0.499793C11.359 0.499793 11.237 0.42959 11.1848 0.42959H10.1916C10.1219 0.42959 10.0697 0.429589 9.99996 0.499793H9.878C9.80831 0.499793 9.75604 0.569996 9.68634 0.569996C9.68634 0.569996 9.61665 0.57 9.61665 0.640204C9.54696 0.640204 9.49469 0.710407 9.42499 0.710407C9.42499 0.710407 9.3553 0.710406 9.3553 0.78061C9.28561 0.850814 9.23334 0.850816 9.16364 0.90347C9.16364 0.90347 9.09395 0.903468 9.09395 0.973673C9.02425 1.04388 8.97198 1.04387 8.90229 1.09653L8.71063 1.28959L8.46671 1.48265C7.47357 2.29 5.99258 2.21979 5.13884 1.28959C5.13884 1.28959 5.06914 1.28959 5.06914 1.21939L4.94718 1.09653C4.58129 0.780608 4.1457 0.534894 3.65785 0.482241H2.54275C2.54275 0.552445 2.47306 0.552447 2.42079 0.6051H2.40337C2.08974 0.727957 1.79355 0.850812 1.5322 1.09653L1.27085 1.35979C1.02692 1.60551 0.904954 1.92143 0.78299 2.16714C0.78299 2.23734 0.713296 2.29 0.713296 2.3602C0.713296 2.43041 0.643603 2.48306 0.643603 2.60592C0.573909 3.04469 0.573909 3.48347 0.713296 3.90469C0.713296 3.97489 0.78299 4.02755 0.78299 4.09775V4.16796C0.78299 4.23816 0.852684 4.29081 0.852684 4.36102C0.922377 4.43122 0.922377 4.48387 0.974647 4.60673C1.09661 4.67693 1.21858 4.7998 1.28827 4.85245L1.5322 5.09816C2.45564 6.02837 2.45564 7.64306 1.4625 8.64347C1.34054 8.76632 1.14888 8.95938 1.09661 9.08224C1.02692 9.15244 1.02692 9.2051 0.974647 9.32796V9.39816C0.904954 9.46837 0.904954 9.52102 0.852684 9.59122V9.66143C0.852684 9.73163 0.78299 9.78429 0.78299 9.85449V9.92469C0.78299 9.9949 0.78299 10.0476 0.713296 10.1178V11.048C0.713296 11.1182 0.713297 11.1708 0.78299 11.241V11.3112C0.904954 11.75 1.14888 12.1888 1.51477 12.5573C2.50791 13.5578 2.50791 15.1724 1.51477 16.1553L1.32312 16.3484V16.4186C1.25342 16.4888 1.20115 16.5414 1.20115 16.6116C1.20115 16.6116 1.20115 16.6818 1.13146 16.6818C1.06176 16.752 1.06176 16.8047 1.00949 16.8749L0.939801 16.9451C0.939801 17.0153 0.870107 17.0153 0.870107 17.068C0.870107 17.1206 0.800413 17.1382 0.800413 17.1908C0.800413 17.261 0.800413 17.261 0.73072 17.3137C0.608756 17.5594 0.539062 17.8753 0.539062 18.121V18.6124C0.608756 18.8055 0.608756 18.981 0.73072 19.1039C0.73072 19.1741 0.800413 19.2267 0.800413 19.2267C0.800413 19.2267 0.800414 19.2969 0.870107 19.2969C0.870107 19.3671 0.939801 19.4198 0.939801 19.49C0.939801 19.49 0.939801 19.5602 1.00949 19.5602C1.07919 19.6831 1.13146 19.7533 1.20115 19.8059C1.20115 19.8059 1.20115 19.8761 1.27085 19.8761C1.27085 19.8761 1.27085 19.9463 1.34054 19.9463C1.34054 20.0165 1.41023 20.0165 1.41023 20.0165L1.47993 20.0867C1.54962 20.1569 1.60189 20.1569 1.60189 20.2096L1.67158 20.2798C1.67158 20.2798 1.74128 20.2798 1.74128 20.35C1.81097 20.4202 1.86324 20.4729 1.93293 20.4729C1.93293 20.4729 2.00263 20.4729 2.00263 20.5431C2.07232 20.6133 2.12459 20.6133 2.19428 20.6659H2.22913C2.29883 20.7361 2.3511 20.7361 2.47306 20.7361C2.54275 20.7361 2.66472 20.8063 2.71699 20.8063H2.78668C2.85637 20.8063 2.90864 20.8063 2.97834 20.8765H3.53589C3.72754 20.8765 3.84951 20.8063 4.02374 20.8063H4.09343C4.16313 20.8063 4.2154 20.7361 4.28509 20.7361H4.31994C4.38963 20.7361 4.4419 20.6659 4.5116 20.6659H4.58129C4.70325 20.5957 4.89491 20.4729 5.01687 20.4202L5.27823 20.1569C6.27136 19.1039 7.87431 19.1039 8.85002 20.1569C9.96512 21.3329 11.812 21.2802 12.8574 19.9639C13.5892 19.0337 13.5892 17.6647 12.8574 16.6643C11.8643 15.4182 10.0871 15.3655 9.04168 16.3484L8.91971 16.4712L8.67579 16.6643C7.68265 17.4716 6.20166 17.4014 5.27823 16.4712L5.15626 16.3484L4.9646 16.1026C4.16313 15.1022 4.23282 13.6104 5.15626 12.6802C5.71381 12.1888 5.95774 11.5043 5.95774 10.8198V10.6267C5.95774 10.0124 5.71381 9.38061 5.22596 8.94184C5.22596 8.87163 5.15626 8.87163 5.15626 8.81898L4.9646 8.57326C4.16313 7.57285 4.23282 6.08102 5.15626 5.15081L5.29565 5.01041C6.28878 3.95735 7.89173 3.95735 8.86744 5.01041L9.12879 5.27367C9.19849 5.27367 9.19849 5.34388 9.25076 5.34388C9.30303 5.34388 9.32045 5.41408 9.37272 5.41408C9.42499 5.41408 9.44242 5.48428 9.49469 5.48428C9.54696 5.48428 9.56438 5.55449 9.61665 5.55449C9.66892 5.55449 9.68634 5.62469 9.73861 5.62469C9.79088 5.62469 9.80831 5.6949 9.86058 5.6949C9.91285 5.6949 9.93027 5.69489 9.98254 5.7651C10.0522 5.7651 10.0522 5.7651 10.1045 5.8353H11.1499C11.2196 5.8353 11.2719 5.8353 11.3416 5.7651H11.4635C11.5332 5.7651 11.5855 5.6949 11.6552 5.6949H11.7249C11.7946 5.6949 11.8468 5.62469 11.9688 5.57204C12.2127 5.44918 12.4567 5.25612 12.6483 5.08061L12.718 5.01041C13.7111 3.95735 15.3141 3.95735 16.2898 5.01041C17.3352 6.25653 19.2518 6.18632 20.2449 4.88755C20.907 3.74673 20.907 2.37775 20.1752 1.44755Z" fill="white"/>
    <path d="M34.2359 9.1525C33.87 8.78392 33.5564 8.53821 33.1208 8.34515C32.7549 8.15209 32.3194 8.02923 31.7618 8.02923C31.274 8.02923 30.7687 8.15209 30.4028 8.34515C30.0369 8.53821 29.7233 8.78392 29.4793 9.1525C29.2354 9.46841 29.0438 9.83698 28.9218 10.2758C28.7998 10.7145 28.7301 11.1533 28.7301 11.5745C28.7301 11.9958 28.7998 12.4521 28.9741 12.8733C29.096 13.3121 29.34 13.6105 29.5839 13.9264C29.8278 14.2423 30.1937 14.488 30.577 14.6635C30.9429 14.8566 31.3785 14.9092 31.8663 14.9092C32.4239 14.9092 32.8595 14.7864 33.2254 14.5933C33.5913 14.4002 33.9572 14.1545 34.2708 13.786L35.5601 15.1549C35.0723 15.7166 34.5147 16.0851 33.8875 16.3309C33.2776 16.5766 32.5981 16.6994 31.8489 16.6994C31.1171 16.6994 30.3679 16.5766 29.7581 16.3309C29.1483 16.0851 28.5907 15.7166 28.1552 15.2778C27.7196 14.839 27.3537 14.2774 27.1098 13.6631C26.8658 13.0488 26.7439 12.2941 26.7439 11.557C26.7439 10.8198 26.8658 10.0651 27.1098 9.45086C27.3537 8.83657 27.7196 8.27494 28.1552 7.76596C28.5907 7.32718 29.1483 6.95861 29.7581 6.7129C30.3679 6.46718 31.1171 6.34433 31.8489 6.34433C32.5807 6.34433 33.2602 6.46718 33.8875 6.7129C34.567 6.95861 35.1245 7.39739 35.6124 7.88882L34.2359 9.1525ZM38.4175 11.4517C38.4175 11.9431 38.4872 12.4521 38.6615 12.8207C38.7834 13.2594 39.0274 13.628 39.2713 13.9439C39.5152 14.2598 39.8811 14.5056 40.2644 14.6284C40.6303 14.8215 41.1356 14.8741 41.6234 14.8741C42.1113 14.8741 42.5469 14.8039 42.9825 14.6284C43.3484 14.4353 43.7143 14.1896 43.9756 13.9439C44.2195 13.628 44.4635 13.2594 44.5854 12.8207C44.7074 12.3819 44.8294 11.9431 44.8294 11.4517C44.8294 10.9602 44.7597 10.4513 44.5854 10.0827C44.4635 9.64392 44.2195 9.27535 43.9756 8.95943C43.7317 8.64351 43.3658 8.3978 42.9825 8.27494C42.6166 8.08188 42.1113 8.02923 41.6234 8.02923C41.1356 8.02923 40.7 8.09943 40.2644 8.27494C39.8985 8.46801 39.5326 8.71372 39.2713 8.95943C39.0274 9.27535 38.7834 9.64392 38.6615 10.0827C38.5395 10.5215 38.4175 10.9602 38.4175 11.4517ZM36.4487 11.4517C36.4487 10.7145 36.5707 10.03 36.8146 9.39821C37.0585 8.78392 37.4244 8.22229 37.9297 7.71331C38.4175 7.22188 38.9228 6.83576 39.6023 6.59004C40.2122 6.34433 40.8917 6.15127 41.6409 6.15127C42.3901 6.15127 43.0522 6.27413 43.6794 6.59004C44.2892 6.83576 44.8468 7.20433 45.3521 7.71331C45.8399 8.20474 46.1535 8.76637 46.4671 9.39821C46.7111 10.0125 46.833 10.697 46.833 11.4517C46.833 12.1888 46.7111 12.8733 46.4671 13.5051C46.2232 14.1194 45.8573 14.6811 45.3521 15.19C44.8642 15.6815 44.3589 15.9974 43.6794 16.3133C43.0696 16.559 42.3901 16.7521 41.6409 16.7521C40.9091 16.7521 40.2296 16.6292 39.6023 16.3133C38.9925 16.0676 38.435 15.699 37.9297 15.19C37.4418 14.6986 37.1282 14.1896 36.8146 13.5051C36.6404 12.8733 36.4487 12.1888 36.4487 11.4517ZM48.7322 16.4888H50.5791V6.55494H48.7322V16.4888ZM48.2966 2.93943C48.2966 2.57086 48.4186 2.25494 48.6625 1.93902C48.9064 1.69331 49.22 1.50025 49.5859 1.50025C49.9518 1.50025 50.2654 1.62311 50.5094 1.93902C50.7533 2.18474 50.8753 2.55331 50.8753 2.93943C50.8753 3.32555 50.7533 3.62392 50.5094 3.93984C50.2654 4.18555 49.9518 4.37862 49.5859 4.37862C49.22 4.37862 48.9064 4.25576 48.6625 3.93984C48.4186 3.67657 48.2966 3.308 48.2966 2.93943ZM53.1577 6.53739H55.022V8.08188H55.0917C55.3357 7.52025 55.7015 7.08147 56.3288 6.78311C56.8863 6.46719 57.5659 6.29168 58.3673 6.29168C58.8552 6.29168 59.2908 6.36188 59.7263 6.53739C60.1619 6.66025 60.5278 6.90596 60.8414 7.22188C61.1551 7.5378 61.399 7.90637 61.6429 8.3978C61.8346 8.88923 61.9565 9.45086 61.9565 10.1353V16.5415H60.0748V10.6443C60.0748 10.2056 60.0051 9.76678 59.8832 9.46841C59.7612 9.15249 59.5695 8.85412 59.3953 8.66106C59.2036 8.468 58.9597 8.29249 58.6635 8.22229C58.4196 8.15208 58.106 8.09943 57.7924 8.09943C57.4265 8.09943 57.0606 8.16963 56.7469 8.29249C56.4333 8.41535 56.1371 8.60841 55.8758 8.90678C55.6319 9.15249 55.4402 9.52106 55.3182 9.95984C55.1963 10.3986 55.1266 10.89 55.1266 11.4517V16.6117H53.2797V6.55494M68.7691 14.9268C69.257 14.9268 69.6925 14.8566 70.1281 14.6811C70.5637 14.488 70.8599 14.2423 71.1735 13.9439C71.4174 13.628 71.6614 13.2594 71.7833 12.8207C71.9053 12.3819 72.0273 11.9431 72.0273 11.399C72.0273 10.9076 71.9576 10.3986 71.7833 9.97739C71.6614 9.53861 71.4174 9.17004 71.1735 8.85413C70.8599 8.53821 70.5637 8.29249 70.1281 8.11698C69.6925 7.92392 69.257 7.87127 68.7691 7.87127C68.2812 7.87127 67.8457 7.94147 67.4101 8.11698C66.9745 8.31004 66.6783 8.55576 66.3647 8.85413C66.1207 9.17004 65.8768 9.53861 65.7548 9.97739C65.6329 10.4162 65.5109 10.8549 65.5109 11.399C65.5109 11.8905 65.5806 12.3994 65.7548 12.8207C65.8768 13.2594 66.1207 13.628 66.3647 13.9439C66.6086 14.2598 66.9745 14.5056 67.4101 14.6811C67.776 14.8039 68.2812 14.9268 68.7691 14.9268ZM73.8916 16.4186H72.0447V14.997H71.975C71.6091 15.5586 71.1038 15.9272 70.494 16.2431C69.8842 16.559 69.2047 16.6819 68.5252 16.6819C67.7934 16.6819 67.0442 16.559 66.4344 16.3133C65.8245 16.0676 65.267 15.699 64.8314 15.19C64.3958 14.6986 64.0299 14.137 63.8383 13.5051C63.5943 12.8909 63.4724 12.2064 63.4724 11.4517C63.4724 10.697 63.5943 10.03 63.8383 9.34555C64.0822 8.73127 64.3958 8.16964 64.8314 7.66066C65.267 7.16923 65.8245 6.7831 66.4344 6.53739C67.0442 6.29167 67.7237 6.16882 68.5252 6.16882C69.2047 6.16882 69.8842 6.29168 70.494 6.6076C71.1038 6.92351 71.6091 7.34474 71.9053 7.85371H71.975V0.394531H73.8219V16.4186H73.8916ZM83.3176 10.6443C83.3176 10.2056 83.2479 9.83698 83.126 9.46841C83.004 9.09984 82.8123 8.78392 82.5684 8.53821C82.3245 8.29249 82.0109 8.09943 81.6973 7.92392C81.3314 7.80107 80.9655 7.6782 80.4602 7.6782C80.0246 7.6782 79.589 7.74841 79.2231 7.92392C78.8572 8.11698 78.5436 8.29249 78.23 8.60841C77.9861 8.85413 77.7421 9.17004 77.6202 9.53861C77.4982 9.90719 77.3762 10.2231 77.3762 10.539H83.3002L83.3176 10.6443ZM77.4111 12.1888C77.4111 12.6276 77.5331 12.9962 77.7247 13.3647C77.9164 13.7333 78.1603 14.0492 78.4565 14.2949C78.7701 14.5407 79.136 14.7337 79.5019 14.8566C79.9375 14.9794 80.3034 15.0496 80.739 15.0496C81.2965 15.0496 81.8541 14.9268 82.2722 14.6109C82.7078 14.3651 83.0737 13.9966 83.4396 13.5578L84.8509 14.6811C83.8055 16.05 82.3245 16.7345 80.4776 16.7345C79.6761 16.7345 78.9966 16.6117 78.3868 16.366C77.777 16.1202 77.2194 15.7517 76.7839 15.2427C76.3483 14.7513 75.9824 14.2423 75.7907 13.5578C75.5468 12.9435 75.4248 12.259 75.4248 11.5043C75.4248 10.7672 75.5468 10.0827 75.7907 9.45086C76.0346 8.83657 76.4005 8.27494 76.8361 7.76596C77.2717 7.27453 77.8293 6.95861 78.4391 6.6427C79.0489 6.39698 79.7284 6.27412 80.4776 6.27412C81.3488 6.27412 82.0806 6.39698 82.6904 6.7129C83.3002 7.02882 83.8055 7.39739 84.1714 7.88882C84.5373 8.38025 84.8509 8.94188 85.0425 9.57372C85.2342 10.188 85.2865 10.8198 85.2865 11.5043V12.1888H77.4111ZM92.5694 9.02964C92.3255 8.78392 92.0816 8.53821 91.768 8.34515C91.4543 8.15209 91.0362 8.02923 90.6006 8.02923C90.165 8.02923 89.7991 8.15209 89.4332 8.34515C89.1196 8.53821 88.9454 8.78392 88.9454 9.1525C88.9454 9.46841 89.0673 9.71413 89.259 9.83698C89.4507 10.03 89.6946 10.1529 89.9385 10.2758C90.1824 10.3986 90.4961 10.4688 90.74 10.5215C91.0536 10.5917 91.2975 10.6443 91.4718 10.6443C91.8377 10.7672 92.2732 10.8374 92.5869 11.0129C92.9528 11.1358 93.2664 11.3288 93.5103 11.5745C93.7542 11.8202 93.9459 12.066 94.1201 12.3819C94.2421 12.6978 94.3641 13.0664 94.3641 13.5578C94.3641 14.1194 94.2421 14.6109 93.9982 14.9794C93.7542 15.348 93.4406 15.7166 93.0747 15.9798C92.7088 16.2431 92.2732 16.4186 91.7854 16.5415C91.2975 16.6643 90.7923 16.7345 90.3741 16.7345C89.5726 16.7345 88.8408 16.6117 88.2136 16.366C87.6038 16.1202 87.0462 15.6815 86.541 14.997L87.9522 13.8211C88.2659 14.137 88.5621 14.3827 88.9454 14.6284C89.3287 14.8741 89.7468 14.997 90.3044 14.997C90.5483 14.997 90.7923 14.997 91.0362 14.9268C91.2801 14.8566 91.4718 14.8039 91.646 14.6811C91.8377 14.5582 91.9596 14.4354 92.0816 14.3125C92.2036 14.1194 92.2732 13.9439 92.2732 13.7509C92.2732 13.5051 92.2036 13.2594 92.0293 13.0664C91.8377 12.8733 91.6634 12.7505 91.4195 12.6276C91.1756 12.5047 90.9316 12.4345 90.6877 12.3819L89.9559 12.1888C89.59 12.066 89.1545 11.9958 88.8408 11.8729C88.4749 11.75 88.1613 11.557 87.9174 11.3815C87.6735 11.1884 87.4296 10.89 87.2379 10.5741C87.0462 10.2582 86.994 9.83698 86.994 9.39821C86.994 8.90678 87.1159 8.3978 87.3076 8.02923C87.4992 7.66065 87.7954 7.34474 88.1787 7.09902C88.5446 6.85331 88.9105 6.66025 89.3461 6.53739C89.7817 6.41453 90.2696 6.34433 90.7051 6.34433C91.3847 6.34433 91.9945 6.46718 92.6217 6.7129C93.2315 6.95861 93.7368 7.39739 94.1027 7.95902L92.5694 9.02964ZM96.1587 0.64025H98.0055V10.697L102.205 6.46719H104.731L100.236 10.9427L105.167 16.2782H102.518L98.023 11.1884V16.2782H96.1761V0.64025" fill="white"/>
</svg>