<svg width="79" height="22" viewBox="0 0 79 22" fill="none" xmlns="http://www.w3.org/2000/svg">
    <path d="M8.0929 2.53853H9.79233C10.8273 2.38238 11.8842 2.51967 12.8483 2.93547C14.0579 3.68075 14.9352 4.88056 15.2931 6.27897C15.5465 7.01179 15.5465 7.01179 16.1577 6.75225H16.6348V0.950753H0.639278V1.97365H1.2952C1.58023 1.97163 1.86209 2.03503 2.12005 2.1592C2.37802 2.28337 2.60555 2.46516 2.78592 2.6912C3.39712 3.69883 3.50147 4.8286 3.50147 10.7064C3.50147 16.9507 3.36731 18.4774 2.78592 19.256C2.64239 19.4562 2.45657 19.6205 2.24232 19.7369C2.02808 19.8532 1.79094 19.9184 1.54862 19.9278C0.639278 20.0957 0.639278 20.0804 0.639278 20.4926C0.588991 20.6305 0.588991 20.7823 0.639278 20.9201H10.7315C10.7983 20.7853 10.8331 20.6362 10.8331 20.485C10.8331 20.3338 10.7983 20.1847 10.7315 20.0499C10.487 19.9802 10.2379 19.9292 9.98612 19.8972C9.71373 19.864 9.44449 19.8079 9.18113 19.7293C8.804 19.4473 8.50525 19.0694 8.31439 18.633C8.12354 18.1965 8.04719 17.7167 8.0929 17.2407C7.94383 16.2331 7.86929 14.3858 7.86929 12.8591V11.653H8.46558C9.20849 11.6297 9.95097 11.7119 10.6719 11.8973C11.0172 12.1158 11.3112 12.4098 11.5328 12.7581C11.7544 13.1065 11.8982 13.5007 11.9539 13.9125L12.088 14.3858H12.9974V7.62247H12.1626L12.0284 8.27896C11.972 8.70013 11.8198 9.10186 11.5842 9.45186C11.3486 9.80187 11.0361 10.0904 10.6719 10.2942C10.3191 10.4017 9.94742 10.4278 9.58363 10.3706H7.86929V8.7217C7.86929 7.01179 7.95874 3.40875 8.01837 2.84387L8.0929 2.53853ZM77.8588 14.6453C77.1542 13.4838 76.0551 12.6301 74.773 12.2484C73.7901 11.9337 72.8816 11.4139 72.1046 10.7217C71.9298 10.5485 71.799 10.3342 71.7237 10.0973C71.6483 9.86047 71.6307 9.60834 71.6723 9.36292C71.6735 8.88153 71.8611 8.42029 72.1941 8.08049C72.4197 7.83844 72.7053 7.66372 73.0204 7.57498C73.3355 7.48624 73.6682 7.48683 73.9829 7.57667C74.6346 7.76689 75.224 8.13409 75.6885 8.63938C76.153 9.14466 76.4754 9.76922 76.6215 10.4469C76.86 11.1339 76.8899 11.1339 77.3222 10.9507L77.5905 10.8438V7.04232L77.3967 6.95072C75.9291 6.42283 74.3723 6.20471 72.8202 6.3095C71.4835 6.34419 70.2077 6.88863 69.2424 7.83621C68.8047 8.25589 68.4618 8.76849 68.2378 9.33812C68.0137 9.90775 67.914 10.5207 67.9455 11.1339C67.9539 12.0715 68.3173 12.9691 68.9592 13.6377C69.6686 14.3522 70.539 14.8766 71.4934 15.1644C73.8041 16.0957 74.4749 16.6911 74.4749 17.7751C74.4848 18.2322 74.3426 18.6792 74.0717 19.0426C73.8008 19.4061 73.4173 19.6643 72.9842 19.7751C72.4636 19.8922 71.9245 19.8922 71.404 19.7751C70.7225 19.5042 70.114 19.0706 69.6291 18.5103C69.1443 17.9499 68.797 17.2792 68.6163 16.5537L68.4225 16.0652H68.1542C68.026 16.0749 67.9001 16.1059 67.7815 16.1568H67.6325V20.4926H67.8859C68.893 20.8357 69.9321 21.0711 70.9866 21.1949H72.4773C73.1238 21.2435 73.7737 21.1816 74.4004 21.0117C75.1959 20.8614 75.9392 20.5004 76.5564 19.9648C77.1736 19.4291 77.6432 18.7374 77.9185 17.9583C78.0964 17.5232 78.1876 17.056 78.1868 16.5843C78.2455 15.9197 78.1324 15.251 77.8588 14.6453ZM63.8162 6.75225C62.9229 6.36814 61.9604 6.18182 60.9918 6.2055C60.0233 6.22918 59.0706 6.46233 58.1962 6.88965C57.3743 7.30138 56.6458 7.88503 56.0578 8.60294C55.4698 9.32085 55.0353 10.157 54.7824 11.0576C54.46 12.0399 54.3234 13.0762 54.3799 14.111C54.3692 14.674 54.4142 15.2366 54.5141 15.7904C54.7548 17.1519 55.3966 18.4054 56.3533 19.3824C57.31 20.3594 58.5357 21.0132 59.8658 21.256C60.7319 21.3677 61.6084 21.3677 62.4746 21.256C63.3734 21.0937 64.2336 20.7569 65.0088 20.2636C65.65 19.8955 66.1928 19.3711 66.589 18.7369C66.5635 18.6374 66.5187 18.5442 66.4572 18.4629C66.3958 18.3815 66.3189 18.3138 66.2312 18.2636C66.061 18.3267 65.9004 18.4141 65.7542 18.5232C65.0127 19.0236 64.1371 19.2745 63.2497 19.2407C62.6607 19.2815 62.0702 19.1876 61.5211 18.9658C60.9719 18.744 60.4778 18.3998 60.0745 17.9583C59.7625 17.6615 59.505 17.3099 59.3142 16.9201C58.851 15.971 58.6014 14.9276 58.5838 13.8667V13.2713H66.8424V12.966C66.8606 12.6609 66.8606 12.355 66.8424 12.0499C66.8394 10.9719 66.5579 9.91393 66.0264 8.98345C65.4948 8.05297 64.7323 7.28316 63.8162 6.75225ZM59.6571 12.0347H58.6136V11.1339C58.9564 8.82857 59.8062 7.45454 60.8497 7.45454C61.8932 7.45454 62.3404 8.81331 62.5342 11.3018V12.0041H61.6397L59.6571 12.0347ZM38.2205 6.24843C37.7054 6.22798 37.1933 6.33811 36.7297 6.56904C35.7222 7.07015 34.9084 7.90359 34.4191 8.93544L34.2253 9.30185V6.24843H34.1508C33.9719 6.24843 28.4562 7.3782 28.2773 7.45454C28.0984 7.53087 28.1581 7.54614 28.1581 7.82095C28.1581 8.09575 28.1581 8.14155 28.2773 8.15682L28.8587 8.27896C29.0215 8.28305 29.1813 8.32504 29.326 8.40175C29.4706 8.47846 29.5963 8.58787 29.6935 8.7217C30.0662 9.22552 30.1407 10.111 30.1407 13.882C30.2144 15.5796 30.1445 17.2806 29.932 18.9659C29.882 19.22 29.7562 19.452 29.5719 19.6297C29.3877 19.8075 29.1541 19.9223 28.9034 19.9583L28.3966 20.0652H28.2028V20.4926C28.1487 20.635 28.1487 20.793 28.2028 20.9354H36.5359V20.4926C36.5648 20.3465 36.5648 20.196 36.5359 20.0499C36.0342 20.0299 35.5353 19.9634 35.0452 19.8514C34.7784 19.7085 34.56 19.4861 34.419 19.2135C34.278 18.941 34.2208 18.6311 34.2551 18.3247C34.1359 17.4392 34.0762 14.8438 34.1061 12.8591C34.1359 10.8744 34.1061 10.7522 34.27 10.6148C34.7689 10.2231 35.3861 10.0232 36.0142 10.0499C36.6062 10.0632 37.1874 10.2146 37.7136 10.4927C37.896 10.5964 38.0917 10.6735 38.295 10.7217C38.295 10.7217 39.7857 7.02706 39.7857 6.85912C39.595 6.63209 39.3519 6.45735 39.0786 6.35073C38.8053 6.2441 38.5104 6.20894 38.2205 6.24843ZM28.173 12.6606C28.1209 11.5696 27.8151 10.5072 27.2809 9.56177C26.7468 8.61637 25.9997 7.81537 25.1021 7.22553C24.0353 6.63614 22.8485 6.31116 21.6368 6.27669C20.4252 6.24222 19.2225 6.49922 18.1255 7.02706C16.5744 7.86473 15.4032 9.2887 14.8608 10.9965C14.3005 12.9086 14.3005 14.947 14.8608 16.8591C15.1545 17.9041 15.7035 18.8551 16.4559 19.6224C17.3929 20.5588 18.6012 21.1588 19.8994 21.3323C20.7328 21.4037 21.5705 21.4037 22.4039 21.3323C22.7105 21.2845 23.0142 21.2183 23.3132 21.1339C24.5266 20.7862 25.6182 20.0919 26.4604 19.1321C27.3025 18.1723 27.8604 16.9867 28.0686 15.714C28.2174 14.7037 28.2525 13.6792 28.173 12.6606ZM21.9716 20.2942C20.4808 20.7522 19.3628 19.2713 18.9901 16.1568C18.8532 14.5262 18.8532 12.8866 18.9901 11.256C19.2882 8.75224 20.0485 7.48507 21.2262 7.48507C21.4638 7.46999 21.7015 7.5134 21.9193 7.61168C22.1372 7.70996 22.3289 7.86024 22.4784 8.04995C23.4772 9.07285 23.9691 11.1034 23.9691 14.1568C24.0932 15.8849 23.8279 17.619 23.1939 19.2255C22.914 19.694 22.4809 20.0456 21.9716 20.2178V20.2942ZM48.8046 6.55378C48.384 6.49834 47.9581 6.49834 47.5375 6.55378C46.73 6.55307 45.9319 6.7301 45.197 7.07286L44.7349 7.27133V3.95837C44.8157 2.84031 44.8157 1.71767 44.7349 0.599609C44.556 0.599609 38.8615 1.71411 38.772 1.75991C38.7281 1.87263 38.7281 1.99833 38.772 2.11105C38.772 2.43166 38.772 2.41639 39.4429 2.56906C39.6312 2.61232 39.8121 2.68438 39.9795 2.7828C40.2705 3.06305 40.4642 3.43294 40.5311 3.83623C40.7008 4.99809 40.7558 6.17452 40.6951 7.34767V20.7522L41.0976 20.8438C41.6938 20.9812 43.3784 21.2713 43.9299 21.3323C45.0313 21.422 46.1379 21.422 47.2393 21.3323C48.4618 21.2044 49.6271 20.7373 50.6096 19.9814C51.592 19.2254 52.3544 18.2092 52.8147 17.0423C53.089 16.2933 53.2791 15.5147 53.3811 14.7217C53.4699 13.6474 53.4348 12.5662 53.2768 11.5003C53.1169 10.3055 52.602 9.19006 51.8019 8.30518C51.0019 7.4203 49.9555 6.80885 48.8046 6.55378ZM44.8989 20.0346C44.8989 19.8361 44.7498 13.1492 44.7796 10.4774V8.38583L45.212 8.27896C45.5036 8.23616 45.7998 8.23616 46.0915 8.27896C46.4141 8.24537 46.7385 8.3204 47.0157 8.4927C47.5724 8.88619 48.0347 9.40389 48.3678 10.0068C48.7009 10.6098 48.8961 11.2822 48.9388 11.9736C49.0474 13.0853 49.0474 14.2054 48.9388 15.3171C48.8495 16.9329 48.2416 18.4732 47.2095 19.6987C46.9166 19.9837 46.5487 20.1747 46.1511 20.2484C45.8503 20.3019 45.5426 20.3019 45.2418 20.2484C44.9585 20.2484 44.9585 20.1568 44.9585 20.0346H44.8989Z" fill="white"/>
</svg>