<svg width="100" height="16" viewBox="0 0 100 16" fill="none" xmlns="http://www.w3.org/2000/svg">
<g id="Investopedia_Logo" clip-path="url(#clip0_10845_8390)">
<g id="Group">
<path id="Vector" d="M6.99836 11.0059L5.91575 10.3369L6.32964 6.51367L1.77344 9.23311C2.38205 10.3626 3.34207 11.2737 4.51481 11.8347C5.68756 12.3958 7.01233 12.5778 8.29776 12.3544C9.58319 12.131 10.7627 11.5139 11.666 10.5921C12.5693 9.67026 13.1496 8.49153 13.323 7.22615L6.99836 11.0059Z" fill="white"/>
<path id="Subtract" fill-rule="evenodd" clip-rule="evenodd" d="M7.90186 5.25149L6.81925 4.5825L1.25568 7.9057C1.03776 7.1084 0.98978 6.27581 1.11472 5.45961C1.23967 4.64342 1.53486 3.86106 1.98198 3.16112C2.42911 2.46117 3.0186 1.85859 3.71387 1.39078C4.40914 0.92298 5.19533 0.599946 6.02362 0.441741C6.85192 0.283536 7.70463 0.293538 8.5288 0.471127C9.35298 0.648716 10.131 0.990099 10.8146 1.47408C11.4982 1.95805 12.0728 2.57429 12.5026 3.28453C12.9324 3.99476 13.2083 4.78382 13.3132 5.60271L7.48797 9.07644L7.90186 5.25149ZM8.41295 3.18137C8.41295 3.65152 8.02319 4.03266 7.54241 4.03266C7.06163 4.03266 6.67188 3.65152 6.67188 3.18137C6.67188 2.71121 7.06163 2.33008 7.54241 2.33008C8.02319 2.33008 8.41295 2.71121 8.41295 3.18137Z" fill="white"/>
<path id="Vector_2" d="M16.4453 11.9747L17.9743 11.9529V1.38625L16.4453 1.40799V11.9747ZM23.7585 4.63252C23.0744 4.63252 21.9097 4.93022 21.3932 5.73803V4.78304H19.9497V11.9747H21.3932V8.08284C21.3932 6.66458 22.4878 6.02904 23.5721 6.02904C24.5982 6.02904 25.2824 6.78165 25.2824 7.90054V11.9747H26.7241V7.82527C26.7241 6.80339 26.4368 5.96716 25.869 5.40855C25.3559 4.90012 24.6256 4.63252 23.7585 4.63252ZM31.0648 10.1249L28.8569 4.78472H27.3125L30.367 11.9747H31.749L34.8189 4.78472H33.2591L31.0648 10.1249ZM58.0036 4.63252C55.7802 4.63252 54.164 6.19796 54.164 8.35712C54.164 10.5163 55.8161 12.1269 58.0036 12.1269C58.5134 12.1395 59.0205 12.0506 59.4942 11.8657C59.9678 11.6807 60.3981 11.4035 60.7588 11.0509C61.1195 10.6984 61.4031 10.2778 61.5925 9.81468C61.7818 9.35159 61.8729 8.8557 61.8603 8.35712C61.8603 6.19796 60.2457 4.63252 58.0036 4.63252ZM58.0036 10.7922C56.6541 10.7922 55.628 9.74527 55.628 8.35712C55.628 6.99406 56.6541 5.96716 58.0087 5.96716C58.3292 5.96274 58.6474 6.0218 58.9439 6.14079C59.2405 6.25979 59.5094 6.43624 59.7344 6.65954C59.9594 6.88283 60.1358 7.14835 60.2531 7.44009C60.3704 7.73184 60.426 8.04378 60.4168 8.35712C60.4168 9.74527 59.3786 10.7922 58.0036 10.7922ZM66.844 4.63252C65.7785 4.63252 64.8037 5.08576 64.3077 5.80325V4.78304H62.8642V15.4267H64.3077V10.9712C64.8002 11.6954 65.7392 12.1219 66.8594 12.1219C68.9853 12.1219 70.528 10.5497 70.528 8.38221C70.528 6.21468 68.9785 4.63252 66.844 4.63252ZM66.7192 10.7922C66.3995 10.7932 66.0828 10.7318 65.7877 10.6116C65.4925 10.4914 65.2249 10.3149 65.0003 10.0924C64.7758 9.86981 64.5989 9.60572 64.4799 9.31553C64.361 9.02534 64.3024 8.71487 64.3077 8.40228C64.3077 7.01412 65.3441 5.96716 66.7192 5.96716C68.0378 5.96716 69.0691 7.03754 69.0691 8.40228C69.0691 9.76702 68.0583 10.7922 66.7192 10.7922ZM85.5836 5.78653C85.0911 5.06235 84.1521 4.63587 83.0319 4.63587C80.906 4.63587 79.3633 6.20799 79.3633 8.37552C79.3633 10.543 80.9128 12.1302 83.0473 12.1302C84.1128 12.1302 85.0877 11.677 85.5836 10.9595V11.9747H87.0271V0.90625H85.5836V5.78653ZM83.1636 10.7922C81.8535 10.7922 80.829 9.72186 80.829 8.35712C80.829 6.99238 81.8261 5.96716 83.1636 5.96716C83.4843 5.96513 83.8022 6.02568 84.0987 6.14528C84.3952 6.26488 84.6644 6.44111 84.8904 6.66367C85.1164 6.88623 85.2947 7.15063 85.4149 7.44141C85.5351 7.73219 85.5948 8.04351 85.5905 8.35712C85.5836 9.53789 84.7336 10.7922 83.1636 10.7922ZM88.8537 4.78472H90.2972V11.9747H88.8537V4.78472ZM99.1257 4.78304H97.6822V5.61928C97.1691 4.99378 96.2849 4.62918 95.2519 4.62918H95.1356C93.0097 4.62918 91.467 6.2013 91.467 8.36883C91.467 10.5364 93.0165 12.1235 95.151 12.1235H95.2724C96.2558 12.1235 97.164 11.7355 97.6873 11.12V11.9747H99.2403V4.78304H99.1257ZM95.3169 10.7872C94.0359 10.7538 93.0422 9.70012 93.0422 8.35545C93.0422 7.01078 94.0171 5.99893 95.3169 5.96883C96.6429 5.99174 97.7003 7.05861 97.6822 8.35545C97.6822 9.52116 96.8459 10.7554 95.3169 10.7889V10.7872ZM45.9341 7.57942C45.1798 7.39043 44.6462 7.22151 44.6462 6.76158C44.6462 6.24479 45.1798 5.88353 45.946 5.88353C46.5017 5.89443 47.0384 6.08366 47.4733 6.42207L47.5092 6.44883L48.284 5.39851L48.2498 5.37176C47.5669 4.85169 46.7207 4.57921 45.8554 4.60074C44.5539 4.60074 43.1531 5.30151 43.1531 6.83684C43.1531 7.90723 44.0664 8.42904 44.8309 8.67656C45.0875 8.76019 45.344 8.82541 45.604 8.88897C46.4027 9.08966 47.0936 9.2636 47.0936 9.87238C47.0936 10.2989 46.6541 10.7504 45.84 10.7504C45.0687 10.7295 44.3258 10.4609 43.7261 9.98611L43.6885 9.95935L42.9154 11.0398L42.9479 11.0649C43.7785 11.7094 44.8123 12.0517 45.8725 12.0332C47.1894 12.0332 48.5901 11.2656 48.5901 9.84228C48.5901 8.419 47.2476 7.9089 45.9341 7.57942ZM78.4244 8.25677C78.4244 6.11099 77.0065 4.6158 74.9542 4.6158C72.8796 4.6158 71.3746 6.14946 71.3746 8.26012C71.3607 8.76574 71.4506 9.26894 71.6389 9.74004C71.8272 10.2111 72.1101 10.6406 72.4709 11.003C73.1171 11.6183 73.9856 11.9591 74.8875 11.9513H74.9559C76.2267 11.9295 77.0561 11.7238 78.0635 10.6601L78.0943 10.6283L77.0938 9.69677L77.063 9.73022C76.81 10.0208 76.4942 10.2528 76.1384 10.4095C75.7826 10.5663 75.3957 10.6439 75.0055 10.6367C73.8904 10.6367 73.0113 9.83726 72.8044 8.64144L78.3748 8.62973H78.4158V8.5896C78.4213 8.52448 78.4213 8.45903 78.4158 8.39392C78.4261 8.36716 78.4244 8.33036 78.4244 8.25677ZM73.025 7.53092C73.2148 6.49231 73.9109 5.92033 74.9901 5.92033C76.0351 5.92033 76.7466 6.52074 76.9039 7.53092H73.025ZM42.1167 8.25677C42.1167 6.11099 40.6886 4.6158 38.65 4.6158C36.5754 4.6158 35.0703 6.14946 35.0703 8.26012C35.0565 8.76574 35.1463 9.26894 35.3346 9.74004C35.5229 10.2111 35.8058 10.6406 36.1666 11.003C36.8128 11.6183 37.6814 11.9591 38.5833 11.9513H38.65C39.9224 11.9295 40.7519 11.7238 41.7593 10.6601L41.79 10.6283L40.7895 9.69677L40.7587 9.73022C40.5052 10.0214 40.1886 10.2538 39.8318 10.4106C39.4751 10.5674 39.0872 10.6446 38.6961 10.6367C37.5793 10.6367 36.7019 9.83726 36.495 8.64144L42.0637 8.62973H42.1064V8.5896C42.111 8.52444 42.111 8.45907 42.1064 8.39392C42.1167 8.36716 42.1167 8.33036 42.1167 8.25677ZM36.7122 7.53092C36.9038 6.49231 37.5998 5.92033 38.679 5.92033C39.724 5.92033 40.4355 6.52074 40.5928 7.53092H36.7122ZM53.3191 10.4812C53.1206 10.5331 52.9156 10.5573 52.7102 10.5531C52.5456 10.5605 52.3812 10.5347 52.2273 10.4771C52.0734 10.4195 51.9333 10.3315 51.8157 10.2186C51.6584 10.038 51.6259 9.76033 51.6259 9.40074V6.01231H53.6782V4.78304H51.6259V2.45496H50.1807V4.78304H49.3871V6.01231H50.1807V9.32716C50.1807 10.1249 50.362 10.712 50.7348 11.12C50.9782 11.3827 51.2776 11.5899 51.6118 11.7269C51.9461 11.8639 52.307 11.9273 52.6692 11.9128C53.0318 11.9161 53.3931 11.8676 53.7415 11.769L53.7843 11.7556L53.3618 10.4695L53.3191 10.4812ZM89.5754 1.33942C89.4528 1.33918 89.3313 1.36287 89.2181 1.40912C89.105 1.45536 89.0024 1.52323 88.9164 1.60874C88.8304 1.69425 88.7627 1.79569 88.7172 1.90711C88.6718 2.01853 88.6496 2.13769 88.6519 2.25761C88.65 2.37671 88.6727 2.49496 88.7184 2.60535C88.7642 2.71574 88.8321 2.81602 88.9183 2.90024C89.0044 2.98447 89.107 3.05093 89.2198 3.09567C89.3327 3.14042 89.4537 3.16255 89.5754 3.16074C89.6984 3.16342 89.8206 3.14203 89.9349 3.09782C90.0493 3.05361 90.1534 2.98748 90.2412 2.90333C90.329 2.81918 90.3987 2.71869 90.4462 2.6078C90.4937 2.49691 90.5181 2.37784 90.5178 2.25761C90.5183 2.13662 90.4942 2.01675 90.4469 1.90493C90.3997 1.79311 90.3302 1.69157 90.2426 1.60617C90.155 1.52078 90.0509 1.45323 89.9363 1.40744C89.8218 1.36166 89.6992 1.33854 89.5754 1.33942Z" fill="white"/>
</g>
</g>
<defs>
<clipPath id="clip0_10845_8390">
<rect width="98.3415" height="15.2195" fill="white" transform="translate(0.898438 0.267578)"/>
</clipPath>
</defs>
</svg>
