<?xml version="1.0" standalone="no"?>
<!DOCTYPE svg PUBLIC "-//W3C//DTD SVG 20010904//EN"
 "http://www.w3.org/TR/2001/REC-SVG-20010904/DTD/svg10.dtd">
<svg version="1.0" xmlns="http://www.w3.org/2000/svg"
 width="700.000000pt" height="700.000000pt" viewBox="0 0 700.000000 700.000000"
 preserveAspectRatio="xMidYMid meet">
<metadata>
Created by potrace 1.14, written by Peter Selinger 2001-2017
</metadata>
<g transform="translate(0.000000,700.000000) scale(0.100000,-0.100000)"
fill="#000000" stroke="none">
<path d="M3281 6794 c-154 -22 -394 -92 -487 -142 -11 -6 -26 -13 -34 -16
-126 -49 -409 -273 -527 -418 -150 -184 -262 -418 -314 -658 -20 -95 -23 -138
-26 -435 -2 -181 -5 -334 -7 -340 -2 -6 -116 -10 -317 -9 -173 1 -321 0 -330
-2 -15 -4 -16 -156 -16 -1759 l0 -1755 21 -13 c12 -7 91 -45 176 -84 85 -40
205 -95 265 -123 61 -29 137 -65 170 -80 33 -15 103 -48 155 -73 52 -24 120
-56 150 -70 70 -32 100 -46 725 -337 286 -133 542 -253 569 -266 l49 -24 51
24 c28 13 74 34 101 46 28 13 106 49 174 81 68 33 125 59 126 59 1 0 58 26
126 59 68 32 149 70 179 84 30 13 93 43 140 65 47 22 148 69 226 105 78 36
174 81 215 100 189 88 513 239 594 277 164 77 249 117 301 140 l51 22 -1 1762
-1 1761 -333 0 -332 0 0 270 c-1 335 -6 407 -34 540 -25 114 -85 279 -135 370
-31 57 -112 187 -121 195 -3 3 -29 34 -57 70 -241 301 -637 519 -1043 575 -91
13 -356 12 -449 -1z m421 -834 c185 -44 359 -158 462 -305 54 -76 85 -145 113
-246 4 -13 8 -161 10 -329 l4 -305 -780 1 c-429 0 -783 3 -787 6 -7 8 -6 539
1 583 56 321 315 558 663 607 100 14 221 10 314 -12z m1168 -3066 l0 -1055
-102 -48 c-57 -27 -125 -58 -153 -71 -27 -12 -86 -39 -130 -60 -44 -21 -208
-97 -365 -170 -157 -73 -356 -166 -444 -206 -87 -41 -164 -74 -172 -74 -7 0
-59 22 -116 49 -150 71 -280 131 -283 131 -2 0 -63 29 -137 64 -73 35 -212
100 -308 144 -96 44 -220 102 -275 127 -55 26 -133 62 -172 81 l-73 33 0 1055
0 1056 1365 0 1365 0 0 -1056z"/>
</g>
</svg>
