<svg xmlns="http://www.w3.org/2000/svg" width="20" height="20" fill="none"><path fill="#F29D40" d="M10 20c5.523 0 10-4.477 10-10S15.523 0 10 0 0 4.477 0 10s4.477 10 10 10Z"/><path fill="#fff" fill-rule="evenodd" d="m6.948 5.046.007.002a.121.121 0 0 1-.024.016l.017-.018Zm.069.019.021-.081-.083.064.062.017Zm0 0-.114.445c-.045.178-.09.356-.136.527-.03.062 0 .093.06.093l.145.036c.202.051.42.106.638.18.27.093.42.372.36.62-.36 1.61-.751 3.189-1.142 4.768-.03.216-.211.34-.452.278a5.105 5.105 0 0 1-.661-.155c-.09 0-.12 0-.15.093-.091.248-.211.527-.332.805-.03.062-.052.116-.075.17a3.093 3.093 0 0 1-.075.171c.722.186 1.414.371 2.105.557 0 .037-.01.062-.018.083-.006.015-.012.028-.012.041-.15.496-.27 1.022-.39 1.548-.03.062-.03.093.06.124.3.062.601.124.902.217.08.027.089.006.11-.041a.716.716 0 0 1 .01-.021c.03-.14.068-.279.105-.418.038-.14.076-.279.106-.418.03-.14.067-.279.105-.418.038-.14.075-.279.105-.418.271.062.512.124.752.186.044.022.04.044.035.078-.002.013-.005.028-.005.046-.15.495-.27 1.021-.39 1.548-.03.062-.03.093.06.124.135.03.278.07.42.108.143.039.286.077.422.108.144.06.15.034.176-.077l.004-.016c.06-.247.12-.503.18-.758.06-.256.12-.511.181-.759.03-.093.09-.124.18-.093.602.093 1.204.155 1.835.062a1.853 1.853 0 0 0 1.233-.68c.271-.341.422-.713.542-1.146.09-.341.12-.713.06-1.053a1.954 1.954 0 0 0-.722-1.053 2.515 2.515 0 0 0-.18-.124c-.06-.038-.12-.077-.18-.124.034 0 .06-.01.08-.019a.106.106 0 0 1 .04-.011c.24-.093.48-.217.661-.403.24-.248.361-.557.451-.898.12-.495.09-.99-.18-1.455a2.582 2.582 0 0 0-.782-.743l-.993-.465c-.09-.03-.12-.062-.09-.154.06-.155.09-.31.12-.465.09-.371.18-.743.271-1.145-.015 0-.022-.008-.03-.016-.007-.008-.015-.015-.03-.015-.143-.04-.28-.075-.413-.108-.177-.044-.348-.087-.52-.14-.06-.031-.09 0-.09.062l-.09.371c-.12.403-.21.774-.3 1.177-.01.01-.02.024-.03.038-.02.027-.04.055-.06.055-.121-.031-.25-.062-.377-.093-.128-.031-.256-.062-.376-.093.03-.062.03-.093.03-.124.06-.247.12-.503.18-.758.06-.256.121-.511.181-.759.03-.062.03-.093-.06-.124a8.966 8.966 0 0 1-.872-.216c-.09-.031-.12 0-.15.092-.06.264-.121.519-.181.774-.06.256-.12.511-.18.774-.03.093-.06.124-.151.093a11.6 11.6 0 0 0-.496-.123c-.166-.04-.331-.078-.497-.124-.165-.047-.33-.085-.496-.124-.142-.034-.285-.067-.427-.105Zm1.465 7.63c.03 0 .06.03.06.03l.228.06c.413.11.845.224 1.276.25.36.03.692.03 1.023-.093.571-.186.812-.96.48-1.455-.15-.248-.39-.403-.63-.558-.526-.3-1.137-.426-1.722-.546l-.053-.011c-.083-.028-.09-.005-.113.07l-.008.023c-.03.155-.067.302-.105.449-.038.147-.075.294-.105.449-.069.247-.128.494-.188.746-.045.191-.091.385-.143.585Zm2.857-3.221c-.12.03-.27.062-.33.062-.35 0-.651-.049-.963-.1-.118-.019-.237-.038-.361-.055-.06-.015-.113-.03-.166-.046a4.814 4.814 0 0 0-.165-.047c-.06-.03-.09-.062-.06-.124.18-.65.33-1.27.481-1.92.03-.092.06-.123.15-.092.09.024.178.048.266.07.353.094.69.183 1.028.332.27.124.541.31.692.589.3.526 0 1.207-.572 1.33Z" clip-rule="evenodd"/></svg>
