<svg viewBox="0 0 238 252" fill="none" xmlns="http://www.w3.org/2000/svg">
    <g clip-path="url(#clip0_4158_25281)">
        <path d="M137.768 24.0253L155.032 28.0088C155.032 28.0088 173.951 35.037 182.429 46.6931C190.908 58.3529 201.506 78.0099 203.277 103.257C205.047 128.5 198.617 158.645 186.358 180.654C186.358 180.654 177.386 200.316 162.671 211.224C147.956 222.132 137.98 226.927 121.729 227.443L109.212 226.551L103.799 226.466L95.2369 225.016L106.163 223.794L137.768 24.0253Z" fill="#9BE887"/>
        <path d="M139.956 27.571C139.956 27.571 182.684 41.3741 182.601 114.071C182.517 186.763 133.043 214.311 133.043 214.311C133.043 214.311 98.2621 239.134 62.324 208.924C26.3897 178.712 37.573 120.589 39.2157 111.132C40.861 101.67 53.3465 49.5263 91.4014 29.9283C91.4014 29.9283 111.511 14.9171 139.96 27.5697L139.956 27.571Z" fill="#9BE887"/>
        <path d="M139.956 27.571C139.956 27.571 182.684 41.3741 182.601 114.071C182.517 186.763 133.043 214.311 133.043 214.311C133.043 214.311 98.2621 239.134 62.324 208.924C26.3897 178.712 37.573 120.589 39.2157 111.132C40.861 101.67 53.3465 49.5263 91.4014 29.9283C91.4014 29.9283 111.511 14.9171 139.96 27.5697L139.956 27.571Z" fill="#9BE887"/>
        <path d="M137.337 114.508C136.69 110.318 136.9 107.965 134.493 104.291C132.086 100.616 129.104 97.05 129.104 97.05L135.408 81.9266C135.408 81.9266 136.908 80.3281 136.428 79.7834C135.948 79.2387 133.046 77.496 133.046 77.496L130.117 75.9376L128.148 79.7581L125.203 85.9189L123.07 90.8614L120.8 90.0642L118.214 88.0789L122.234 78.4455L125.165 71.8983L119.237 67.3454L111.861 83.0825L100.269 75.0623L97.8736 79.8713L95.5759 85.9321C95.5759 85.9321 98.6724 86.8458 99.6193 88.0273C100.566 89.2089 101.875 91.3008 101.558 93.4451C101.243 95.5932 100.293 98.224 100.112 98.4823C100.034 98.5926 99.6854 99.1712 99.3103 99.7924L99.1597 99.6824L98.5613 101.038C98.3761 101.344 98.2532 101.553 98.2532 101.553L98.3171 101.593L88.6253 123.531L84.809 130.826C84.809 130.826 83.1867 134.218 83.0595 134.583C82.936 134.946 81.3186 137.334 81.3186 137.334L79.2161 137.785L75.2318 134.338L71.2818 140.17L70.2214 143.071L80.2595 153.062L77.4499 159.243L74.6978 165.049L74.4489 166.729L78.6699 171.421L84.9458 158.388L89.1962 161.942L86.0173 169.216L83.2509 176.072L86.4693 179.003L88.1611 179.909L93.3469 169.488L94.8404 167.438L94.7812 167.879C94.7812 167.879 101.631 173.323 105.411 173.379C109.192 173.436 112.068 172.982 115.316 170.007C118.56 167.033 122.428 163.194 124.395 157.943C126.363 152.692 126.05 147.692 125.281 144.817C124.56 142.13 122.734 139.04 122.153 138.289C123.517 137.832 126.319 136.843 127.855 135.935C129.932 134.703 132.369 132.95 133.977 129.649C135.586 126.349 137.983 118.681 137.336 114.492L137.337 114.508ZM112.586 100.534C112.586 100.534 115.555 101.334 118.554 104.807C121.311 108.002 122.808 112.458 123.03 113.155C123.121 114.629 123.194 116.925 122.855 117.996C122.331 119.638 120.144 124.475 118.56 125.208C116.979 125.94 114.393 125.86 114.393 125.86L114.504 126.059C113.869 126.075 112.895 125.968 111.948 125.323C110.353 124.242 106.38 121.677 106.38 121.677L103.311 119.227L104.277 116.903L108.915 106.88L108.759 106.768L112.587 100.538L112.586 100.534ZM109.93 154.207C107.194 156.584 103.575 157.316 102.364 156.955C101.514 156.701 99.0562 155.374 97.6707 154.607C96.7052 153.935 93.854 151.846 93.854 151.846C93.854 151.846 91.2554 149.478 91.0064 149.252C90.9398 149.192 90.7773 148.916 90.5738 148.545L90.7729 148.46C90.7729 148.46 91.3247 144.249 92.2059 143.036C93.0871 141.823 94.958 139.135 95.5759 136.84C96.1938 134.545 98.2047 130.918 98.2047 130.918L99.3729 128.699L99.5394 128.291C100.449 128.887 101.586 129.62 101.817 129.71C102.215 129.863 104.319 132.257 104.69 132.594C105.061 132.931 107.301 135.345 107.301 135.345C107.301 135.345 108.688 137.351 108.964 137.389C109.239 137.427 111.385 140.971 111.536 141.85C111.687 142.73 112.472 145.986 112.472 145.986C112.472 145.986 112.662 151.828 109.925 154.205L109.93 154.207ZM120.84 137.826C120.845 137.795 120.843 137.716 120.841 137.613L121.057 138.008C120.908 138.01 120.809 137.978 120.84 137.826Z" fill="black"/>
        <path d="M74.5783 166.047C73.6677 165.989 73.3607 167.597 74.1093 168.124C74.5319 168.418 75.03 168.594 75.4718 168.836C75.8773 169.057 76.3317 169.515 76.7873 169.174C76.9598 169.048 77.0256 168.842 76.9889 168.592C76.9041 167.965 76.3966 167.833 76.0232 167.596C75.7877 167.445 75.5497 167.299 75.3165 167.143C75.1963 167.072 75.081 166.992 74.9705 166.901C74.7598 166.654 74.7007 166.795 74.7943 167.328L74.4004 167.644L74.4858 167.614C75.0649 167.401 75.2563 166.094 74.5759 166.052L74.5783 166.047Z" fill="black"/>
        <path d="M85.2729 159.043C85.3677 159.064 85.4619 159.048 85.5533 159C85.6437 158.972 85.7325 158.917 85.811 158.831C85.8921 158.753 85.958 158.655 86.0037 158.535C86.0658 158.426 86.1052 158.3 86.121 158.166L86.1363 157.898C86.1304 157.726 86.0937 157.572 86.0249 157.434L85.9096 157.257C85.8151 157.153 85.7049 157.087 85.5778 157.069C85.4831 157.048 85.3888 157.064 85.2975 157.112C85.2071 157.139 85.1183 157.195 85.0398 157.281C84.9587 157.359 84.8928 157.456 84.847 157.576C84.785 157.685 84.7455 157.811 84.7298 157.946L84.7145 158.213C84.7203 158.386 84.7571 158.54 84.8259 158.678L84.9412 158.854C85.0357 158.959 85.1459 159.025 85.2729 159.043Z" fill="black"/>
        <path d="M92.2564 141.133C91.6059 141.5 91.0702 142.306 90.617 143.05C90.1638 143.794 89.4908 144.648 89.385 145.637C89.2792 146.627 89.8656 147.309 90.5721 146.948C91.2786 146.586 91.7034 145.556 92.1487 144.778C92.5915 144.004 93.0616 143.117 93.1827 142.16C93.2789 141.394 92.7908 140.827 92.2514 141.131L92.2564 141.133Z" fill="black"/>
        <path d="M83.0311 176.601C83.4526 177.815 84.4172 178.221 85.2217 178.848C85.9785 179.434 86.7412 180.696 87.7008 180.297C87.8938 180.217 87.9856 179.907 87.9901 179.668C88.0211 178.355 86.7261 177.669 86.0477 177.093C85.2738 176.434 84.3849 175.515 83.3687 175.86C83.1533 175.934 82.9152 176.279 83.0273 176.602L83.0311 176.601Z" fill="black"/>
        <path d="M100.479 172.332C102.478 174.122 105.177 174.587 107.654 174.376C109.149 174.248 111.748 172.567 111.298 170.011C111.232 169.63 110.877 169.471 110.617 169.632C110.066 169.973 109.775 170.561 109.301 171.054C108.412 171.982 107.22 172.226 106.215 172.171C104.502 172.079 102.775 171.647 101.304 170.585C100.617 170.091 99.8216 171.744 100.475 172.333L100.479 172.332Z" fill="black"/>
        <path d="M111.571 152.513C112.213 150.934 112.954 149.449 113.263 147.703C113.572 145.956 113.596 144.072 113.356 142.303C112.947 139.254 111.781 136.676 110.111 134.789C108.887 133.408 107.129 136.315 108.363 137.675C109.778 139.235 110.739 141.381 110.968 143.993C111.086 145.351 111.004 146.756 111.018 148.128C111.035 149.591 111.232 151.021 111.298 152.47C111.307 152.675 111.499 152.688 111.571 152.513Z" fill="black"/>
        <path d="M121.61 135.419C121.225 135.436 120.897 135.712 120.553 135.969C120.044 136.349 119.53 136.894 119.455 137.744C119.391 138.457 119.57 139.023 120.017 139.325C120.561 139.694 121.164 139.347 121.672 138.88C121.805 138.759 121.947 138.643 122.076 138.511C122.34 138.24 122.499 137.919 122.667 137.54C122.882 137.058 122.818 136.381 122.617 135.981C122.381 135.505 122.023 135.396 121.609 135.415L121.61 135.419Z" fill="black"/>
        <path d="M120.353 69.2414C120.376 68.3636 120.216 68.5359 119.946 67.7226L119.197 68.7064C120.825 69.9926 122.474 71.2424 124.079 72.5824C124.888 73.2585 125.715 71.4943 124.862 70.9294C123.116 69.7839 121.412 68.5409 119.69 67.3329C119.196 66.9885 118.78 67.9235 118.998 68.4801C119.304 69.2644 119.122 69.3648 119.625 69.8185C119.939 70.1005 120.339 69.7786 120.355 69.2364L120.353 69.2414Z" fill="black"/>
        <path d="M100.405 74.8898C100.07 76.1792 100.934 77.0734 101.548 77.7507C102.126 78.3862 103.102 79.3995 103.929 78.8088C104.185 78.6241 104.285 78.3022 104.234 77.9374C104.091 76.9634 103.168 76.4851 102.645 75.9385C102.123 75.3918 101.612 74.2335 100.843 74.4382C100.676 74.4837 100.466 74.6479 100.405 74.8898Z" fill="black"/>
        <path d="M100.32 74.3578C99.3142 75.8469 98.5407 77.8254 97.769 79.5454C96.8945 81.4965 96.0615 83.4832 95.2472 85.4759C95.0904 85.8632 95.2887 86.2187 95.5358 86.2952C97.7245 86.979 100.654 87.9632 101.438 91.24C101.985 93.5216 100.719 95.6752 99.7929 97.6108C98.734 99.8216 97.7215 102.07 96.6964 104.307C95.1606 107.661 93.7817 111.131 92.2145 114.454C90.5637 117.956 88.8352 121.402 87.1833 124.913C85.8946 127.649 84.6068 130.351 83.4525 133.185C83.2703 133.632 83.7235 133.99 83.9548 133.602C87.455 127.685 89.9079 120.705 92.8316 114.302C95.5242 108.408 98.308 102.561 101.047 96.6929C102.304 93.9974 102.477 91.6447 101.387 89.1275C100.234 86.4656 97.8312 85.7646 95.7224 85.1071L96.0073 85.9276C96.7844 84.0436 97.5791 82.1742 98.3927 80.3232C99.1906 78.511 100.191 76.6825 100.801 74.7608C100.941 74.3128 100.567 74.0017 100.321 74.3615L100.32 74.3578Z" fill="black"/>
        <path d="M75.4823 134.292C75.9842 135.57 76.8513 136.438 77.675 137.3C78.2115 137.863 78.7149 138.366 79.4376 138.411C80.9565 138.508 82.3498 137.092 82.9594 135.133C82.9904 135.03 82.9106 134.908 82.8371 134.996C81.4568 136.653 79.987 138.004 78.3505 136.646C77.3633 135.827 76.664 134.664 75.5041 134.247C75.4854 134.241 75.4696 134.267 75.4773 134.29L75.4823 134.292Z" fill="black"/>
        <path d="M78.0295 136.49C77.1389 135.243 76.0249 132.61 74.7225 134.635C73.0969 137.167 71.1034 139.993 69.9972 143.003C69.9587 143.107 69.967 143.275 70.0374 143.334C71.8045 144.805 73.2994 146.678 74.9511 148.356C76.6027 150.033 78.232 151.718 79.7788 153.561C80.2469 154.118 80.9448 152.965 80.467 152.428C79.0716 150.865 77.6738 149.308 76.2237 147.839C74.7371 146.337 73.128 145.286 71.5605 143.97C70.587 143.156 70.5636 142.968 71.3196 141.587C71.9528 140.426 72.6125 139.295 73.2771 138.165C73.7945 137.282 74.3731 136.133 75.0511 135.473C75.9157 134.632 75.9793 135.151 76.6496 135.68C77.0789 136.017 77.5288 136.306 77.9702 136.619C78.0253 136.658 78.0687 136.543 78.0295 136.49Z" fill="black"/>
        <path d="M79.8547 152.774C78.4921 154.362 77.6213 157.211 76.7161 159.289C75.5885 161.877 74.5338 164.532 73.41 167.131C73.3134 167.356 73.3554 167.741 73.5037 167.868C75.1873 169.314 76.7682 171.003 78.5013 172.341C78.7298 172.519 79.0398 172.262 79.1628 171.957C80.1919 169.445 81.3017 167.021 82.5015 164.64C83.3932 162.87 84.739 161.043 85.2236 159.023C85.3027 158.688 85 158.535 84.8243 158.7C83.39 160.009 82.3208 162.897 81.3717 164.849C80.316 167.022 79.2943 169.232 78.2927 171.452L79.0597 171.156C77.4889 169.58 75.7406 168.331 74.1139 166.857L74.2076 167.595C75.3104 165.115 76.476 162.684 77.5778 160.213C78.52 158.109 80.0162 155.576 80.3796 153.207C80.4405 152.808 80.0997 152.485 79.8509 152.775L79.8547 152.774Z" fill="black"/>
        <path d="M84.6375 159.142C86.151 160.11 87.4911 161.322 88.7401 162.81L88.7131 161.93C87.5411 164.15 86.533 166.556 85.4855 168.883C84.3642 171.382 83.2024 173.919 82.348 176.588C82.2751 176.821 82.33 177.039 82.4792 177.145C84.2439 178.417 85.9564 179.791 87.5379 181.434C87.752 181.655 88.0925 181.546 88.227 181.166C89.9568 176.322 92.1441 171.884 94.8733 167.941C95.3886 167.197 94.5551 166.234 94.0602 167.025C91.4373 171.215 89.1819 175.779 87.4457 180.713L88.0418 180.369C86.3042 178.971 84.5752 177.574 82.7663 176.343L82.8975 176.9C83.9394 174.616 84.8332 172.217 85.8412 169.908C86.9377 167.41 88.1967 165.092 89.3773 162.668C89.5106 162.393 89.5602 161.985 89.3502 161.787C87.9469 160.49 86.4439 159.372 84.8787 158.447C84.5794 158.268 84.3392 158.942 84.6323 159.127L84.6375 159.142Z" fill="black"/>
        <path d="M99.196 128.069C98.3028 129.116 97.8006 130.713 97.1997 132.074C96.3594 133.98 95.5242 135.888 94.6889 137.797C93.8597 139.687 93.0266 141.565 92.1634 143.429C91.5728 144.712 90.5448 146.413 90.2992 147.862C90.2574 148.102 90.3511 148.335 90.4952 148.427L90.5691 148.472C90.8333 148.634 91.1054 148.219 91.0375 147.856L91.0294 147.809C90.9802 147.547 90.7486 147.515 90.59 147.657L90.574 147.671C90.4376 147.794 90.4197 148.054 90.4912 148.212L90.499 148.234C90.5548 148.023 90.6069 147.814 90.659 147.604L90.6244 147.625L91.0491 148.093C91.1176 147.499 91.7451 146.478 91.9807 145.935C92.3673 145.035 92.7426 144.127 93.1216 143.217C93.8276 141.512 94.5688 139.836 95.3024 138.15C96.036 136.464 96.7696 134.778 97.5032 133.092C98.1642 131.569 99.1258 129.928 99.3855 128.22C99.4074 128.079 99.2866 127.959 99.1947 128.066L99.196 128.069Z" fill="black"/>
        <path d="M99.3723 128.374C102.227 130.965 105.077 133.841 107.441 137.247C109.895 140.781 112.09 146.155 110.262 151.579C108.279 157.468 102.955 156.97 99.6072 155.428C97.7557 154.577 96.0542 153.283 94.4489 151.835C93.608 151.078 92.795 150.27 91.9808 149.471C91.5971 149.097 91.0943 148.847 91.0403 148.105C91.0176 147.775 91.2079 146.886 91.2286 146.55C91.2511 146.159 90.8626 146.202 90.7454 146.476C90.4395 147.165 90.2695 147.79 90.0699 148.533C90.001 148.79 90.001 149.089 90.1621 149.254C93.5882 152.795 97.2368 156.33 101.644 157.425C105.246 158.321 109.608 157.942 111.482 152.291C113.156 147.237 111.77 141.673 109.436 138.115C108.066 136.028 106.422 134.24 104.822 132.507C103.222 130.774 101.466 129.12 99.451 128.205C99.381 128.172 99.2983 128.317 99.3699 128.379L99.3723 128.374Z" fill="black"/>
        <path d="M80.6945 137.549C81.5724 137.274 82.2846 136.269 82.911 135.365C83.9197 133.908 84.995 132.212 85.7744 130.514C85.9257 130.183 85.589 129.801 85.3799 130.073C83.6367 132.338 82.5506 135.465 80.6894 137.534C80.6819 137.537 80.6871 137.552 80.6945 137.549Z" fill="black"/>
        <path d="M82.9371 163.329C83.5199 162.011 84.0238 160.047 84.8421 158.977C85.1626 158.558 84.688 158.078 84.4866 158.576C83.968 159.85 83.1532 160.907 82.5945 162.162C82.1132 163.244 81.5546 164.404 81.296 165.6C81.2408 165.861 81.4854 165.942 81.6014 165.773C82.9974 163.778 83.5903 160.968 84.8898 158.91L84.4866 158.576C84.2476 159.445 83.7514 160.233 83.4274 161.062C83.143 161.788 82.9391 162.483 82.7548 163.259C82.7158 163.422 82.884 163.451 82.9396 163.324L82.9371 163.329Z" fill="black"/>
        <path d="M80.3582 152.845C79.7738 153.93 79.3414 155.141 78.821 156.279C78.234 157.56 77.4864 158.714 76.9433 160.026C76.8709 160.201 77.0451 160.319 77.1354 160.184C77.8813 159.085 78.4297 157.704 79.0496 156.47C79.6027 155.366 80.2131 154.273 80.6257 153.064C80.7061 152.828 80.4798 152.62 80.3582 152.845Z" fill="black"/>
        <path d="M121.277 138.498C124.036 142.166 125.241 146.549 124.678 152.249C124.41 154.976 123.671 157.629 122.566 160.03C121.951 161.363 121.191 162.517 120.485 163.757C119.697 165.141 118.849 165.935 117.809 166.928C114.128 170.432 110.392 174.146 105.951 173.675C103.79 173.443 101.768 172.531 99.891 171.248C98.008 169.958 96.4096 168.158 94.5898 166.751C94.0727 166.353 93.494 167.598 93.966 168.071C95.8878 169.987 98.1821 171.562 100.4 172.81C102.618 174.058 104.752 174.702 107.154 174.696C109.286 174.688 111.235 173.962 113.18 172.421C115.193 170.828 117.344 169.078 119.051 166.838C119.934 165.679 120.955 164.725 121.773 163.488C122.614 162.219 123.328 160.777 123.915 159.279C124.922 156.716 125.508 153.933 125.639 151.133C125.863 146.325 124.362 140.552 121.439 138.15C121.299 138.033 121.171 138.36 121.273 138.499L121.277 138.498Z" fill="black"/>
        <path d="M103.638 118.921C105.155 115.848 106.538 112.643 108.025 109.543C109.526 106.413 111.201 103.485 112.749 100.405L112.284 100.588C115.304 102.156 117.958 104.838 120.038 108.168C121.052 109.796 122.162 111.724 122.361 114.01C122.578 116.493 121.525 119.139 120.409 121.186C119.444 122.961 118.192 124.544 116.641 125.074C114.868 125.682 112.829 125 111.216 124.295C109.602 123.59 108.051 122.706 106.711 121.349C105.64 120.265 104.695 119.091 103.313 118.763L103.64 119.682C105.488 114.197 107.854 108.716 110.53 103.851C110.724 103.501 110.386 103.115 110.182 103.46C108.753 105.841 107.383 108.126 106.184 110.735C104.924 113.469 103.813 116.297 102.786 119.188C102.631 119.628 102.817 120.021 103.113 120.106C105.067 120.676 106.657 123.003 108.346 124.334C110.036 125.666 111.874 126.467 113.811 126.88C117.203 127.604 119.951 125.211 121.867 121.013C122.782 119.01 123.623 116.663 123.489 114.359C123.355 112.055 122.361 110.032 121.303 108.386C118.89 104.623 115.895 101.868 112.642 99.5938C112.499 99.4936 112.283 99.5895 112.177 99.776C110.433 102.782 108.91 106.124 107.393 109.342C105.973 112.356 104.534 115.535 103.423 118.758C103.358 118.943 103.548 119.118 103.638 118.933L103.638 118.921Z" fill="black"/>
        <path d="M96.6109 133.914C97.0436 133.027 97.5015 132.165 97.9343 131.278C98.1228 130.239 98.5592 129.747 99.2409 129.793C99.6729 129.443 100.03 129.49 100.303 129.928C100.566 130.086 100.813 130.366 101.053 130.578C102.364 131.717 103.689 132.863 104.916 134.155C106.12 135.418 107.264 136.797 108.291 138.329C109.255 139.763 109.918 141.829 111.011 143.023C111.172 143.2 111.5 142.994 111.464 142.662C111.205 140.43 109.676 138.518 108.598 137.008C107.159 134.995 105.519 133.28 103.857 131.631C103.018 130.799 102.16 130.003 101.292 129.23C100.788 128.785 100.16 127.959 99.5388 127.954C98.9172 127.95 98.8425 128.442 98.5573 129.094C97.8646 130.67 97.2497 132.302 96.5833 133.894C96.5773 133.913 96.5962 133.931 96.6059 133.911L96.6109 133.914Z" fill="black"/>
        <path d="M100.426 75.0481C104.198 77.716 107.847 80.7012 111.542 83.5416C111.683 83.6504 111.861 83.5264 111.975 83.3746C113.559 81.2145 114.665 78.23 115.819 75.6576C117.064 72.879 118.375 70.1481 119.638 67.3878C119.854 66.9178 119.319 66.467 119.083 66.9274C117.074 70.9075 115.384 75.2056 113.432 79.2447C112.994 80.1501 112.531 81.047 112.028 81.8873C111.938 82.0351 111.831 82.3012 111.714 82.3959C111.407 82.6396 111.762 82.4873 111.481 82.4435C111.389 82.4298 110.87 81.811 110.727 81.6984L109.578 80.7866C106.706 78.5053 103.775 76.3191 100.965 73.904C100.413 73.4298 99.8365 74.6328 100.422 75.0494L100.426 75.0481Z" fill="black"/>
        <path d="M119.375 67.2635C121.366 68.9106 123.388 70.4679 125.433 72.0087L125.408 71.2433C124.662 71.981 124.298 73.2347 123.834 74.2945C123.179 75.7868 122.525 77.2828 121.855 78.7678C120.467 81.8539 119.079 84.9364 117.691 88.0226C117.593 88.2438 117.689 88.5185 117.826 88.6038C119.41 89.6059 120.992 90.6043 122.576 91.6064C122.689 91.6796 122.815 91.5774 122.881 91.4299C124.72 87.2716 126.679 83.2088 128.67 79.1767C128.966 78.5789 129.503 76.9737 129.946 76.6202C130.539 76.1479 131.466 77.0787 132.002 77.4002C133.502 78.2939 134.976 79.2427 136.425 80.2663L136.331 79.5292C134.363 82.3926 133.287 85.537 131.937 88.9472C131.15 90.9345 130.294 92.8544 129.355 94.728C128.953 95.5335 128.206 96.5832 128.366 97.547C128.392 97.7046 128.518 97.7689 128.626 97.7563C128.833 97.7302 128.889 97.64 129.002 97.3887C129.059 97.265 129.024 97.0939 128.956 97.0176L128.901 96.9537C128.715 96.7434 128.444 97.1122 128.572 97.3841C128.757 97.7858 130.508 94.357 130.638 94.0832C131.356 92.5442 132.007 90.9575 132.623 89.3414C133.76 86.359 134.732 82.2935 136.783 80.196C137.02 79.9557 136.97 79.5237 136.758 79.3685C134.635 77.8175 132.458 76.4386 130.188 75.2797C130.067 75.2178 129.876 75.255 129.785 75.4364C128.069 78.8821 126.418 82.3718 124.826 85.9241C124.356 86.9778 123.21 90.629 122.33 90.7058C121.749 90.7578 120.737 89.5945 120.232 89.2415C119.534 88.7517 118.836 88.2657 118.134 87.7772L118.27 88.3584C119.491 85.6087 120.712 82.859 121.935 80.1129C122.547 78.7356 123.161 77.3656 123.784 75.9968C124.372 74.7067 124.926 72.9584 125.765 71.9474C125.965 71.7075 125.953 71.3373 125.741 71.182C123.687 69.6898 121.636 68.2261 119.538 66.8451C119.35 66.7231 119.217 67.1312 119.387 67.2721L119.375 67.2635Z" fill="black"/>
        <path d="M128.766 96.2677C128.609 96.5717 128.516 96.7705 128.376 97.0855C128.311 97.2329 128.343 97.4712 128.436 97.5595C129.832 98.8598 130.962 100.569 132.054 102.324C133.035 103.901 134.082 105.456 134.891 107.222C136.762 111.295 136.489 116.777 135.659 121.659C134.853 126.361 133.063 130.781 130.123 133.757C128.704 135.194 127.103 136.333 125.452 136.972C123.967 137.546 122.417 137.481 120.965 138.189C120.827 138.258 120.818 138.544 120.941 138.609C123.645 140.108 127.977 137.161 130.323 134.728C133.256 131.683 135.583 127.36 136.579 122.558C137.594 117.658 137.904 111.647 136.242 107.364C134.613 103.162 131.774 99.1427 128.771 96.8568L128.892 97.3848C129.012 97.1434 129.115 96.8911 129.203 96.6277C129.349 96.2443 128.958 95.8974 128.766 96.2677Z" fill="black"/>
        <path d="M120.912 138.478C122.287 139.728 123.731 141.515 123.878 144.001L124.395 143.693C123.574 141.627 122.595 139.201 120.991 138.189C120.65 137.974 120.301 138.707 120.595 139.025C122.151 140.69 123.841 142.325 124.383 145.132C124.624 146.376 124.782 147.636 124.842 148.946C124.896 150.047 124.831 151.118 125.118 152.125C125.189 152.379 125.422 152.294 125.486 152.047C126.051 149.779 125.589 146.399 124.922 144.43C124.083 141.942 122.559 139.949 121.064 138.255L120.668 139.092C122.288 139.948 122.937 142.393 123.923 144.19C124.118 144.547 124.486 144.194 124.428 143.786C124.032 140.944 122.527 139.881 120.922 138.471C120.916 138.464 120.907 138.476 120.915 138.486L120.912 138.478Z" fill="black"/>
        <path d="M124.691 152.54C125.468 149.383 124.727 146.328 123.922 143.554C123.223 141.142 122.195 138.807 120.395 137.863L120.134 138.898C122.29 139.211 124.929 139.01 126.977 137.397C127.216 137.21 127.201 136.616 126.883 136.718C124.573 137.457 122.624 138.196 120.296 137.831C119.883 137.767 119.623 138.685 120.036 138.866C122.005 139.722 122.998 141.815 123.712 144.397C124.425 146.978 125.064 149.623 124.68 152.544C124.68 152.556 124.689 152.557 124.694 152.547L124.691 152.54Z" fill="black"/>
        <path d="M43.4282 181.874C43.4282 181.874 43.439 181.838 43.418 181.845C43.3971 181.852 43.4073 181.881 43.4282 181.874Z" fill="black"/>
        <path d="M36.7355 150.988C37.6409 165.76 40.5422 181.403 48.2959 194.222C54.4697 204.431 63.236 213.108 73.8611 218.618C83.5793 223.661 94.8482 225.956 105.774 225.142C117.518 224.264 128.599 220.147 138.208 213.37C149.461 205.432 158.411 194.349 165.427 182.598C172.877 170.117 178.006 156.38 181.063 142.188C186.791 115.606 186.379 85.9806 173.938 61.2886C167.68 48.8741 158.888 37.5811 147.006 30.1276C136.203 23.3517 123.232 20.287 110.571 22.2029C107.495 22.6674 104.47 23.4097 101.516 24.3811C100.487 24.722 101.038 26.3111 102.069 25.9739C114.193 21.9815 127.287 22.6196 138.961 27.7948C151.117 33.1853 161.27 42.9574 167.831 54.4595C174.251 65.7148 177.807 78.8216 179.704 91.5723C181.697 104.947 181.551 118.619 179.545 131.98C175.55 158.63 163.699 185.948 143.954 204.706C127.632 220.212 103.747 227.656 82.0753 219.856C71.5012 216.051 62.2706 209.129 55.3212 200.329C51.4519 195.427 48.5972 190.056 45.7445 184.536C42.4191 178.097 40.1325 171.223 38.6786 164.135C37.7906 159.792 37.1805 155.398 36.7591 150.984C36.7577 150.968 36.7291 150.97 36.7305 150.986L36.7355 150.988Z" fill="black" stroke="black" stroke-width="0.5"/>
        <path d="M191.781 62.243C190.157 58.5131 188.715 54.874 186.346 51.5486C184.162 48.4831 181.708 45.6323 179.22 42.8142C174.608 37.5961 169.014 32.9272 162.712 29.8767C158.161 27.6709 153.101 25.7163 148.064 25.0143C144.02 24.4504 139.942 24.4475 135.887 23.8664C132.226 23.34 128.565 22.8012 124.908 22.2611C124.122 22.1428 123.882 23.3577 124.668 23.476C127.506 23.897 130.342 24.323 133.182 24.7514C135.517 25.1015 137.886 25.3817 140.201 25.8427C142.186 26.2394 144.098 26.9031 146.086 27.2737C150.236 28.0464 154.321 28.8708 158.22 30.5875C164.771 33.4683 170.378 37.4671 175.812 42.0584C179.009 44.7596 181.669 47.8552 184.112 51.2506C185.364 52.9877 186.416 54.915 187.769 56.5713C189.266 58.4023 190.565 60.2146 191.774 62.2581C191.778 62.2692 191.795 62.259 191.792 62.2516L191.781 62.243Z" fill="black" stroke="black" stroke-width="0.5"/>
        <path d="M66.7883 213.069C76.3381 220.072 87.3825 225.507 99.2282 227.007C103.401 227.535 107.647 227.517 111.846 227.748C118.149 228.094 124.401 228.378 130.697 227.627C149.032 225.444 164.606 214.578 175.965 200.391C181.107 193.967 185.611 186.949 189.43 179.661C193.267 172.342 196.686 164.552 198.721 156.523C203.25 138.675 205.487 119.962 203.887 101.583C203.794 100.501 202.11 100.611 202.203 101.694C203.579 117.463 202.679 134.322 197.829 149.473C192.954 164.708 186.894 179.872 177.377 192.845C166.93 207.081 153.523 219.408 136.054 223.895C129.186 225.66 122.403 226.267 115.339 225.824C110.743 225.539 106.123 225.392 101.535 225C97.8047 224.681 94.132 223.809 90.5395 222.784C87.0018 221.774 83.4402 220.743 79.9432 219.598C75.3053 218.08 70.8927 215.676 66.8005 213.044C66.7892 213.036 66.7708 213.054 66.7833 213.067L66.7883 213.069Z" fill="black" stroke="black" stroke-width="0.5"/>
        <path d="M103.019 36.9612C103.019 36.9612 103.03 36.9247 103.009 36.9319C102.988 36.9392 102.998 36.9685 103.019 36.9612Z" fill="black"/>
        <path d="M162.492 162.673C172.906 139.495 176.402 113.098 170.835 88.1823C166.334 68.0394 155.192 48.1343 135.614 39.425C127.515 35.8214 118.467 34.5439 109.708 36.0037C100.308 37.5696 91.7035 42.2046 84.3426 48.1342C67.3763 61.8088 56.6887 81.4291 51.0409 102.204C45.4642 122.704 44.3584 143.882 49.3702 164.634C50.1432 167.831 51.0501 170.995 52.0548 174.128C52.1659 174.473 52.6969 174.288 52.5857 173.944C45.9413 153.247 44.7606 131.211 49.7992 110.024C54.5873 89.8889 63.4104 70.2668 78.037 55.3534C91.2311 41.8984 109.553 32.9789 128.563 38.0743C148.329 43.3692 161.851 61.1541 167.885 79.9244C171.683 91.7404 173.06 104.298 172.618 116.675C172.176 129.052 169.954 142.209 165.791 154.209C164.799 157.071 163.69 159.89 162.487 162.671C162.485 162.676 162.491 162.682 162.497 162.675L162.492 162.673Z" fill="black" stroke="black" stroke-width="0.5"/>
        <path d="M88.7996 45.6217C72.0465 56.4471 60.9476 74.2714 54.0366 92.618C46.8104 111.806 44.0116 132.782 46.549 153.165C48.5275 169.075 54.5769 184.881 66.1602 196.291C75.7061 205.692 88.2176 210.859 101.603 210.993C117.412 211.146 132.118 203.748 142.993 192.567C143.245 192.309 142.818 191.941 142.567 192.203C132.808 202.235 119.942 209.244 105.837 210.259C92.8482 211.195 79.8385 206.546 69.9301 198.186C58.0093 188.129 51.3217 173.48 48.5289 158.365C44.9621 139.067 46.6443 118.554 52.3075 99.8252C55.6413 88.8032 60.7207 78.1238 67.1278 68.5603C73.0224 59.7613 79.9637 51.5808 88.8085 45.6352C88.8122 45.6339 88.8046 45.6241 88.8059 45.6278L88.7996 45.6217Z" fill="black" stroke="black" stroke-width="0.5"/>
        <path d="M69.7702 47.3388C68.3524 48.0723 67.1265 49.5506 66.0459 50.7162C64.9652 51.8819 63.9032 53.245 62.8826 54.5354C60.8022 57.1715 58.8473 59.9055 57.0177 62.7249C53.5185 68.1169 50.484 73.8052 47.8994 79.6868C45.3885 85.3972 43.1375 91.2088 41.4905 97.2267C39.7294 103.659 38.8926 110.153 38.0298 116.751C38.0116 116.891 38.2223 116.934 38.2478 116.792C39.3468 110.49 41.1471 104.315 42.9144 98.1761C44.6816 92.0374 46.5875 86.0586 49.1023 80.2636C51.5664 74.5861 54.4516 69.0911 57.7752 63.8641C59.6455 60.9223 61.6685 58.0731 63.8197 55.3292C64.8402 54.0264 65.9323 52.786 66.9704 51.4978C68.0085 50.2096 69.3004 48.9456 69.9548 47.4869C70.008 47.3644 69.8813 47.2753 69.7714 47.3301L69.7702 47.3388Z" fill="black" stroke="black" stroke-width="0.5"/>
        <path d="M92.2419 29.4483C94.1673 29.3499 96.1915 28.0979 98.067 27.58C100.356 26.9475 102.542 25.9558 104.807 25.2192C109.388 23.7329 113.966 23.5705 118.658 22.8485C118.868 22.8173 118.984 22.494 118.745 22.4025C114.407 20.7546 109.499 21.872 105.145 23.1131C102.805 23.7798 100.274 24.5172 98.1306 25.6898C96.9034 26.3613 95.8058 27.1667 94.5483 27.7989C93.67 28.2411 92.8301 28.566 92.1603 29.2853C92.1027 29.3469 92.1586 29.4481 92.2406 29.4446L92.2419 29.4483Z" fill="black"/>
        <path d="M201.962 93.2231C201.754 95.5588 201.826 97.6598 202.107 100.004C202.334 101.915 202.29 104.389 203.236 106.082C203.319 106.228 203.554 106.196 203.617 106.054C204.42 104.294 204.042 101.779 203.868 99.888C203.64 97.3962 203.148 95.4533 202.091 93.2116C202.065 93.1584 201.964 93.1435 201.957 93.2207L201.962 93.2231Z" fill="black"/>
        <path d="M188.496 177.51C183.388 172.985 178.558 167.892 174.787 162.183L174.505 162.763C180.805 162.897 186.403 166.666 192.637 167.473C193.012 167.522 193.293 167.05 192.969 166.788C189.303 163.779 185.469 161.099 181.379 158.7L181.12 159.477C184.974 160.127 188.808 160.327 192.713 160.203C193.15 160.189 193.374 159.566 193.014 159.295C190.602 157.466 187.539 157.281 185.001 155.749C181.68 153.744 181.661 149.436 179.423 146.669C179.104 146.276 178.476 146.469 178.484 146.995C178.541 150.037 180.799 153.447 183.214 155.192C186.046 157.238 189.676 157.841 192.341 160.078L192.642 159.171C188.85 159.272 185.047 159.07 181.275 158.665C180.813 158.618 180.593 159.206 181.016 159.442C185.068 161.705 188.919 164.374 192.453 167.387L192.785 166.702C186.506 165.499 181.105 161.4 174.454 162.028C174.185 162.055 174 162.373 174.173 162.608C178.336 168.236 182.725 173.46 188.014 178.077C188.372 178.39 188.849 177.833 188.493 177.515L188.496 177.51Z" fill="black" stroke="black" stroke-width="0.5"/>
        <path d="M177.768 146.728C179.047 147.585 180.73 147.542 182.217 147.825C184.196 148.203 186.159 148.645 188.118 149.109C191.798 149.978 195.489 150.806 199.291 150.697C200.065 150.673 200.528 149.514 199.843 149.04C197.431 147.365 195.241 145.479 192.7 143.973C192.465 143.834 192.235 144.201 192.439 144.372C194.547 146.103 196.891 148.039 198.452 150.293L199.167 148.818C195.205 148.791 191.391 147.906 187.556 147.024C185.806 146.62 184.044 146.196 182.259 145.967C180.804 145.778 179.121 145.425 177.796 146.173C177.612 146.278 177.588 146.607 177.768 146.728Z" fill="black" stroke="black" stroke-width="0.5"/>
        <path d="M187.063 139.386C185.442 137.701 183.804 136.074 181.97 134.626L181.495 136.051C183.17 136.011 184.856 136.062 186.531 136.104C187.351 136.128 187.413 134.821 186.624 134.683C184.861 134.375 183.175 134.324 181.39 134.432C180.726 134.471 180.33 135.428 180.916 135.857C182.795 137.231 184.663 138.609 186.391 140.172C186.893 140.622 187.514 139.857 187.064 139.389L187.063 139.386Z" fill="black" stroke="black" stroke-width="0.5"/>
        <path d="M163.135 211.432C156.767 207.806 149.397 209.324 142.464 208.157C141.297 207.959 140.771 209.548 141.812 210.102C143.692 211.105 145.602 212.09 147.374 213.276C149.147 214.462 150.774 215.877 152.509 217.135L153.416 215.746C150.932 214.703 148.344 213.817 145.728 213.161C144.201 212.776 141.128 211.546 139.709 212.804C138.455 213.913 139.173 215.345 140.323 216.131C142.732 217.771 145.317 218.854 146.959 221.404L147.217 220.012C145.634 221.29 142.823 220.456 140.97 220.246C139.389 220.067 137.811 219.883 136.223 219.781C133.001 219.572 129.914 219.571 126.831 220.624C126.009 220.906 125.877 221.941 126.474 222.508C127.452 223.433 127.476 224.186 127.888 225.35C128.249 226.364 128.992 227.055 129.843 227.671L131.08 225.781C128.846 224.955 126.414 224.363 124.109 223.679C121.612 222.935 119.157 222.357 116.571 222.014C116.165 221.96 115.888 222.589 116.329 222.743C118.478 223.495 120.635 224.182 122.799 224.891C124.071 225.306 125.335 225.749 126.588 226.217C127.84 226.685 128.888 227.341 130.083 227.837C131.205 228.3 132.439 226.736 131.32 225.947C130.202 225.158 130.074 224.574 129.689 223.381C129.351 222.337 128.698 221.569 127.907 220.837L127.55 222.721C131.293 221.397 135.062 221.457 138.953 221.879C141.741 222.18 145.877 223.44 148.346 221.671C148.813 221.339 148.874 220.76 148.604 220.28C147.893 219.024 147.034 218.133 145.814 217.375C145.125 216.948 144.422 216.539 143.723 216.133C143.369 215.927 141.699 215.275 141.587 214.906C140.978 212.959 143.975 213.994 144.484 214.117C145.379 214.335 146.267 214.58 147.145 214.857C149.076 215.468 150.896 216.313 152.684 217.257C153.53 217.704 154.309 216.485 153.592 215.869C150.29 213.033 146.411 210.561 142.708 208.247L142.056 210.192C148.789 211.478 156.191 209.657 162.58 212.565C163.321 212.903 163.824 211.834 163.125 211.44L163.135 211.432Z" fill="black"/>
        <path d="M178.04 42.7021C175.024 41.806 171.602 41.6669 168.476 41.3042C165.277 40.9337 162.068 40.7249 158.904 40.1215L159.244 41.7717C161.136 40.2579 162.682 38.5147 164.06 36.5299C164.299 36.1852 164.17 35.7554 163.754 35.6462C160.065 34.6553 156.652 33.5728 153.397 31.5075L153.096 33.0389C155.586 32.6612 157.299 31.7835 159.381 30.4327C159.683 30.2362 159.676 29.6894 159.313 29.5535C157.096 28.7171 154.858 28.7075 152.519 28.8248C149.932 28.9576 146.09 29.659 144.059 27.6432L143.988 29.0114C144.853 28.4326 145.712 27.8514 146.576 27.2727C147.341 26.7573 146.557 25.7067 145.78 26.1179C144.856 26.6091 143.931 27.0967 143.008 27.5879C142.333 27.9468 142.65 29.0268 143.329 29.1489C145.761 29.5861 147.915 29.9907 150.411 29.869C153.259 29.733 156.146 29.3963 158.865 30.4701L158.797 29.5909C157.127 30.483 154.842 31.0682 152.99 31.428C152.203 31.5807 151.957 32.5272 152.69 32.9594C155.94 34.8681 159.743 36.4604 163.541 36.7104L163.234 35.8267C161.602 37.3584 159.89 38.8017 158.203 40.2694C157.551 40.8369 157.814 41.9772 158.78 41.9329C162.193 41.7799 165.592 42.1765 168.992 42.5023C171.949 42.7863 175.021 43.4381 177.99 43.3975C178.413 43.3923 178.393 42.8083 178.036 42.7033L178.04 42.7021Z" fill="black" stroke="black" stroke-width="0.5"/>
    </g>
    <defs>
        <clipPath id="clip0_4158_25281">
            <rect width="181.333" height="203.056" fill="white" transform="translate(0 59.4716) rotate(-19.1455)"/>
        </clipPath>
    </defs>
</svg>
