<svg viewBox="0 0 194 222" fill="none" xmlns="http://www.w3.org/2000/svg">
    <g clip-path="url(#clip0_4158_25383)">
        <path d="M22.1658 194.439C22.1658 194.439 31.8131 209.347 52.1303 214.314C52.1303 214.314 85.9566 223.585 128.991 185.494C172.025 147.402 184.669 98.7953 184.669 98.7953C184.669 98.7953 196.954 61.9142 181.835 38.3396L162.528 19.5097C162.528 19.5097 154.166 4.12714 127.68 6.86418C101.2 9.59707 71.551 26.9261 38.4908 68.6798C5.42639 110.429 2.14095 150.111 5.33154 167.766C8.52649 185.422 22.1615 194.439 22.1615 194.439L22.1658 194.439Z" fill="#9BE887"/>
        <path d="M130.763 6.76671C122.673 6.23717 114.319 8.7867 106.812 11.5923C99.3044 14.3978 91.5051 18.4355 84.511 23.0551C70.4555 32.3304 58.1081 44.0647 47.1136 56.784C35.2716 70.4895 24.7968 85.5087 16.928 101.863C13.0134 109.993 10.0764 118.395 7.41306 127.002C4.73341 135.674 3.14848 144.545 2.95443 153.628C2.73795 163.698 4.1736 174.261 9.36763 183.058C13.7276 190.441 20.7745 196.986 29.4959 198.246C30.428 198.38 30.6245 196.959 29.7923 196.66C22.1388 193.926 15.7756 188.924 11.6751 181.856C7.1644 174.076 5.77194 164.941 5.7989 156.06C5.82587 147.178 6.95029 138.351 8.7133 129.765C10.4763 121.179 13.5278 113.111 17.1014 105.257C24.42 89.1727 34.4486 74.4376 45.7494 60.9068C56.0617 48.5649 67.5706 37.1043 80.7152 27.7972C88.0429 22.608 95.9268 18.0934 104.221 14.6487C108.522 12.8617 112.952 11.3698 117.461 10.2185C121.971 9.06728 126.387 8.39689 130.8 7.25401C131.066 7.18398 131.041 6.78916 130.758 6.77086L130.763 6.76671Z" fill="black"/>
        <path d="M135.039 7.78223C143.564 7.08239 151.564 9.9736 157.602 16.0791C164.077 22.6215 167.154 31.5114 168.097 40.5369C169.135 50.4898 167.433 60.146 165.103 69.78C162.818 79.2194 159.424 88.3942 155.503 97.2676C148.065 114.098 138.962 130.331 127.769 144.952C116.576 159.573 104.084 171.055 89.752 181.519C81.7956 187.329 72.6172 192.069 63.2207 195.031C58.8041 196.423 54.2498 197.419 49.6383 197.891C44.5661 198.411 39.5577 197.99 34.4854 197.801C33.4265 197.762 33.0581 199.393 34.135 199.686C42.5393 201.981 52.1307 200.734 60.4379 198.528C69.1964 196.2 77.4791 192.273 85.1985 187.554C101.082 177.852 115.194 165.479 126.909 150.993C138.967 136.082 148.725 119.305 156.823 101.947C165.559 83.2162 171.709 63.2037 170.102 42.3019C169.338 32.3625 166.219 22.3946 159.128 15.1395C152.944 8.81257 143.834 4.54147 134.999 7.26854C134.742 7.34772 134.728 7.81063 135.043 7.78244L135.039 7.78223Z" fill="black" stroke="black" stroke-width="0.3"/>
        <path d="M127.012 20.4543C113.281 20.6573 99.677 26.8714 88.3885 34.3018C76.2426 42.2978 65.5974 52.4452 56.0488 63.3726C36.2625 86.0113 19.232 114.213 16.5776 144.803C15.3438 159.044 18.5166 179.541 34.9597 183.749C35.296 183.836 35.4642 183.346 35.1292 183.233C19.9432 178.055 16.4067 160.596 17.4104 146.418C18.4797 131.264 22.9639 116.531 29.6742 102.958C36.137 89.8888 44.5147 77.8279 53.9027 66.7045C62.957 55.9758 72.9944 45.9385 84.4252 37.7454C90.7335 33.2232 97.4938 29.2744 104.669 26.3037C111.879 23.313 119.328 21.6898 127.03 20.617C127.122 20.6041 127.108 20.4546 127.016 20.4545L127.012 20.4543Z" fill="black"/>
        <path d="M134.896 115.662C130.241 122.422 126.231 129.563 121.335 136.176C116.406 142.834 110.792 149.11 104.892 154.925C93.5318 166.113 80.2537 176.004 65.3184 181.78C61.2774 183.344 56.9492 184.36 52.6473 184.839C47.994 185.362 43.5779 184.882 38.9601 184.419C38.5995 184.383 38.493 184.951 38.8419 185.047C45.9991 187.044 54.2509 185.963 61.2894 183.987C69.0583 181.807 76.312 178.211 83.0679 173.82C97.0753 164.721 109.348 153.172 119.382 139.828C125.068 132.266 131.003 124.327 135.054 115.731C135.098 115.641 134.952 115.577 134.9 115.658L134.896 115.662Z" fill="black" stroke="black" stroke-width="0.3"/>
        <path d="M130.456 21.1491C136.701 20.6694 142.178 22.2992 146.763 26.6974C151.403 31.1464 153.801 37.2432 154.939 43.4791C157.472 57.3719 153.776 71.6927 149.256 84.7615C147.979 88.4511 146.475 92.0465 144.859 95.5971C143.244 99.1476 141.119 102.76 139.648 106.484C139.513 106.832 140.025 107.063 140.223 106.762C142.21 103.75 143.657 100.244 145.167 96.968C146.8 93.4227 148.261 89.8077 149.732 86.1932C152.554 79.2382 154.546 71.84 155.71 64.4272C157.772 51.2899 157.467 36.1116 147.215 26.2911C142.863 22.1231 136.485 19.2811 130.442 20.9823C130.354 21.0085 130.355 21.1616 130.456 21.1535L130.456 21.1491Z" fill="black" stroke="black" stroke-width="0.3"/>
        <path d="M52.0444 214.559C61.9988 217.201 72.8635 215.895 82.6894 213.256C93.0062 210.488 102.632 205.797 111.663 200.14C120.825 194.403 129.337 187.697 136.961 180.03C144.645 172.308 151.552 163.779 157.827 154.881C170.409 137.049 181.862 117.77 186.878 96.3279C189.359 85.7304 191.359 74.3875 190.591 63.4683C189.823 52.549 187.353 41.8039 179.69 33.6766C175.944 29.7046 171.588 26.1355 167.584 22.4264C165.108 20.1308 162.624 17.8392 160.143 15.5477C159.241 14.7161 158.35 13.9374 157.364 13.2109C157.103 13.0188 156.842 12.8266 156.58 12.6344C155.961 12.1797 156.691 12.7885 156.428 12.5438C155.522 11.7032 154.083 12.9969 154.997 13.8423C155.665 14.4613 156.651 15.8087 157.519 16.6169C159.494 18.4504 161.464 20.2838 163.439 22.1173C167.037 25.461 170.626 28.826 174.261 32.1365C176.973 34.6012 179.524 37.0448 181.523 40.161C184.451 44.7225 186.193 49.9341 187.119 55.2543C188.967 65.8725 187.56 77.5026 185.584 88.02C183.608 98.5374 180.473 108.744 176.122 118.383C171.78 127.997 166.019 137.112 160.208 145.893C154.341 154.749 147.957 163.287 140.867 171.199C133.891 178.986 126.348 186.597 118.124 193.054C108.797 200.38 98.3505 206.303 87.0892 210.078C81.5719 211.924 75.8753 213.244 70.0903 213.877C64.1209 214.533 58.1199 214.32 52.1351 214.047C51.8477 214.033 51.7515 214.479 52.0403 214.554L52.0444 214.559Z" fill="black" stroke="black" stroke-width="0.3"/>
        <path d="M15.5897 190.669C20.2726 195.395 24.8172 200.093 30.2675 203.952C33.4903 206.237 36.8702 208.345 40.3682 210.183C42.1768 211.134 44.0284 212.008 45.8908 212.839C47.7662 213.675 50.1801 215.276 52.2564 214.867C52.7103 214.78 52.7927 214.259 52.5513 213.932C51.43 212.412 48.9265 211.921 47.248 211.165C45.2106 210.251 43.2122 209.256 41.2331 208.223C37.8196 206.441 34.5337 204.464 31.3819 202.245C26.0784 198.506 21.0369 194.414 16.115 190.196C15.78 189.908 15.2655 190.338 15.5941 190.669L15.5897 190.669Z" fill="black"/>
        <path d="M171.781 75.2301C170.869 74.0743 170.108 72.8559 169.493 71.5223C169.181 70.8509 168.421 69.6151 168.472 68.8566C168.509 68.268 168.996 67.3429 169.759 67.1793C170.522 67.0157 172.293 68.1963 173.014 68.538C174.205 69.0995 175.385 69.6912 176.579 70.253C180.607 72.1439 184.675 73.9406 189.209 73.101C189.808 72.9906 190.087 72.2871 189.829 71.767C187.57 67.2691 183.8 63.9607 180.098 60.6776C176.396 57.3944 171.54 53.6258 170.184 48.7043L169.741 49.1067C175.96 50.6551 182.181 52.1598 188.587 52.6545C189.078 52.6918 189.21 52.0641 188.865 51.7979C181.885 46.3764 174.9 40.9722 167.864 35.6268L167.596 36.449C172.552 37.314 177.49 38.2788 182.429 39.2349C183.099 39.3641 183.39 38.5125 182.762 38.2235C178.054 36.0498 173.338 33.9413 168.709 31.5835C168.641 31.5495 168.57 31.651 168.643 31.6852C173.285 34.0524 177.768 36.6349 182.305 39.1763L182.624 38.1992C177.663 37.3514 172.705 36.5168 167.762 35.578C167.273 35.484 166.961 36.0503 167.377 36.3769C174.338 41.8237 181.338 47.2111 188.355 52.5819L188.633 51.7252C182.303 51.2823 176.12 49.8888 169.956 48.4569C169.719 48.4015 169.43 48.5841 169.513 48.8594C170.234 51.3266 170.917 53.3196 172.417 55.4797C173.804 57.4679 175.597 59.1788 177.372 60.8145C181.322 64.451 185.697 67.7323 188.184 72.6264L188.804 71.2923C182.031 72.5858 176.699 67.2061 170.268 66.3384C164.5 65.5602 170.184 73.6994 171.762 75.2554C171.775 75.2691 171.798 75.2484 171.785 75.2346L171.781 75.2301Z" fill="black" stroke="black" stroke-width="0.3"/>
        <path d="M166.824 29.2426L167.395 29.1658C167.395 29.1658 167.41 29.1316 167.388 29.1349L166.817 29.2117C166.817 29.2117 166.802 29.2459 166.824 29.2426Z" fill="black"/>
        <path d="M40.4825 208.028C38.3243 206.466 36.8897 204.305 36.4302 201.667L35.7764 202.443C38.5876 202.626 40.6097 204.558 42.7291 206.202C44.4697 207.556 46.2482 208.85 48.1392 209.989C51.7173 212.151 55.4918 213.959 59.3267 215.604C60.0749 215.925 60.7806 214.98 60.4204 214.315C59.2484 212.141 58.0982 210.055 56.5475 208.124C54.1618 205.151 52.2662 202.333 51.8068 198.452L50.7267 199.2C53.023 200.441 55.2502 201.666 57.3431 203.226C59.3223 204.701 61.301 206.185 63.3742 207.524C67.2157 210.01 71.3787 211.907 75.9975 212.174C76.5416 212.205 76.976 211.452 76.5289 211.046C71.6565 206.62 67.161 201.99 63.0354 196.849L62.5204 197.646C66.7744 199.29 71.077 200.836 75.3302 202.497C75.6471 202.622 75.9895 202.228 75.8121 201.931C74.1046 199.104 72.561 196.054 70.5146 193.461C70.3133 193.206 69.9409 193.498 70.0669 193.775C71.4131 196.759 73.399 199.516 75.104 202.303L75.5859 201.736C71.3182 200.104 67.0911 198.357 62.8326 196.712C62.3485 196.527 62.0297 197.15 62.3176 197.509C66.3855 202.577 70.8012 207.501 75.5414 211.95L76.0728 210.822C66.421 210.102 59.0224 203.343 51.5058 198.005C51.0756 197.699 50.413 198.034 50.4131 198.563C50.4018 201.808 51.9105 204.681 53.7883 207.24C55.7192 209.872 57.3946 212.198 58.8077 215.15L60.1147 213.964C55.9368 211.925 51.7603 209.948 47.8036 207.497C44.1688 205.245 40.3095 201.346 35.8439 201.161C35.4258 201.14 35.1097 201.532 35.1901 201.938C35.7828 204.884 37.399 207.26 40.034 208.715C40.4973 208.97 40.9215 208.334 40.4873 208.02L40.4825 208.028Z" fill="black" stroke="black" stroke-width="0.3"/>
        <path d="M99.3276 115C102.983 105.225 106.571 95.4698 110.231 85.6957C113.885 75.9301 117.759 66.0703 121.272 56.3458C121.373 56.0665 121.241 55.9901 121.067 56.0646C121.023 55.9881 120.919 55.9786 120.756 56.0974C112.594 62.1728 104.426 68.3834 96.2696 74.704C88.1271 81.0122 79.9259 87.2737 71.8013 93.9282C71.5602 94.1263 71.4423 94.3916 71.4424 94.5666C71.3905 94.6471 71.3557 94.7329 71.3516 94.8158C70.9109 104.298 71.5076 113.28 72.5607 121.594C72.5852 121.805 72.7788 121.775 72.9688 121.64C72.9945 121.65 73.0291 121.656 73.0687 121.649C75.039 121.444 77.4124 120.586 79.5253 120.056L85.9916 118.441C88.1485 117.904 90.3011 117.363 92.458 116.826C94.4955 116.319 96.5255 115.964 98.6482 115.233C98.5201 115.708 99.1177 115.541 99.3189 114.999L99.3276 115Z" fill="black"/>
        <path d="M95.4503 119.257C90.9429 120.453 86.4162 121.686 81.8884 122.941C79.7153 123.543 77.5374 124.153 75.3595 124.763C73.3542 125.325 71.2608 125.637 69.0924 126.676C68.8918 122.148 68.4415 117.818 68.2547 113.278C68.1639 111.043 68.1004 108.787 68.0686 106.507C68.0371 104.398 68.3807 101.677 67.8474 100.006C67.8284 99.9481 67.7668 99.9582 67.7033 100.008C67.627 99.9601 67.4664 100.031 67.3739 100.223C66.4007 102.257 65.8588 104.308 65.1947 106.269C64.4845 108.369 63.7834 110.46 63.0819 112.56C61.5986 116.974 60.1106 121.392 58.6227 125.811C55.8354 134.097 53.1026 142.342 50.8626 150.419C50.7264 150.614 50.6813 150.821 50.7229 150.95C50.694 151.273 51.0538 151.146 51.3221 150.84C58.6006 145.674 65.8764 140.566 73.1539 135.51C76.7701 132.998 80.3856 130.499 84.0004 128.014C85.8077 126.773 87.6148 125.537 89.4221 124.296C91.2612 123.031 93.3135 121.868 95.1387 120.266C95.2573 120.162 95.3378 120.035 95.3826 119.923C95.6443 119.661 95.7729 119.177 95.4633 119.258L95.4503 119.257Z" fill="black"/>
    </g>
    <defs>
        <clipPath id="clip0_4158_25383">
            <rect width="183.516" height="213.186" fill="white" transform="translate(10.4844) rotate(2.819)"/>
        </clipPath>
    </defs>
</svg>
