<svg width="278" height="304" viewBox="0 0 278 304" fill="none" xmlns="http://www.w3.org/2000/svg">
    <g clip-path="url(#clip0_4158_25351)">
        <path d="M98.7875 127.254C98.7875 127.254 90.1286 143.488 90.11 165.247C90.0891 187.003 98.6458 244.198 120.757 264.844C142.865 285.492 163.113 280.422 180.483 268.543C180.483 268.543 197.26 265.041 208.946 248.205C220.632 231.369 215.427 202.712 224.37 182.336C233.313 161.959 237.26 147.193 227.602 134.719C217.945 122.245 206.161 109.698 205.833 109.349C205.506 108.999 200.486 104.603 197.795 105.196C195.102 105.786 189.016 108.05 188.836 114.612C188.657 121.177 187.019 127.447 189.074 133.117C191.129 138.788 196.015 147.839 196.015 147.839L199.536 153.689C199.536 153.689 194.503 160.941 192.46 172.738C190.417 184.535 189.878 196.592 175.01 202.722C160.143 208.853 143.46 201.771 137.573 195.18C131.687 188.59 124.024 178.106 127.966 157.369C127.966 157.369 130.221 148.876 136.919 140.75C143.62 132.622 145.704 130.612 145.704 130.612C145.704 130.612 156.282 130.519 160.911 129.347C165.542 128.177 179.381 125.351 186.632 116.811C186.632 116.811 193.759 107.482 186.947 101.347C186.947 101.347 160.898 94.8281 143.456 101.042C126.018 107.261 112.69 116.84 112.69 116.84L98.7875 127.254Z" fill="#9BE887"/>
        <path d="M122.459 266.076L100.542 209.771L90.9797 173.51C90.9797 173.51 87.6869 149.405 97.9251 129.035L100.394 115.01C100.394 115.01 102.307 98.4512 98.4016 79.3753C94.4961 60.2994 89.2742 50.9449 75.9963 47.9605C75.9963 47.9605 64.2891 42.734 63.7156 65.7258L64.906 78.6199C64.906 78.6199 59.4701 68.6385 47.1268 70.396C34.7834 72.1534 33.7697 81.7079 39.0604 88.6828C39.0604 88.6828 49.8438 103.935 52.5142 113.606C55.1846 123.276 55.1979 126.928 55.1979 126.928C55.1979 126.928 50.1281 113.153 39.8591 112.911C29.5901 112.67 27.2943 122.69 33.3771 131.786C39.4598 140.883 49.5413 160.602 53.9825 169.507C58.4236 178.413 68.0421 197.481 68.0421 197.481L82.2093 222.944C82.2093 222.944 91.3842 236.423 98.0643 243.476C104.744 250.528 115.893 260.298 115.893 260.298L122.454 266.084L122.459 266.076Z" fill="#9BE887"/>
        <path d="M193.981 107.145C192.718 109.973 191.069 112.62 190.11 115.581C188.752 119.772 188.625 124.26 189.368 128.581C190.185 133.332 192.083 137.775 194.496 141.928C195.827 144.216 197.299 146.424 198.809 148.593C199.607 149.741 200.45 150.853 201.252 151.998C202.054 153.144 202.595 154.417 203.322 155.607C203.923 156.598 202.541 157.762 201.705 156.907C200.73 155.907 199.64 155.072 198.745 153.992C197.762 152.807 196.844 151.563 195.923 150.33C194.087 147.872 192.384 145.323 190.889 142.644C188.401 138.189 186.517 133.396 185.781 128.33C185.125 123.814 185.44 119.112 187.1 114.84C188.392 111.515 190.655 109.04 192.802 106.288C193.345 105.588 194.304 106.435 193.984 107.149L193.981 107.145Z" fill="black"/>
        <path d="M201.257 152.745C200.114 154.934 198.662 156.942 197.648 159.201C196.634 161.46 195.797 164.006 195.183 166.514C193.932 171.637 193.301 176.882 192.15 182.027C191.057 186.902 189.447 191.7 186.384 195.713C182.306 201.057 175.861 204.15 169.413 205.575C156.344 208.459 142.469 203.838 134.023 193.402C125.579 182.969 123.648 167.259 126.943 154.488C128.636 147.92 132.708 143.014 137.104 138.045C141.156 133.462 145.032 128.545 146.246 122.393C146.365 121.785 147.284 121.794 147.436 122.376C150.087 132.65 138.725 139.958 133.68 147.386C129.966 152.853 128.9 159.488 128.598 165.974C128.278 172.865 129.144 179.935 132.503 186.051C139.044 197.971 152.068 205.07 165.641 203.481C172.298 202.701 179.276 199.756 183.53 194.424C186.591 190.586 188.067 185.71 189.11 180.988C190.303 175.583 190.927 170.062 192.422 164.725C193.73 160.053 195.841 154.29 200.389 151.905C200.931 151.619 201.567 152.176 201.269 152.748L201.257 152.745Z" fill="black"/>
        <path d="M150.963 99.2874C154.101 98.3274 156.911 97.5246 160.217 97.301C163.752 97.0575 167.304 96.9461 170.843 97.083C174.183 97.2119 177.532 97.5185 180.82 98.1126C183.587 98.6121 186.82 99.1319 189.022 101.018C191.041 102.753 191.873 105.433 191.213 108C190.43 111.034 189.492 114.106 187.65 116.695C183.236 122.889 176.282 125.773 169.38 128.232C165.207 129.723 161.223 131.212 156.812 131.916C153.171 132.5 148.58 133.175 145.076 131.756C144.017 131.327 144.298 129.581 145.349 129.351C147.197 128.943 149.123 129.116 151.005 129.02C153.143 128.907 155.261 128.618 157.372 128.292C161.416 127.665 165.648 126.935 169.576 125.802C177.394 123.541 188.122 119.091 188.723 109.622C188.83 107.892 189.172 106.068 188.235 104.478C187.298 102.887 185.58 102.237 183.865 101.789C180.317 100.856 176.657 100.415 173.001 100.21C169.223 99.998 165.425 100.007 161.647 100.193C159.821 100.281 158.004 100.451 156.176 100.468C154.457 100.487 152.796 100.221 151.088 100.192C150.568 100.184 150.453 99.4412 150.957 99.2859L150.963 99.2874Z" fill="black"/>
        <path d="M164.795 100.156C157.256 99.1998 149.36 100.287 142.19 102.693C133.881 105.479 126.54 110.178 119.108 114.718C115.406 116.981 111.639 119.086 107.866 121.223C104.071 123.375 101.003 125.86 99.0483 129.839C95.7989 136.451 93.7854 143.988 92.7498 151.258C92.1481 155.475 91.7436 159.706 91.679 163.966C91.6129 168.233 92.1671 172.479 92.1123 176.739C92.0933 178.175 89.9589 178.556 89.5743 177.103C87.625 169.75 88.3445 161.149 89.3161 153.687C90.3322 145.867 92.4742 138.018 95.4684 130.728C97.0182 126.967 99.0504 123.752 102.321 121.273C105.998 118.484 110.325 116.496 114.311 114.195C122.398 109.531 130.417 104.567 139.187 101.249C143.292 99.697 147.532 98.5997 151.896 98.1226C156.493 97.6174 160.557 98.0761 164.926 99.592C165.287 99.7168 165.156 100.204 164.785 100.156L164.795 100.156Z" fill="black"/>
        <path d="M191.901 108.167C192.511 104.211 197.258 103.039 200.619 104.043C205.069 105.372 207.819 109.542 210.622 112.935C214.404 117.514 218.217 122.076 222.009 126.645C225.425 130.761 229.061 134.842 231.901 139.391C234.426 143.441 235.553 147.842 235.015 152.597C234.477 157.353 232.814 161.697 231.352 166.146C228.218 175.69 225.234 185.297 222.882 195.07C221.592 200.441 220.482 205.867 219.529 211.306C218.526 217.01 218.133 222.923 216.657 228.529C216.502 229.128 215.451 229.255 215.346 228.547C214.699 224.046 215.09 219.394 215.593 214.895C216.097 210.396 216.689 206.19 217.563 201.891C219.348 193.143 221.723 184.526 224.363 176.004C225.74 171.556 227.187 167.132 228.66 162.717C230.042 158.567 231.536 154.375 231.844 149.983C232.184 145.102 230.261 140.975 227.303 137.197C223.965 132.931 220.353 128.856 216.906 124.682C213.23 120.228 209.674 115.618 205.787 111.347C202.427 107.657 197.277 104.579 192.893 108.713C192.451 109.133 191.815 108.745 191.903 108.171L191.901 108.167Z" fill="black"/>
        <path d="M96.1887 132.01C98.5806 123.693 99.8014 114.755 100.114 106.122C100.425 97.5117 98.9883 88.7888 97.3938 80.3549C95.7993 71.9211 93.5818 62.1213 87.5816 55.2568C84.9024 52.188 81.5337 50.1365 77.6567 48.9117C75.9367 48.3694 74.0351 47.865 72.249 48.3835C69.7168 49.1214 67.9939 51.399 66.9251 53.6862C64.8384 58.1584 64.791 63.4912 65.0445 68.3315C65.2972 73.1111 66.0817 77.8411 66.7506 82.5743C68.0703 91.8832 68.0125 101.041 67.2835 110.399C66.5177 120.187 65.2912 129.93 64.7505 139.736C64.1914 149.834 64.8957 159.529 66.9281 169.445C69.3011 181.03 71.708 192.696 75.4892 203.924C79.2547 215.099 84.8486 225.996 91.9932 235.398C92.4261 235.965 91.5373 236.617 91.0423 236.16C82.8215 228.574 77.7724 218.896 73.8738 208.526C69.8404 197.787 67.1575 186.705 64.9471 175.467C62.8393 164.764 61.3956 154.197 61.9409 143.27C62.4634 132.781 63.8225 122.35 64.6511 111.886C65.4518 101.791 65.5041 91.9371 64.0972 81.8894C62.788 72.5384 60.5364 61.4777 64.8974 52.5735C66.6007 49.0928 69.7866 45.9295 73.9087 46.0011C77.5808 46.0627 81.5971 47.7652 84.6484 49.7219C92.0859 54.4959 95.739 63.6358 97.9198 71.8139C99.3284 77.0974 100.175 82.4897 100.862 87.9063C101.478 92.7731 102.232 97.6645 102.256 102.582C102.296 112.513 100.978 123.164 96.7576 132.234C96.6117 132.552 96.0954 132.347 96.1909 132.014L96.1887 132.01Z" fill="black"/>
        <path d="M65.2501 80.802C62.2959 77.4545 59.7663 74.1169 55.5247 72.2692C51.2831 70.4215 46.3836 70.7208 42.3055 73.1907C38.7746 75.3312 35.629 78.9603 37.4758 83.25C39.8871 88.8592 44.075 93.6288 47.2657 98.7943C52.0338 106.513 54.9855 115.115 57.1611 123.878C59.5939 133.696 61.4763 143.626 63.2912 153.571C65.5619 166.03 67.9232 178.418 70.6881 190.773C70.7719 191.141 70.259 191.281 70.1235 190.929C65.7881 179.366 63.1052 167.13 60.7705 155.032C58.667 144.133 56.9128 133.11 53.7872 122.437C52.368 117.594 50.7208 112.847 48.7236 108.214C46.5231 103.116 43.7043 98.467 40.7228 93.7932C38.8975 90.9302 37.1599 88.0093 35.7881 84.8989C34.9844 83.0802 34.5018 81.2775 34.9334 79.2973C35.7384 75.622 39.0178 72.7752 42.2299 71.1226C46.4659 68.9406 51.3672 68.8393 55.7491 70.6741C59.9463 72.4311 64.3104 76.0685 65.7081 80.5111C65.7864 80.76 65.4319 80.9938 65.2509 80.7863L65.2501 80.802Z" fill="black"/>
        <path d="M58.3201 137.909C54.3284 129.131 50.2558 112.254 37.261 114.389C34.2409 114.884 31.7766 116.965 31.2551 120.076C30.7544 123.078 32.0661 126.123 33.4897 128.692C36.215 133.601 39.3937 138.212 42.0096 143.203C50.9081 160.167 59.0689 177.509 67.8976 194.51C74.236 206.72 81.5399 218.456 87.4375 230.876C87.6511 231.324 87.074 231.672 86.7779 231.273C78.7927 220.534 72.4157 208.556 66.2383 196.698C61.9383 188.443 57.9082 180.051 53.7326 171.731C48.3317 160.967 43.2432 149.96 37.3678 139.452C34.5861 134.474 30.3623 129.721 29.1496 124.034C27.9868 118.556 30.7266 113.855 36.0322 112.126C50.0512 107.563 58.6956 126.87 59.4336 137.596C59.4742 138.164 58.5692 138.459 58.3224 137.913L58.3201 137.909Z" fill="black"/>
        <path d="M219.192 214.368C219.25 215.609 218.846 216.787 218.612 218C218.295 219.646 218.124 221.321 217.955 222.99C217.657 225.931 217.526 228.894 216.969 231.803C215.907 237.358 213.946 242.776 211.163 247.703C205.545 257.65 196.279 265.325 185.29 268.57C182.195 269.483 178.968 270.042 175.74 270.193C172.7 270.333 169.432 270.416 166.761 268.787C166.194 268.439 166.18 267.406 166.934 267.259C170.153 266.628 173.453 267.25 176.728 266.974C180.256 266.678 183.729 265.849 187.046 264.608C193.702 262.113 199.529 257.774 204.031 252.292C208.523 246.821 211.715 240.275 213.455 233.428C214.323 230.011 214.789 226.535 215.251 223.045C215.63 220.213 215.998 216.015 218.288 214.019C218.626 213.724 219.167 213.893 219.191 214.374L219.192 214.368Z" fill="black"/>
        <path d="M184.174 266.693C180.685 271.473 176.494 274.476 171.022 276.641C165.939 278.654 160.498 280.106 155.095 280.969C150.437 281.71 145.878 281.677 141.378 280.163C136.872 278.648 132.723 276.25 128.838 273.544C124.697 270.661 121.064 267.186 117.414 263.716C112.244 258.808 107.181 253.789 102.149 248.736C98.2085 244.777 93.7144 240.932 90.8466 236.082C90.43 235.373 91.3577 234.641 91.9653 235.184C100.28 242.688 107.978 250.889 116.151 258.564C119.817 262.009 123.459 265.576 127.421 268.689C133.282 273.294 141.659 278.069 149.458 278.016C155.102 277.978 160.897 276.374 166.271 274.768C172.227 272.985 178.851 270.3 183.46 266.015C183.933 265.572 184.541 266.191 184.174 266.693Z" fill="black"/>
        <path d="M69.7116 186.53C66.7843 186.281 63.7954 185.522 60.9431 184.829C60.4591 184.712 60.6442 183.993 61.1281 184.085C63.9869 184.61 67.0144 185.137 69.7583 186.099C69.9722 186.174 69.9765 186.555 69.7079 186.533L69.7116 186.53Z" fill="black"/>
        <path d="M67.1239 177.286C65.2822 177.245 63.4644 177.058 61.6353 176.878C60.0395 176.72 58.2482 176.772 56.7382 176.231C56.5123 176.153 56.5502 175.859 56.7849 175.825C58.5347 175.594 60.524 176.092 62.2721 176.29C63.9114 176.478 65.5372 176.668 67.1572 176.985C67.3305 177.018 67.2971 177.294 67.1201 177.288L67.1239 177.286Z" fill="black"/>
        <path d="M64.8931 167.168C64.0732 167.171 63.26 167.135 62.4438 167.085C61.7873 167.046 61.0582 167.081 60.4577 166.779C60.3331 166.716 60.3681 166.537 60.4903 166.494C61.1846 166.265 61.9935 166.447 62.7085 166.507C63.4572 166.572 64.1955 166.653 64.9405 166.771C65.1671 166.809 65.1166 167.166 64.8968 167.165L64.8931 167.168Z" fill="black"/>
        <path d="M58.0074 166.829C56.8492 166.796 55.6984 166.733 54.5438 166.673C53.6571 166.624 52.4384 166.822 51.6666 166.337C51.5014 166.232 51.4958 166.011 51.66 165.902C52.4656 165.366 53.7922 165.619 54.7195 165.684C55.8756 165.764 56.9583 165.96 58.0757 166.272C58.3766 166.357 58.3435 166.836 58.0112 166.827L58.0074 166.829Z" fill="black"/>
        <path d="M62.94 158.673C60.2216 158.762 57.4946 158.514 54.7804 158.407C52.3318 158.308 49.7957 158.421 47.3693 158.054C47.0871 158.009 47.1759 157.613 47.4211 157.588C50.092 157.318 52.9047 157.632 55.5859 157.744C58.0525 157.847 60.5437 157.889 62.9852 158.247C63.2313 158.283 63.1748 158.664 62.934 158.671L62.94 158.673Z" fill="black"/>
        <path d="M63.7648 137.25C62.577 137.016 61.3832 136.831 60.1754 136.741C59.2954 136.678 58.2582 136.838 57.4482 136.442C57.3341 136.388 57.3143 136.186 57.4395 136.131C58.2972 135.758 59.3402 136.023 60.2436 136.133C61.468 136.284 62.6798 136.499 63.8826 136.776C64.1865 136.848 64.0672 137.303 63.7663 137.244L63.7648 137.25Z" fill="black"/>
        <path d="M64.0365 129.899C62.6081 129.825 61.1873 129.746 59.7618 129.634C58.6328 129.548 57.3831 129.6 56.327 129.143C56.1544 129.069 56.202 128.8 56.3692 128.756C57.5218 128.465 58.8154 128.748 59.9828 128.847C61.334 128.963 62.6777 129.109 64.0236 129.259C64.4175 129.303 64.4499 129.916 64.032 129.892L64.0365 129.899Z" fill="black"/>
        <path d="M64.6233 120.296C63.9505 120.348 63.2747 120.388 62.6033 120.358C62.0361 120.332 61.361 120.355 60.8692 120.038C60.6545 119.902 60.6803 119.58 60.9292 119.502C61.4886 119.329 62.1257 119.496 62.6989 119.55C63.3373 119.61 63.9781 119.673 64.618 119.702C65.0021 119.721 65.0096 120.267 64.6233 120.296Z" fill="black"/>
        <path d="M58.3509 120.012C57.4575 120.004 56.5641 120.021 55.6669 120.015C54.964 120.009 54.1105 120.16 53.4799 119.799C53.3568 119.73 53.3461 119.543 53.472 119.472C54.1376 119.077 55.0582 119.258 55.8047 119.293C56.6711 119.334 57.5407 119.438 58.4042 119.541C58.6796 119.575 58.6202 120.019 58.3494 120.018L58.3509 120.012Z" fill="black"/>
        <path d="M65.1527 115.918C62.8852 116.053 60.6281 116.094 58.3559 116.093C56.3703 116.094 54.2897 116.284 52.3403 115.895C52.0972 115.848 52.0794 115.445 52.3328 115.4C54.291 115.048 56.3609 115.272 58.3474 115.307C60.6226 115.347 62.8836 115.431 65.1515 115.602C65.3548 115.618 65.362 115.91 65.155 115.922L65.1527 115.918Z" fill="black"/>
        <path d="M162.402 212.359C156.524 212.517 149.74 211.806 144.562 208.801C144.367 208.689 144.482 208.38 144.708 208.433C147.541 209.102 150.267 210.136 153.108 210.785C156.157 211.482 159.287 211.941 162.401 212.196C162.504 212.205 162.508 212.356 162.402 212.359Z" fill="black"/>
        <path d="M226.25 146.177C228.582 144.937 232.931 144.969 233.976 147.944C234.09 148.269 233.711 148.487 233.444 148.367C232.374 147.877 231.443 147.187 230.286 146.893C229.128 146.599 227.835 146.698 226.684 147.177C226.112 147.414 225.71 146.467 226.253 146.181L226.25 146.177Z" fill="black"/>
        <path d="M233.055 151.664C232.039 152.52 230.607 153.449 229.213 153.22C228.846 153.161 228.763 152.582 229.091 152.415C229.61 152.149 230.182 152.04 230.728 151.844C231.352 151.616 231.925 151.313 232.468 150.934C232.898 150.64 233.459 151.318 233.055 151.664Z" fill="black"/>
        <path d="M150.071 101.579C151.21 102.65 151.215 105.424 149.484 105.94C149.271 106.002 149.009 105.787 149.091 105.559C149.297 104.985 149.633 104.457 149.723 103.851C149.819 103.206 149.626 102.587 149.38 102C149.211 101.602 149.797 101.32 150.073 101.583L150.071 101.579Z" fill="black"/>
        <path d="M145.835 104.773C144.635 104.229 143.562 102.531 144.287 101.242C144.579 100.725 145.429 100.908 145.422 101.524C145.42 102.021 145.296 102.468 145.421 102.965C145.546 103.461 145.853 103.869 146.271 104.173C146.632 104.441 146.193 104.935 145.835 104.773Z" fill="black"/>
        <path d="M101.541 124.439C103.636 124.628 105.823 125.497 106.96 127.36C107.206 127.768 106.677 128.137 106.334 127.864C104.829 126.661 103.388 125.599 101.453 125.217C101.019 125.131 101.093 124.397 101.541 124.439Z" fill="black"/>
    </g>
    <defs>
        <clipPath id="clip0_4158_25351">
            <rect width="172.744" height="250.689" fill="white" transform="matrix(-0.856779 0.515684 0.515684 0.856779 148.003 0)"/>
        </clipPath>
    </defs>
</svg>
