<svg viewBox="0 0 261 293" fill="none" xmlns="http://www.w3.org/2000/svg">
    <g clip-path="url(#clip0_4155_22951)">
        <path d="M141.616 269.201C140.742 269.132 125.371 267.133 125.371 267.133C125.371 267.133 112.19 254.272 95.6114 230.292C79.0328 206.312 63.7121 171.305 65.8805 146.241C68.0489 121.177 76.0564 60.125 76.0564 60.125L93.6999 51.251C93.6999 51.251 125.719 37.8014 153.277 35.6263L170.826 37.7739C170.826 37.7739 208.759 48.4756 239.684 79.4651C239.684 79.4651 232.048 153.382 228.239 169.367C224.431 185.352 217.304 201.559 197.458 223.65C177.612 245.74 155.115 260.271 155.115 260.271L141.621 269.199L141.616 269.201Z" fill="#9BE887" stroke="black" stroke-width="0.25"/>
        <path d="M76.5904 93.7154C80.4808 91.4776 84.4744 89.4918 88.4757 87.4571L88.7173 88.8045C85.7022 88.1865 82.7055 87.4987 79.7111 86.7812C77.1445 86.1661 74.7453 85.4834 72.5721 83.9471C72.1333 83.6359 72.2552 82.8387 72.6967 82.5997C74.7451 81.4902 76.7935 80.3806 78.842 79.2711C79.8662 78.7163 80.8904 78.1616 81.9146 77.6068C82.3508 77.3695 84.8992 76.3337 84.9804 75.9301C85.188 74.8993 81.2374 74.7585 80.4418 74.4037C79.0457 73.7774 78.8022 73.0468 78.3942 71.697C78.3523 71.565 78.4265 71.4048 78.5654 71.3665C80.3827 70.8564 82.2016 70.3516 84.0172 69.8362C85.7202 69.3508 87.8895 69.0893 89.4622 68.2848C90.0149 68.3505 90.3 68.1409 90.307 67.6591C90.6278 67.0399 90.3077 66.8829 89.3396 67.1932C88.5271 67.1605 87.7286 67.1263 86.9237 67.0534C85.1845 66.8935 83.4399 66.7441 81.7009 66.5667C80.3188 66.4242 76.1208 66.6671 76.0511 64.4601C75.9809 62.2882 79.9006 61.654 81.4008 61.6282C82.2104 61.6153 82.5434 62.9395 81.6668 63.0986C81.0766 63.2076 78.0106 64.1693 78.2416 64.3111C79.0474 64.808 81.4951 64.6819 82.4531 64.8253C85.0318 65.2127 88.3696 65.208 90.7591 66.3182C91.6241 66.7178 92.2932 67.5807 91.4455 68.4079C90.6956 69.14 89.2055 69.1975 88.2524 69.4362C86.6645 69.8356 85.0767 70.2351 83.4905 70.6399C82.7589 70.8257 82.0256 71.0149 81.2957 71.2059C80.7347 71.3521 79.4397 71.365 79.5288 71.9936C79.6721 72.9856 82.0608 73.1864 82.8491 73.3168C84.1426 73.5281 86.9058 73.8744 87.1542 75.6004C87.2401 76.2009 86.95 76.5138 86.4964 76.87C85.3496 77.7805 83.6989 78.4034 82.4183 79.1209C79.4827 80.7591 76.5454 82.4009 73.6098 84.0391L73.5452 82.5628C75.8508 84.1501 78.5072 84.7366 81.1891 85.3761C83.8711 86.0156 86.4234 86.6497 89.0273 87.3546C89.5771 87.5027 89.8987 88.4062 89.2689 88.702C85.1586 90.6406 81.0934 92.6113 76.8863 94.3364C76.5215 94.4871 76.253 93.9068 76.594 93.7084L76.5904 93.7154Z" fill="black" stroke="black" stroke-width="0.25"/>
        <path d="M136.143 264.573C132.599 264.789 129.08 264.616 125.531 264.723C124.747 264.745 124.228 263.549 125.035 263.159C125.642 262.865 131.321 260.486 131.203 259.966L131.879 260.577C127.21 260.152 122.546 259.73 117.877 259.305C117.168 259.243 116.806 258.128 117.358 257.668C120.076 255.401 123.032 253.588 126.31 252.251L125.909 254.047C122.779 251.564 118.142 254.196 114.564 252.775C114.018 252.558 113.962 251.611 114.502 251.353C117.139 250.103 119.704 248.678 122.295 247.329L122.532 248.652C120.89 248.296 119.167 248.157 117.489 248.117C116.984 248.103 116.754 247.304 117.318 247.186C119.227 246.79 120.916 246.849 122.833 247.237C123.423 247.358 123.638 248.255 123.07 248.56C120.504 249.944 117.888 251.263 115.379 252.743L115.111 251.249C119.293 251.889 123.65 249.602 127.356 252.489C128.035 253.017 127.632 254.017 126.955 254.284C123.91 255.486 121.145 257.111 118.61 259.177L118.289 257.379C122.944 257.854 127.601 258.334 132.256 258.809C132.545 258.839 132.872 259.137 132.933 259.42C133.156 260.444 132.765 261.173 131.897 261.76C130.133 262.95 127.869 263.692 125.944 264.597L125.448 263.034C129.137 262.973 132.629 263.097 136.181 264.143C136.415 264.211 136.408 264.565 136.145 264.579L136.143 264.573Z" fill="black" stroke="black" stroke-width="0.25"/>
        <path d="M85.0942 178.129C80.0231 179.265 74.9136 179.3 69.7668 178.641C68.8697 178.525 68.8083 177.315 69.4473 176.865C71.2899 175.574 73.1291 174.272 74.9682 172.971C75.9365 172.285 80.7252 169.719 80.2158 168.352L81.2775 169.087C77.7238 169.483 73.3784 169.746 70.2745 167.631C70.0403 167.47 70.0181 167.189 70.2485 167.008C71.588 165.973 72.7169 165.327 74.3822 164.906C76.2444 164.436 78.3397 164.326 80.049 163.403C80.441 163.191 80.9094 163.028 81.0336 162.558C81.2135 161.871 80.102 161.674 79.507 161.503C78.5544 161.23 77.5637 161.158 76.5882 161.014C74.7471 160.744 73.0668 160.266 71.7712 158.867C71.5866 158.67 71.6486 158.38 71.9041 158.278C74.91 157.109 78.0616 153.862 79.8577 151.179L80.2431 152.393C79.6651 152.138 79.1057 152.051 78.492 151.958C78.0585 151.892 77.8692 151.287 78.182 150.981C79.1701 150.019 80.1999 150.169 81.2699 150.931C81.6601 151.208 81.6239 151.891 81.3181 152.2C80.0485 153.493 78.7421 154.779 77.3104 155.891C75.7316 157.115 73.8661 157.812 72.1982 158.903L72.25 158.352C74.4813 159.98 77.5006 159.585 80.0229 160.482C80.9398 160.807 82.5879 161.449 82.2911 162.711C81.9475 164.184 78.9332 164.356 77.8155 164.589C75.5151 165.069 72.1522 165.242 70.7674 167.471L70.4298 166.948C73.9486 166.415 77.6216 167.219 81.1767 166.966C81.6485 166.932 82.0958 167.261 82.2383 167.701C82.9918 170.002 80.7433 171.378 79.1186 172.504C76.2409 174.499 73.3598 176.492 70.4924 178.501L70.1729 176.725C75.0679 177.351 80.0065 177.381 84.9339 177.221C85.437 177.203 85.62 178 85.0962 178.117L85.0942 178.129Z" fill="black" stroke="black" stroke-width="0.25"/>
        <path d="M233.942 137.398C233.588 147.659 232.822 157.679 230.663 167.755C228.758 176.634 225.641 185.172 221.541 193.28C211.427 213.287 196.185 229.922 179.177 244.297C174.548 248.208 169.822 251.981 164.983 255.624C159.901 259.446 154.845 263.551 149.317 266.692C148.512 267.149 147.512 266.097 148.236 265.391C152.087 261.619 156.509 258.448 160.724 255.081C165.041 251.63 169.34 248.144 173.58 244.6C181.967 237.593 190.126 230.224 197.446 222.09C210.767 207.297 222.228 189.298 226.977 169.786C228.162 164.919 229.05 159.978 229.908 155.044C230.943 149.103 232.361 143.259 233.592 137.367C233.629 137.175 233.953 137.188 233.947 137.396L233.942 137.398Z" fill="black" stroke="black" stroke-width="0.25"/>
        <path d="M239.966 84.3542C240.33 86.2903 240.75 88.0521 240.614 90.0511C240.489 91.9364 240.253 93.8131 240.056 95.6922C239.629 99.7862 239.235 103.884 238.784 107.974C238.37 111.727 237.992 115.489 237.533 119.235C237.32 120.974 237.092 122.7 236.791 124.423C236.489 126.147 236.437 128.145 235.478 129.563C235.062 130.177 234.193 130.159 233.906 129.428C233.317 127.918 233.658 126.092 233.736 124.504C233.819 122.835 233.938 121.185 234.098 119.521C234.476 115.666 234.919 111.814 235.35 107.96C235.78 104.106 236.287 100.071 236.789 96.1307C237.044 94.1491 237.251 92.1563 237.558 90.1842C237.898 88.0304 238.736 86.2675 239.633 84.3232C239.693 84.1908 239.933 84.196 239.962 84.3524L239.966 84.3542Z" fill="black"/>
        <path d="M161.562 256.335C160.281 257.887 158.603 258.99 157.026 260.229C155.843 261.156 154.616 262.051 153.543 263.101C152.722 263.902 152.05 264.781 151.146 265.513C149.471 266.864 147.742 268.201 145.964 269.411C144.467 270.427 142.099 271.794 140.474 270.401C140.098 270.078 140.11 269.307 140.597 269.074C141.553 268.617 142.586 268.684 143.551 268.218C144.516 267.752 145.295 267.141 146.122 266.55C147.776 265.368 149.381 263.862 151.194 262.934C154.811 261.089 157.778 257.763 161.552 256.312C161.567 256.307 161.576 256.325 161.565 256.337L161.562 256.335Z" fill="black" stroke="black" stroke-width="0.25"/>
        <path d="M235.27 120.878C235.743 116.38 235.789 111.864 236.292 107.377C236.813 102.727 237.228 98.1106 237.534 93.4419C237.665 91.4182 237.854 89.3937 238.123 87.3843C238.392 85.3749 239.499 81.96 238.614 80.1425C237.816 78.5068 235.411 77.3001 234.005 76.2321C232.289 74.9284 230.572 73.6281 228.854 72.3279C217.984 64.1101 206.853 56.1059 194.685 49.9073C186.989 45.9859 178.955 42.7675 170.816 39.8876C169.035 39.2558 169.638 36.3383 171.433 36.9773C185.624 42.0046 199.3 48.1197 211.783 56.6042C218.035 60.8536 224.025 65.4531 230.035 70.032C231.734 71.3267 233.43 72.6248 235.127 73.923C236.735 75.1533 238.6 76.2875 239.984 77.7722C241.105 78.971 241.432 80.3669 241.323 81.9739C241.163 84.3353 240.839 86.7224 240.532 89.0694C239.838 94.4019 238.664 99.6486 237.944 104.981C237.222 110.316 236.058 115.551 235.296 120.879C235.294 120.9 235.265 120.889 235.268 120.873L235.27 120.878Z" fill="black" stroke="black" stroke-width="0.25"/>
        <path d="M120.468 244.486C121.369 244.952 122.137 245.24 122.979 245.888C124.092 246.747 124.94 247.919 125.843 248.996C127.882 251.42 129.966 253.81 131.998 256.24C133.943 258.567 135.921 260.871 137.825 263.234C138.74 264.37 139.623 265.52 140.435 266.736C141.06 267.668 141.914 268.565 141.892 269.741C141.882 270.296 141.429 270.727 140.863 270.619C139.759 270.409 139.12 269.531 138.356 268.773C137.321 267.756 136.354 266.695 135.406 265.595C133.333 263.192 131.32 260.733 129.293 258.293C127.266 255.853 125.479 253.59 123.602 251.21C122.724 250.102 121.696 248.996 121.073 247.72C120.571 246.688 120.456 245.768 120.218 244.696C120.183 244.55 120.324 244.406 120.47 244.482L120.468 244.486Z" fill="black"/>
        <path d="M91.8269 66.2754C91.5269 73.0958 91.3078 79.8965 90.5123 86.694C89.7789 92.9546 88.9213 99.1994 88.1038 105.452C86.7077 116.108 85.371 126.777 84.4209 137.483C83.7404 145.174 83.2208 153.006 83.9575 160.712C85.098 172.603 88.2795 184.268 92.6642 195.355C95.1827 201.726 98.1895 207.894 101.477 213.904C105.195 220.693 109.712 227.004 113.407 233.786C113.842 234.581 112.792 235.629 112.106 234.868C107.486 229.751 103.749 223.765 100.162 217.891C96.9986 212.713 94.1904 207.353 91.7018 201.819C86.6769 190.656 83.1085 178.853 81.272 166.747C78.4643 148.247 81.7128 129.197 84.1785 110.839C85.1269 103.764 86.0527 96.6806 87.0956 89.6185C88.2605 81.7504 89.891 74.0308 91.4716 66.2545C91.5094 66.0623 91.8333 66.0757 91.8268 66.2841L91.8269 66.2754Z" fill="black" stroke="black" stroke-width="0.25"/>
        <path d="M126.735 252.75C129.79 254.797 131.471 258.416 134.345 260.695C135.937 261.957 137.118 263.645 138.37 265.239C139.124 266.203 139.844 267.255 140.827 268.007C141.607 268.605 142.553 268.796 143.346 269.378C143.906 269.788 143.544 270.58 143.031 270.795C141.302 271.518 139.513 270.04 138.381 268.818C136.758 267.064 135.203 264.965 133.888 262.973C133.272 262.041 132.888 260.995 132.235 260.083C131.519 259.081 130.697 258.139 129.922 257.182C128.767 255.758 127.484 254.445 126.715 252.771C126.712 252.76 126.728 252.747 126.736 252.756L126.735 252.75Z" fill="black" stroke="black" stroke-width="0.25"/>
        <path d="M114.047 52.0504C118.213 50.0566 122.24 47.8102 126.472 45.9435C130.464 44.182 134.924 43.1176 139.132 41.9707C149.038 39.2673 159.103 37.7313 169.315 36.7301C171.226 36.542 171.368 39.5193 169.465 39.7022C159.468 40.6644 149.391 42.018 139.642 44.4854C135.438 45.55 131.401 47.2092 127.213 48.2776C122.814 49.4007 118.354 50.5843 114.059 52.0786C114.043 52.0836 114.033 52.0607 114.047 52.0504Z" fill="black" stroke="black" stroke-width="0.25"/>
        <path d="M86.0798 108.524C86.19 106.6 86.0003 104.692 86.1453 102.778C86.3269 100.392 86.2528 98.0062 86.4535 95.6349C86.836 91.1075 87.7162 86.5732 88.2388 82.0478C88.7615 77.5224 89.2942 73.1478 89.8561 68.7C90.1189 66.6345 90.1277 64.3269 90.7836 62.3459C91.4394 60.3648 92.9375 59.5084 94.685 58.7328C96.4325 57.9571 97.3201 60.7996 95.5849 61.5684C94.2677 62.1523 93.6984 62.7486 93.3933 64.2231C93.2049 65.1403 93.154 66.1155 93.0389 67.0443C92.8091 68.8843 92.5705 70.7242 92.3285 72.5623C91.7873 76.6721 91.1203 80.7609 90.5022 84.8575C89.8841 88.954 89.7571 93.1416 88.7752 97.0717C88.2714 99.083 87.8127 100.999 87.4519 103.049C87.1238 104.9 86.4623 106.67 86.1149 108.524C86.1111 108.54 86.0849 108.54 86.0851 108.522L86.0798 108.524Z" fill="black" stroke="black" stroke-width="0.25"/>
        <path d="M76.0075 64.3408C75.5433 72.3381 75.1703 80.3298 74.209 88.2989C73.3256 95.5981 72.332 102.889 71.3945 110.182C69.8963 121.835 68.4468 133.523 67.9425 145.267C66.8259 171.264 76.0506 196.367 89.5529 218.255C94.2729 225.902 99.4844 233.24 104.825 240.464C110.161 247.68 116.06 254.544 121.008 262.023C121.536 262.818 120.394 263.805 119.706 263.105C114.098 257.411 109.157 250.999 104.198 244.732C99.239 238.465 94.2947 231.795 89.799 224.992C81.5674 212.524 74.6923 199.184 70.1573 184.921C66.5289 173.506 64.2263 161.525 64.4103 149.513C64.5815 138.266 66.0418 127.052 67.4695 115.91C68.5 107.884 69.5533 99.8562 70.7359 91.8516C72.1029 82.6057 73.9289 73.4872 75.6592 64.3148C75.6936 64.1208 76.0245 64.1378 76.0145 64.3444L76.0075 64.3408Z" fill="black" stroke="black" stroke-width="0.25"/>
        <path d="M110.304 250.044C113.6 252.36 115.647 256.302 118.714 258.924C120.142 260.144 121.263 261.881 122.468 263.309C123.142 264.103 123.801 264.935 124.572 265.634C125.466 266.446 126.576 266.739 127.523 267.441C128.078 267.852 127.725 268.644 127.208 268.858C125.068 269.743 123.014 267.382 121.775 265.924C120.537 264.466 119.233 262.886 118.049 261.306C116.603 259.379 115.541 257.231 114.041 255.307C112.72 253.607 111.214 252.002 110.28 250.057C110.275 250.042 110.289 250.031 110.303 250.038L110.304 250.044Z" fill="black"/>
        <path d="M70.5199 103.881C71.0333 99.1438 71.1337 94.3775 71.7293 89.6517C72.3565 84.6862 72.7922 79.7495 73.253 74.7729C73.4606 72.5331 73.7398 70.3083 74.0593 68.0824C74.3788 65.8564 74.4712 63.3363 75.0155 61.0768C75.9679 57.1183 81.1872 56.0367 84.4437 54.6221C98.1854 48.655 111.865 42.5101 126.496 39.0421C135.372 36.9389 144.421 35.6792 153.49 34.7966C155.4 34.6085 155.543 37.5857 153.639 37.7687C139.009 39.1848 124.806 41.9125 110.912 46.7507C103.962 49.1724 97.1458 51.9728 90.3696 54.8332C88.5451 55.6043 86.7309 56.3896 84.9115 57.1677C84.0036 57.5577 83.0956 57.9477 82.1929 58.336C81.0699 58.8175 79.4765 59.2362 78.5174 60.0144C76.8278 61.3937 77.0246 64.624 76.7902 66.6602C76.5359 68.8626 76.3009 71.0617 75.9277 73.2466C75.0392 78.4781 73.9659 83.6404 73.1787 88.898C72.3914 94.1555 71.2234 98.8451 70.5409 103.883C70.5388 103.904 70.5092 103.893 70.5129 103.878L70.5199 103.881Z" fill="black" stroke="black" stroke-width="0.25"/>
        <path d="M164.511 235.896C162.974 238.308 160.267 240.068 158.063 241.852C155.507 243.925 152.926 246.48 149.978 247.97C149.696 248.115 149.403 247.796 149.617 247.536C151.598 245.143 154.463 243.3 156.867 241.36C159.27 239.42 161.615 236.964 164.438 235.814C164.484 235.794 164.536 235.856 164.509 235.9L164.511 235.896Z" fill="black"/>
        <path d="M224.11 93.0219C222.518 111.338 220.723 129.685 218.214 147.905C217.339 154.269 216.358 160.64 214.844 166.884C213.057 174.24 210.129 181.296 206.634 188.001C201.442 197.952 194.776 207.652 186.722 215.507C186.46 215.764 186.07 215.403 186.305 215.119C192.906 207.164 199.206 199.168 204.219 190.081C208.1 183.051 211.438 175.594 213.439 167.798C216.956 154.097 218.204 139.75 219.787 125.728C221.022 114.785 222.277 103.875 223.995 92.9975C224.008 92.9206 224.118 92.9467 224.11 93.0219Z" fill="black" stroke="black" stroke-width="0.25"/>
        <path d="M157.202 242.125C154.905 244.394 152.097 246.399 149.549 248.379C147.946 249.626 145.701 251.966 143.452 251.282C143.156 251.191 143.166 250.754 143.497 250.728C146.314 250.51 148.15 248.373 150.386 246.875C152.663 245.35 154.817 243.475 157.195 242.112C157.197 242.109 157.205 242.118 157.202 242.116L157.202 242.125Z" fill="black" stroke="black" stroke-width="0.25"/>
        <path d="M220.213 124.011C221.071 116.523 221.872 109.017 222.621 101.516C222.8 99.7071 223.005 97.8982 223.237 96.0951C223.47 94.2919 224.027 92.2726 223.92 90.4611C223.792 88.3654 221.956 87.3035 220.475 86.117C218.994 84.9306 217.64 83.8493 216.223 82.7181C207.327 75.6203 198.294 68.6151 188.217 63.2525C181.965 59.9248 175.416 57.2113 168.776 54.7681C168.18 54.5476 168.639 53.6693 169.232 53.8881C180.729 58.1198 191.66 63.351 201.676 70.4508C206.868 74.1296 211.834 78.1187 216.801 82.0956C218.216 83.2303 219.631 84.365 221.046 85.4997C222.165 86.3971 223.699 87.2847 224.372 88.6085C224.771 89.3887 224.771 90.2227 224.703 91.0785C224.544 93.0703 224.235 95.0633 223.993 97.0468C222.883 106.051 221.419 115.017 220.225 124.013C220.222 124.02 220.215 124.017 220.218 124.01L220.213 124.011Z" fill="black" stroke="black" stroke-width="0.25"/>
        <path d="M100.59 111.471C99.5979 121.228 98.4319 130.989 97.6372 140.765C97.0221 148.296 96.832 155.756 97.8379 163.257C100.475 182.895 108.573 200.95 119.252 217.474C125.671 227.41 133.071 236.614 139.806 246.316C139.984 246.576 139.581 246.927 139.371 246.677C132.546 238.579 126.208 229.925 120.303 221.134C114.397 212.342 109.47 203.886 105.447 194.534C101.688 185.791 98.8957 176.636 97.2967 167.248C95.9786 159.523 95.8102 151.895 96.3399 144.095C97.0818 133.126 98.6856 122.282 100.477 111.443C100.49 111.366 100.6 111.392 100.592 111.467L100.59 111.471Z" fill="black" stroke="black" stroke-width="0.25"/>
        <path d="M104.913 78.4263C105.061 82.9595 104.295 87.4692 103.71 91.9622C103.432 94.0906 103.158 96.2208 102.863 98.349C102.567 100.477 102.432 102.595 101.734 104.529C101.632 104.811 101.217 104.667 101.198 104.414C101.048 102.584 101.433 100.631 101.661 98.8119C101.946 96.5679 102.25 94.3295 102.547 92.0874C103.149 87.5106 103.537 82.8623 104.797 78.4194C104.816 78.3583 104.914 78.3562 104.916 78.4281L104.913 78.4263Z" fill="black" stroke="black" stroke-width="0.25"/>
        <path d="M133.769 239.249C135.669 241.067 137.146 243.324 138.941 245.242C140.825 247.259 142.208 250.014 144.963 250.904C145.246 250.997 145.262 251.451 144.918 251.459C142.6 251.497 141.15 249.016 139.87 247.409C138.849 246.125 137.97 244.757 136.96 243.461C135.882 242.077 134.676 240.751 133.762 239.254C133.759 239.252 133.768 239.244 133.766 239.247L133.769 239.249Z" fill="black"/>
        <path d="M105.027 76.9614C105.429 73.631 107.838 72.9069 110.641 71.5927C113.444 70.2784 116.217 68.8253 119.041 67.5132C124.106 65.1643 129.279 62.9782 134.508 61.0277C145.188 57.044 156.273 54.9024 167.581 53.6663C168.216 53.5983 168.263 54.589 167.631 54.6588C156.915 55.8262 146.346 57.807 136.151 61.3719C131.485 63.0046 126.904 64.9066 122.394 66.934C119.721 68.1344 117.017 69.2486 114.334 70.4173C112.955 71.0178 111.597 71.6642 110.226 72.2736C107.731 73.3855 105.519 73.8058 105.034 76.965C105.03 76.972 105.023 76.9684 105.027 76.9614Z" fill="black" stroke="black" stroke-width="0.25"/>
        <path d="M162.169 108.911C161.98 113.574 161.336 118.257 160.681 122.877C160.026 127.497 159.538 132.279 158.995 136.979C157.868 146.751 156.973 156.55 155.796 166.314C153.541 185.04 150.906 203.699 148.411 222.394C147.134 231.96 146.099 241.629 144.456 251.143C144.404 251.447 143.966 251.339 143.998 251.047C144.859 242.531 146.247 234.029 147.375 225.541C148.572 216.556 149.722 207.568 150.731 198.56C152.876 179.392 155.874 160.323 158.085 141.163C158.713 135.734 159.386 130.307 159.894 124.865C160.389 119.532 160.67 114.153 161.57 108.865C161.628 108.533 162.184 108.566 162.169 108.911Z" fill="black" stroke="black" stroke-width="0.25"/>
        <path d="M167.919 54.0712C168.297 55.2909 167.54 56.7869 167.344 57.9826C166.944 60.4492 166.869 62.9345 166.518 65.4088C166.167 67.8831 165.544 70.371 165.163 72.8782C164.913 74.5182 164.89 76.4873 164.382 78.064C164.301 78.3134 163.949 78.3031 163.92 78.0276C163.76 76.564 164.264 74.791 164.474 73.3379C164.846 70.7728 165.006 68.2081 165.426 65.6507C165.847 63.0933 166.489 60.8667 166.839 58.4362C167.032 57.0933 166.714 55.2647 167.362 54.0212C167.483 53.7881 167.844 53.8161 167.921 54.0677L167.919 54.0712Z" fill="black" stroke="black" stroke-width="0.25"/>
        <path d="M142.886 270.463C141.479 271.084 139.822 270.689 138.324 270.575C136.612 270.447 134.903 270.254 133.196 270.076C130.285 269.767 127.322 270.002 124.864 268.164C124.552 267.931 124.497 267.4 124.673 267.076C124.711 267.003 124.764 266.943 124.813 266.875C124.984 266.646 125.396 266.515 125.668 266.603C128.519 267.529 131.383 267.87 134.355 268.196C135.978 268.376 137.594 268.56 139.213 268.79C140.565 268.983 141.899 269.012 143.021 269.827C143.271 270.01 143.105 270.356 142.881 270.456L142.886 270.463Z" fill="black"/>
        <path d="M171.014 38.595C168.173 39.3427 164.526 38.4809 161.625 38.1694C159.047 37.8924 155.608 38.1181 153.352 36.6981C153.023 36.4918 153.014 35.9625 153.424 35.8353C155.952 35.062 159.021 35.9068 161.591 36.1662C164.545 36.4609 168.394 36.3023 171.101 37.5326C171.55 37.7388 171.487 38.4738 171.009 38.5966L171.014 38.595Z" fill="black"/>
        <path d="M163.598 37.2324C162.909 37.2506 162.28 37.613 161.6 37.6576C160.919 37.7021 160.224 37.5187 159.563 37.4934C158.065 37.4369 156.636 37.7686 155.145 37.8033C152.244 37.8756 149.434 37.0327 146.55 37.0965C146.489 37.0956 146.469 37.006 146.531 36.9893C149.536 36.2212 152.165 34.9623 155.354 35.1675C156.841 35.2624 158.218 35.7552 159.687 35.9253C160.336 36.0012 161.103 35.9929 161.719 36.2015C162.399 36.4302 162.924 36.9669 163.6 37.2027C163.614 37.2099 163.617 37.2292 163.6 37.229L163.598 37.2324Z" fill="black" stroke="black" stroke-width="0.25"/>
        <path d="M171.07 38.8365C168.781 38.5373 166.414 38.5244 164.109 38.5439C162.553 38.5583 160.418 38.8904 159.163 37.8386C158.948 37.6568 158.963 37.2277 159.233 37.0984C160.82 36.3187 163.246 36.8476 165.012 36.7924C167.223 36.7242 169.273 36.5994 171.468 36.9778C172.688 37.1863 172.271 38.9956 171.073 38.8383L171.07 38.8365Z" fill="black"/>
        <path d="M92.1017 62.4066C90.9754 63.2349 89.4093 62.7324 88.0724 62.7412C86.632 62.7539 85.2658 62.7255 83.8377 62.493C82.5477 62.2835 81.2813 62.02 80.0084 61.7179C78.7355 61.4158 77.1885 61.532 76.311 60.5435C76.0938 60.2986 76.0494 59.8564 76.3919 59.672C77.476 59.0954 78.4751 59.5512 79.6427 59.7415C81.0166 59.9679 82.4104 60.1474 83.7914 60.3599C85.1725 60.5725 86.4446 60.808 87.7574 61.1352C89.1558 61.4847 91.0742 61.2476 92.1156 62.2946C92.1466 62.3283 92.1442 62.3756 92.107 62.4049L92.1017 62.4066Z" fill="black" stroke="black" stroke-width="0.25"/>
        <path d="M106 56.2571C103.259 57.2147 100.298 58.178 97.9425 59.9052C96.8765 60.6854 95.8732 61.4893 94.7658 62.2216C93.7186 62.9144 93.1507 63.2953 92.7435 64.4389C92.4621 65.2373 92.4183 65.4838 91.8018 66.0689C91.4039 66.4452 90.7872 66.3242 90.5916 65.7992C89.4634 62.757 92.7758 59.1652 95.4118 58.2586C98.8154 57.0879 102.302 56.0043 105.928 55.9109C106.133 55.9068 106.183 56.1931 105.99 56.2604L106 56.2571Z" fill="black" stroke="black" stroke-width="0.25"/>
    </g>
    <defs>
        <clipPath id="clip0_4155_22951">
            <rect width="191.067" height="229.28" fill="white" transform="matrix(-0.887898 -0.460041 -0.460041 0.887898 275.758 88.6562)"/>
        </clipPath>
    </defs>
</svg>
