<svg width="574" height="456" viewBox="0 0 574 456" fill="none" xmlns="http://www.w3.org/2000/svg">
    <g clip-path="url(#clip0_1_585)">
        <mask id="mask0_1_585" style="mask-type:luminance" maskUnits="userSpaceOnUse" x="125" y="33" width="324" height="390">
            <path d="M449 33H125V423H449V33Z" fill="white"/>
        </mask>
        <g mask="url(#mask0_1_585)">
            <path d="M283.808 409.431C283.808 409.431 276.264 419.574 260.804 409.058C245.344 398.543 227.859 375.036 228.132 351.013L226.017 255.807C226.017 255.807 226.752 244.19 225.1 235.149L214.424 183.698C214.424 183.698 197.311 153.452 183.322 139.807L181.479 141.099C181.479 141.099 175.353 143.34 171.357 146.63C167.361 149.919 162.706 154.372 154.055 155.299C145.404 156.225 134.546 154.007 136.017 137.042C136.017 137.042 137.488 126.162 148.717 122.659C148.717 122.659 154.055 118.42 176.695 110.306C199.335 102.191 285.65 70.4714 285.65 70.4714L289.881 67.5235C289.881 67.5235 312.522 66.6042 329.635 90.2099C329.635 90.2099 327.61 106.621 334.79 118.245C341.971 129.869 353.382 146.463 353.382 146.463C353.382 146.463 359.637 156.978 360.744 160.662C361.851 164.347 364.611 169.331 364.611 169.331L364.982 172.651C364.982 172.651 364.429 174.68 365.354 176.891C366.279 179.102 364.618 182.24 364.618 182.24C364.618 182.24 358.727 211.749 360.388 248.817C362.041 285.886 377.872 310.046 377.872 310.046L391.126 294.183C391.126 294.183 398.306 285.149 408.982 291.782C419.657 298.415 420.393 319.445 413.584 325.166C413.584 325.166 380.268 342.313 355.611 360.578C330.946 378.835 295.242 403.732 295.242 403.732L285.855 410.001L283.831 409.446L283.808 409.431Z" fill="#77CD77"/>
            <path d="M359.819 52.3891C359.819 52.3891 342.888 57.5554 333.865 78.0234C324.85 98.4913 331.659 116.748 340.492 128.737C349.325 140.726 357.059 151.788 359.629 159.166C362.2 166.543 364.414 170.228 364.414 170.228L365.703 170.6C365.703 170.6 364.05 172.256 364.785 175.394C365.521 178.532 365.892 180.188 365.892 180.188C365.892 180.188 363.496 186.829 364.603 188.303C365.71 189.776 367.545 189.959 367.545 189.959C367.545 189.959 366.074 191.805 366.628 194.388C367.181 196.971 367.363 199.182 369.57 200.102C369.57 200.102 369.016 207.479 375.643 210.244C375.643 210.244 380.799 215.038 386.682 214.856C392.574 214.674 396.987 208.588 396.987 208.588C396.987 208.588 401.217 207.114 401.771 203.422C402.324 199.729 402.324 198.81 402.324 198.81C402.324 198.81 404.902 195.672 404.72 192.907C404.538 190.141 403.985 187.74 403.985 187.74C403.985 187.74 407.852 187.003 405.827 182.027C403.803 177.05 403.803 176.124 404.356 174.65C404.91 173.176 405.092 170.775 403.439 169.483C403.439 169.483 406.57 163.215 407.488 155.101C408.405 146.987 416.139 129.467 422.394 120.243C428.65 111.02 435.648 89.6325 425.526 72.6595C415.404 55.694 391.11 40.7572 359.819 52.3739V52.3891Z" fill="#9BE887"/>
            <path d="M251.599 187.391C251.599 187.391 246.633 213.944 245.253 223.35L237.246 228.471L207.842 244.654L206.735 246.173L205.629 246.31L205.212 247.419C205.212 247.419 207.971 248.248 208.252 248.248C208.532 248.248 210.049 248.111 210.595 249.212C211.141 250.314 211.558 251.841 211.558 251.841C211.558 251.841 220.118 253.779 225.501 256.407C230.885 259.036 250.075 268.305 252.971 293.894C252.971 293.894 259.735 323.768 228.125 351.02C228.125 351.02 203.695 375.644 170.015 368.031C170.015 368.031 135.092 359.735 132.605 323.631C130.118 287.527 156.489 257.653 189.751 251.704C189.751 251.704 189.752 248.658 195.135 247.966L196.515 243.264C196.515 243.264 174.845 234.412 165.731 224.589L161.864 221.405C161.864 221.405 161.038 198.582 165.868 185.301H180.638L244.684 184.747L249.514 185.301L251.584 187.376L251.599 187.391Z" fill="#9BE887"/>
            <path d="M381.42 173.016C386.273 173.958 392.202 172.583 397.032 171.679C400.876 170.957 404.91 170.175 405.623 165.684C405.713 165.122 405.069 164.856 404.728 165.305C403.227 167.28 401.877 168.883 399.398 169.688C397.449 170.327 395.205 170.562 393.195 170.866C389.374 171.451 385.113 171.238 381.428 172.37C381.14 172.462 381.094 172.94 381.428 173.009L381.42 173.016Z" fill="black"/>
            <path d="M429.923 98.4989C428.49 105.2 426.314 112.091 423.084 118.146C420.173 123.594 416.366 128.517 413.424 133.957C408.83 142.451 406.07 153.179 405.766 162.813C405.759 163.086 406.161 163.132 406.229 162.873C409.322 151.963 411.256 141.319 416.897 131.313C419.915 125.957 423.562 120.965 426.049 115.312C428.452 109.85 429.673 104.44 429.954 98.4989C429.954 98.4837 429.931 98.4837 429.931 98.4989H429.923Z" fill="black"/>
            <path d="M352.563 56.3854C370.949 46.6909 392.885 45.4449 410.559 57.4263C418.156 62.5699 424.138 69.6128 427.429 78.2361C431.19 88.0978 429.112 98.704 427.345 108.733C427.285 109.075 427.785 109.363 427.96 108.991C436.611 90.3011 428.445 68.9822 412.492 57.1756C395.212 44.3812 370.009 43.4011 352.472 56.2335C352.381 56.3018 352.457 56.4386 352.563 56.3854Z" fill="black"/>
            <path d="M347.953 59.2041C340.257 63.2081 334.836 72.3708 331.886 80.2343C328.307 89.7693 327.761 100.611 330.483 110.435C333.372 120.859 340.098 129.642 346.436 138.189C349.674 142.557 352.676 147.086 355.209 151.902C357.741 156.719 359.417 161.832 361.638 166.771C363.291 170.441 365.786 173.153 369.88 173.73C375.65 174.551 382.421 173.48 388.168 172.727C389.048 172.613 389.093 171.231 388.168 171.307C385.014 171.565 381.86 171.793 378.713 172.104C375.567 172.416 372.504 173.062 369.531 172.127C363.299 170.152 362.048 162.015 359.675 156.742C354.784 145.87 347.665 136.874 340.666 127.362C332.834 116.726 328.724 103.536 330.703 90.3315C331.606 84.2838 333.721 78.4336 336.822 73.1685C339.923 67.9034 344.169 63.9146 348.013 59.2725C348.051 59.2269 348.006 59.1661 347.953 59.1965V59.2041Z" fill="black"/>
            <path d="M365.612 170.919C364.687 171.276 364.247 171.778 364.019 172.773C363.807 173.715 364.103 174.855 364.27 175.774C364.664 177.955 364.967 179.588 364.482 181.677C363.86 184.337 362.564 190.179 366.612 190.627L365.786 189.799C365.498 192.048 364.929 197.594 366.62 199.539C366.719 199.646 366.901 199.896 366.984 200.018C367.424 200.208 367.879 200.368 368.349 200.497C368.88 201.097 369.061 201.796 368.91 202.594C369.721 206.104 370.866 210.389 375.286 210.472C375.916 210.488 376.219 209.53 375.62 209.242C371.632 207.289 370.525 204.501 370.54 200.124C370.54 199.752 370.29 199.463 369.956 199.349C366.347 198.126 367.052 192.907 367.439 189.799C367.492 189.351 367.014 188.971 366.612 188.971C363.223 188.971 366.347 181.928 366.385 180.743C366.461 178.692 363.132 172.925 365.915 171.641C366.317 171.459 366.029 170.76 365.612 170.919Z" fill="black"/>
            <path d="M402.991 169.719C405.979 170.767 402.817 176.731 403.325 178.828C403.552 179.755 407.184 186.95 403.947 187.011C403.393 187.019 403.029 187.535 403.151 188.059C403.818 191.038 404.872 196.166 401.399 197.716C401.172 197.822 400.975 198.157 401.005 198.407C401.445 202.829 400.77 205.61 396.865 208.003C396.349 208.322 396.509 209.318 397.199 209.234C401.975 208.679 402.264 204.007 402.84 200.246C403.135 198.271 404.728 198.407 405.114 196.25C405.638 193.34 405.387 190.468 404.75 187.611L403.954 188.66C407.465 188.211 406.714 182.809 405.888 180.431C405.243 178.562 404.705 177.18 404.811 175.037C404.864 173.867 405.236 172.621 405.069 171.451C404.879 170.159 404.478 169.309 403.211 168.951C402.718 168.815 402.529 169.544 402.999 169.711L402.991 169.719Z" fill="black"/>
            <path d="M373.315 209.234L373.406 209.796C373.429 209.91 373.543 210.009 373.649 210.039C378.327 211.354 384.241 210.579 389.04 210.336C392.922 210.138 397.563 210.168 400.603 207.41C401.02 207.031 400.489 206.461 400.035 206.674C395.743 208.672 391.626 209.006 386.955 209.204C385.105 209.279 383.255 209.325 381.398 209.355C379.775 209.378 374.869 210.222 373.558 209.097C373.436 208.998 373.285 209.097 373.307 209.242L373.315 209.234Z" fill="black"/>
            <path d="M375.628 210.26C378.911 218.237 393.355 216.786 397.055 209.948C397.388 209.34 396.645 208.862 396.152 209.249C393.021 211.703 390.314 213.671 386.197 213.967C383.96 214.127 381.769 213.876 379.828 212.66C378.365 211.741 377.614 210.601 376.06 209.933C375.863 209.849 375.529 209.994 375.635 210.26H375.628Z" fill="black"/>
            <path d="M369.842 199.745L369.516 199.919C369.425 199.965 369.372 200.071 369.372 200.178V200.55C369.372 200.755 369.547 200.93 369.751 200.93C380.829 200.953 392.21 199.95 403.272 199.182C403.962 199.137 403.977 198.088 403.272 198.096C397.441 198.149 391.588 198.521 385.772 198.878C382.853 199.061 379.949 199.342 377.03 199.555C376.067 199.623 370.692 199.311 370.138 200.048C370.275 199.866 370.017 199.669 369.85 199.76L369.842 199.745Z" fill="black"/>
            <path d="M366.62 190.612C379.062 190.84 391.74 189.146 404.174 188.523C404.925 188.485 404.925 187.3 404.174 187.345C391.747 188.113 378.964 187.854 366.62 189.457C365.907 189.549 365.854 190.597 366.62 190.612Z" fill="black"/>
            <path d="M365.824 181.161C372.39 181.214 379.017 180.553 385.568 180.112C391.679 179.702 397.972 179.52 404.023 178.623C404.546 178.547 404.424 177.674 403.901 177.696C397.57 178.015 391.224 178.965 384.885 179.406C378.547 179.846 372.162 179.808 365.824 180.325C365.301 180.371 365.278 181.153 365.824 181.161Z" fill="black"/>
            <path d="M419.778 83.2809C420.484 89.868 420.537 96.1512 418.74 102.602C417.064 108.604 413.607 113.626 411.438 119.37C411.279 119.803 411.931 120.19 412.219 119.825C416.071 115.062 418.535 108.14 420.044 102.26C421.636 96.0677 422.197 89.321 419.794 83.2809C419.794 83.2733 419.771 83.2733 419.771 83.2809H419.778Z" fill="black"/>
            <path d="M407.859 129.14C406.13 131.852 404.94 134.891 405.228 138.151C405.266 138.561 405.918 138.728 406.002 138.257C406.525 135.218 407.018 132.247 408.36 129.436C408.519 129.102 408.064 128.829 407.859 129.148V129.14Z" fill="black"/>
            <path d="M364.573 57.4339C355.535 61.6809 347.346 67.9641 341.569 76.1847C336.261 83.7216 332.599 94.6773 335.996 103.711C336.178 104.19 337.012 104.174 336.959 103.582C336.041 93.7048 337.383 84.7548 343.1 76.3823C348.559 68.382 356.801 62.9877 364.952 58.0797C365.369 57.8289 365.005 57.2287 364.573 57.4339Z" fill="black"/>
            <path d="M376.34 172.986C375.855 165.844 375.21 158.71 374.756 151.561C374.536 148.111 374.323 144.662 374.035 141.22C373.944 140.126 373.11 136.966 373.611 136.046C374.331 134.717 374.945 134.983 376.446 134.709C376.788 134.648 376.916 134.268 376.863 133.972C376.196 130.166 375.756 126.352 375.241 122.523C374.884 119.863 373.565 116.46 376.393 114.545C377.197 114.006 379.714 113.36 380.692 113.405C383.93 113.557 383.665 121.383 383.824 123.959C384.051 127.742 383.945 131.541 383.642 135.317C383.604 135.75 384.142 136.001 384.483 135.803C388.578 133.425 388.669 140.681 388.684 142.907C388.699 145.3 388.828 147.693 389.055 150.071C389.465 154.417 390.216 158.717 391.224 162.957C391.285 163.2 391.679 163.154 391.664 162.896C391.376 158.847 390.86 154.827 390.489 150.786C390.132 146.972 390.344 143.158 390.071 139.351C389.852 136.335 387.251 132.323 383.922 134.838L384.764 135.324C384.885 127.712 384.226 120.122 382.717 112.661C382.694 112.57 382.58 112.463 382.482 112.479C379.737 112.828 374.763 113.056 374.293 116.429C373.861 119.514 374.081 123.199 374.407 126.283C374.665 128.722 376.863 134.367 373.012 134.094C372.761 134.078 372.511 134.329 372.526 134.58C373.489 147.389 374.581 160.199 375.734 172.993C375.772 173.388 376.378 173.396 376.355 172.993L376.34 172.986Z" fill="black"/>
            <path d="M392.126 169.688C391.982 170.159 392.013 170.714 392.316 171.117C392.369 171.193 392.49 171.124 392.445 171.041C392.202 170.608 392.058 170.197 392.149 169.688C392.149 169.673 392.134 169.666 392.126 169.688Z" fill="black"/>
            <path d="M392.392 171.428C392.498 171.428 392.505 171.254 392.392 171.254C392.278 171.254 392.278 171.428 392.392 171.428Z" fill="black"/>
            <path d="M392.74 171.337C392.854 169.871 393.044 168.389 393.066 166.915C393.066 166.497 392.377 166.376 392.316 166.817C392.104 168.306 392.05 169.833 391.929 171.337C391.891 171.861 392.695 171.854 392.74 171.337Z" fill="black"/>
            <path d="M374.892 134.565C374.505 127.848 371.564 122.219 368.121 116.536C363.989 109.713 359.69 102.981 355.542 96.1664L355.065 97.0022C358.75 97.3441 360.888 100.786 364.535 98.3166C366.544 96.9566 367.363 94.8521 367.022 92.5044L365.9 92.9754C366.65 94.3886 367.613 94.5406 369.092 94.8597C371.002 95.2699 372.451 95.7258 374.217 96.6603C374.907 97.025 375.423 97.4504 376.181 97.6936C377.652 98.1646 379.115 98.0279 380.541 97.4808C381.746 97.0174 384.552 94.1303 385.484 94.4494C386.735 94.8824 386.364 100.824 389.306 98.5673C389.981 98.0506 390.087 96.8274 390.125 96.8198C389.245 97.0706 392.399 97.3289 391.535 97.3213C392.187 97.3289 392.308 97.0478 392.793 96.9414C395.098 96.4476 392.058 93.758 397.434 95.665C398.192 95.9385 398.162 96.5539 399.026 96.7818C400.148 97.0781 401.05 96.5615 401.953 95.9385C402.643 95.4599 403.757 94.0543 404.523 93.9176C403.735 94.0619 402.408 96.1057 401.945 96.6451C400.148 98.7496 398.51 101.021 396.986 103.331C390.671 112.911 386.288 124.429 385.833 135.97C385.81 136.494 386.652 136.624 386.758 136.092C389.791 120.22 395.546 106.089 405.964 93.5909C406.153 93.3629 406.062 92.8691 405.683 92.9147C404.796 93.0286 404.167 93.2642 403.416 93.7428C402.938 94.0543 402.559 94.5026 402.089 94.8217C400.36 95.9917 399.678 95.5054 397.35 95.0344C396.721 94.9052 396.281 94.5633 395.584 94.5937C394.211 94.6621 391.277 98.2938 390.329 95.8701C390.238 95.6346 389.829 95.5586 389.768 95.8701C389.738 97.7391 388.608 97.5948 386.371 95.4523C386.121 94.6849 385.947 93.9024 385.841 93.1046C385.795 92.8463 385.454 92.8007 385.287 92.9603C383.983 94.1683 382.664 95.5282 381.041 96.2956C377.569 97.9215 376.181 96.364 373.451 94.7305C371.632 93.644 367.871 94.1835 366.931 92.36C366.582 91.6839 365.725 92.2005 365.809 92.8311C366.021 94.3962 365.013 96.8198 363.481 97.4808C361.366 98.3849 359.887 97.534 357.991 96.7059C356.945 96.2424 356.195 95.9841 355.027 95.8929C354.61 95.8625 354.337 96.3868 354.549 96.7287C358.416 102.936 362.215 109.181 366.029 115.419C369.842 121.656 373.307 127.575 374.581 134.603C374.612 134.755 374.862 134.724 374.854 134.565H374.892Z" fill="black"/>
            <path d="M390.853 88.9335C388.343 92.9451 386.917 97.686 385.484 102.169C384.051 106.651 382.535 111.894 382.96 116.847C382.982 117.105 383.392 117.204 383.445 116.916C385.174 107.419 387.486 98.1722 391.588 89.3666C391.815 88.8727 391.148 88.4625 390.853 88.9335Z" fill="black"/>
            <path d="M366.476 88.3333C367.211 90.2403 367.947 92.1245 368.91 93.9327C370.191 96.326 372.011 98.4077 373.004 100.953C374.945 105.952 375.302 111.468 376.477 116.657C376.537 116.916 376.954 116.862 376.939 116.596C376.674 111.438 375.483 105.603 373.565 100.801C372.83 98.9472 371.632 97.4352 370.555 95.779C369.016 93.4085 367.826 90.8253 366.59 88.2801C366.559 88.2194 366.446 88.2649 366.476 88.3333Z" fill="black"/>
            <path d="M379.548 172.5C379.313 168.382 379.138 164.256 379.062 160.131C379.017 157.593 379.138 155.093 379.555 152.579C379.684 151.811 380.268 146.326 381.003 145.961C382.618 145.148 385.211 155.488 385.56 157.054C386.652 161.962 387.168 167.143 387.001 172.165C387.001 172.287 387.183 172.287 387.19 172.165C387.729 166.042 387.259 160.237 385.659 154.296C384.969 151.712 384.097 149.182 383.05 146.721C382.558 145.566 382.307 143.917 381.049 143.461C380.768 143.363 380.488 143.537 380.329 143.758C379.199 145.338 378.911 148.347 378.532 150.201C378.008 152.746 377.667 155.299 377.614 157.897C377.561 160.814 377.735 163.747 377.879 166.657C377.986 168.815 377.963 170.752 379.115 172.613C379.229 172.796 379.548 172.735 379.532 172.5H379.548Z" fill="black"/>
            <path d="M381.094 144.419C380.093 144.928 376.424 138.326 379.775 138.143C382.603 137.991 382.641 142.618 380.548 143.674C379.775 144.062 379.275 143.575 379.108 142.892C378.994 142.421 378.986 141.896 379.07 141.418C379.214 140.628 379.608 139.853 380.2 139.306C380.882 138.683 382.148 139.131 382.072 140.149C382.012 140.924 380.829 141.646 380.397 140.78C380.222 140.43 380.359 138.979 381.178 140.293C381.511 140.825 380.882 141.592 380.45 141.798L381.072 141.881C379.866 140.658 379.995 138.576 381.413 137.566L380.662 137.368C381.117 138.242 381.413 139.161 381.398 140.157C381.398 140.445 381.481 141.266 381.109 141.266C380.45 141.266 380.359 139.883 380.435 139.442L379.532 139.807C380.594 140.544 380.708 141.881 379.972 142.884H381.064C380.465 142.071 379.714 140.742 379.987 139.678C380.237 138.705 380.336 140.483 380.344 140.574C380.359 141.083 380.382 141.972 379.949 142.307L380.692 142.109C380.169 142.003 379.972 140.772 379.911 140.331C379.851 140.065 379.836 139.799 379.858 139.526C380.344 139.64 380.541 139.951 380.45 140.46L381.147 140.992C380.905 140.362 380.852 139.701 381.003 139.017C381.079 139.868 382.406 139.891 382.345 139.017C382.285 138.143 381.489 137.437 380.563 137.824C379.237 138.379 379.456 140.301 379.76 141.38C379.851 141.699 380.131 141.889 380.457 141.912C382.679 142.056 382.11 137.718 379.858 137.794C377.273 137.885 378.289 143.097 380.162 143.553C382.565 144.138 382.133 138.523 380.715 137.619C379.578 136.897 378.911 138.022 378.774 139.025C378.547 140.65 379.017 142.215 379.995 143.515C380.291 143.91 380.791 143.925 381.087 143.515C382.232 141.927 381.761 139.807 380.169 138.736C379.866 138.531 379.328 138.721 379.267 139.1C379.07 140.278 379.934 143.629 381.777 142.565C383.49 141.577 382.315 138.06 381.633 136.798C381.504 136.555 381.117 136.426 380.882 136.601C378.926 138.037 378.645 140.848 380.366 142.595C380.541 142.77 380.776 142.77 380.988 142.679C382.338 142.056 382.747 140.035 381.587 139.009C380.427 137.984 379.29 139.04 379.464 140.384C379.646 141.805 381.011 143.621 382.391 142.071C383.248 141.106 383.278 138.25 381.875 137.71C380.177 137.049 378.63 139.473 378.312 140.81C378.039 141.957 378.16 144.821 379.843 144.92C381.526 145.019 382.777 142.185 382.861 140.871C382.967 139.138 381.754 137.307 379.995 137.011C376.735 136.464 376.992 140.119 377.72 142.178C378.152 143.408 380.124 147.131 381.724 145.019C382.012 144.639 381.473 144.244 381.125 144.419H381.094Z" fill="black"/>
            <path d="M215.97 266.436C207.941 260.206 194.93 261.277 185.733 263.686C175.285 266.413 165.671 272.302 158.308 280.195C142.666 296.963 137.533 326.017 153.949 344.069C162.319 353.269 173.783 356.848 185.831 353.672C185.938 353.642 185.892 353.482 185.786 353.505C175.179 355.632 164.147 352.046 156.147 344.889C147.337 336.995 143.531 324.246 144.478 312.675C146.23 291.296 162.478 272.598 182.594 266.087C192.936 262.744 205.628 262.584 215.773 266.778C215.955 266.854 216.122 266.565 215.97 266.444V266.436Z" fill="black"/>
            <path d="M192.799 351.719C208.168 345.846 222.521 336.053 229.952 320.911C236.291 307.988 237.087 291.827 230.392 278.889C226.434 271.246 219.769 265.578 211.247 263.967C210.724 263.868 210.542 264.567 211.027 264.757C220.095 268.32 227.594 274.437 231.006 283.797C234.183 292.511 234.266 302.282 231.976 311.216C226.972 330.704 210.671 344.16 192.792 351.697C192.777 351.697 192.784 351.727 192.792 351.719H192.799Z" fill="black"/>
            <path d="M226.752 275.219C215.485 262.311 195.468 263.602 181.017 269.886C163.631 277.438 150.112 294.297 147.451 313.222C145.699 325.644 148.398 337.132 156.928 346.454C157.004 346.538 157.118 346.416 157.05 346.333C148.11 335.058 145.957 319.202 149.885 305.579C153.183 294.122 160.257 284.746 169.78 277.726C178.424 271.352 188.773 267.264 199.563 266.877C204.628 266.695 209.95 267.416 214.788 268.997C219.102 270.41 222.658 273.267 226.525 275.538C226.73 275.66 226.912 275.394 226.767 275.227L226.752 275.219Z" fill="black"/>
            <path d="M222.938 255.336C212.574 248.278 196.499 248.855 184.853 251.834C172.494 254.987 161.22 261.756 152.167 270.721C132.036 290.657 123.537 325.052 141.332 349.28C148.467 358.99 159.794 366.041 171.903 367.013C182.086 367.834 193.194 364.954 202.292 360.548C222.43 350.792 239.028 333.561 244.805 311.581C251.068 287.77 242.705 259.591 216.933 252.624C216.827 252.593 216.782 252.761 216.888 252.791C238.876 259.386 247.55 282.574 245.063 303.885C242.667 324.406 230.088 342.032 213.256 353.49C207.456 357.44 200.495 361.9 193.694 363.815C190.858 364.612 187.833 364.894 184.944 365.486C171.971 368.16 158.968 365.182 148.975 356.194C126.585 336.068 129.451 300.99 146.905 278.699C155.488 267.743 167.194 259.545 180.349 255.085C186.847 252.882 193.702 251.606 200.563 251.522C207.736 251.439 216.281 252.35 222.741 255.678C222.969 255.8 223.151 255.481 222.938 255.336Z" fill="black"/>
            <path d="M158.46 363.496C165.352 367.697 173.806 369.824 181.828 370.318C187.469 370.668 192.739 369.323 198.221 368.229C204.946 366.884 211.338 363.275 217.146 359.72C223.401 355.898 229.216 351.332 234.289 346.021C249.976 329.587 258.605 304.318 250.712 282.254C245.419 267.47 234.13 258.193 219.458 253.414C219.352 253.376 219.307 253.543 219.413 253.581C231.681 258.284 242.932 267.318 248.558 279.421C253.654 290.384 254.04 303.186 251.235 314.818C248.763 325.052 243.19 334.412 236.268 342.237C231.809 347.282 226.82 351.75 221.286 355.586C215.121 359.856 207.774 364.362 200.518 366.375C186.188 370.349 172.472 367.682 158.619 363.123C158.399 363.055 158.278 363.374 158.467 363.488L158.46 363.496Z" fill="black"/>
            <path d="M224.508 256.255C224.728 256.255 224.728 255.914 224.508 255.914C224.288 255.914 224.288 256.255 224.508 256.255Z" fill="black"/>
            <path d="M206.682 250.139C206.826 249.744 206.94 249.288 207.13 248.916C207.433 248.324 208.032 248.567 208.616 248.696C209.67 248.924 210.928 249.623 210.739 250.907C210.67 251.363 211.368 251.56 211.436 251.097C211.679 249.539 210.511 248.43 209.101 248.035C208.578 247.891 207.44 247.556 206.925 247.822C206.326 248.134 206.159 249.38 205.962 249.934C205.803 250.39 206.515 250.58 206.682 250.132V250.139Z" fill="black"/>
            <path d="M207.357 247.868C203.771 245.938 198.804 247.275 194.945 247.807C192.231 248.187 189.948 248.681 189.145 251.629C188.993 252.176 189.774 252.517 190.062 252.016C193.414 246.166 201.822 248.217 207.168 248.559C207.539 248.582 207.676 248.035 207.357 247.86V247.868Z" fill="black"/>
            <path d="M195.226 247.617C196.31 245.231 196.31 241.949 199.623 241.638C200.912 241.516 202.838 241.866 203.854 242.717C205.052 243.712 205.067 245.33 205.075 246.751C205.075 247.123 205.636 247.321 205.81 246.948C207.478 243.454 203.907 241.091 200.897 240.832C197.045 240.498 194.907 243.985 195.006 247.549C195.006 247.655 195.172 247.723 195.226 247.609V247.617Z" fill="black"/>
            <path d="M204.855 243.529C211.982 239.913 218.889 235.879 225.827 231.905C231.241 228.805 236.98 226.275 242.212 222.849C242.713 222.522 242.25 221.709 241.742 222.036C236.495 225.424 230.748 227.947 225.342 231.069C218.419 235.066 211.345 238.789 204.408 242.755C203.907 243.043 204.347 243.788 204.862 243.529H204.855Z" fill="black"/>
            <path d="M243.6 217.85C243.918 217.85 243.918 217.356 243.6 217.356C243.281 217.356 243.281 217.85 243.6 217.85Z" fill="black"/>
            <path d="M242.531 222.492C243.524 220.061 243.6 217.189 243.941 214.59C244.388 211.202 244.858 207.821 245.397 204.44C246.39 198.187 248.24 192.185 249.529 186C249.681 185.279 248.589 184.967 248.422 185.697C246.898 192.071 245.162 198.324 244.153 204.812C243.274 210.472 241.863 216.71 242.015 222.423C242.023 222.742 242.432 222.765 242.538 222.492H242.531Z" fill="black"/>
            <path d="M207.638 245.239C214.765 241.622 221.672 237.588 228.61 233.615C234.023 230.515 239.763 227.985 244.995 224.558C245.495 224.232 245.033 223.419 244.525 223.745C239.278 227.134 233.531 229.656 228.125 232.779C221.202 236.775 214.128 240.498 207.19 244.464C206.69 244.753 207.13 245.497 207.645 245.239H207.638Z" fill="black"/>
            <path d="M246.382 219.551C246.701 219.551 246.701 219.058 246.382 219.058C246.064 219.058 246.064 219.551 246.382 219.551Z" fill="black"/>
            <path d="M245.321 224.201C246.314 221.77 246.39 218.898 246.731 216.3C247.178 212.911 247.649 209.53 248.187 206.149C249.18 199.896 251.03 193.894 252.319 187.71C252.471 186.988 251.379 186.677 251.212 187.406C249.688 193.78 247.952 200.033 246.943 206.522C246.064 212.182 244.654 218.419 244.805 224.133C244.813 224.452 245.222 224.475 245.328 224.201H245.321Z" fill="black"/>
            <path d="M196.795 243.142C196.795 243.142 196.811 243.119 196.795 243.119C196.78 243.119 196.78 243.142 196.795 243.142Z" fill="black"/>
            <path d="M196.287 242.967C190.146 240.893 184.793 237.056 179.409 233.539C173.624 229.763 168.059 225.781 162.638 221.504C162.122 221.094 161.379 221.8 161.902 222.241C167.217 226.746 173.071 230.621 178.909 234.397C184.383 237.938 189.812 241.767 196.044 243.849C196.606 244.039 196.848 243.15 196.287 242.96V242.967Z" fill="black"/>
            <path d="M162.539 222.157C161.97 216.33 162.342 210.298 162.964 204.485C163.646 198.096 165.466 191.957 166.292 185.628C166.338 185.294 165.852 185.294 165.746 185.552C163.161 191.987 162.486 199.722 161.879 206.605C161.546 210.381 161.364 214.172 161.364 217.964C161.364 219.529 160.772 221.466 162.289 222.302C162.395 222.355 162.562 222.287 162.547 222.157H162.539Z" fill="black"/>
            <path d="M165.511 186.175C166.391 184.481 172.987 185.469 174.633 185.598C181.07 186.084 187.583 185.811 194.035 185.788C208.684 185.742 223.333 185.803 237.981 185.689C241.522 185.666 245.313 185.203 248.847 185.59C249.188 185.628 249.188 185.096 248.847 185.058C239.126 184.002 228.943 184.77 219.185 184.8C204.446 184.846 189.327 183.979 174.633 185.279C172.82 185.438 166.459 184.397 165.488 186.168C165.488 186.183 165.504 186.19 165.511 186.183V186.175Z" fill="black"/>
            <path d="M248.574 186.16C249.029 186.54 249.643 186.654 250.136 187.011C250.628 187.368 250.932 187.93 251.447 188.234C251.933 188.523 252.403 188.052 252.319 187.558C252.206 186.851 251.447 186.274 250.894 185.887C250.31 185.476 249.552 185.066 248.832 185.18C248.407 185.248 248.255 185.894 248.574 186.16Z" fill="black"/>
            <path d="M242.152 222.218C242.379 222.636 242.728 222.811 243.114 223.062C243.562 223.358 243.986 223.745 244.396 224.102C244.904 224.543 245.654 223.776 245.131 223.365C244.646 222.978 244.161 222.689 243.607 222.408C243.152 222.173 242.728 221.937 242.212 222.066C242.144 222.081 242.114 222.165 242.152 222.226V222.218Z" fill="black"/>
            <path d="M207.729 245.429C207.327 245.026 206.629 245.383 206.174 245.512C205.515 245.702 205.81 246.758 206.455 246.546C206.773 246.439 207.168 246.371 207.456 246.196C207.691 246.059 207.971 245.68 207.721 245.429H207.729Z" fill="black"/>
            <path d="M161.637 221.656C161.925 223.441 164.685 224.71 166.019 225.706C168.567 227.613 171.046 229.664 173.715 231.396C173.942 231.548 174.223 231.191 174.011 231.009C172.062 229.33 169.924 227.856 167.869 226.313C165.814 224.771 163.858 222.818 161.652 221.641C161.644 221.641 161.637 221.641 161.637 221.656Z" fill="black"/>
            <path d="M164.116 197.632C170.44 198.339 177.211 198.985 183.549 198.187C183.868 198.149 183.883 197.701 183.549 197.67C177.089 197.177 170.591 197.359 164.116 196.819C163.593 196.774 163.608 197.572 164.116 197.632Z" fill="black"/>
            <path d="M190.191 198.362C196.302 199.167 202.656 200.056 208.828 199.684C209.344 199.653 209.328 198.947 208.828 198.894C202.671 198.21 196.378 198.331 190.191 197.951C189.926 197.936 189.941 198.324 190.191 198.354V198.362Z" fill="black"/>
            <path d="M216.82 198.886C221.49 199.023 226.161 198.985 230.839 198.985C235.517 198.985 240.21 199.623 244.843 199.387C245.169 199.372 245.283 198.848 244.927 198.78C240.574 197.982 235.987 198.149 231.582 197.974C226.661 197.777 221.74 197.784 216.827 198.202C216.395 198.24 216.38 198.871 216.827 198.886H216.82Z" fill="black"/>
            <path d="M158.938 143.188C157.33 143.583 155.473 143.887 153.842 143.378C150.817 142.436 149.126 139.23 150.658 136.487C152.19 133.744 156.716 132.787 159.756 132.711C163.661 132.612 167.27 134.557 167.232 138.964C167.21 141.828 165.853 144.73 164.275 147.048C161.053 151.781 155.541 155.268 149.672 154.782C143.44 154.265 138.087 149.714 137.321 143.424C136.555 137.133 138.322 129.512 143.735 126.055C148.717 122.88 155.313 124.05 160.522 125.972C171.865 130.166 181.616 138.212 188.948 147.724C197.864 159.302 205.128 172.044 213.893 183.714C214.302 184.261 215.152 183.797 214.826 183.167C209.996 173.875 203.718 165.244 197.705 156.681C192.572 149.372 187.446 142.033 180.66 136.137C171.698 128.342 151.568 115.138 140.43 126.253C135.66 131.017 133.871 140.126 135.835 146.47C137.677 152.419 143.607 156.362 149.672 156.757C156.026 157.168 161.986 153.513 165.549 148.408C168.597 144.031 171.296 136.16 165.762 132.506C161.318 129.573 151.257 130.933 148.724 136.054C147.436 138.66 148.345 141.896 150.484 143.758C153.077 146.014 156.564 145.893 159.544 144.616C160.386 144.259 159.772 142.983 158.945 143.188H158.938Z" fill="black"/>
            <path d="M225.077 236.221C225.365 239.594 225.683 242.982 225.751 246.371C225.82 249.759 225.357 253.194 225.622 256.559C225.653 256.947 226.221 257.076 226.335 256.658C228.011 250.299 227.002 242.496 225.554 236.16C225.494 235.894 225.046 235.947 225.069 236.228L225.077 236.221Z" fill="black"/>
            <path d="M227.313 353.246C227.344 370.782 236.503 387.132 248.452 399.44C254.374 405.541 261.88 412.439 270.524 414.042C277.31 415.304 284.399 412.751 287.114 406.073C292.247 393.438 285.423 369.399 267.991 373.251C261.365 374.717 256.884 380.545 257.854 387.375C258.825 394.205 264.504 401.446 271.35 402.479C279.296 403.679 283.209 392.974 279.137 387.124C275.384 381.73 265.846 383.508 267.317 390.908C267.476 391.705 268.795 391.531 268.742 390.718C268.545 387.542 271.244 385.065 274.467 385.901C276.794 386.501 278.068 388.028 278.69 390.292C279.827 394.403 278.038 399.926 273.367 400.686C266.695 401.772 260.599 392.632 259.909 386.965C259.098 380.233 264.724 374.892 271.328 375.052C277.719 375.211 282.943 379.83 285.339 385.521C287.713 391.158 288.137 398.726 286.113 404.561C283.641 411.664 275.187 413.412 268.719 411.3C262.896 409.4 257.975 405.168 253.502 401.119C249.309 397.328 245.465 393.141 242.129 388.575C234.509 378.136 229.944 366.178 229.148 353.246C229.08 352.084 227.328 352.061 227.328 353.246H227.313Z" fill="black"/>
            <path d="M283.762 70.7981C285.605 69.8484 287.243 68.6403 289.313 68.2225C291.64 67.7514 294.18 67.9869 296.485 68.4428C300.42 69.2102 304.242 70.836 307.813 72.6215C311.741 74.5893 315.425 76.9825 318.845 79.748C321.84 82.1641 324.319 85.3627 327.504 87.4976C327.981 87.8167 328.474 87.2089 328.239 86.7606C326.192 82.8327 321.931 79.7632 318.443 77.1344C314.22 73.9511 309.602 71.1627 304.773 69.0202C298.707 66.3307 288.062 63.9374 282.815 69.5748C282.201 70.2358 282.974 71.2159 283.762 70.8056V70.7981Z" fill="black"/>
            <path d="M412.022 327.323C417.466 324.619 418.831 318.267 419.179 312.675C419.574 306.331 417.815 299.98 413.857 294.95C410.414 290.574 405.638 287.641 399.928 288.241C395.553 288.697 389.457 291.47 388.108 296.052C387.911 296.705 388.851 297.343 389.321 296.758C392.331 292.997 395.356 290.384 400.436 290.186C405.418 289.996 410.43 292.944 413.303 296.903C416.419 301.188 417.003 306.886 416.897 312.052C416.783 317.75 415.51 322.317 410.922 325.895C410.066 326.564 411.157 327.756 412.022 327.323Z" fill="black"/>
            <path d="M363.981 179.96C358.879 202.039 358.151 225.113 359.576 247.625C360.577 263.496 363.079 279.101 368.97 293.94C371.222 299.607 373.641 305.868 377.5 310.639C378.046 311.308 378.986 310.457 378.638 309.758C376.113 304.751 373.224 300.094 371.184 294.828C368.713 288.454 366.817 281.844 365.361 275.166C361.343 256.818 360.259 238.758 361.305 220.023C362.056 206.605 364.012 193.499 365.778 180.196C365.915 179.178 364.216 178.965 363.989 179.953L363.981 179.96Z" fill="black"/>
            <path d="M140.627 127.309C150.825 120.464 162.501 116.103 173.996 111.962C186.734 107.373 199.563 103.057 212.293 98.4153C237.185 89.3362 262.305 80.6597 287 71.0564C288.349 70.5321 287.819 68.3592 286.386 68.8303C260.758 77.2256 235.547 87.2393 210.269 96.6375C197.591 101.348 185.043 106.34 172.403 111.134C161.167 115.396 150.256 119.901 140.399 126.914C140.164 127.081 140.384 127.476 140.627 127.309Z" fill="black"/>
            <path d="M262.085 377.293C270.979 370.204 282.997 369.148 293.49 365.615C303.317 362.31 312.885 358.223 322.082 353.429C340.856 343.643 358.28 331.365 373.148 316.231C377.265 312.037 381.2 307.661 384.931 303.11C388.661 298.559 391.285 293.134 396.456 290.581C397.146 290.24 396.645 289.237 395.955 289.381C391.997 290.24 389.738 293.522 387.501 296.652C384.256 301.195 380.586 305.45 376.826 309.575C369.463 317.644 361.411 325.181 352.896 332.011C335.192 346.219 315.327 357.258 293.847 364.59C283.012 368.29 270.706 369.353 261.547 376.738C261.16 377.05 261.706 377.589 262.093 377.285L262.085 377.293Z" fill="black"/>
            <path d="M277.06 413.647C282.966 412.644 288.236 409.241 293.134 405.951C298.836 402.122 304.515 398.247 310.163 394.342C321.536 386.471 332.546 378.068 343.782 370.014C355.019 361.961 365.725 354.546 377.053 347.351C382.793 343.704 388.616 340.179 394.507 336.782C400.656 333.234 407.579 330.347 413.349 326.252C414.023 325.774 413.644 324.528 412.75 324.824C406.623 326.837 400.793 330.682 395.182 333.85C389.245 337.193 383.414 340.733 377.652 344.372C366.301 351.537 355.247 359.173 344.321 366.983C333.274 374.884 322.242 382.839 311.369 390.976C300.496 399.113 289.836 407.957 276.961 413.336C276.756 413.419 276.832 413.701 277.052 413.663L277.06 413.647Z" fill="black"/>
            <path d="M192.306 128.722C195.218 130.698 198.167 132.118 200.616 134.755C203.202 137.535 205.166 140.84 207.076 144.1C207.774 145.3 209.632 144.214 208.934 143.013C205.613 137.254 200.245 127.886 192.534 127.886C192.071 127.886 191.95 128.479 192.306 128.722Z" fill="black"/>
            <path d="M207.949 143.165C212.627 143.492 215.773 138.371 215.364 134.109C214.81 128.228 210.011 129.786 205.795 131.419L206.614 132.833C209.184 130.265 208.737 126.192 205.348 124.574C201.496 122.728 195.309 124.323 193.55 128.373C193.361 128.806 193.778 129.406 194.263 129.087C195.946 127.985 197.326 126.564 199.343 126.017C200.45 125.714 201.731 125.478 202.876 125.729C205.416 126.276 207.903 129.216 205.424 131.64C204.855 132.194 205.431 133.372 206.243 133.053C208.896 132.004 214.371 130.53 213.779 135.423C213.309 139.29 210.784 140.84 207.789 142.595C207.509 142.755 207.653 143.15 207.949 143.173V143.165Z" fill="black"/>
            <path d="M211.823 121.611C213.787 124.065 215.864 126.39 217.661 128.973C219.087 131.032 220.065 133.972 221.907 135.628C222.211 135.902 222.787 135.735 222.764 135.271C222.635 132.521 220.216 129.497 218.647 127.339C216.873 124.908 214.856 122.629 212.414 120.851C211.937 120.502 211.52 121.216 211.831 121.603L211.823 121.611Z" fill="black"/>
            <path d="M218.192 119.385C219.579 121.717 221.483 123.738 222.984 126.002C224.485 128.266 225.622 130.827 227.101 133.129C227.647 133.98 229.088 133.455 228.777 132.422C227.328 127.582 223.234 121.39 218.996 118.579C218.495 118.245 217.904 118.891 218.192 119.385Z" fill="black"/>
            <path d="M218.389 119.476C219.708 118.868 220.732 117.774 222.067 117.151C223.682 116.391 225.539 116.027 227.313 116.163C229.088 116.3 230.073 118.283 228.792 119.734C228.14 120.471 227.063 121.003 226.259 121.55C225.062 122.355 223.955 122.986 223.083 124.126C222.772 124.536 223.287 125.083 223.719 124.954C226.381 124.194 235.252 118.481 230.263 115.198C226.76 112.896 219.163 114.94 217.578 118.845C217.373 119.347 218.01 119.651 218.389 119.476Z" fill="black"/>
            <path d="M235.525 113.139C236.283 112.646 237.216 111.764 238.118 111.65C239.172 110.853 239.657 111.339 239.574 113.117C240.635 114.317 240.552 115.115 239.316 115.51C238.482 116.042 238.997 117.554 240.021 117.189C241.135 116.794 243.228 115.928 244.411 116.414C248.801 118.207 244.79 122.583 243.387 124.012C241.537 125.888 239.793 126.891 237.367 127.742C237.178 127.81 237.041 127.97 237.041 128.175V128.517C237.026 129.011 237.466 129.459 237.959 129.444C241.932 129.338 247.398 123.609 248.05 119.81C248.991 114.385 243.152 114.135 239.536 115.419L240.241 117.098C242.424 115.7 245.427 112.486 242.644 110.017C240.233 107.882 236.374 110.214 234.744 112.137C234.296 112.661 234.873 113.565 235.517 113.147L235.525 113.139Z" fill="black"/>
            <path d="M253.548 104.44C250.947 103.886 247.906 104.106 246.261 106.476C245.093 108.156 245.222 110.237 246.769 111.612C250.962 115.328 255.314 110.055 254.67 105.762L252.683 106.309C253.631 109.257 254.7 112.167 255.739 115.085C256.535 117.318 257.028 120.524 258.597 122.333C259.052 122.849 259.78 122.386 259.833 121.816C260.068 119.423 258.302 116.323 257.521 114.104C256.55 111.331 255.557 108.566 254.67 105.762C254.26 104.463 252.494 105.025 252.683 106.309C252.986 107.449 252.858 108.558 252.304 109.637C250.917 111.46 249.408 111.688 247.762 110.321C244.805 106.552 251.44 106.005 253.335 106.005C254.215 106.005 254.45 104.623 253.548 104.433V104.44Z" fill="black"/>
            <path d="M244.601 240.734C246.003 242.268 245.465 244.669 245.776 246.515C245.988 247.731 246.534 248.802 246.868 249.98C247.861 253.482 246.511 256.962 247.436 260.305C247.558 260.746 248.157 260.806 248.392 260.427C250.515 257.023 249.696 251.986 248.483 248.369C247.512 245.482 247.884 241.881 245.238 239.913C244.745 239.548 244.222 240.316 244.601 240.734Z" fill="black"/>
            <path d="M245.586 241.402C247.884 240.878 252.023 238.948 253.229 241.562C254.078 243.4 253.047 243.75 251.622 245.019C250.53 245.991 249.339 246.857 248.149 247.708C247.095 248.468 247.99 250.071 249.173 249.471C250.81 248.635 252.516 247.959 254.344 247.663C257.49 247.154 258.779 250.785 256.679 253.095C254.359 255.648 250.454 257.144 247.11 256.909L248.141 257.691C248.096 257.342 247.967 257.198 247.648 257.053C246.026 256.316 245.397 258.945 247.11 259.044C251.834 259.31 261.061 255.253 260.887 249.478C260.69 243.074 251.394 246.12 248.149 247.701L249.173 249.463C251.675 247.731 258.203 243.947 255.754 240.027C253.532 236.471 247.694 238.667 245.199 240.506C244.76 240.825 245.01 241.531 245.579 241.402H245.586Z" fill="black"/>
            <path d="M263.154 235.522C263.177 238.386 264.018 241.227 264.489 244.054C264.959 246.88 264.792 249.927 266.058 252.426C266.286 252.875 266.96 252.738 267.089 252.29C267.863 249.737 267.006 246.69 266.604 244.092C266.134 241.113 265.687 237.915 264.284 235.218C264.003 234.671 263.147 234.937 263.154 235.522Z" fill="black"/>
            <path d="M269.963 233.09C270.425 235.985 270.759 238.895 271.214 241.79C271.601 244.282 271.487 247.1 272.753 249.311C272.988 249.722 273.595 249.615 273.731 249.182C274.436 246.926 273.648 244.137 273.231 241.835C272.67 238.766 271.745 235.826 270.729 232.885C270.562 232.399 269.887 232.597 269.97 233.098L269.963 233.09Z" fill="black"/>
            <path d="M269.864 233.926C271.191 233.463 272.412 232.748 273.784 232.399C274.899 232.118 278.773 231.465 279.183 233.303C279.903 236.57 273.2 238.545 271.024 239.586C270.008 240.073 270.729 241.691 271.782 241.379C274.489 240.597 277.242 239.115 279.478 237.406C281.033 236.221 281.935 234.496 281.033 232.589C279.031 228.395 271.676 229.945 269.25 232.847C268.879 233.296 269.212 234.146 269.872 233.919L269.864 233.926Z" fill="black"/>
            <path d="M295.462 241.866C294.885 235.385 292.967 228.638 290.662 222.575C290.404 221.899 289.457 221.838 289.222 222.575C287.728 227.248 286.295 231.936 284.862 236.631C284.718 237.102 285.112 237.657 285.62 237.626C289.373 237.398 293.475 236.562 296.372 234.01C296.705 233.713 296.356 233.075 295.924 233.242C292.421 234.602 289.457 235.909 285.62 236.053L286.378 237.049C287.826 232.361 289.275 227.681 290.662 222.978H289.222C290.708 229.314 292.133 235.864 294.12 242.056C294.339 242.755 295.53 242.679 295.462 241.873V241.866Z" fill="black"/>
            <path d="M309.906 235.514C309.443 229.565 306.714 223.517 303.992 218.267C303.612 217.531 302.49 217.743 302.278 218.495C300.883 223.441 299.23 228.19 298.282 233.265C298.176 233.843 298.661 234.542 299.321 234.306C302.551 233.144 306.054 232.247 308.958 230.355C309.276 230.15 309.193 229.504 308.746 229.557C305.326 229.968 302.088 231.495 298.874 232.673L299.912 233.713C300.799 228.851 301.884 223.715 303.992 219.217H302.369C304.985 224.589 306.486 230.188 308.73 235.674C308.958 236.236 309.959 236.251 309.906 235.514Z" fill="black"/>
            <path d="M219.42 165.616C237.625 160.055 255.405 152.039 272.912 144.601C291.398 136.738 309.655 128.19 328.307 120.729C328.618 120.608 328.436 120.152 328.126 120.296C310.08 129.072 291.223 136.419 272.617 143.895C263.624 147.511 254.655 151.181 245.662 154.782C236.882 158.3 227.95 161.513 219.398 165.555C219.367 165.571 219.39 165.624 219.42 165.616Z" fill="black"/>
            <path d="M255.481 175.934C269.121 169.59 282.996 163.869 296.917 158.178C309.921 152.86 323.326 147.769 335.465 140.643C335.526 140.605 335.465 140.521 335.412 140.552C321.688 146.706 308.071 152.951 294.135 158.641C281.063 163.983 267.9 169.225 255.337 175.698C255.178 175.782 255.314 176.01 255.473 175.941L255.481 175.934Z" fill="black"/>
            <path d="M256.451 201.758C264.223 199.41 271.782 195.657 279.236 192.436C287.417 188.903 295.545 185.256 303.627 181.503C319.565 174.095 335.109 165.897 350.614 157.623C350.834 157.509 350.637 157.175 350.417 157.289C335.162 165.533 319.52 173.039 303.847 180.454C296.235 184.055 288.569 187.566 280.866 190.954C272.768 194.517 264.216 197.458 256.353 201.522C256.224 201.591 256.315 201.796 256.451 201.758Z" fill="black"/>
            <path d="M260.379 283.432C286.363 269.126 315.524 261.217 341.098 246.189C341.349 246.044 341.129 245.672 340.871 245.801C327.064 252.616 313.348 259.067 299.101 264.917C285.847 270.364 272.579 275.857 260.091 282.931C259.765 283.113 260.053 283.607 260.379 283.432Z" fill="black"/>
            <path d="M256.55 312.402C271.987 305.093 287.227 297.374 302.581 289.905C317.928 282.444 333.441 275.234 348.521 267.242C348.597 267.204 348.529 267.097 348.453 267.128C332.902 274.163 317.7 282.019 302.399 289.586C287.099 297.161 271.661 304.485 256.436 312.212C256.315 312.273 256.421 312.455 256.543 312.394L256.55 312.402Z" fill="black"/>
            <path d="M251.485 343.567C260.053 340.049 268.264 335.354 276.499 331.13C285.203 326.662 293.877 322.142 302.528 317.561C319.777 308.428 337.3 299.448 353.996 289.32C354.276 289.145 354.026 288.72 353.738 288.88C336.655 297.898 319.959 307.676 302.892 316.732C294.461 321.2 285.999 325.606 277.507 329.952C268.833 334.382 259.757 338.332 251.349 343.256C251.189 343.347 251.296 343.643 251.477 343.567H251.485Z" fill="black"/>
            <path d="M158.316 187.923C155.692 189.875 155.852 194.563 155.412 197.602C154.783 201.971 154.267 206.408 154.828 210.807C154.904 211.43 155.897 211.726 156.041 210.974C156.868 206.712 157.05 202.358 157.649 198.058C158.073 194.996 159.961 190.795 158.445 187.953C158.422 187.907 158.354 187.885 158.316 187.915V187.923Z" fill="black"/>
            <path d="M157.467 256.992C132.332 270.531 121.171 301.606 126.168 329.101C126.274 329.671 127.184 329.534 127.176 328.964C126.804 314.21 127.388 299.699 133.499 286C138.633 274.482 146.836 263.906 157.512 257.046C157.55 257.023 157.512 256.97 157.482 256.992H157.467Z" fill="black"/>
            <path d="M215.379 370.539C215.25 371.648 215.455 372.803 215.591 373.912C215.728 375.021 215.826 376.001 216.205 377.004C216.516 377.832 217.623 377.68 217.714 376.799C217.82 375.728 217.654 374.71 217.51 373.654C217.366 372.597 217.259 371.382 216.842 370.341C216.524 369.543 215.478 369.688 215.379 370.539Z" fill="black"/>
            <path d="M213.453 374.345C215.485 374.049 217.555 374.125 219.602 374.261C220.247 374.307 220.391 373.251 219.754 373.129C217.532 372.689 215.402 372.924 213.248 373.585C212.748 373.737 212.968 374.421 213.461 374.345H213.453Z" fill="black"/>
            <path d="M230.907 385.544C235.464 401.544 247.429 417.401 263.624 422.97C264.132 423.144 264.405 422.4 263.981 422.126C256.959 417.697 250.257 413.359 244.631 407.144C238.906 400.823 234.114 393.468 230.953 385.529C230.945 385.506 230.907 385.513 230.915 385.536L230.907 385.544Z" fill="black"/>
            <path d="M226.972 396.431C230.657 407.243 240.074 417.803 250.264 422.909C250.681 423.122 251.197 422.559 250.795 422.217C246.466 418.533 242.038 415.007 238.224 410.768C234.175 406.27 230.983 401.157 227.579 396.173C227.382 395.884 226.843 396.051 226.972 396.431Z" fill="black"/>
            <path d="M368.887 220.995C368.455 222.735 368.394 224.528 368.379 226.313C368.364 228.099 368.235 229.96 368.933 231.647C369.152 232.186 369.964 232.3 370.146 231.647C370.631 229.907 370.366 228.099 370.313 226.313C370.259 224.528 370.259 222.75 369.956 220.995C369.865 220.44 369.016 220.486 368.887 220.995Z" fill="black"/>
            <path d="M365.339 227.134C366.825 227.278 368.311 227.445 369.797 227.567C371.056 227.673 372.261 227.901 373.429 227.362C373.937 227.126 373.853 226.382 373.429 226.123C372.352 225.462 371.033 225.584 369.797 225.546C368.311 225.5 366.825 225.5 365.339 225.478C364.262 225.462 364.307 227.02 365.339 227.126V227.134Z" fill="black"/>
            <path d="M386.053 33.5698C398.518 35.9707 410.627 41.5853 420.332 49.7907C425.154 53.863 429.438 58.5659 433.024 63.7551C436.611 68.9442 438.764 74.5817 441.622 80.1203C441.82 80.4926 442.335 80.2191 442.267 79.8468C441.114 73.7003 437.475 67.6451 433.972 62.5699C430.211 57.1224 425.677 52.2067 420.582 47.9977C410.604 39.7467 398.988 34.4663 386.129 33C385.81 32.962 385.734 33.509 386.053 33.5698Z" fill="black"/>
            <path d="M414.296 36.5101C421.856 41.137 428.854 47.1619 434.465 54.0301C437.27 57.4643 439.848 61.0503 442.085 64.8719C444.322 68.6935 445.906 73.009 448.249 76.8229C448.499 77.2332 449.068 76.9521 448.992 76.5114C447.529 68.1313 441.532 59.622 436.141 53.2628C429.999 46.0223 422.902 40.4532 414.433 36.2898C414.289 36.2214 414.16 36.4265 414.304 36.5101H414.296Z" fill="black"/>
            <path d="M314.91 52.2067C314.622 54.3948 314.159 57.1907 315.122 59.2573C315.41 59.8727 316.388 59.6828 316.547 59.0674C316.82 57.9809 316.654 56.8944 316.585 55.7928C316.51 54.6 316.456 53.3995 316.441 52.2067C316.426 51.1886 315.031 51.257 314.902 52.2067H314.91Z" fill="black"/>
            <path d="M311.824 57.0312C313.113 56.4538 314.493 56.0663 315.888 55.8536C316.934 55.694 318.079 55.9371 318.913 55.2078C319.095 55.0482 319.087 54.7139 318.913 54.5544C317.996 53.749 316.593 54.1669 315.501 54.448C314.023 54.8203 312.696 55.5269 311.452 56.4006C311.066 56.6741 311.392 57.2211 311.816 57.0312H311.824Z" fill="black"/>
            <path d="M138.632 116.27C144.736 114.553 150.658 111.665 156.504 109.219C162.016 106.909 167.521 104.6 173.025 102.267C184.785 97.2909 197.174 93.4009 208.707 87.9382C209.033 87.7863 208.805 87.2469 208.456 87.3532C196.287 91.1292 184.535 96.7894 172.623 101.325C166.641 103.604 160.666 105.914 154.714 108.292C149.232 110.48 143.394 112.471 138.238 115.358C137.745 115.639 138.079 116.429 138.625 116.277L138.632 116.27Z" fill="black"/>
            <path d="M167.68 97.6404C180.676 93.4693 193.323 88.3941 205.75 82.7567C206.015 82.6351 205.825 82.1869 205.553 82.2856C192.754 86.9582 180.046 91.8662 167.551 97.3213C167.377 97.3973 167.498 97.6936 167.68 97.6328V97.6404Z" fill="black"/>
            <path d="M179.735 162.114C179.72 164.765 179.303 169.058 181.009 171.292C181.297 171.671 181.911 171.671 182.063 171.155C182.472 169.764 182.078 168.389 181.805 166.999C181.472 165.32 181.123 163.648 180.804 161.969C180.691 161.354 179.743 161.513 179.735 162.114Z" fill="black"/>
            <path d="M177.984 166.68C180.592 166.566 183.238 167.394 185.809 166.535C186.142 166.421 186.203 165.874 185.809 165.791C183.14 165.244 180.607 166.376 177.984 166.573C177.916 166.573 177.916 166.68 177.984 166.68Z" fill="black"/>
            <path d="M203.013 297.716C204.006 291.546 199.275 286.426 192.511 286.426C185.748 286.426 179.371 291.546 178.378 297.716L177.794 301.324H172.722L168.544 327.278L184.671 335.073L203.316 327.278L207.471 301.438H202.398L202.99 297.716H203.013ZM184.656 297.716C185.126 294.806 188.159 292.481 191.541 292.481C194.922 292.481 197.205 294.806 196.735 297.716L196.151 301.324H184.072L184.656 297.716ZM197 323.092L185.862 327.749L176.225 323.092L178.735 307.494H199.51L197 323.092Z" fill="black"/>
            <path d="M150.301 156.484C156.329 157.57 162.501 154.425 167.255 150.983C170.136 148.894 172.904 146.645 175.959 144.799C177.673 143.758 179.455 142.952 181.328 142.231C182.109 141.934 183.307 141.798 183.921 141.129C184.087 140.947 184.08 140.628 183.837 140.506C182.344 139.739 179.94 141.007 178.613 141.577C175.671 142.846 173.033 144.685 170.478 146.592C164.215 151.249 158.49 156.111 150.324 156.385C150.264 156.385 150.241 156.484 150.309 156.499L150.301 156.484Z" fill="black"/>
            <path d="M159.339 143.963C160.916 143.811 162.349 142.702 163.76 142.018C165.291 141.281 167.247 140.757 168.4 139.48C168.529 139.336 168.43 139.131 168.248 139.116C166.573 138.956 164.829 139.967 163.358 140.681C161.887 141.395 159.999 142.041 159.021 143.408C158.862 143.629 159.074 143.993 159.339 143.963Z" fill="black"/>
            <path d="M149.558 135.765C154.32 131.738 159.567 129.087 165.61 127.613C166.194 127.469 165.943 126.549 165.36 126.709C159.385 128.342 153.903 131.366 149.316 135.53C149.149 135.682 149.392 135.909 149.558 135.773V135.765Z" fill="black"/>
            <path d="M268.788 390.885C271.654 389.958 274.3 388.674 276.908 387.162C277.431 386.858 276.961 386.045 276.438 386.349C273.875 387.838 271.29 389.274 268.757 390.809C268.719 390.832 268.742 390.9 268.788 390.885Z" fill="black"/>
            <path d="M268.598 387.565C270.554 385.635 272.647 383.819 275.02 382.429C277.211 381.145 279.668 380.598 281.882 379.443C282.2 379.276 282.056 378.736 281.692 378.752C276.658 378.987 271.153 383.356 268.196 387.162C267.976 387.443 268.333 387.831 268.598 387.565Z" fill="black"/>
            <path d="M273.397 401.415C276.059 401.674 278.311 400.215 280.54 398.946C283.042 397.525 286.272 396.15 288.167 393.947C288.486 393.582 288.19 392.982 287.682 393.111C282.36 394.494 278.91 399.637 273.284 400.625C272.814 400.709 272.973 401.37 273.39 401.408L273.397 401.415Z" fill="black"/>
            <path d="M151.575 141.881C151.954 140.331 152.811 139.017 153.554 137.619C153.888 136.988 154.138 136.198 154.555 135.628C155.222 134.709 154.949 134.39 155.457 135.4C155.965 136.411 155.745 138.447 155.889 139.572C156.102 141.152 156.367 142.725 156.633 144.297C156.663 144.457 156.898 144.472 156.966 144.343C158.483 141.63 160.12 138.979 161.864 136.403C162.585 135.332 163.29 133.243 163.206 135.75C163.153 137.292 162.903 138.865 162.766 140.407C162.744 140.696 163.161 140.78 163.29 140.552C163.957 139.42 164.601 138.113 165.458 137.11C166.633 135.735 166.391 136.517 166.808 137.968C166.921 138.364 167.528 138.196 167.422 137.801C167.187 136.935 166.959 136.084 166.679 135.241C166.595 134.99 166.292 134.967 166.148 135.173C165.693 135.818 163.699 139.313 163.373 139.328C163.578 139.321 163.866 133.82 163.896 133.433C163.919 133.182 163.585 133.144 163.464 133.319C161.523 136.069 159.976 139.625 157.793 142.14C157.057 142.983 157.118 143.462 156.67 141.912C156.466 141.182 156.481 140.309 156.39 139.556C156.155 137.589 155.927 135.613 155.73 133.638C155.708 133.44 155.442 133.326 155.328 133.531C153.979 136.023 150.696 138.797 150.885 141.805C150.908 142.178 151.469 142.299 151.568 141.896L151.575 141.881Z" fill="black"/>
            <path d="M184.671 370.113C185.528 369.239 186.65 367.059 187.833 367.12C188.819 367.165 189.16 368.381 189.903 369.004C190.047 369.125 190.191 369.141 190.366 369.065C191.571 368.533 192.443 367.621 193.444 366.77C194.202 366.132 194.96 365.501 195.711 364.863C196.56 364.453 197.136 364.696 197.432 365.593C198.122 366.018 198.38 367.059 199.388 367.006C200.298 366.96 200.677 365.593 200.95 365.015C201.443 362.386 203.27 361.718 206.447 363.009C206.614 363.23 206.819 363.427 207.054 363.587C206.91 363.701 209.67 363.655 207.88 363.648C207.933 363.648 207.979 363.602 207.979 363.549C208.062 362.022 207.812 357.493 211.05 358.2C211.762 358.36 212.998 360.092 213.491 360.571C213.544 360.616 213.612 360.548 213.567 360.495C212.687 359.598 210.663 356.491 208.98 357.235C206.94 358.139 209.624 363.336 206.356 362.022C205.029 361.49 205.196 360.175 203.225 360.882C202.421 361.171 201.906 361.756 201.435 362.432C201.117 362.888 200.935 363.366 200.685 363.875L199.881 365.684C198.448 365.395 197.462 364.643 196.909 363.427C196.765 363.192 196.477 363.176 196.28 363.344C193.884 365.38 190.942 369.331 188.129 365.615C187.977 365.418 187.75 365.418 187.598 365.615C186.506 367.036 185.384 368.419 184.459 369.954C184.383 370.083 184.565 370.227 184.671 370.113Z" fill="black"/>
            <path d="M214.537 360.836C214.818 359.211 215.182 357.638 215.698 356.073C216.069 354.926 216.501 353.801 217.009 352.699C218.063 352.259 218.928 352.433 219.58 353.231C220.702 353.641 222.089 354.774 223.409 354.348C224.569 353.976 224.379 353.854 224.516 352.722C224.872 349.668 223.765 341.273 229.126 345.474C229.262 345.58 229.459 345.406 229.33 345.269C228.64 344.6 227.01 342.397 225.774 342.876C224.773 343.263 224.455 346.097 224.318 346.804C224.197 347.465 224.099 348.126 224.046 348.802C224.015 349.174 224.341 352.525 224.197 352.722L221.506 353.763C220.482 353.338 219.557 352.768 218.73 352.046C218.958 352.145 218.389 351.697 218.275 351.689C217.115 351.59 217.623 351.317 216.82 351.902C216.137 352.395 215.887 354.037 215.645 354.789C215.015 356.757 214.682 358.785 214.454 360.836C214.454 360.89 214.53 360.897 214.545 360.852L214.537 360.836Z" fill="black"/>
            <path d="M178.234 270.455C179.136 269.589 181.699 266.687 183.322 267.675C182.844 267.386 184.118 270.258 183.989 269.946C184.065 270.113 184.345 270.144 184.459 270.007C185.179 269.141 188.47 265.038 189.676 265.205C190.767 265.357 191.192 267.204 191.867 268.093C191.988 268.252 192.223 268.29 192.337 268.093C193.641 265.866 197.91 261.984 198.13 266.581C198.137 266.793 198.395 266.907 198.554 266.755C198.865 266.451 199.184 266.155 199.502 265.859C200.7 264.605 202.33 264.689 204.393 266.11C204.362 266.262 204.537 266.459 204.696 266.337C206.212 264.788 208.123 264.78 210.436 266.307C210.534 266.52 210.875 266.368 210.807 266.148C210.473 265.076 209.973 264.468 208.745 264.256C207.41 264.028 205.75 265.54 204.908 265.281C204.127 265.046 204.089 263.716 202.793 263.64C201.974 263.595 201.185 264.111 200.533 264.514C198.903 265.54 198.66 266.527 198.554 263.754C198.554 263.572 198.395 263.473 198.228 263.504C196.682 263.762 195.302 264.21 194.043 265.198C191.988 266.816 191.715 268.07 190.851 264.187C190.805 263.99 190.548 263.891 190.381 263.997C189.334 264.658 188.326 265.335 187.378 266.125C186.37 266.968 183.769 270.873 183.944 266.543C183.951 266.33 183.724 266.246 183.557 266.322C181.358 267.272 179.629 268.457 178.029 270.227C177.901 270.372 178.105 270.577 178.242 270.44L178.234 270.455Z" fill="black"/>
        </g>
    </g>
</svg>
