<svg width="574" height="456" viewBox="0 0 574 456" fill="none" xmlns="http://www.w3.org/2000/svg">
    <g clip-path="url(#clip0_1_664)">
        <mask id="mask0_1_664" style="mask-type:luminance" maskUnits="userSpaceOnUse" x="82" y="20" width="410" height="416">
            <path d="M492 20H82V436H492V20Z" fill="white"/>
        </mask>
        <g mask="url(#mask0_1_664)">
            <path d="M466.497 435.675C466.497 435.675 486.347 432.834 491.242 412.704L413.658 331.932C413.658 331.932 409.273 332.706 406.953 334.51C406.953 334.51 397.419 327.024 396.382 320.83C396.382 320.83 400.767 315.666 396.127 306.12C396.127 306.12 377.823 328.317 363.649 333.473C363.649 333.473 366.997 337.344 370.608 337.344C374.22 337.344 377.568 337.344 378.859 336.57C378.859 336.57 382.208 337.599 384.017 338.637C385.827 339.674 391.232 344.83 392.005 347.153C392.005 347.153 388.139 352.572 388.912 355.414L466.497 435.675Z" fill="#9BE887"/>
            <path d="M385.301 194.713C385.301 194.713 407.471 135.356 347.154 71.3603C286.838 7.36509 200.739 31.6207 200.739 31.6207C200.739 31.6207 127.021 47.1047 100.211 133.815C100.211 133.815 72.3725 214.332 134.576 274.549C196.78 334.766 273.429 308.954 273.429 308.954L385.301 194.713Z" fill="#53B266"/>
            <path d="M322.107 167.028C273.452 167.028 234.014 206.737 234.014 255.728C234.014 304.719 273.46 344.428 322.107 344.428C370.755 344.428 410.201 304.719 410.201 255.728C410.201 206.737 370.755 167.028 322.107 167.028Z" fill="#9BE887"/>
            <path d="M322.571 192.058C286.899 192.058 257.978 221.175 257.978 257.09C257.978 293.006 286.899 322.123 322.571 322.123C358.243 322.123 387.165 293.006 387.165 257.09C387.165 221.175 358.243 192.058 322.571 192.058Z" fill="#9BE887"/>
            <path d="M358.986 175.111C353.387 172.339 347.634 169.265 341.525 167.841C335.973 166.54 330.25 165.828 324.543 165.782C312.271 165.696 300.927 168.135 289.691 173.074C275.068 179.508 259.595 189.681 251.127 203.601C244.755 214.076 239.489 224.822 236.071 236.636C235.754 237.736 237.463 238.2 237.78 237.108C240.618 227.307 244.423 217.064 250.593 208.819C255.62 202.099 261.752 195.611 268.209 190.246C282.09 178.711 301.26 169.676 319.246 168.135C325.765 167.578 332.501 168.321 338.873 169.707C345.693 171.185 352.436 172.633 358.97 175.126C358.986 175.126 358.994 175.111 358.978 175.103L358.986 175.111Z" fill="black"/>
            <path d="M309.232 343.847C317.097 344.908 325.727 345.713 333.622 344.652C341.517 343.592 349.01 341.424 356.225 338.381C370.083 332.559 382.904 323.571 392.508 311.958C412.583 287.664 419.465 251.749 405.863 222.608C397.681 205.08 385.61 189.627 369.062 179.384C368.088 178.78 367.198 180.313 368.173 180.917C396.351 198.36 412.823 232.827 408.724 265.878C405.144 294.763 386.314 321.527 360.068 334.177C344.68 341.594 326.245 345.086 309.248 343.808C309.232 343.808 309.224 343.832 309.248 343.839L309.232 343.847Z" fill="black"/>
            <path d="M292.204 173.694C285.33 176.195 277.922 179.09 271.874 183.224C265.642 187.482 259.935 192.615 255.017 198.337C244.77 210.244 237.826 224.644 234.865 240.066C229.498 267.999 237.749 298.123 257.847 318.407C268.271 328.921 280.071 337.29 294.354 341.625C295.444 341.958 295.916 340.247 294.826 339.914C269.361 332.18 250.972 311.346 242.033 286.704C232.444 260.265 235.893 226.951 253.091 204.251C258.187 197.524 264.373 191.648 271.171 186.669C277.937 181.715 284.51 177.108 292.22 173.702C292.235 173.702 292.22 173.671 292.212 173.678L292.204 173.694Z" fill="black"/>
            <path d="M305.961 320.095C308.521 320.799 311.065 321.519 313.586 322.34C319.424 324.244 325.881 324.051 331.928 323.323C343.675 321.899 353.805 317.625 363.023 310.185C370.261 304.34 376.903 296.853 381.288 288.608C383.855 283.793 385.092 278.296 386.361 273.023C387.861 266.791 388.503 260.443 388.572 254.048C388.588 252.91 386.817 252.91 386.801 254.048C386.732 260.272 386.136 266.489 384.566 272.528C383.229 277.692 380.669 282.12 378.117 286.75C373.717 294.724 367.917 301.111 361.105 307.073C352.467 314.629 341.772 320.327 330.204 321.225C322.177 321.852 313.918 321.272 305.969 320.072C305.954 320.072 305.946 320.095 305.969 320.102L305.961 320.095Z" fill="black"/>
            <path d="M361.151 309.55C370.779 302.435 379.818 292.789 384.365 281.571C388.974 270.213 389.802 257.207 387.567 245.199C383.522 223.475 369.077 204.298 348.771 195.371C311.08 178.819 263.453 206.295 258.156 247.142C254.63 274.324 267.799 300.941 291.346 314.838C292.328 315.419 293.217 313.886 292.235 313.305C272.168 301.468 257.886 278.636 260.043 254.861C261.914 234.29 273.413 214.835 290.952 203.88C304.995 195.1 323.546 191.408 339.708 195.758C359.318 201.031 376.424 217.095 382.95 236.357C391.905 262.765 382.618 292.146 361.12 309.527C361.105 309.535 361.12 309.558 361.136 309.55H361.151Z" fill="black"/>
            <path d="M308.459 344.258C314.553 345.473 320.816 345.225 326.987 345.047C332.485 344.885 339.035 344.513 344.123 342.299C344.688 342.051 344.371 341.184 343.822 341.192C338.007 341.215 332.052 342.856 326.245 343.437C320.437 344.018 314.406 343.669 308.498 343.917C308.312 343.925 308.25 344.219 308.451 344.258H308.459Z" fill="black"/>
            <path d="M305.366 319.839C311.962 323.509 318.69 323.161 325.982 322.727C326.554 322.696 326.693 322.022 326.26 321.697C324.126 320.102 320.329 321.318 317.793 321.132C313.563 320.822 309.642 319.723 305.381 319.808C305.366 319.808 305.358 319.832 305.381 319.832L305.366 319.839Z" fill="black"/>
            <path d="M359.094 175.413C353.341 169.436 342.847 167.105 334.859 167.562C334.558 167.578 334.48 168.011 334.79 168.104C338.849 169.289 342.971 170.303 346.992 171.619C351.013 172.935 354.841 174.855 358.932 175.699C359.102 175.73 359.226 175.536 359.102 175.405L359.094 175.413Z" fill="black"/>
            <path d="M362.906 334.626C369.835 340.061 376.663 339.581 383.754 334.727C388.665 331.367 392.632 327.295 396.104 322.479C400.04 317.037 400.481 312.678 397.573 306.554C397.016 305.377 394.975 306.213 395.454 307.452C396.746 310.789 398.277 314.226 396.545 317.749C395.586 319.7 394.171 321.535 392.872 323.261C389.686 327.519 385.842 331.034 381.326 333.852C378.365 335.703 375.086 337.088 371.536 336.539C368.652 336.09 366.239 334.526 363.556 333.512C362.953 333.279 362.388 334.224 362.906 334.626Z" fill="black"/>
            <path d="M460.519 429.76C437.058 404.444 412.761 379.909 389.33 354.562L388.936 356.072C399.615 351.697 409.768 343.212 414.369 332.505L413.055 332.675C415.954 335.617 419.04 338.389 421.901 341.362C422.326 341.811 423.007 341.13 422.581 340.681C419.72 337.7 417.068 334.503 414.245 331.483C413.905 331.119 413.155 331.166 412.931 331.653C408.245 341.803 398.679 350.126 388.464 354.322C387.837 354.577 387.567 355.29 388.069 355.832C411.5 381.14 435.496 406.023 460.249 430.039C460.434 430.224 460.713 429.946 460.535 429.752L460.519 429.76Z" fill="black"/>
            <path d="M430.492 349.901C440.228 360.709 450.25 371.269 460.249 381.829C467.185 389.161 474.222 396.4 481.213 403.685C483.447 406.015 485.682 408.338 487.917 410.668C488.474 411.249 489.324 411.86 489.727 412.557C489.827 412.735 490.167 412.89 490.229 413.084C490.585 414.183 489.928 411.311 489.858 413.579C489.796 415.639 487.847 418.604 486.827 420.346C485.76 422.173 484.515 423.899 483.092 425.471C480.896 427.894 478.297 429.961 475.459 431.587C472.853 433.081 469.605 434.707 466.559 435.04C465.956 435.102 465.948 436.062 466.559 436C479.256 434.637 488.265 424.689 491.961 412.929C492.062 412.619 491.946 412.279 491.729 412.046C474.075 393.69 456.421 375.349 438.488 357.28C435.936 354.709 433.369 352.154 430.778 349.623C430.593 349.437 430.314 349.716 430.492 349.909V349.901Z" fill="black"/>
            <path d="M407.812 335.254C408.16 335.075 412.707 332.908 412.776 333.086C413.024 333.697 410.031 337.352 409.892 337.522C408.384 339.341 406.76 341.068 405.221 342.864C401.734 346.928 397.62 351.032 392.462 352.789C391.967 352.959 392.183 353.741 392.678 353.571C398.03 351.744 402.004 348.423 406.079 344.614C409.111 341.78 414.632 336.825 414.361 332.226C414.338 331.824 414.099 331.491 413.712 331.375C411.725 330.771 408.639 332.854 406.922 333.721C405.909 334.232 406.799 335.765 407.812 335.254Z" fill="black"/>
            <path d="M389.531 355.158C388.943 354.554 390.412 352.673 390.66 352.007C391.077 350.9 391.503 349.53 392.168 348.547C392.462 348.113 391.758 347.71 391.464 348.136C390.42 349.661 388.765 350.815 388.123 352.642C387.683 353.889 387.257 355.36 388.278 356.412C389.075 357.233 390.327 355.979 389.531 355.158Z" fill="black"/>
            <path d="M378.264 336.941C381.62 338.443 384.311 340.147 387.049 342.67C389.585 345.008 391.333 347.827 393.591 350.366C394.124 350.962 395.269 350.335 394.975 349.561C393.653 346.077 390.436 342.701 387.544 340.456C385.572 338.923 380.916 334.89 378.272 336.461C378.109 336.562 378.079 336.848 378.272 336.941H378.264Z" fill="black"/>
            <path d="M395.625 320.544C395.524 323.927 398.115 327.612 400.048 330.214C402.399 333.365 405.615 335.37 408.539 337.901C409.621 338.838 410.858 336.995 409.683 336.423C406.304 334.774 403.93 331.607 401.826 328.588C399.994 325.948 399.205 322.588 397.295 320.095C396.777 319.413 395.648 319.584 395.617 320.552L395.625 320.544Z" fill="black"/>
            <path d="M394.132 350.885C397.581 350.536 400.558 347.873 403.133 345.736C405.971 343.375 408.461 340.944 409.768 337.429C410.317 335.943 407.928 335.285 407.394 336.771C405.167 342.887 398.648 345.798 393.668 349.181C392.995 349.638 393.15 350.985 394.132 350.885Z" fill="black"/>
            <path d="M386.593 335.617C387.234 334.564 388.077 331.824 388.997 331.143C391.209 329.509 390.281 334.774 390.32 335.912C390.443 339.62 391.016 343.297 391.82 346.913C391.959 347.54 392.802 347.439 392.995 346.913C395.238 340.642 397.132 334.27 399.027 327.891L397.256 327.651C397.179 333.581 395.802 340.99 397.589 346.704C397.852 347.556 399.066 347.563 399.329 346.704C400.69 342.221 402.066 337.739 403.443 333.256L401.679 333.016C401.656 336.09 401.734 339.008 402.878 341.888C403.195 342.678 404.324 342.786 404.595 341.888C405.36 339.395 406.226 336.926 407.054 334.456C407.402 333.426 405.778 332.985 405.43 334.007C404.587 336.477 403.775 338.962 402.878 341.416H404.595C403.597 338.66 403.45 335.919 403.473 333.016C403.481 331.986 402.004 331.816 401.71 332.776C400.342 337.259 398.973 341.741 397.589 346.224H399.329C398.447 343.197 399.004 339.829 399.043 336.717C399.081 333.604 399.027 330.67 399.066 327.651C399.081 326.613 397.589 326.443 397.295 327.411C395.354 333.775 393.421 340.131 391.835 346.588H393.011C391.92 341.865 391.379 337.096 391.286 332.257C391.263 330.903 391.542 329.044 389.856 328.797C389.724 328.781 389.57 328.781 389.477 328.897C388.023 330.786 387.242 333.31 386.484 335.555C386.461 335.633 386.577 335.679 386.616 335.61L386.593 335.617Z" fill="black"/>
            <path d="M356.983 212.52C357.656 214.308 358.924 215.431 360.184 216.855C362.033 218.946 363.78 221.129 365.404 223.397C368.521 227.748 371.212 232.572 373.23 237.534C375.248 242.497 376.632 247.823 377.112 253.189C377.614 258.832 376.447 263.965 376.006 269.524C375.936 270.399 377.352 270.817 377.707 269.989C381.953 260.125 379.068 246.499 375.155 237.008C373.098 232.014 370.384 227.47 367.221 223.103C364.639 219.534 361.313 214.03 357.122 212.388C357.045 212.357 356.952 212.45 356.983 212.528V212.52Z" fill="black"/>
            <path d="M373.222 282.538C370.771 286.247 368.211 289.886 364.863 292.843C363.688 293.88 365.42 295.622 366.587 294.569C370.121 291.372 372.89 287.493 373.81 282.786C373.88 282.43 373.431 282.229 373.23 282.538H373.222Z" fill="black"/>
            <path d="M451.394 420.563C461.818 414.702 470.827 407.285 474.315 395.548C474.423 395.184 473.89 395.053 473.758 395.393C469.582 406.07 460.195 413.649 450.536 419.084C449.577 419.626 450.436 421.104 451.402 420.563H451.394Z" fill="black"/>
            <path d="M464.873 413.974C464.819 412.387 465.205 410.908 466.025 409.546L465.097 409.422C465.994 414.059 468.415 418.495 470.765 422.529C471.16 423.21 472.088 422.854 472.15 422.15C472.876 413.943 473.503 405.706 474.446 397.522L472.892 397.731C475.312 408.253 475.892 419.014 479.403 429.264C479.581 429.791 480.261 429.651 480.323 429.141C481.321 420.98 483.13 411.659 480.339 403.693C480.277 403.507 480.006 403.538 479.999 403.739C479.48 412.271 481.182 420.477 479.403 429.017H480.308C477.408 418.658 477.532 407.633 474.415 397.313C474.152 396.438 472.923 396.64 472.861 397.522C472.312 405.737 471.43 413.951 470.657 422.15L472.041 421.77C469.691 417.651 468.128 413.246 466.017 409.019C465.855 408.686 465.306 408.686 465.144 409.019C464.339 410.653 463.999 412.139 463.999 413.966C463.999 414.531 464.85 414.524 464.873 413.966V413.974Z" fill="black"/>
            <path d="M480.192 402.671C480.13 406.542 481.019 410.622 481.506 414.462C481.885 417.489 482.535 420.377 484.051 423.048C484.546 423.915 485.922 423.528 485.914 422.544C485.899 417.953 486.517 413.138 488.195 408.841L487.244 408.578C486.765 411.396 486.486 414.617 487.438 417.334C487.716 418.131 489.069 418.325 489.255 417.334C489.796 414.493 489.092 411.295 488.188 408.578C488.018 408.051 487.237 408.137 487.221 408.709C487.097 413.246 485.814 417.884 484.035 422.041L485.868 422.281C483.262 416.057 484.035 408.33 480.285 402.647C480.254 402.601 480.176 402.617 480.176 402.678L480.192 402.671Z" fill="black"/>
            <path d="M177.316 40.3072C128.22 61.8609 96.2363 116.333 92.9111 168.762C91.1712 196.238 97.4426 223.769 111.586 247.436C125.722 271.088 146.964 289.359 171.764 301.119C197.638 313.39 227.433 319.042 255.782 313.584C256.602 313.429 256.424 312.004 255.581 312.105C204.157 318.221 149.068 296.784 118.793 253.87C86.4 207.937 89.354 147.456 116.296 99.7347C130.524 74.5345 151.844 53.9486 177.332 40.3227C177.347 40.3227 177.332 40.2995 177.324 40.3072H177.316Z" fill="black"/>
            <path d="M386.067 195.774C395.702 157.9 385.85 116.326 362.11 85.6365C339.971 57.0067 306.889 37.0788 271.673 29.36C248.328 24.2426 222.909 24.0181 199.989 31.2026C199.061 31.4968 199.448 32.8439 200.391 32.6504C239.071 24.6374 279.02 29.0891 313.942 48.0492C346.466 65.7087 371.652 94.803 382.649 130.331C389.237 151.629 389.198 173.864 386.051 195.759C386.051 195.774 386.067 195.782 386.074 195.759L386.067 195.774Z" fill="black"/>
            <path d="M97.1025 201.697C100.838 197.408 104.356 203.253 105.802 205.908C106.568 207.325 107.271 208.773 108.47 209.88C110.504 211.761 112.46 211.939 114.911 210.91C120.889 208.409 124.717 212.504 128.668 216.561C131.522 219.488 134.538 222.368 138.327 224.04C144.266 226.672 150.297 225.511 154.419 220.448C160.528 212.946 164.99 200.357 175.267 198.097C183.023 196.386 190.887 195.797 198.566 193.575C206.245 191.353 213.313 188.373 219.584 183.758C233.426 173.585 237.223 156.994 245.142 142.618C253.06 128.241 263.778 113.995 265.974 97.0792C266.222 95.1592 266.941 91.9927 264.675 90.9088C261.945 89.6082 258.682 92.9759 256.625 94.2688C254.785 95.4224 252.867 96.4985 250.903 97.4431C246.441 99.6031 246.58 95.7089 246.309 92.6121C245.876 87.7578 245.211 82.9191 244.144 78.1578C243.479 75.1849 243.085 71.4068 240.486 69.4093C237.888 67.4119 234.068 67.4506 231.122 67.6055C227.743 67.7758 224.402 68.5655 221.293 69.9048C219.43 70.71 217.667 71.701 216.019 72.8855C215.316 73.3887 214.612 73.9539 213.963 74.519C211.797 76.4003 212.176 76.2533 208.155 76.8339C207.042 76.9965 206.639 76.5939 205.464 77.1126C204.072 77.732 202.951 79.3268 201.992 80.4029C199.37 83.3372 197.004 86.4959 194.762 89.7243C189.805 96.8701 185.467 104.48 179.945 111.224C173.357 119.275 164.433 125.469 154.953 129.688C151.457 131.245 146.678 132.119 144.513 128.086C143.315 125.856 143.632 122.721 144.08 120.352C144.946 115.807 146.748 111.309 148.403 107.004C150.529 101.492 152.988 96.1037 155.741 90.8779C157.891 86.7978 160.381 82.6172 161.069 77.9875C161.758 73.3577 159.994 70.9732 157.852 67.288C154.396 61.3577 157.133 55.1409 161.417 50.4724C161.727 50.1318 161.224 49.6208 160.907 49.9615C156.762 54.4751 152.463 60.9241 155.417 67.1642C156.522 69.5022 158.401 71.1358 159.005 73.7526C159.608 76.3694 158.981 79.2571 158.069 81.781C156.267 86.7591 153.251 91.3037 150.986 96.0805C147.444 103.536 143.74 111.673 142.139 119.81C141.126 124.95 141.752 131.802 148.008 132.994C151.156 133.59 154.349 132.205 157.095 130.811C161.58 128.527 166.034 125.926 170.117 122.984C176.357 118.486 181.306 112.718 185.683 106.431C190.787 99.1076 195.11 91.234 200.67 84.2275C201.783 82.8185 203.183 80.6584 204.668 79.621C207.699 77.4997 208.859 79.3036 211.395 78.5294C212.509 78.1887 213.352 77.19 214.195 76.4623C216.313 74.6274 218.463 73.0094 221.015 71.8016C225.098 69.8739 229.668 68.999 234.169 69.3087C237.989 69.5719 240.749 71.0352 241.824 75.0687C242.505 77.6236 243.062 80.2094 243.533 82.8107C244.368 87.3862 244.268 92.0469 245.018 96.5914C245.35 98.6044 246.248 100.284 248.536 100.184C251.908 100.037 255.983 96.9476 258.682 95.1747C260.739 93.8275 264.01 91.3656 264.389 95.7243C264.605 98.225 263.453 101.6 262.796 103.962C260.484 112.323 256.308 120.011 251.978 127.466C247.647 134.922 242.806 142.703 239.133 150.816C235.298 159.286 232.174 168.251 225.995 175.382C215.076 187.978 197.832 192.685 181.956 195.038C177.695 195.673 173.148 195.913 169.398 198.244C165.647 200.574 163.552 204.43 161.263 207.929C158.177 212.628 155.038 219.751 150.104 222.739C144.467 226.138 137.801 222.995 133.331 219.186C129.89 216.244 127.176 212.342 123.178 210.081C120.348 208.479 118.407 208.602 115.437 209.353L114.401 209.981C111.354 210.731 109.143 209.965 107.759 207.666C107.032 206.644 106.537 205.467 105.91 204.391C105.106 203.005 104.248 201.573 102.871 200.675C100.83 199.343 98.3088 199.397 96.7313 201.279C96.4993 201.557 96.8937 201.952 97.1334 201.681L97.1025 201.697Z" fill="black"/>
            <path d="M170.643 298.348C168.663 294.74 166.243 290.575 166.428 286.324C166.552 283.56 168.129 280.208 170.929 279.271C173.426 278.435 176.203 279.891 178.654 280.285C185.219 281.346 190.431 276.98 196.092 274.464C200.113 272.675 204.451 272.28 208.635 273.805C212.586 275.245 214.651 278.42 217.868 280.827C219.6 282.128 221.572 282.887 223.714 282.198C225.338 281.671 226.552 280.347 228.207 279.867C230.689 279.155 232.955 279.867 235.073 281.207C235.592 281.532 236.048 280.827 235.692 280.402C233.774 278.133 230.534 277.011 227.611 277.7C224.881 278.342 223.35 280.982 220.103 279.604C217.914 278.675 216.306 276.368 214.457 274.913C207.939 269.795 200.09 270.368 193.068 273.984C187.616 276.786 183.495 279.295 177.2 277.831C173.651 277.003 170.326 276.314 167.441 279.093C161.255 285.047 166.196 293.246 170.457 298.495C170.542 298.603 170.704 298.464 170.643 298.348Z" fill="black"/>
            <path d="M338.741 150.313C336.684 146.063 334.882 140.419 337.442 136.029C340.373 131.005 345.67 132.344 350.487 132.359C357.176 132.39 361.445 126.623 364.507 121.226C365.234 119.949 365.876 118.594 366.255 117.17C366.363 116.759 366.378 115.544 366.61 115.203C367.399 114.042 368.899 114.53 370.036 115.722C373.501 119.361 372.24 124.935 373.052 129.425C373.57 132.282 374.954 134.922 376.98 136.997C378.109 138.158 379.285 138.979 380.8 139.544C382.022 140.001 387.342 140.442 385.301 143.345C385.177 143.523 385.463 143.748 385.61 143.585C387.435 141.526 384.945 140.481 383.306 139.575C380.824 138.197 377.993 135.65 376.571 133.18C374.862 130.215 374.823 126.832 374.498 123.526C374.15 119.988 373.307 116.062 370.253 113.833C368.637 112.648 366.27 111.828 365.335 113.964C364.832 115.102 365.018 116.744 364.615 117.975C364.12 119.469 363.285 120.863 362.435 122.179C360.764 124.741 358.429 128.295 355.73 129.921C351.075 132.723 345.492 129.17 340.589 130.997C337.194 132.266 334.944 135.642 334.426 139.157C333.761 143.655 335.702 147.239 338.679 150.367C338.718 150.406 338.772 150.36 338.749 150.313H338.741Z" fill="black"/>
            <path d="M340.017 156.468C340.481 157.482 340.945 158.535 341.177 159.627C341.409 160.718 341.308 161.81 341.247 162.948C341.216 163.552 342.144 163.668 342.29 163.087C342.909 160.757 342.128 157.831 340.365 156.189C340.164 156.003 339.901 156.236 340.009 156.468H340.017Z" fill="black"/>
            <path d="M185.049 315.496C194.058 321.364 204.173 325.204 214.519 327.999C224.773 330.771 235.622 332.575 246.271 332.25C246.773 332.234 246.75 331.545 246.271 331.491C235.499 330.229 224.858 328.828 214.38 325.909C204.374 323.122 194.808 319.065 185.25 315.047C184.979 314.931 184.833 315.357 185.057 315.504L185.049 315.496Z" fill="black"/>
            <path d="M191.003 326.923C196.239 330.887 203.353 333.225 209.485 335.47C216.236 337.94 223.203 340.015 230.318 341.075C230.898 341.161 231.161 340.348 230.565 340.17C223.868 338.219 217.156 336.423 210.583 334.077C204.072 331.754 197.901 328.162 191.32 326.164C190.841 326.017 190.655 326.66 191.003 326.923Z" fill="black"/>
            <path d="M393.281 130.548C395.864 139.281 397.782 148.525 398.602 157.598C399.421 166.672 399.151 175.134 399.104 183.921C399.104 184.316 399.731 184.424 399.808 184.014C403.257 166.316 399.793 147.116 393.397 130.501C393.366 130.424 393.25 130.455 393.274 130.532L393.281 130.548Z" fill="black"/>
            <path d="M401.262 133.737C405.066 147.216 406.049 161.074 404.023 174.933C403.945 175.475 404.688 175.715 404.858 175.165C409.111 161.407 407.889 146.512 401.362 133.699C401.331 133.645 401.246 133.683 401.262 133.737Z" fill="black"/>
            <path d="M395.075 99.4792C394.41 101.113 393.946 102.824 393.653 104.566C393.421 105.928 393.026 107.399 393.784 108.638C394.001 108.994 394.611 109.157 394.913 108.785C395.818 107.655 395.717 106.269 395.864 104.868C396.05 103.133 396.305 101.407 396.506 99.6728C396.607 98.7824 395.354 98.7902 395.075 99.4792Z" fill="black"/>
            <path d="M390.969 104.782C393.861 105.022 397.589 105.982 400.388 105.038C400.782 104.906 400.976 104.248 400.519 104.039C397.751 102.8 393.939 103.381 390.969 103.342C390.034 103.327 390.065 104.705 390.969 104.782Z" fill="black"/>
            <path d="M172.576 20.6426C171.54 23.2671 169.908 27.7962 171.88 30.3123C172.181 30.6994 172.738 30.4904 172.97 30.173C173.79 29.0504 173.713 27.6104 173.821 26.2787C173.96 24.56 174.091 22.8336 174.339 21.1303C174.509 19.969 173.017 19.5355 172.576 20.6426Z" fill="black"/>
            <path d="M167.905 25.6516C169.235 25.6594 170.496 25.8529 171.795 26.1394C172.816 26.3639 173.859 26.7897 174.811 26.209C175.205 25.969 175.298 25.4968 175.104 25.0942C174.54 23.9406 173.032 23.84 171.88 23.7703C170.488 23.6852 169.057 23.9019 167.704 24.2039C166.877 24.3897 167.078 25.6516 167.897 25.6594L167.905 25.6516Z" fill="black"/>
            <path d="M273.32 347.989C272.23 350.49 271.325 355.607 273.73 357.636C274.194 358.023 274.767 357.845 274.983 357.303C275.517 355.979 275.091 354.477 274.999 353.091C274.898 351.535 274.991 349.994 274.975 348.438C274.975 347.618 273.684 347.138 273.313 347.989H273.32Z" fill="black"/>
            <path d="M270.25 352.17C272.965 353.083 275.741 353.416 278.478 352.417C279.646 351.992 279.182 350.366 277.968 350.567C275.439 350.993 272.926 351.496 270.351 351.403C269.895 351.388 269.841 352.038 270.25 352.17Z" fill="black"/>
            <path d="M325.626 53.035C351.771 46.3537 379.308 40.6943 406.25 45.7034C429.332 50.0002 451.619 62.2557 463.945 82.803C470.711 94.0753 474.825 106.981 477.795 119.732C480.764 132.483 482.419 146.287 482.597 159.751C482.937 185.655 478.135 211.552 468.987 235.761C458.911 262.409 443.986 286.696 425.505 308.327C425.466 308.366 425.528 308.428 425.566 308.389C459.429 269.292 482.079 219.766 483.463 167.578C484.167 141.123 479.975 112.958 468.299 88.9966C457.759 67.35 438.14 53.4609 415.228 47.2518C385.68 39.2466 354.462 44.8053 325.611 52.9886C325.587 52.9886 325.595 53.035 325.618 53.0273L325.626 53.035Z" fill="black"/>
            <path d="M396.444 333.612C390.204 338.335 383.747 342.74 377.174 346.998C377.081 347.06 377.166 347.207 377.259 347.145C383.901 343.003 390.273 338.459 396.483 333.69C396.529 333.659 396.483 333.581 396.436 333.612H396.444Z" fill="black"/>
            <path d="M345.956 362.242C333.065 366.655 319.741 369.783 306.356 372.283C306.116 372.33 306.224 372.678 306.456 372.64C319.996 370.541 333.065 366.856 345.964 362.265C345.979 362.265 345.971 362.234 345.964 362.242H345.956Z" fill="black"/>
            <path d="M268.016 382.604C228.585 386.049 186.82 386.351 149.331 371.92C134.259 366.121 120.293 357.845 107.89 347.494C100.288 341.145 92.8648 334.177 88.1167 325.367C84.1884 318.074 83.0671 310.262 83.1213 302.087C83.2837 277.978 92.3312 254.69 105.941 235.08C106.219 234.685 105.585 234.337 105.299 234.708C92.2925 252.066 84.1497 273.333 82.3634 294.98C81.8067 301.746 81.7448 308.791 83.2373 315.457C85.5958 326.025 92.54 334.75 100.234 342.051C125.111 365.656 156.654 378.585 190.392 383.037C216.128 386.436 242.25 385.484 268.016 382.936C268.224 382.913 268.224 382.588 268.016 382.611V382.604Z" fill="black"/>
            <path d="M269.624 242.861C275.053 241.258 279.499 237.906 285.353 237.465C290.859 237.046 294.903 239.129 299.806 241.157C300.208 241.328 300.509 240.724 300.216 240.445C292.204 232.843 277.04 236.086 269.4 242.474C269.222 242.621 269.415 242.915 269.624 242.853V242.861Z" fill="black"/>
            <path d="M270.034 242.125C270.243 248.698 269.856 256.533 272.972 262.51C276.089 268.487 281.788 273.519 287.557 276.275C287.99 276.484 288.492 275.934 288.098 275.571C283.288 271.173 277.419 268.494 274.117 262.533C270.815 256.572 271.766 248.884 271.41 242.117C271.364 241.243 270.011 241.227 270.042 242.117L270.034 242.125Z" fill="black"/>
            <path d="M298.808 240.654C298.066 247.266 299.875 253.444 297.594 260.017C295.444 266.218 290.928 271.003 287.178 276.221C286.977 276.5 287.394 276.747 287.619 276.562C290.194 274.51 292.026 271.506 293.805 268.773C295.584 266.04 297.617 263.354 298.77 260.342C300.966 254.59 301.144 246.399 299.079 240.616C299.025 240.461 298.816 240.492 298.8 240.654H298.808Z" fill="black"/>
            <path d="M284.479 239.284C284.595 244.239 285.252 249.155 285.902 254.063C286.551 258.972 286.822 263.95 287.974 268.719C288.021 268.905 288.33 268.874 288.315 268.673C287.92 263.524 286.853 258.438 286.497 253.274C286.173 248.574 285.925 243.844 285.229 239.183C285.167 238.757 284.471 238.866 284.479 239.284Z" fill="black"/>
            <path d="M287.356 271.707C287.348 272.629 287.317 273.55 287.309 274.479C287.302 275.238 287.333 275.849 287.812 276.445C287.943 276.616 288.245 276.554 288.338 276.376C288.701 275.694 288.593 275.052 288.446 274.324C288.261 273.426 288.067 272.536 287.889 271.638C287.827 271.328 287.356 271.413 287.356 271.707Z" fill="black"/>
            <path d="M313.454 235.761C311.668 237.565 310.098 239.539 308.382 241.413C307.848 241.994 307.894 243.008 308.637 243.41C310.152 244.231 311.637 245.114 313.068 246.074C314.274 246.887 315.109 247.777 316.571 247.924C317.058 247.978 317.483 247.382 317.329 246.933C316.393 244.301 312.217 242.505 309.92 241.212L310.176 243.209C312.07 241.165 313.625 239.059 314.591 236.427C314.839 235.761 313.903 235.297 313.447 235.761H313.454Z" fill="black"/>
            <path d="M323.878 231.054C321.821 234.376 320.886 238.401 319.695 242.102C318.504 245.803 316.594 249.697 316.687 253.467C316.702 254.187 317.553 254.319 317.939 253.808C320.213 250.804 320.994 246.337 322.146 242.783C323.298 239.23 324.915 235.32 325.193 231.418C325.247 230.683 324.226 230.497 323.878 231.062V231.054Z" fill="black"/>
            <path d="M326.732 235.707C328.797 236.659 331.024 237.147 333.15 237.945L332.895 236.009C330.049 238.061 327.629 240.507 325.634 243.395C324.791 244.61 326.794 245.787 327.621 244.556C329.361 241.97 331.472 239.717 333.97 237.836C334.705 237.287 334.627 236.218 333.715 235.901C331.557 235.142 329.369 234.391 327.057 234.492C326.461 234.515 326.098 235.421 326.724 235.707H326.732Z" fill="black"/>
            <path d="M341.656 238.61C342.901 238.827 344.054 238.688 345.299 238.502C346.474 238.324 347.673 238.308 348.423 237.302C348.724 236.892 348.469 236.311 348.098 236.063C347.147 235.428 345.917 235.877 344.866 236.094C343.667 236.342 342.538 236.597 341.471 237.217C340.945 237.527 340.984 238.494 341.656 238.61Z" fill="black"/>
            <path d="M355.908 237.047C356.898 237.108 357.919 236.985 358.901 236.845C359.883 236.706 360.996 236.659 361.963 236.257C363.239 235.723 363.023 234.066 361.646 233.888C360.641 233.756 359.651 233.981 358.653 234.12C357.656 234.259 356.573 234.406 355.599 234.739C354.338 235.173 354.57 236.969 355.908 237.047Z" fill="black"/>
            <path d="M307.98 265.165C309.642 264.747 312.217 264.159 313.895 264.786C314.313 264.941 314.839 264.685 315.047 264.314C315.218 264.02 315.248 263.849 315.148 263.524C314.986 262.959 314.444 262.703 313.887 262.812C312.82 263.013 311.66 262.812 310.578 262.998C309.557 263.16 308.575 263.478 307.608 263.841C306.796 264.151 307.098 265.382 307.972 265.165H307.98Z" fill="black"/>
            <path d="M326.306 256.502C321.597 255.302 318.481 261.14 321.226 264.794C322.471 266.443 324.466 267.372 326.531 267.124C328.193 266.923 331.279 265.56 331.039 263.493C330.977 262.998 330.56 262.533 330.003 262.703C329.013 263.013 328.634 263.888 327.753 264.407C326.585 265.08 325.139 265.158 323.979 264.407C322.819 263.656 322.177 262.378 322.448 261.039C322.827 259.196 324.366 258.616 326.051 258.422C327.072 258.306 327.466 256.789 326.314 256.494L326.306 256.502Z" fill="black"/>
            <path d="M335.988 255C332.408 255.008 329.972 259.134 331.781 262.278C333.591 265.421 338.331 265.614 340.473 262.881C343.095 259.529 340.419 253.893 335.919 254.814C335.207 254.961 334.217 255.379 334.202 256.247C334.186 256.843 334.627 257.137 335.168 257.214C336.22 257.369 337.117 256.881 338.122 257.532C339.298 258.29 339.607 259.986 338.927 261.186C337.96 262.897 335.06 262.951 333.908 261.395C332.555 259.568 334.179 256.641 336.135 256.107C336.746 255.937 336.63 254.992 335.988 254.992V255Z" fill="black"/>
            <path d="M343.311 254.133C343.249 256.239 343.52 258.275 343.775 260.365C343.938 261.682 343.891 263.207 345.237 263.88C347.502 265.018 350.611 263.702 351.918 261.697C353.225 259.692 353.016 256.525 351.261 254.721C349.412 252.817 345.778 252.414 343.86 254.412C343.28 255.023 343.852 256.247 344.742 255.921C346.42 255.31 348.222 254.838 349.606 256.378C350.773 257.679 350.835 259.792 349.559 261.039C349.01 261.573 348.214 261.952 347.448 262.022C346.049 262.161 346.056 261.178 345.902 260.017C345.623 257.958 345.376 255.937 344.788 253.932C344.548 253.111 343.342 253.281 343.311 254.133Z" fill="black"/>
            <path d="M355.398 252.979C354.949 254.59 354.795 255.952 354.934 257.632C355.019 258.693 355.027 260.156 355.924 260.915C356.821 261.674 358.151 261.434 359.241 261.256C360.602 261.031 362.319 260.869 363.131 259.653C363.425 259.212 363.131 258.585 362.644 258.453C361.731 258.198 361.051 258.569 360.169 258.809C359.512 258.987 357.888 259.56 357.37 259.15C356.828 258.716 356.96 256.982 356.921 256.316C356.852 255.232 356.666 254.218 356.542 253.134C356.473 252.523 355.599 252.306 355.413 252.979H355.398Z" fill="black"/>
            <path d="M355.39 253.444C356.991 254.334 359.806 253.909 361.275 252.863C361.515 252.693 361.522 252.26 361.19 252.19C360.161 251.973 359.164 252.105 358.135 252.221C357.176 252.329 356.248 252.345 355.398 252.848C355.174 252.98 355.166 253.32 355.398 253.452L355.39 253.444Z" fill="black"/>
            <path d="M356.782 257.927C357.78 257.787 358.8 257.942 359.79 257.818C360.78 257.694 361.043 256.394 360.03 256.03C358.793 255.581 357.331 255.999 356.187 256.51C355.313 256.905 356.001 258.035 356.782 257.919V257.927Z" fill="black"/>
            <path d="M308.652 272.574C307.871 275.23 307.144 277.94 306.224 280.549C305.66 282.144 304.105 284.056 304.855 285.751C305.103 286.301 305.807 286.324 306.271 286.123L306.433 286.053C306.711 285.929 306.959 285.504 306.92 285.202L306.897 285C306.804 284.226 306.008 283.855 305.397 284.373L305.752 284.195L306.75 284.954C306.595 284.482 307.616 282.732 307.771 282.337C308.181 281.245 308.559 280.131 308.869 279C309.441 276.895 309.627 274.882 309.603 272.706C309.603 272.164 308.815 272.056 308.66 272.582L308.652 272.574Z" fill="black"/>
            <path d="M317.584 277.785C319.471 278.056 321.961 277.522 323.716 276.817C324.675 276.438 324.675 274.75 323.453 274.843C321.559 274.99 319.022 275.54 317.437 276.631C317.042 276.902 317.004 277.7 317.584 277.785Z" fill="black"/>
            <path d="M329.121 276.329C331.093 276.174 333.398 275.919 335.246 275.199C336.39 274.758 336.344 272.869 334.936 272.907C332.949 272.962 330.714 273.581 328.835 274.208C327.745 274.572 327.845 276.422 329.121 276.322V276.329Z" fill="black"/>
            <path d="M340.783 274.556C342.066 274.51 343.334 274.115 344.564 273.79C345.948 273.426 345.33 271.212 343.976 271.653C342.77 272.048 341.471 272.396 340.373 273.054C339.708 273.449 339.963 274.58 340.783 274.556Z" fill="black"/>
            <path d="M348.786 276.624C351.044 274.998 352.537 272.149 353.341 269.532L350.951 269.842C352.011 271.243 352.954 272.714 353.743 274.285C354.3 275.4 354.555 277.258 355.993 277.498C356.689 277.614 357.308 277.212 357.339 276.476V276.329C357.362 276.012 357.161 275.679 356.882 275.524L356.751 275.447C356.465 275.284 356.047 275.315 355.815 275.571L355.746 275.648C355.491 275.919 355.498 276.314 355.746 276.585L355.815 276.662L355.692 275.725L355.599 275.857L356.403 275.393C357.091 275.307 355.552 272.451 355.351 272.063C354.725 270.832 353.998 269.663 353.202 268.525C352.513 267.542 351.253 267.782 350.812 268.835C349.869 271.111 348.508 273.109 347.479 275.331C347.123 276.097 347.928 277.235 348.771 276.624H348.786Z" fill="black"/>
            <path d="M350.085 274.27C351.075 274.293 352.05 274.216 353.032 274.1C353.936 273.991 354.748 273.906 355.475 273.325C356.017 272.892 355.638 272.094 355.104 271.909C354.292 271.614 353.395 271.87 352.575 272.056C351.663 272.257 350.774 272.489 349.892 272.814C349.134 273.101 349.219 274.247 350.085 274.27Z" fill="black"/>
            <path d="M360.78 268.549C361.074 269.981 361.205 271.405 361.283 272.861C361.329 273.674 361.468 275.083 362.659 274.866C364.855 274.456 363.1 269.245 362.644 268.038C362.187 266.83 360.525 267.318 360.78 268.556V268.549Z" fill="black"/>
            <path d="M359.001 272.203C360.819 272.11 362.775 272.056 364.252 270.879C364.615 270.585 364.376 270.02 363.989 269.896C362.265 269.346 360.424 270.012 358.777 270.554C357.919 270.833 358.012 272.249 359.001 272.203Z" fill="black"/>
            <path d="M362.218 267.604C360.942 269.408 359.659 271.196 358.646 273.171C358.445 273.558 358.46 274.092 358.8 274.402C358.939 274.533 359.063 274.611 359.249 274.665C359.674 274.781 360.169 274.587 360.393 274.2C361.515 272.226 362.334 270.12 363.169 268.014C363.401 267.426 362.535 267.163 362.218 267.612V267.604Z" fill="black"/>
            <path d="M358.166 268.874C359.574 269.95 360.857 271.142 362.164 272.327C363.247 273.302 364.198 274.386 365.59 274.897C366.061 275.075 366.657 274.518 366.456 274.03C365.242 271.08 361.259 269.439 358.53 268.231C358.089 268.038 357.779 268.58 358.158 268.874H358.166Z" fill="black"/>
        </g>
    </g>
</svg>
