<svg width="574" height="456" viewBox="0 0 574 456" fill="none" xmlns="http://www.w3.org/2000/svg">
    <g clip-path="url(#clip0_1_174)">
        <mask id="mask0_1_174" style="mask-type:luminance" maskUnits="userSpaceOnUse" x="118" y="26" width="338" height="404">
            <path d="M456 26H118V430H456V26Z" fill="white"/>
        </mask>
        <g mask="url(#mask0_1_174)">
            <path d="M177.497 85.6427C177.497 85.6427 197.672 101.947 194.334 149.97C194.334 149.97 193.97 152.185 194.707 152.793C195.444 153.401 196.663 153.537 196.663 153.537C196.663 153.537 194.907 163.087 194.734 171.666L162.034 194.87L140.595 210.248C140.595 210.248 129.425 222.966 125.795 228.631C122.166 234.296 117.154 241.976 119.101 248.276C121.047 254.576 140.176 267.158 140.176 267.158L252.931 354.534L290.543 383.593C290.543 383.593 302.395 392.19 333.968 403.292C365.54 414.395 405.162 428.166 405.162 428.166C405.162 428.166 415.168 429.383 423.154 421.812C431.141 414.241 441.046 399.516 441.046 399.516L455.2 365.119C455.2 365.119 454.672 360.635 451.698 354.916C449.196 350.086 444.894 344.685 438.326 337.259C423.973 321.045 385.26 274.411 385.26 274.411C385.26 274.411 368.742 259.015 360.464 252.443C352.187 245.87 326.672 226.334 326.672 226.334C326.672 226.334 349.804 191.42 335.596 131.151L335.65 127.347L337.579 124.279L335.596 121.592V118.687C335.596 118.687 323.725 91.4708 343.555 52.6622L342.936 51.128C342.936 51.128 331.412 61.2319 313.511 67.3505C313.511 67.3505 303.714 63.3743 300.576 54.3507C300.576 54.3507 299.785 54.2418 298.202 55.8032C296.619 57.3646 286.523 68.6486 274.243 69.393C274.243 69.393 256.333 64.8903 248.537 41.8684L244.381 53.7334L236.394 73.7142C236.394 73.7142 227.662 74.3496 223.924 71.4356C220.185 68.5215 218.593 65.9797 218.593 65.9797C218.593 65.9797 214.973 84.2356 201.547 91.7885L196.09 91.8158L177.515 85.6336L177.497 85.6427Z" fill="#77CD77"/>
            <path d="M249.22 35.6227C251.641 35.6227 253.604 33.6637 253.604 31.2471C253.604 28.8305 251.641 26.8715 249.22 26.8715C246.798 26.8715 244.835 28.8305 244.835 31.2471C244.835 33.6637 246.798 35.6227 249.22 35.6227Z" fill="#9BE887"/>
            <path d="M219.921 59.1984C221.79 59.1984 223.305 57.6864 223.305 55.8214C223.305 53.9563 221.79 52.4443 219.921 52.4443C218.053 52.4443 216.538 53.9563 216.538 55.8214C216.538 57.6864 218.053 59.1984 219.921 59.1984Z" fill="#9BE887"/>
            <path d="M168.726 82.9362C171.54 81.3143 172.827 78.2782 171.598 76.155C170.37 74.0318 167.092 73.6254 164.278 75.2473C161.463 76.8693 160.177 79.9053 161.405 82.0285C162.633 84.1517 165.911 84.5581 168.726 82.9362Z" fill="#9BE887"/>
            <path d="M302.232 47.4513C304.13 47.4513 305.67 46.0938 305.67 44.4193C305.67 42.7447 304.13 41.3872 302.232 41.3872C300.333 41.3872 298.793 42.7447 298.793 44.4193C298.793 46.0938 300.333 47.4513 302.232 47.4513Z" fill="#9BE887"/>
            <path d="M350.168 51.7635C351.976 51.7635 353.442 50.3003 353.442 48.4954C353.442 46.6905 351.976 45.2273 350.168 45.2273C348.359 45.2273 346.893 46.6905 346.893 48.4954C346.893 50.3003 348.359 51.7635 350.168 51.7635Z" fill="#9BE887"/>
            <path d="M414.422 88.6748C414.422 88.6748 422.427 70.5732 405.017 60.2242C387.607 49.8753 373.099 69.7017 374.063 88.003C375.027 106.304 387.698 135.962 387.698 135.962C387.698 135.962 425.665 136.589 440.828 121.9C455.991 107.212 453.48 94.3758 448.732 89.8368C443.984 85.2978 435.67 73.6234 415.05 89.3557" fill="#77CD77"/>
            <path d="M157.923 140.274C157.923 140.274 154.648 128.654 164.481 124.842C174.314 121.029 177.852 134.346 177.352 140.901C176.852 147.455 170.821 164.794 170.985 164.24C171.148 163.687 148.954 160.064 143.187 152.502C137.42 144.94 138.03 137.869 147.126 135.708C147.126 135.708 153.047 135.418 157.923 140.274Z" fill="#9BE887"/>
            <path d="M335.241 126.594L337.169 123.525L335.186 120.838V117.933C335.186 117.933 323.316 90.7173 343.145 51.9087L342.527 50.3745C342.527 50.3745 331.002 60.4783 313.101 66.5969C313.101 66.5969 303.305 62.6207 300.167 53.5972C300.167 53.5972 299.375 53.4882 297.793 55.0497C296.21 56.6111 286.113 67.8951 273.834 68.6395C273.834 68.6395 255.923 64.1368 248.128 41.1149L243.971 52.9799L235.985 72.9606C235.985 72.9606 227.253 73.5961 223.514 70.682C219.776 67.768 218.184 65.2261 218.184 65.2261C218.184 65.2261 214.564 83.4821 201.138 91.035L195.68 91.0622L177.106 84.8801C177.106 84.8801 197.281 101.184 193.943 149.207C193.943 149.207 193.579 151.422 194.316 152.03C195.053 152.639 196.272 152.775 196.272 152.775L197.663 146.865C197.663 146.865 218.129 127.193 260.126 117.361C302.122 107.53 327.891 117.516 327.891 117.516L332.139 121.446L335.25 126.603L335.241 126.594Z" fill="#9BE887"/>
            <path d="M249.411 313.02C260.153 322.389 272.023 330.759 283.293 339.501C287.459 342.733 291.289 345.865 295.337 349.151C307.398 358.946 320.423 365.891 334.704 371.619C363.111 383.003 391.773 393.733 420.143 405.226C422.69 406.261 424.973 407.55 427.993 408.031C435.625 409.248 439.245 403.837 442.183 397.836C446.294 389.412 450.397 380.997 454.099 372.382C457.392 364.72 456.355 358.837 451.616 352.038C450.597 350.585 448.414 351.829 449.223 353.436C451.188 357.339 452.944 361.642 452.034 366.109C451.243 369.985 449.06 373.662 447.513 377.266C444.421 384.492 441.901 392.081 438.572 399.18C436.343 403.928 432.259 406.697 426.902 405.235C425.346 404.808 423.9 404.082 422.408 403.474C421.244 402.993 420.071 402.53 418.897 402.058C406.317 397.029 393.71 392.054 381.112 387.07C366.267 381.196 351.559 374.987 336.733 369.068C323.307 363.712 310.609 358.02 298.802 349.396C282.338 337.368 266.857 323.769 249.911 312.394C249.529 312.14 249.074 312.73 249.42 313.029L249.411 313.02Z" fill="black"/>
            <path d="M194.343 171.721C186.503 175.951 179.426 181.706 172.04 186.663C165.063 191.356 158.368 196.458 151.501 201.306C146.162 205.073 137.438 209.186 134.81 215.622C132.427 221.468 135.983 226.861 140.249 230.683C145.261 235.176 151.201 238.835 156.567 242.874C167.201 250.881 177.707 259.06 188.258 267.167C203.64 278.987 218.029 292.44 234.484 302.798C235.803 303.634 237.322 301.7 236.167 300.629C224.851 290.144 211.844 281.874 199.546 272.641C188.54 264.371 177.661 255.929 166.728 247.577C160.342 242.693 154.084 237.645 147.699 232.761C144.306 230.174 140.567 227.65 138.43 223.856C133.518 215.123 145.188 209.022 150.91 204.574C157.995 199.064 165.2 193.708 172.313 188.225C179.589 182.614 187.585 177.975 194.835 172.356C195.207 172.066 194.734 171.512 194.343 171.721Z" fill="black"/>
            <path d="M330.184 229.139C344.792 241.549 359.937 253.505 374.527 265.996C379.948 270.635 384.505 275.746 389.162 281.129C402.752 296.861 416.187 312.694 429.494 328.671C433.951 334.018 438.154 340.218 443.466 344.757C444.093 345.293 444.985 344.63 444.603 343.877C442.01 338.766 437.553 334.39 433.933 329.987C427.257 321.853 420.462 313.81 413.667 305.776C403.034 293.185 393.019 279.677 381.349 268.002C373.826 260.477 364.894 254.058 356.535 247.495C348.057 240.841 339.225 234.94 330.211 229.103C330.193 229.094 330.165 229.121 330.184 229.139Z" fill="black"/>
            <path d="M121.911 235.821C118.355 240.65 116.254 245.707 119.901 251.135C121.729 253.859 124.349 255.947 126.869 257.989C129.388 260.032 131.781 261.857 134.246 263.772C145.161 272.251 156.022 280.784 166.973 289.227C195.953 311.559 224.569 334.354 253.568 356.658C258.689 360.598 263.764 364.593 268.931 368.469C270.468 369.622 271.96 370.657 273.643 371.555C274.252 371.882 275.826 372.781 275.598 372.609C276.444 373.262 277.272 371.819 276.435 371.174C277.063 371.655 275.889 370.548 275.453 370.058C274.498 368.968 273.488 368.006 272.369 367.098C268.531 363.975 264.556 361.007 260.644 357.984C248.201 348.379 235.703 338.865 223.141 329.406C195.899 308.908 168.956 288.001 141.868 267.294C137.966 264.317 134.082 261.312 130.171 258.352C129.315 257.708 128.451 257.081 127.587 256.437C125.841 255.148 124.076 253.832 122.566 252.261C117.563 247.032 118.937 241.676 121.939 235.848C121.948 235.821 121.92 235.803 121.902 235.83L121.911 235.821Z" fill="black"/>
            <path d="M280.428 375.859C282.411 379.535 286.859 381.714 290.097 384.201C293.745 387.006 297.556 389.557 301.613 391.745C308.844 395.649 316.339 398.535 324.062 401.277C332.785 404.373 341.499 407.495 350.222 410.573C361.829 414.676 373.335 418.97 384.869 423.246C391.882 425.842 399.641 429.927 407.282 430C415.577 430.082 420.998 425.642 426.301 419.76C430.913 414.64 435.097 408.939 439.5 403.683C440.428 402.575 438.836 400.968 437.899 402.085C434.506 406.152 431.013 410.201 427.102 413.759C420.971 419.342 417.005 426.296 407.755 426.332C400.487 426.369 393.019 422.093 386.306 419.778C368.278 413.569 350.186 407.55 332.221 401.15C323.825 398.154 315.612 395.231 307.425 391.7C302.131 389.412 297.174 387.052 292.335 383.902C289.67 382.168 287.259 380.243 284.776 378.273C283.33 377.129 282.284 376.294 280.474 375.786C280.437 375.777 280.41 375.813 280.428 375.849V375.859Z" fill="black"/>
            <path d="M342.381 238.689C320.032 263.236 298.866 288.973 277.518 314.391C274.298 318.231 271.387 322.752 267.794 326.256C267.457 326.583 267.976 327.091 268.303 326.764C277.69 317.587 285.913 307.092 294.391 297.097C307.444 281.719 320.651 266.441 333.44 250.845C336.633 246.95 339.907 243.128 342.672 238.916C342.791 238.735 342.518 238.526 342.372 238.68L342.381 238.689Z" fill="black"/>
            <path d="M267.011 326.374C260.908 334.19 253.713 341.471 248.055 349.578C247.373 350.558 248.883 351.684 249.693 350.839C256.542 343.74 262.454 335.298 268.321 327.373C268.876 326.619 267.594 325.621 267.011 326.365V326.374Z" fill="black"/>
            <path d="M340.717 267.848C336.906 270.862 333.831 275.101 330.766 278.842C326.7 283.816 322.77 288.909 318.786 293.947C315.121 298.595 311.346 303.162 307.589 307.728C304.442 311.55 300.067 315.462 298.42 320.201C296.274 326.383 300.54 331.258 306.234 333.292C311.928 335.325 315.475 332.429 319.023 328.217C326.127 319.784 332.976 311.105 339.662 302.345C344.055 296.58 348.567 290.906 352.896 285.096C355.944 281.011 359.9 276.844 362.047 272.205C362.493 271.243 361.374 270.272 360.537 271.044C357.808 273.585 355.771 276.917 353.469 279.84C350.368 283.78 347.275 287.72 344.191 291.669C337.497 300.238 330.638 308.69 323.798 317.151C321.224 320.328 318.695 323.542 316.094 326.701C313.492 329.86 310.782 331.812 306.57 330.142C303.705 329.007 300.994 326.719 300.585 323.442C300.303 321.163 302.322 318.376 303.55 316.624C309.117 308.627 315.557 301.056 321.642 293.448C328.064 285.423 336.269 277.217 340.881 267.966C340.935 267.857 340.808 267.766 340.717 267.839V267.848Z" fill="black"/>
            <path d="M358.281 275.592C365.194 272.696 365.267 262.428 359.728 258.144C357.381 256.319 353.488 254.975 350.531 255.983C348.976 256.51 348.003 257.88 346.957 259.06C345.374 260.84 343.609 262.392 342.745 264.616C342.563 265.079 343.155 265.415 343.527 265.215C345.738 264.026 347.22 261.829 348.885 259.986C351.277 257.345 354.77 257.426 357.654 259.324C360.055 260.903 361.319 263.799 361.238 266.641C361.137 269.909 358.509 272.006 357.681 274.992C357.59 275.319 357.927 275.746 358.281 275.592Z" fill="black"/>
            <path d="M325.581 286.44C326.163 289 329.702 290.144 331.721 291.587C334.732 293.748 337.579 296.09 340.962 297.651C341.208 297.76 341.417 297.497 341.244 297.288C339.07 294.619 336.36 292.686 333.631 290.625C331.985 289.39 330.356 288.156 328.765 286.848C327.682 285.959 327.455 285.695 326.027 285.85C325.717 285.886 325.499 286.122 325.572 286.44H325.581Z" fill="black"/>
            <path d="M304.36 313.102C300.994 313.629 297.201 320.927 295.573 323.451C292.344 328.462 293.608 333.292 298.366 336.687C303.377 340.273 308.635 340.264 312.919 335.843C314.602 334.109 318.659 330.278 318.559 327.808C318.531 327.164 317.967 326.746 317.34 326.882C315.593 327.273 314.065 330.096 312.974 331.394C309.736 335.28 306.07 337.322 301.049 334.644C294.036 330.904 296.592 325.121 300.203 320.265C301.504 318.522 304.642 315.562 304.496 313.202C304.496 313.129 304.433 313.084 304.36 313.102Z" fill="black"/>
            <path d="M137.702 213.743C136.984 214.079 136.411 214.524 135.747 214.95C134.973 215.44 134.537 216.212 134.018 216.947C132.836 218.6 135.737 220.361 136.774 218.554C137.238 217.737 137.675 217.065 137.802 216.13C137.902 215.386 138.075 214.732 138.075 213.97C138.075 213.761 137.857 213.67 137.693 213.752L137.702 213.743Z" fill="black"/>
            <path d="M137.22 213.098C132.617 214.052 128.488 220.688 126.096 224.237C121.875 230.501 118.928 236.883 118.209 244.418C118.073 245.888 120.547 246.233 120.802 244.772C121.939 238.235 126.023 231.754 129.789 226.398C132.463 222.594 136.438 218.899 138.475 214.732C138.912 213.843 138.193 212.899 137.22 213.098Z" fill="black"/>
            <path d="M219.885 163.587C219.885 163.587 219.912 163.541 219.885 163.541C219.858 163.541 219.858 163.587 219.885 163.587Z" fill="black"/>
            <path d="M141.75 209.485C137.502 211.029 134.173 214.106 131.162 217.492L133.936 219.635C135.956 216.92 138.302 214.478 140.767 212.154C142.668 210.366 145.425 208.823 146.161 206.208C146.243 205.899 146.007 205.591 145.688 205.591C142.878 205.609 140.558 208.242 138.602 210.003C135.983 212.363 133.572 214.932 131.162 217.501C129.597 219.172 132.19 221.713 133.663 219.998C136.547 216.639 139.667 213.461 141.895 209.685C141.95 209.594 141.859 209.458 141.75 209.494V209.485Z" fill="black"/>
            <path d="M206.668 230.864C206.668 230.864 206.686 230.837 206.668 230.837C206.65 230.837 206.65 230.864 206.668 230.864Z" fill="black"/>
            <path d="M263.746 261.158C275.998 259.433 286.232 254.576 294.982 245.779C303.296 237.428 309.781 227.069 314.347 216.267C323.289 195.115 326.491 169.878 321.215 147.41C318.313 135.054 314.802 123.226 308.299 112.232C307.789 111.37 306.443 112.151 306.952 113.022C321.242 137.188 323.398 167.754 317.713 194.852C311.664 223.647 294.936 254.44 263.746 261.139C263.728 261.139 263.746 261.167 263.746 261.167V261.158Z" fill="black"/>
            <path d="M265.693 262.819C272.023 262.628 278.673 263.254 284.885 261.929C295.255 259.732 304.26 254.485 312.255 247.658C329.738 232.716 339.707 205.909 341.299 183.486C342.272 169.869 341.308 155.643 338.434 142.299C338.224 141.318 336.715 141.736 336.933 142.716C343.155 171.621 338.206 203.875 323.125 229.43C315.73 241.957 305.688 252.942 291.662 257.853C283.339 260.758 274.416 261.838 265.693 262.791C265.674 262.791 265.674 262.819 265.693 262.819Z" fill="black"/>
            <path d="M242.543 97.1712C242.543 97.1712 242.561 97.1445 242.543 97.1445C242.525 97.1445 242.525 97.1712 242.543 97.1712Z" fill="black"/>
            <path d="M206.268 151.531C203.312 162.434 201.893 173.591 202.484 184.947C203.185 198.483 207.46 211.047 213.136 223.257C213.418 223.865 214.318 223.338 214.036 222.73C203.63 200.326 202.757 175.597 206.286 151.54C206.286 151.531 206.277 151.522 206.268 151.54V151.531Z" fill="black"/>
            <path d="M309.017 200.571C318.559 172.982 315.666 141.482 299.348 116.98C298.975 116.426 298.075 116.944 298.448 117.507C314.257 141.237 315.357 173.591 308.999 200.571C308.999 200.58 309.008 200.589 309.017 200.571Z" fill="black"/>
            <path d="M249.529 251.662C253.931 252.424 257.033 252.76 261.481 251.771C265.929 250.781 270.186 249.737 274.352 247.668C283.466 243.129 289.351 235.258 294.491 226.743C295.009 225.88 293.663 225.1 293.145 225.953C283.976 241.086 266.939 250.336 249.538 251.635C249.529 251.635 249.52 251.653 249.538 251.662H249.529Z" fill="black"/>
            <path d="M210.734 136.861C198.809 164.013 198.91 196.903 213.163 223.248C213.481 223.838 214.382 223.311 214.064 222.721C207.023 209.703 204.722 194.625 204.294 179.973C203.867 165.321 206.214 150.796 210.753 136.87C210.753 136.87 210.743 136.852 210.734 136.87V136.861Z" fill="black"/>
            <path d="M197.836 147.201C194.307 155.38 194.434 165.72 193.916 174.48C193.597 179.891 194.107 185.129 194.643 190.512C194.652 190.639 194.852 190.648 194.852 190.512C194.698 185.247 195.426 179.945 195.371 174.662C195.335 170.586 195.562 166.519 195.989 162.47C196.517 157.395 197.881 152.357 198.054 147.264C198.054 147.155 197.881 147.101 197.836 147.21V147.201Z" fill="black"/>
            <path d="M335.778 135.263C335.832 137.279 336.096 138.958 336.587 140.928C337.024 142.698 337.306 144.832 338.334 146.357C338.425 146.493 338.661 146.484 338.707 146.311C339.134 144.632 338.606 142.553 338.243 140.892C337.761 138.713 337.115 137.079 335.905 135.236C335.869 135.182 335.787 135.2 335.787 135.272L335.778 135.263Z" fill="black"/>
            <path d="M276.199 125.867C274.088 124.887 271.96 124.061 269.795 123.444C269.677 123.407 269.522 123.48 269.477 123.643C268.576 126.92 267.739 130.234 266.975 133.575C266.757 134.51 266.42 137.551 265.747 138.077L264.81 137.941C264.346 137.714 263.855 137.369 263.555 137.233C262.964 136.97 262.373 136.716 261.781 136.452C262.345 133.974 262.909 131.505 263.473 129.027C263.764 127.728 264.064 126.439 264.374 125.141C264.665 123.925 264.847 122.309 265.402 121.292C265.538 121.047 265.465 120.729 265.247 120.629C263.237 119.703 261.226 118.796 259.198 117.97C259.053 117.824 258.825 117.824 258.752 118.088C257.688 121.882 256.96 125.895 255.96 129.726C255.732 130.588 255.487 131.441 255.196 132.258C255.141 132.404 255.096 132.649 255.014 132.749C254.959 132.803 254.941 132.839 254.932 132.857C254.932 132.839 254.905 132.821 254.823 132.83C254.741 132.83 254.186 132.385 254.041 132.313C253.659 132.113 253.267 131.913 252.885 131.723C250.002 130.234 247.082 128.845 244.226 127.238C243.817 127.011 243.562 127.538 243.662 127.946C243.098 129.372 242.78 131.124 242.416 132.676C241.988 134.519 241.606 136.38 241.242 138.25C241.17 138.613 241.406 138.885 241.634 138.913C243.034 139.067 244.781 139.285 246.127 140.311C246.809 140.991 247.528 141.908 247.883 142.979C248.283 144.641 247.682 146.402 247.273 147.991C246.736 150.088 246.236 152.212 245.736 154.327C244.972 157.495 244.371 160.736 243.589 163.886C242.761 167.2 241.843 170.486 241.015 173.809C240.369 176.396 239.714 178.965 239.196 181.616C239.196 181.616 239.196 181.616 239.196 181.625C238.877 182.623 238.577 183.631 238.186 184.557C237.44 185.565 236.567 186.136 235.366 185.483C235.157 185.374 234.966 185.247 234.766 185.111C233.802 184.112 232.574 182.569 231.864 184.357C231.21 186.009 230.436 187.816 229.863 189.668L229.827 189.75V189.822C229.554 190.685 229.336 191.556 229.19 192.428C229.172 192.527 229.208 192.673 229.281 192.709C231.064 193.68 232.683 195.051 234.411 196.222C236.021 197.321 237.631 198.437 239.196 199.672C238.468 201.288 238.213 203.612 237.822 205.391C237.286 207.824 236.831 210.311 236.294 212.753C236.249 212.962 236.349 213.289 236.503 213.38C238.213 214.342 239.878 215.54 241.606 216.403C241.834 216.521 242.061 216.248 242.116 215.958C242.58 213.607 243.125 211.31 243.762 209.049C244.199 207.488 244.963 205.809 245.126 204.111C246.318 204.628 247.446 205.309 248.547 206.154C247.983 208.133 247.546 210.202 247.082 212.218C246.536 214.578 245.963 216.975 245.681 219.435C245.654 219.653 245.745 219.834 245.891 219.898C247.637 220.697 249.365 221.595 251.021 222.748C251.248 222.903 251.521 222.748 251.576 222.394C252.212 218.128 253.277 214.106 254.832 210.384C256.697 211.546 258.752 212.417 260.708 213.053C262.773 213.734 264.81 213.952 266.893 213.534C268.74 213.162 270.313 212.2 271.732 210.529C273.206 208.804 274.77 206.916 275.871 204.683C276.435 203.53 277.163 202.522 277.663 201.315C278.172 200.071 278.545 198.701 278.8 197.302C278.864 196.939 278.918 196.567 278.964 196.204C278.964 196.168 278.982 196.122 278.991 196.086C279.801 191.202 278.664 186.917 277.508 184.557C276.644 182.796 275.116 180.926 274.216 179.973C274.843 179.845 275.471 179.555 276.098 179.155C276.135 179.137 276.162 179.11 276.199 179.092C276.226 179.074 276.262 179.056 276.29 179.037C276.608 178.838 276.917 178.602 277.208 178.338C278.382 177.34 279.437 176.069 280.155 174.943C280.774 173.99 281.311 172.946 281.774 171.83C282.011 171.303 282.229 170.74 282.402 170.123C283.084 167.999 283.475 165.693 283.503 163.323C283.503 162.652 283.503 161.953 283.457 161.254C283.448 159.592 283.303 158.013 282.948 156.76C282.493 154.327 281.747 152.021 280.601 150.215C278.591 147.046 275.671 144.205 272.833 142.662C272.706 142.553 272.633 142.498 272.633 142.498L272.76 141.872C273.079 140.982 273.406 139.811 273.442 139.666C273.797 138.214 274.097 136.725 274.352 135.218C274.57 133.929 274.725 132.458 274.961 131.024L275.316 129.281C275.434 128.818 275.562 128.373 275.716 127.955C275.835 127.737 275.971 127.456 276.062 127.175C276.162 126.975 276.271 126.775 276.39 126.594C276.553 126.349 276.435 125.976 276.226 125.877L276.199 125.867ZM254.777 163.723C255.341 161.471 255.86 159.184 256.442 156.932C257.179 154.073 258.088 151.349 258.88 148.535C261.672 149.416 264.337 151.231 266.639 153.682C267.803 154.917 269.095 156.397 269.658 158.349C270.277 160.464 269.813 162.933 269.195 164.903C268.658 166.61 267.848 168.189 266.593 168.915C265.156 169.742 263.273 169.506 261.745 169.17C260.226 168.834 258.725 168.334 257.324 167.39C256.369 166.746 255.487 166.029 254.468 165.802C254.568 165.112 254.668 164.422 254.777 163.723ZM257.006 198.138C255.25 197.72 253.558 196.885 251.912 195.904C251.057 195.396 250.211 194.833 249.365 194.279C248.965 194.016 248.492 193.889 248.319 193.254C248.274 192.727 248.647 191.738 248.756 191.22C248.938 190.376 249.111 189.523 249.283 188.669C249.602 187.072 249.956 185.492 250.311 183.903C250.657 182.315 251.003 180.726 251.348 179.146C251.566 178.166 251.885 177.113 252.049 176.051C252.121 176.024 252.203 175.996 252.294 175.987C252.613 175.606 252.931 175.588 253.24 175.924C253.495 176.014 253.759 176.214 254.004 176.359C255.341 177.122 256.678 177.885 257.97 178.801C258.507 179.174 259.025 179.582 259.544 180C259.935 180.345 260.317 180.69 260.69 181.053C263.428 183.695 266.257 187.979 265.602 192.99C264.892 198.437 260.18 198.909 257.006 198.156V198.138Z" fill="black"/>
            <path d="M189.277 204.402C198.537 213.525 209.261 221.287 219.485 229.275C234.393 240.932 249.365 252.506 264.255 264.171C268.512 267.503 273.033 270.481 277.281 273.803C277.918 274.302 278.745 273.531 278.182 272.904C269.558 263.336 258.025 255.929 247.919 248.067C232.992 236.456 217.893 225.072 202.821 213.661C198.455 210.357 193.888 207.37 189.459 204.166C189.322 204.066 189.158 204.284 189.277 204.402Z" fill="black"/>
            <path d="M196.172 153.319C192.47 151.722 201.511 144.368 202.657 143.433C205.613 141.037 208.761 138.876 212.008 136.906C217.438 133.611 223.16 130.788 228.999 128.282C243.125 122.218 258.043 118.496 273.197 116.208C288.224 113.948 304.506 112.278 319.414 116.154C322.088 116.853 339.289 122.844 334.841 126.013C333.222 127.166 334.777 129.862 336.414 128.691C342.864 124.106 335.541 119.159 331.048 116.98C322.297 112.741 312.974 111.034 303.278 110.653C273.179 109.482 242.734 118.569 216.392 132.758C209.761 136.334 203.394 140.519 197.909 145.694C196.199 147.301 190.678 152.693 195.971 153.755C196.235 153.81 196.454 153.41 196.172 153.292V153.319Z" fill="black"/>
            <path d="M331.557 121.927C331.557 121.927 331.584 121.882 331.557 121.882C331.53 121.882 331.53 121.927 331.557 121.927Z" fill="black"/>
            <path d="M328.783 118.079C330.356 119.958 331.584 122.663 332.658 124.887C333.667 126.966 334.204 129.317 335.332 131.305C335.441 131.505 335.796 131.478 335.841 131.242C336.269 128.981 335.423 126.349 334.486 124.306C333.158 121.41 331.33 119.912 328.992 117.87C328.846 117.743 328.655 117.933 328.783 118.079Z" fill="black"/>
            <path d="M194.28 151.803C196.863 139.657 195.799 125.786 192.97 113.757C190.523 103.363 185.729 92.0337 177.443 84.9256C176.433 84.0631 175.151 85.3613 175.997 86.369C183.283 95.0203 188.376 103.98 190.932 115.083C193.734 127.284 192.688 139.475 193.98 151.767C193.998 151.921 194.234 151.985 194.271 151.803H194.28Z" fill="black"/>
            <path d="M335.696 73.2602C336.86 70.9271 337.551 68.4125 338.443 65.9705C339.616 62.7841 341.29 60.1878 342.991 57.2919C343.855 55.8213 341.435 54.4868 340.744 55.9847C339.48 58.7444 338.625 61.6675 337.47 64.4908C336.314 67.3141 335.241 70.0829 334.977 73.0695C334.941 73.4417 335.523 73.5961 335.696 73.2602Z" fill="black"/>
            <path d="M337.933 124.197C336.369 117.579 334.34 111.243 333.567 104.434C332.84 98.0614 333.404 91.9792 334.222 85.6427C334.431 84.0177 331.757 83.9632 331.621 85.6427C330.593 97.9616 331.548 113.285 337.224 124.488C337.424 124.887 338.024 124.606 337.924 124.188L337.933 124.197Z" fill="black"/>
            <path d="M176.433 85.8969C189.422 93.1502 207.369 97.7165 221.158 90.1636C234.002 83.1371 241.779 68.0222 245.163 54.3053C245.454 53.1161 243.78 52.6985 243.353 53.806C238.313 66.8511 233.966 80.9039 220.722 88.0484C213.681 91.8521 205.713 92.2152 197.936 90.9533C190.632 89.7641 184.028 86.5777 176.933 84.7258C176.242 84.5442 175.796 85.5338 176.442 85.8969H176.433Z" fill="black"/>
            <path d="M247.91 41.3964C253.595 57.8095 265.865 70.1556 283.484 72.7973C302.268 75.6115 321.579 66.8239 336.496 56.2117C336.669 56.0846 336.524 55.8123 336.323 55.9212C321.142 64.1732 304.078 71.6444 286.45 71.1996C277.708 70.9817 269.022 68.3581 262.345 62.5936C255.887 57.0197 251.548 49.1127 248.683 41.1876C248.51 40.7064 247.728 40.9061 247.901 41.4054L247.91 41.3964Z" fill="black"/>
            <path d="M336.423 56.0845C337.651 55.3038 338.97 54.7864 340.162 53.9421C341.235 53.1796 342.281 52.3625 343.291 51.5183C343.809 51.0825 343.036 50.2837 342.536 50.7648C341.617 51.6544 340.671 52.5078 339.68 53.3248C338.579 54.2326 337.606 55.2857 336.396 56.0482C336.369 56.0664 336.396 56.1027 336.423 56.0845Z" fill="black"/>
            <path d="M200.783 92.1789C212.099 88.0665 215.964 76.2651 219.303 65.6982H217.429C220.431 72.8245 229.145 75.3845 236.367 74.4858C237.14 74.3859 237.504 73.1604 236.567 72.9788C229.827 71.6534 222.432 72.5249 219.203 64.9448C218.857 64.1277 217.647 64.4545 217.42 65.1808C214.218 75.4571 210.234 85.9877 200.756 92.1426C200.738 92.1516 200.756 92.188 200.774 92.1789H200.783Z" fill="black"/>
            <path d="M273.324 69.4474C284.903 69.4474 293.008 61.7039 300.903 54.1872L299.548 53.8332C301.276 59.8156 306.898 68.0403 313.983 67.7408C314.229 67.7317 314.284 67.4412 314.102 67.305C311.591 65.4168 308.717 64.4091 306.379 62.2032C303.778 59.7521 302.113 56.8108 301.113 53.3975C300.949 52.8437 300.176 52.5714 299.757 53.0434C292.708 60.8687 284.239 68.2219 273.324 69.3566C273.27 69.3566 273.27 69.4384 273.324 69.4384V69.4474Z" fill="black"/>
            <path d="M299.403 42.1951C297.847 42.7943 297.365 44.9549 298.284 46.2893C299.675 48.3046 302.95 48.232 305.006 47.4785C307.262 46.6434 307.698 44.1015 306.306 42.2678C304.915 40.434 301.185 40.0981 299.548 41.9319C299.266 42.2496 299.321 42.9214 299.83 43.0031C301.158 43.2028 302.377 42.6309 303.696 43.0939C304.733 43.4479 305.67 44.8822 304.405 45.6085C303.414 46.1804 301.549 46.3801 300.485 46.0079C299.221 45.5722 298.065 43.5478 299.594 42.6763C299.839 42.5401 299.675 42.1043 299.393 42.2133L299.403 42.1951Z" fill="black"/>
            <path d="M249.356 27.3889C246.9 26.7172 243.544 29.2681 243.498 31.8372C243.425 35.3141 248.137 36.3036 250.784 35.9677C253.959 35.5682 256.342 32.4091 255.168 29.2499C253.74 25.3918 248.774 25.2919 245.863 27.3072C245.363 27.6522 245.326 28.6145 246.054 28.7506C247.6 29.0411 249.465 28.8051 250.921 29.3589C252.703 30.0397 252.867 31.7464 251.548 33.0355C250.229 34.3246 247.082 34.3609 245.881 32.7268C244.681 31.0928 247.846 27.8882 249.32 27.6976C249.474 27.6794 249.538 27.4525 249.356 27.4071V27.3889Z" fill="black"/>
            <path d="M222.168 51.8814C219.194 51.4093 215.883 52.6984 215.528 56.0664C215.255 58.6082 217.829 61.0684 220.385 60.1424C222.941 59.2164 224.751 56.03 224.078 53.3974C223.514 51.2005 219.594 49.5211 218.484 52.1356C218.302 52.5713 218.493 53.2522 219.094 53.1886C220.176 53.0797 221.422 53.1886 222.077 54.1781C223.087 55.7032 221.622 58.0272 220.112 58.6718C217.939 59.5977 217.111 57.0559 218.02 55.4854C218.848 54.0692 220.64 53.3883 222.177 53.0706C222.75 52.9526 222.778 51.9722 222.177 51.8814H222.168Z" fill="black"/>
            <path d="M166.937 75.0032C164.99 75.1031 163.262 75.1394 161.643 76.3468C160.224 77.4089 158.914 79.3062 159.451 81.1763C160.697 85.4793 166.973 84.9437 169.92 83.1825C173.168 81.2489 175.551 77.3544 172.267 74.2316C168.984 71.1087 163.953 72.8426 162.025 76.3559C161.752 76.8551 162.225 77.6722 162.844 77.418C164.572 76.7099 166.664 75.212 168.565 75.3936C169.602 75.4934 171.003 76.3105 171.276 77.4089C171.612 78.7888 170.33 79.9144 169.42 80.677C167.719 82.0932 163.844 83.8997 161.97 81.5213C159.942 78.9431 165.045 75.5025 166.955 75.1212C167.028 75.1031 167.01 74.9941 166.937 74.9941V75.0032Z" fill="black"/>
            <path d="M348.949 45.7991C346.402 45.6085 344.828 48.3046 345.938 50.5106C347.257 53.1432 350.513 53.6062 352.942 52.3171C355.371 51.028 357.354 47.533 355.043 45.1455C353.206 43.2391 348.858 43.4479 347.648 45.9443C347.43 46.3892 347.593 46.9611 348.121 47.0973C349.213 47.3878 350.122 46.9702 351.195 46.9792C352.423 46.9974 352.924 47.8961 352.123 48.8493C351.414 49.6845 350.058 50.3654 348.967 49.9296C347.648 49.4031 347.712 47.4513 349.14 47.0973C349.895 46.9157 349.676 45.8536 348.967 45.7991H348.949Z" fill="black"/>
            <path d="M342.563 52.2536C341.317 55.3947 339.452 58.581 339.007 61.9581C338.943 62.4574 339.716 62.766 340.026 62.3757C342.136 59.7067 343.118 56.1481 344.501 53.0616C345.128 51.6636 343.127 50.8102 342.554 52.2446L342.563 52.2536Z" fill="black"/>
            <path d="M333.485 107.603C322.215 102.365 308.08 102.383 295.9 102.02C282.711 101.62 269.959 102.074 257.015 104.843C245.281 107.348 233.82 111.107 223.123 116.553C213.163 121.628 202.502 128.736 195.626 137.714C195.444 137.95 195.826 138.214 196.026 138.023C200.619 133.793 204.813 129.671 209.988 126.058C214.4 122.981 219.003 120.139 223.751 117.634C234.257 112.087 245.608 108.029 257.306 105.914C269.758 103.672 282.475 102.719 295.127 103.027C308.189 103.345 320.242 106.241 332.894 108.955C333.676 109.119 334.277 107.966 333.467 107.593L333.485 107.603Z" fill="black"/>
            <path d="M158.514 141.4C158.414 136.216 157.459 130.379 162.553 127.029C168.738 122.953 174.468 129.671 175.232 135.372C176.433 144.278 172.786 154.99 169.984 163.387C169.502 164.839 171.785 165.457 172.276 164.022C175.815 153.673 184.083 133.384 172.122 125.25C161.707 118.178 152.592 132.458 158.005 141.536C158.141 141.763 158.514 141.672 158.505 141.4H158.514Z" fill="black"/>
            <path d="M158.632 141.427C153.729 131.714 136.22 132.585 137.375 145.322C138.648 159.438 159.524 162.924 170.275 165.402C171.767 165.747 172.404 163.469 170.912 163.115C166.282 162.016 161.734 160.591 157.259 159.002C152.783 157.414 147.308 155.743 143.642 152.266C139.303 148.154 137.602 139.575 144.888 137.278C150.2 135.608 154.13 139.139 158.277 141.799C158.514 141.954 158.76 141.654 158.641 141.436L158.632 141.427Z" fill="black"/>
            <path d="M442.001 119.903C438.299 121.238 435.179 124.115 431.695 125.958C427.247 128.309 422.481 130.034 417.597 131.251C407.518 133.747 397.294 133.311 387.143 134.891C385.842 135.091 386.252 137.015 387.443 137.088C397.985 137.678 409.738 135.944 419.889 133.148C427.111 131.16 438.663 127.538 442.429 120.457C442.565 120.194 442.329 119.794 442.01 119.912L442.001 119.903Z" fill="black"/>
            <path d="M413.503 91.0713C417.769 88.8926 420.926 85.57 425.656 84.0812C430.677 82.5016 436.371 82.538 441.119 84.989C445.467 87.2313 448.951 91.1984 450.533 95.8373C452.562 101.811 450.297 106.649 447.796 112.014C447.304 113.067 448.696 114.429 449.551 113.367C457.383 103.635 453.972 89.7187 443.448 83.5093C438.281 80.4682 432.032 79.9144 426.274 81.376C421.281 82.6469 415.004 85.6154 412.958 90.6537C412.821 90.9805 413.249 91.2075 413.503 91.0713Z" fill="black"/>
            <path d="M412.967 91.5979C419.962 84.281 418.015 70.6094 411.657 63.6284C404.362 55.6216 391.427 54.9135 382.85 61.2954C372.353 69.1116 371.962 84.1085 373.162 95.9009C373.926 103.336 375.464 110.707 377.865 117.788C380.057 124.243 382.668 131.314 387.016 136.634C387.607 137.351 388.926 136.58 388.598 135.717C386.57 130.361 383.623 125.414 381.631 120.012C379.639 114.611 378.074 109.01 377.01 103.336C375 92.6146 373.644 79.397 379.302 69.511C384.651 60.1697 397.212 56.8744 406.527 62.4211C411.184 65.1899 414.031 70.2554 415.168 75.439C416.441 81.2489 414.859 86.0512 412.585 91.3255C412.485 91.5525 412.757 91.8157 412.949 91.6069L412.967 91.5979Z" fill="black"/>
            <path d="M353.87 165.257C352.032 173.6 351.132 182.07 349.44 190.467C347.748 198.864 344.874 207.089 343.3 215.54C343.155 216.303 344.146 216.784 344.583 216.085C349.367 208.505 351.678 199.409 353.388 190.694C355.098 181.979 355.889 173.927 354.443 165.266C354.397 164.976 353.924 164.994 353.87 165.266V165.257Z" fill="black"/>
            <path d="M363.257 156.833C363.366 164.259 362.465 171.811 361.237 179.128C360.128 185.701 358.427 192.246 358.245 198.928C358.218 199.926 359.8 200.462 360.228 199.463C365.895 186.482 367.141 170.441 363.502 156.796C363.466 156.66 363.248 156.687 363.248 156.833H363.257Z" fill="black"/>
            <path d="M131.007 133.856C126.669 138.014 123.74 141.037 123.012 147.337C122.494 151.84 122.685 158.503 126.832 161.353C127.551 161.853 128.379 161.172 128.433 160.437C128.761 156.497 126.896 152.675 127.223 148.626C127.569 144.341 128.961 137.968 131.726 134.582C132.135 134.083 131.489 133.393 130.998 133.856H131.007Z" fill="black"/>
            <path d="M388.962 47.5694C395.539 47.0792 402.943 48.1322 409.11 50.4653C412.557 51.7725 415.796 53.6608 418.652 55.9938C421.026 57.9365 422.781 60.669 425.446 62.2032C426.456 62.7842 427.493 61.831 427.293 60.787C426.02 54.0602 416.569 49.0219 410.775 46.8522C403.261 44.038 396.166 44.2014 388.944 47.4968C388.908 47.5149 388.926 47.5785 388.962 47.5785V47.5694Z" fill="black"/>
            <path d="M164.581 97.0447C164.508 99.1599 164.681 101.157 165.118 103.227C165.436 104.734 165.718 106.985 167.246 107.684C167.546 107.82 167.91 107.775 168.092 107.466C168.911 106.068 168.074 104.362 167.728 102.891C167.237 100.867 166.764 98.8421 166.255 96.8177C166.018 95.8645 164.608 96.1006 164.581 97.0447Z" fill="black"/>
            <path d="M162.17 104.407C165.345 103.962 169.756 104.08 172.503 102.301C173.004 101.974 172.995 101.075 172.322 100.939C169.011 100.286 164.917 102.029 161.725 102.809C160.66 103.073 161.143 104.552 162.17 104.407Z" fill="black"/>
            <path d="M351.186 96.3184C350.413 100.267 349.04 105.896 350.568 109.763C350.759 110.235 351.487 110.335 351.641 109.763C352.151 107.802 351.85 105.542 351.832 103.517C351.814 101.148 351.814 98.7967 351.978 96.4274C352.014 95.9735 351.268 95.8736 351.186 96.3184Z" fill="black"/>
            <path d="M345.665 104.97C348.148 105.088 350.568 105.07 353.051 104.942C354.934 104.843 356.89 104.933 358.299 103.526C358.745 103.081 358.563 102.464 358.118 102.119C356.435 100.83 354.115 101.33 352.123 101.475C349.813 101.638 347.584 101.938 345.301 102.328C343.746 102.6 344.219 104.888 345.656 104.961L345.665 104.97Z" fill="black"/>
            <path d="M135.737 286.05C135.201 289.154 136.065 293.248 138.393 295.463C139.003 296.044 139.958 295.609 139.994 294.801C140.14 291.923 139.066 288.392 137.884 285.768C137.484 284.878 135.91 285.087 135.737 286.05Z" fill="black"/>
            <path d="M132.308 292.105C135.837 292.704 139.33 292.767 142.559 291.079C143.241 290.725 142.959 289.481 142.15 289.572C138.939 289.935 135.792 290.561 132.544 290.352C131.553 290.289 131.307 291.941 132.308 292.105Z" fill="black"/>
            <path d="M298.529 402.557C306.634 408.131 315.148 412.561 324.153 416.51C332.094 419.996 340.608 423.954 349.285 424.98C350.122 425.08 350.331 423.854 349.695 423.473C341.917 418.87 332.794 416.201 324.498 412.634C316.203 409.066 307.689 405.035 299.221 401.377C298.42 401.032 297.792 402.049 298.529 402.557Z" fill="black"/>
            <path d="M196.299 224.083C196.872 232.189 196.508 244.291 203.612 249.746C204.294 250.273 205.231 249.256 204.776 248.584C200.028 241.549 199.273 231.999 196.672 224.037C196.608 223.847 196.281 223.865 196.299 224.092V224.083Z" fill="black"/>
            <path d="M220.876 266.523C225.497 270.626 230.664 273.467 236.558 275.319C241.306 276.817 248.565 278.932 253.313 276.717C253.822 276.481 253.804 275.637 253.313 275.392C251.403 274.43 249.665 274.384 247.546 274.157C244.39 273.812 241.233 273.195 238.15 272.432C232.283 270.998 226.543 268.747 221.031 266.314C220.913 266.259 220.758 266.414 220.876 266.514V266.523Z" fill="black"/>
            <path d="M210.707 237.409C212.59 242.929 216.064 247.54 220.158 251.662C223.933 255.466 228.935 260.05 234.175 261.593C234.529 261.693 234.775 261.239 234.529 260.985C230.591 257.036 225.652 254.167 221.713 250.11C217.775 246.052 214.555 241.531 210.916 237.282C210.834 237.182 210.661 237.282 210.698 237.409H210.707Z" fill="black"/>
            <path d="M240.697 264.326C241.797 264.789 242.88 265.324 243.989 265.76C244.917 266.123 245.836 266.396 246.764 265.923C247.073 265.769 247.219 265.279 247.009 264.988C246.382 264.117 245.427 263.954 244.39 263.845C243.198 263.718 241.988 263.708 240.797 263.618C240.351 263.581 240.36 264.19 240.697 264.326Z" fill="black"/>
            <path d="M275.589 259.805C280.31 259.868 285.04 259.841 289.761 259.732C289.97 259.732 290.088 259.415 289.879 259.315C288.105 258.498 284.303 257.535 282.957 256.065C281.956 254.975 282.366 255.584 283.939 255.32C285.358 255.084 286.832 255.057 288.26 254.921C293.736 254.422 299.203 253.931 304.678 253.459C305.033 253.432 305.151 252.906 304.769 252.815C302.413 252.234 300.139 251.39 298.056 250.128C294.618 248.049 293.208 247.25 297.438 246.469C302.723 245.507 307.998 244.545 313.292 243.628C313.729 243.555 313.702 242.865 313.292 242.774C310.5 242.148 307.753 241.395 305.069 240.405C299.093 238.19 302.877 238.58 306.37 237.618C312.137 236.039 317.813 234.15 323.398 232.008C323.798 231.854 323.926 231.155 323.398 231.064C320.869 230.646 318.359 230.147 315.885 229.475C314.602 229.13 312.974 228.894 311.801 228.241C310.218 227.351 309.89 228.004 311.146 226.661C312.601 225.1 316.585 224.11 318.495 223.22C321.215 221.94 323.935 220.669 326.663 219.398C327.046 219.217 326.836 218.636 326.454 218.636C324.608 218.636 321.188 218.999 320.897 216.693C320.251 216.003 320.369 215.54 321.26 215.332C322.006 214.859 322.752 214.387 323.507 213.924C325.999 212.354 328.492 210.793 330.993 209.249C331.348 209.031 331.23 208.396 330.766 208.423C329.956 208.469 329.147 208.532 328.337 208.596C327.81 208.641 327.801 209.449 328.337 209.422C329.656 209.367 329.065 209.295 329.056 209.422C329.01 209.994 325.772 211.482 325.317 211.773C323.071 213.171 320.824 214.578 318.577 215.976C318.359 216.112 318.268 216.475 318.486 216.657C319.623 217.592 320.76 218.4 322.17 218.89C322.661 219.063 323.18 219.162 323.68 219.299C325.163 219.68 325.208 219.026 323.798 219.834C318.914 222.639 313.392 224.736 308.289 227.097C307.926 227.26 308.098 227.732 308.39 227.85C311.564 229.121 314.793 230.22 318.122 231.018C318.623 231.136 321.488 231.59 321.542 231.69C321.533 231.663 318.368 232.888 317.804 233.088C311.91 235.212 305.897 236.883 299.794 238.272C299.403 238.363 299.293 238.989 299.676 239.161C301.604 240.051 303.541 240.877 305.552 241.567C306.971 242.057 308.544 242.638 310.018 242.92C311.218 243.147 312.128 242.838 310.554 243.219C304.824 244.617 298.82 245.28 293.008 246.279C292.635 246.342 292.553 246.85 292.79 247.096C294.418 248.721 296.146 250.128 298.175 251.226C298.984 251.662 299.848 252.07 300.712 252.397C302.068 252.906 304.36 252.633 302.086 253.014C295.018 254.213 287.614 254.167 280.483 254.894C280.192 254.921 279.955 255.384 280.31 255.538C281.875 256.219 283.43 256.909 284.985 257.599C286.25 258.162 289.251 258.443 287.105 259.115C285.677 259.569 283.321 259.06 281.793 259.06C279.728 259.06 277.663 259.088 275.598 259.188C275.216 259.206 275.216 259.778 275.598 259.787L275.589 259.805Z" fill="black"/>
            <path d="M209.843 91.7795C209.861 91.3619 209.688 86.9499 209.943 86.7321C210.507 86.2419 210.616 87.0044 211.316 87.6943C212.708 89.0742 214.272 90.1273 215.992 91.0714C216.164 91.1622 216.401 91.0895 216.447 90.8898C217.029 88.5568 213.581 77.6086 215.764 77.1366C216.374 77.0095 219.594 81.8299 220.221 82.4563C221.495 83.7182 222.668 84.3809 224.342 84.98C224.597 85.0708 224.797 84.7984 224.751 84.5715C224.315 82.538 223.96 80.4773 223.587 78.4347C223.423 77.5632 222.041 73.3056 223.678 73.7868C224.215 73.9502 225.797 77.8447 226.234 78.4801C227.052 79.6603 227.971 80.7315 228.944 81.7936C229.172 82.0478 229.654 81.8572 229.636 81.5122C229.481 78.9522 229.135 76.4285 228.799 73.8866L227.944 74.5493C229.363 75.2756 230.382 76.2651 231.364 77.5088C231.655 77.8719 232.137 77.4089 231.964 77.0458C231.182 75.3936 230.118 74.4313 228.526 73.5417C228.18 73.351 227.589 73.5871 227.644 74.041C227.817 75.3664 228.408 77.3091 228.29 78.6708C228.162 80.1505 229.454 80.7406 227.635 79.1519C225.406 77.2001 224.669 74.0864 222.377 72.1346C222.132 71.9258 221.713 72.0529 221.722 72.4069C221.74 74.05 221.959 75.557 222.241 77.182C222.468 78.5074 223.66 81.2489 223.423 82.5017C224.087 83.8816 223.405 83.8089 221.377 82.2657C220.74 81.6121 220.139 80.9221 219.576 80.205C218.175 78.5437 216.847 76.8189 215.482 75.1213C215.237 74.8126 214.682 74.9942 214.6 75.3573C213.89 78.4166 214.072 81.2308 214.791 84.2628C215.082 85.4884 216.828 88.9562 215.191 89.9094C214.227 90.4722 210.298 85.5156 209.825 84.8438C209.606 84.5261 209.106 84.635 209.097 85.0436C209.015 87.2858 209.024 89.5281 209.115 91.7704C209.133 92.2334 209.815 92.2334 209.843 91.7704V91.7795Z" fill="black"/>
            <path d="M284.894 72.4432C285.14 71.7442 285.267 68.2129 285.449 68.0586C286.577 67.1235 288.578 70.782 289.579 71.1814C290.579 71.5808 290.534 71.7896 291.471 71.1542C293.845 69.5564 292.016 64.3638 293.536 62.412C294.673 60.9595 295.3 63.919 296.046 65.2625C297.174 67.3051 298.456 69.2387 299.748 71.1905C299.894 71.4174 300.212 71.363 300.303 71.1179C301.331 68.231 300.112 64.4364 301.467 61.8583C302.541 59.8248 302.359 62.3031 302.995 63.7102C303.841 65.5984 304.833 67.3686 306.033 69.039C306.197 69.275 306.57 69.2569 306.661 68.9573C307.271 66.8875 307.134 65.8072 308.762 67.7499C308.953 67.9769 309.299 67.6864 309.163 67.4413C308.744 66.6061 308.253 65.8254 307.68 65.081C307.498 64.8268 307.089 64.8449 306.998 65.1717C306.416 67.2869 306.652 68.34 305.16 65.9888C303.832 63.8917 302.977 61.3771 302.149 59.0531C302.04 58.7536 301.549 58.5992 301.385 58.9533C299.985 62.067 301.358 65.3715 300.276 68.3763C299.666 70.083 300.194 69.8923 298.984 68.921C298.329 68.3944 297.802 66.9873 297.383 66.2611C296.219 64.2458 295.136 62.1851 294.154 60.0699C294.054 59.852 293.727 59.8792 293.617 60.0699C292.817 61.4951 292.489 62.6662 292.153 64.3002C291.935 65.4078 292.117 67.9405 291.416 68.7031C288.869 71.481 287.387 66.597 285.094 66.1431C284.812 66.0886 284.512 66.2702 284.521 66.5788C284.567 68.576 284.385 70.4733 284.812 72.4251C284.821 72.4705 284.885 72.4614 284.894 72.4251V72.4432Z" fill="black"/>
        </g>
    </g>
</svg>
