<svg width="574" height="456" viewBox="0 0 574 456" fill="none" xmlns="http://www.w3.org/2000/svg">
    <g clip-path="url(#clip0_1_470)">
        <mask id="mask0_1_470" style="mask-type:luminance" maskUnits="userSpaceOnUse" x="68" y="39" width="438" height="378">
            <path d="M506 39H68V417H506V39Z" fill="white"/>
        </mask>
        <g mask="url(#mask0_1_470)">
            <path d="M74.0818 283.743C73.7768 283.438 82.0954 293.285 99.9618 295.751C117.828 298.217 176.372 307.141 176.372 307.141C176.372 307.141 199.785 313.607 208.417 299.446L209.545 298.929C209.545 298.929 226.127 327.768 264.484 339.933C302.842 352.099 345.822 334.391 347.975 333.467C347.975 333.467 358.447 362.26 387.719 380.577C416.991 398.895 445.644 412.141 445.644 412.141C445.644 412.141 451.024 414.709 454.425 415.217C457.826 415.725 459.351 415.374 463.049 413.989C466.746 412.603 470.6 410.756 470.6 410.756C470.6 410.756 473.216 409.37 478.761 398.128C484.307 386.886 500.177 350.094 502.488 333.005C504.798 315.916 505.261 293.285 498.634 274.967C492.006 256.65 481.072 225.705 481.072 225.705L471.672 203.535C471.672 203.535 451.181 197.836 438.86 196.607C426.539 195.378 401.584 196.45 401.584 196.45L400.502 191.988C400.502 191.988 412.361 185.984 422.066 173.976C431.771 161.967 436.235 149.035 436.235 149.035C436.235 149.035 445.321 126.708 437.159 99.3104C428.998 71.9125 406.972 50.0386 377.238 42.4917C347.504 34.9448 313.305 46.9533 294.357 75.746C294.357 75.746 278.339 94.2206 280.955 131.327C280.955 131.327 253.846 135.641 229.657 159.963C229.657 159.963 227.347 156.73 223.345 155.187C219.342 153.644 215.793 150.725 215.793 150.725L186.059 146.726L132.913 141.488L104.722 139.483C104.722 139.483 93.0112 137.479 88.8519 153.496L86.079 169.662L75.1448 230.785L71.1426 255.264C71.1426 255.264 67.6026 270.505 70.2183 275.586C72.834 280.667 74.3776 283.281 74.3776 283.281" fill="#77CD77"/>
            <path d="M133.236 143.021C133.236 143.021 139.087 81.4362 159.116 68.818C179.145 56.1999 202.252 69.4369 201.014 89.759L198.241 121.471L193.925 147.64L215.802 150.716C215.802 150.716 223.502 104.53 223.502 89.7498C223.502 74.9701 222.06 45.6139 182.426 41.7158C182.426 41.7158 148.949 37.4019 129.64 74.7669C129.64 74.7669 116.904 103.92 113.003 140.047L133.236 143.021Z" fill="#9BE887"/>
            <path d="M197.825 307.76C197.825 307.76 211.384 306.115 215.081 280.251C218.779 254.386 230.693 178.844 230.693 178.844C230.693 178.844 233.567 159.963 225.35 156.268C217.133 152.573 215.802 150.725 215.802 150.725L184.275 146.827L125.324 141.488L103.761 139.437C103.761 139.437 89.1754 139.641 88.3528 159.963L76.032 227.09L69.6637 264.862C69.6637 264.862 65.7632 276.149 75.6161 283.743C75.6161 283.743 83.4171 292.361 93.8985 294.421C104.38 296.481 180.375 307.972 180.375 307.972L197.834 307.769L197.825 307.76Z" fill="#9BE887"/>
            <path d="M392.544 197.318L376.11 203.886C376.11 203.886 338.316 229.344 323.528 257.259C323.528 257.259 320.237 257.259 323.934 267.522C327.632 277.784 355.979 347.582 355.979 347.582C355.979 347.582 386.481 395.819 454.416 415.217C454.416 415.217 458.677 416.861 470.591 410.756C470.591 410.756 487.847 385.759 497.7 354.149C507.553 322.539 505.76 293.876 495.648 265.878C484.963 236.318 471.672 203.526 471.672 203.526C471.672 203.526 436.087 192.801 392.544 197.318Z" fill="#9BE887"/>
            <path d="M98.6863 287.613C91.8097 285.839 84.3692 285.35 77.6773 282.93C68.9059 279.771 69.7285 270.312 71.1242 262.718C73.4996 249.851 75.3297 236.956 77.2707 224.023C80.5057 202.427 86.3564 181.042 88.5654 159.316C88.6116 158.854 87.8999 158.789 87.7798 159.214C83.9625 172.424 82.2156 186.391 79.5444 199.877C77.2799 211.304 75.3204 222.693 73.6752 234.231C72.677 241.279 71.6787 248.327 70.3755 255.319C69.2479 261.388 67.3716 267.744 68.1942 273.969C70.0612 288.075 88.1033 286.541 98.6771 287.65C98.6956 287.65 98.7048 287.622 98.6771 287.613H98.6863Z" fill="black"/>
            <path d="M89.6561 153.127C90.451 149.46 91.5786 145.34 94.6657 142.91C98.1965 140.121 103.308 140.139 107.587 140.546C109.103 140.694 110.61 140.878 112.125 141.035C118.947 141.728 125.786 142.347 132.608 143.003C151.851 144.86 171.123 146.485 190.375 148.287C196.319 148.841 202.973 150.402 208.935 149.875C209.795 149.802 209.961 148.684 209.138 148.379C204.23 146.587 197.862 146.91 192.705 146.421C182.787 145.478 172.869 144.573 162.952 143.677C145.575 142.098 128.19 140.601 110.804 139.169C106.977 138.855 103.058 138.347 99.3056 139.474C92.9465 141.377 90.4787 146.975 89.3788 153.053C89.3511 153.229 89.6099 153.302 89.6468 153.127H89.6561Z" fill="black"/>
            <path d="M205.746 148.739C215.886 152.822 211.902 166.715 210.737 175.112C209.702 182.529 208.621 189.938 207.512 197.355C206.134 206.565 204.683 215.756 203.389 224.975C202.188 233.51 201.541 242.092 200.33 250.618C199.452 256.825 198.25 263.033 198.269 269.314C198.269 269.6 198.703 269.674 198.777 269.379C200.348 263.365 200.958 257.176 201.827 251.024C203.13 241.824 205.044 232.716 206.393 223.515C208.917 206.408 211.255 189.263 213.482 172.11C214.536 164.009 217.143 149.903 205.922 148.065C205.478 147.991 205.321 148.564 205.737 148.73L205.746 148.739Z" fill="black"/>
            <path d="M197.252 275.697C194.267 286.246 190.006 298.023 177.297 297.599C169.145 297.321 160.974 296.13 152.905 295.031C136.554 292.804 120.324 289.738 103.946 287.779C103.317 287.705 103.206 288.712 103.798 288.869C117.163 292.306 131.138 294.098 144.79 296.019C152.655 297.127 160.53 298.301 168.368 299.594C172.37 300.25 177.029 301.321 181.105 300.952C194.239 299.742 196.365 286.311 197.492 275.743C197.511 275.604 197.289 275.586 197.252 275.715V275.697Z" fill="black"/>
            <path d="M205.145 147.936C207.364 149.275 210.164 149.681 212.512 150.855C216.468 152.831 220.193 155.27 224.139 157.275C225.369 157.893 226.432 156.12 225.221 155.418C220.054 152.397 211.699 146.624 205.145 147.871C205.118 147.871 205.118 147.917 205.145 147.936Z" fill="black"/>
            <path d="M224.62 156.563C232.458 158.863 229.778 175.527 228.881 181.624C228.474 184.423 227.892 187.194 227.43 189.984C226.201 197.309 225.073 204.653 223.955 211.996C221.136 230.434 218.409 248.881 215.627 267.319C214.776 272.953 213.935 278.57 213.316 284.232C213.214 285.128 214.675 285.304 214.878 284.445C218.455 269.887 219.731 254.543 221.921 239.727C224.509 222.259 226.903 204.736 229.935 187.342C230.942 181.578 231.7 175.851 231.7 169.976C231.7 164.554 231.441 157.09 224.74 156.138C224.463 156.101 224.334 156.489 224.62 156.572V156.563Z" fill="black"/>
            <path d="M213.935 284.177C212.327 290.467 210.007 297.617 205.45 302.439C201.217 306.919 194.784 307.603 188.915 307.547C180.698 307.473 172.13 305.265 164.033 303.981C145.141 300.979 126.202 298.245 107.338 295.067C103.761 294.467 100.193 293.83 96.6067 293.322C95.3219 293.137 92.2718 293.359 91.9483 293.303C91.1441 293.165 90.7929 294.402 91.6063 294.541C92.6415 294.716 94.49 295.696 95.8857 295.945C99.3241 296.555 102.799 296.98 106.256 297.469C116.294 298.873 126.313 300.453 136.342 301.977C146.611 303.538 156.879 305.118 167.148 306.688C176.16 308.064 185.495 310.383 194.627 309.238C208.094 307.556 212.882 296.601 214.277 284.232C214.296 284.038 213.982 284.001 213.935 284.186V284.177Z" fill="black"/>
            <path d="M89.4527 153.524C90.7745 149.626 91.6156 146.347 94.8968 143.539C98.7603 140.232 103.585 140.13 108.419 140.343C109.177 140.379 109.177 139.206 108.419 139.16C103.16 138.855 98.1595 139.059 93.991 142.633C91.0702 145.146 88.4175 149.571 89.1477 153.524C89.1754 153.69 89.4065 153.653 89.4527 153.524Z" fill="black"/>
            <path d="M134.401 142.042C141.065 116.427 139.725 62.9708 178.535 65.6589C185.717 66.1577 192.649 69.2614 196.679 75.4227C201.319 82.5354 200.006 91.0615 199.147 99.0425C198.25 107.328 197.428 115.651 196.245 123.909C195.135 131.641 194.646 139.502 193.167 147.169C193.019 147.926 194.202 148.222 194.304 147.483C195.292 140.278 197.169 133.248 198.259 126.062C199.35 118.875 200.653 111.79 201.55 104.613C203.001 93.0013 204.572 79.6072 195.311 70.6747C187.381 63.0262 174.025 61.8439 164.107 65.8806C151.583 70.9703 145.307 82.4154 141.906 94.858C139.734 102.802 137.839 110.829 136.157 118.884C134.641 126.163 132.358 134.347 132.857 141.839C132.913 142.68 134.16 142.938 134.391 142.042H134.401Z" fill="black"/>
            <path d="M113.724 140.509C116.47 131.632 117.44 122.071 119.409 112.991C121.377 103.911 123.448 95.3753 126.175 86.7938C131.332 70.5547 141.019 56.1629 156.537 48.265C170.171 41.3278 188.111 40.7551 201.883 47.72C214.795 54.2508 221.348 67.063 221.903 81.2145C222.319 91.782 220.831 102.663 219.777 113.166C218.575 125.212 217.706 137.451 215.765 149.404C215.627 150.245 216.819 150.411 216.921 149.561C218.335 137.996 220.544 126.57 221.921 114.995C223.215 104.114 225.258 93.0752 224.934 82.0828C224.537 68.5963 218.132 55.6641 206.652 48.2188C194.359 40.247 177.112 38.9723 163.321 43.3323C148.034 48.1634 135.436 60.0703 128.568 74.4159C123.734 84.5307 121.072 95.6986 118.503 106.562C115.933 117.425 112.911 129.064 112.181 140.315C112.125 141.22 113.456 141.34 113.715 140.518L113.724 140.509Z" fill="black"/>
            <path d="M189.913 48.3389C198.546 49.6691 206.439 54.8697 211.292 62.1118C216.662 70.1297 217.374 79.1176 217.106 88.4658C217.087 89.02 217.984 89.1586 218.095 88.5951C221.829 70.0281 209.027 50.2972 189.913 48.302C189.895 48.302 189.885 48.3389 189.913 48.3389Z" fill="black"/>
            <path d="M134.817 211.535C132.626 208.56 129.705 206.306 128.06 202.898C126.415 199.489 125.906 195.887 126.258 192.302C127.099 183.739 133.772 174.955 143.07 175.25C152.452 175.555 159.366 182.271 159.929 191.628C160.493 200.985 154.069 207.562 147.313 212.745C145.973 213.77 147.387 215.645 148.746 214.592C156.87 208.283 163.617 200.053 161.741 189.18C160.124 179.804 152.498 173.763 143.07 173.541C133.643 173.32 126.618 180.977 124.742 189.531C122.995 197.475 125.842 209.114 134.465 211.996C134.706 212.08 134.983 211.756 134.817 211.535Z" fill="black"/>
            <path d="M133.846 211.969C130.019 218.139 127.894 225.945 125.352 232.725C122.551 240.216 119.741 247.699 117.015 255.218C116.802 255.8 117.338 256.252 117.847 256.317C127.727 257.499 137.599 258.737 147.47 260.049C147.895 260.104 148.256 259.642 148.256 259.264C148.293 244.013 147.784 228.753 147.581 213.511C147.562 212.394 145.88 212.394 145.843 213.511C145.621 221.936 145.982 230.369 146.287 238.785C146.435 242.84 146.564 246.904 146.629 250.959C146.657 252.604 147.479 257.342 145.871 258.266C144.78 258.885 139.669 257.472 138.504 257.324C133.033 256.631 127.552 255.966 122.089 255.19C118.577 254.691 119.353 253.814 120.509 250.673C121.424 248.17 122.357 245.666 123.291 243.172C125.167 238.175 127.126 233.214 129.132 228.263C131.193 223.173 133.938 217.871 135.14 212.514C135.316 211.738 134.271 211.267 133.837 211.969H133.846Z" fill="black"/>
            <path d="M142.645 212.181C141.231 209.327 138.172 207.498 136.48 204.68C134.613 201.577 133.726 197.826 133.883 194.215C134.225 186.04 139.66 178.668 147.599 176.47C149.06 176.063 148.431 173.772 146.971 174.197C138.671 176.627 133.273 183.832 132.321 192.321C131.877 196.293 132.302 200.293 133.929 203.969C135.417 207.322 138.421 212.061 142.294 212.652C142.562 212.689 142.775 212.449 142.645 212.19V212.181Z" fill="black"/>
            <path d="M141.675 212.615C137.839 218.767 135.907 226.656 133.338 233.418C130.5 240.891 127.422 248.299 124.844 255.874C124.483 256.945 126.119 257.361 126.516 256.335C129.28 249.149 131.702 241.833 134.502 234.665C137.303 227.497 141.342 220.522 142.978 213.179C143.154 212.403 142.118 211.932 141.675 212.634V212.615Z" fill="black"/>
            <path d="M133.957 211.95C134.77 213.105 136.499 213.086 137.802 213.28C139.105 213.474 140.575 214.139 141.813 213.613C141.98 213.539 141.98 213.29 141.869 213.179C140.963 212.246 139.124 212.218 137.904 211.83C136.684 211.442 135.269 210.759 134.114 211.35C133.92 211.451 133.828 211.756 133.957 211.941V211.95Z" fill="black"/>
            <path d="M154.263 221.391C154.393 229.095 155.271 236.771 155.502 244.484C155.733 252.197 154.698 260.067 155.502 267.633C155.539 267.993 156.084 268.131 156.186 267.725C157.979 260.381 157.378 251.994 157.203 244.484C157.027 236.974 156.667 228.891 154.92 221.308C154.837 220.947 154.263 221.021 154.273 221.391H154.263Z" fill="black"/>
            <path d="M117.496 263.855C122.33 266.21 128.245 266.774 133.495 267.734C138.745 268.695 144.577 270.358 149.975 270.053C150.816 270.007 150.982 268.861 150.169 268.593C144.817 266.811 138.708 266.709 133.153 265.739C128.097 264.861 122.801 263.18 117.653 263.273C117.357 263.273 117.209 263.716 117.496 263.855Z" fill="black"/>
            <path d="M120.379 228.309C122.385 224.901 125.786 218.389 124.437 214.324C123.596 211.793 121.211 209.41 120.01 206.971C118.512 203.923 118.18 200.367 116.479 197.475C116.128 196.884 115.111 196.958 114.963 197.669C113.983 202.233 116.904 207.877 119.4 211.581C120 212.477 120.841 213.271 121.405 214.176C122.635 216.153 122.33 216.495 121.914 218.509C121.267 221.659 119.437 224.457 118.873 227.663C118.716 228.55 119.889 229.159 120.389 228.3L120.379 228.309Z" fill="black"/>
            <path d="M156.509 168.341C157.563 168.821 158.608 169.569 159.643 170.114C160.817 170.733 161.898 171.509 162.887 172.405C164.948 174.271 166.122 176.488 167.111 179.047C167.721 180.636 170.041 180.044 169.681 178.336C169.052 175.324 167.139 172.461 164.893 170.401C163.821 169.422 162.61 168.581 161.316 167.925C159.707 167.112 158.635 167.075 156.888 166.983C156.195 166.946 155.862 168.036 156.519 168.341H156.509Z" fill="black"/>
            <path d="M69.2848 276.5C73.9062 286.07 82.6684 293.091 92.9557 295.594C96.9393 296.564 101.089 297.035 105.147 297.626C111.719 298.596 118.947 300.407 125.564 300.12C126.156 300.093 126.544 299.169 125.897 298.892C116.58 294.947 105.286 294.846 95.3588 293.165C90.9777 292.426 86.9386 292.176 83.186 289.544C77.6957 285.682 73.9801 281.285 69.7284 276.159C69.5158 275.9 69.1646 276.233 69.294 276.491L69.2848 276.5Z" fill="black"/>
            <path d="M491.415 255.347C494.52 266.386 498.328 277.396 500.787 288.601C503.541 301.164 503.273 314.595 501.573 327.287C499.77 340.746 495.842 353.734 490.953 366.37C486.063 379.007 479.27 391.099 475.018 403.92C474.722 404.816 476.016 405.278 476.488 404.539C483.965 392.955 489.446 379.266 494.4 366.426C499.354 353.586 503.162 340.33 504.9 326.65C506.471 314.207 506.545 301.275 503.93 288.952C501.314 276.63 496.868 266.109 491.729 255.218C491.646 255.042 491.369 255.162 491.424 255.347H491.415Z" fill="black"/>
            <path d="M472.911 206.897C472.763 214.417 477.329 222.684 479.991 229.63C482.311 235.653 484.159 243.218 488.143 248.354C488.568 248.899 489.566 248.447 489.52 247.782C489.039 240.937 484.982 233.612 482.523 227.256C480.065 220.901 478.022 212.135 473.188 206.787C473.086 206.676 472.901 206.768 472.901 206.907L472.911 206.897Z" fill="black"/>
            <path d="M482.421 390.138C479.954 392.863 478.909 396.863 476.931 399.966C474.685 403.495 473.437 407.596 470.184 410.368C469.509 410.94 470.267 411.79 470.951 411.689C474.5 411.18 476.201 405.924 477.384 403.015C478.327 400.715 478.983 398.35 480.009 396.059C480.869 394.138 482.024 392.226 482.44 390.147C482.44 390.138 482.431 390.119 482.412 390.138H482.421Z" fill="black"/>
            <path d="M485.509 240.364C481.553 228.679 478.613 216.301 473.622 205.004C471.986 201.309 470.008 200.976 466.071 200.274C460.571 199.304 455.081 198.307 449.572 197.383C430.486 194.187 412.056 193.947 392.868 196.57C391.084 196.81 391.842 199.517 393.616 199.277C411.492 196.829 428.933 196.884 446.781 199.498C451.329 200.163 455.858 200.912 460.387 201.697C462.771 202.103 465.886 202.103 468.086 203.027C471.164 204.32 471.774 206.833 472.864 209.816C476.635 220.162 481.368 230.166 485.481 240.373C485.481 240.392 485.518 240.383 485.509 240.373V240.364Z" fill="black"/>
            <path d="M441.559 398.581C445.025 402.47 450.377 404.059 455.1 406.054C459.823 408.049 465.72 411.827 470.748 411.725C471.469 411.707 471.783 410.866 471.321 410.349C468.178 406.857 461.505 405.259 457.262 403.486C452.29 401.407 447.114 398.442 441.679 398.294C441.522 398.294 441.466 398.479 441.559 398.581Z" fill="black"/>
            <path d="M336.939 257.518C341.616 273.812 347.18 289.719 352.957 305.663C356.904 316.544 360.915 327.518 366.285 337.799C372.302 349.309 381.037 359.489 390.594 368.199C401.953 378.554 415.744 388.226 430.162 393.713C431.059 394.055 431.503 392.724 430.782 392.244C423.877 387.607 416.437 383.829 409.579 379.081C403.312 374.749 397.323 370.056 391.749 364.865C382.34 356.089 373.975 345.993 368.198 334.465C355.785 309.699 348.835 282.532 337.253 257.398C337.17 257.222 336.893 257.352 336.948 257.527L336.939 257.518Z" fill="black"/>
            <path d="M450.774 402.645C452.373 403.846 454.305 404.474 456.126 405.278C458.557 406.34 460.655 407.8 463.03 408.945C466.071 410.414 469.445 412.779 472.735 411.014C473.428 410.645 473.114 409.509 472.338 409.536C468.03 409.675 463.732 406.987 459.619 405.749C456.643 404.853 453.889 403.024 450.783 402.618C450.765 402.618 450.765 402.636 450.783 402.645H450.774Z" fill="black"/>
            <path d="M350.092 235.2C363.013 221.899 376.748 209.853 392.359 199.729C393.866 198.75 392.461 196.321 390.945 197.309C382.59 202.75 374.585 208.551 367.246 215.303C360.619 221.4 355.388 227.977 350.082 235.182C350.073 235.191 350.092 235.21 350.101 235.2H350.092Z" fill="black"/>
            <path d="M351.219 296.379C349.094 288.952 347.042 281.692 344.518 274.376C343.224 270.616 341.995 266.838 340.646 263.097C339.499 259.92 336.246 254.377 338.584 251.329C339.684 249.897 337.244 248.493 336.163 249.916C333.834 252.955 334.823 255.329 336.061 258.673C337.642 262.94 339.204 267.208 340.821 271.457C344.056 279.974 347.365 288.149 351.192 296.398C351.192 296.416 351.219 296.398 351.219 296.388V296.379Z" fill="black"/>
            <path d="M322.419 262.912C330.127 288.435 338.131 314.595 349.574 338.769C360.425 361.715 380.094 379.58 401.685 392.373C416.557 401.186 432.908 409.259 449.351 414.663C450.219 414.949 450.765 413.628 449.97 413.194C436.697 405.851 422.445 400.354 409.163 392.946C395.881 385.538 384.29 377.427 373.892 367.035C365.749 358.897 358.586 349.743 353.456 339.407C348.326 329.07 344.509 318.761 340.618 308.231C334.961 292.906 329.36 277.711 322.724 262.774C322.65 262.598 322.363 262.728 322.419 262.903V262.912Z" fill="black"/>
            <path d="M435.375 407.652C436.827 408.797 438.592 409.398 440.256 410.164C442.825 411.338 445.117 412.908 447.659 414.109C450.774 415.577 454.869 418.182 458.214 416.418C458.917 416.049 458.584 414.922 457.817 414.94C449.942 415.125 443.038 408.52 435.385 407.633C435.375 407.633 435.366 407.652 435.375 407.661V407.652Z" fill="black"/>
            <path d="M335.71 299.326C332.161 288.962 329.452 278.293 325.764 267.984C324.96 265.739 323.546 263.31 323.13 260.973C322.409 256.908 325.801 254.276 328.158 251.412C331.218 247.689 334.305 243.985 337.457 240.336C349.352 226.564 362.569 215.035 377.848 205.124C379.355 204.145 377.95 201.715 376.434 202.704C359.76 213.539 345.784 226.194 333.15 241.519C329.591 245.842 326.023 250.165 322.529 254.543C319.646 258.164 320.357 260.104 321.892 264.335C326.153 276.131 331.014 287.687 335.691 299.326C335.691 299.344 335.728 299.335 335.719 299.326H335.71Z" fill="black"/>
            <path d="M475.702 371.054C472.901 372.264 471.922 376.19 470.776 378.794C469.491 381.713 467.688 384.725 467.661 387.967C467.661 388.688 468.539 389.002 469.038 388.54C471.617 386.175 472.726 382.379 474.094 379.229C475.157 376.781 476.977 373.806 475.952 371.155C475.905 371.044 475.813 371.007 475.702 371.054Z" fill="black"/>
            <path d="M463.178 221.391C468.548 242.018 477.726 261.379 484.076 281.729C486.59 289.802 488.18 297.811 488.522 306.282C488.781 312.591 488.466 318.881 487.801 325.153C487.135 331.426 485.509 337.421 484.834 343.61C484.751 344.386 486.017 344.727 486.331 344.016C491.128 333.264 492.108 319.648 491.822 308C491.6 299.215 490.204 290.809 487.671 282.422C481.377 261.591 473.114 240.724 463.492 221.252C463.409 221.077 463.132 221.197 463.187 221.381L463.178 221.391Z" fill="black"/>
            <path d="M472.31 379.829C471.524 380.67 471.127 381.51 470.609 382.545C469.787 384.171 468.844 385.445 467.873 386.979C467.217 388.023 466.764 389.186 466.191 390.276C465.618 391.366 464.749 392.161 463.917 393.066C463.455 393.574 463.779 394.396 464.481 394.415C466.829 394.479 467.79 391.838 468.622 390.027C469.287 388.577 469.565 387.265 470.045 385.769C470.702 383.727 472.033 381.981 472.328 379.838C472.328 379.829 472.319 379.811 472.301 379.829H472.31Z" fill="black"/>
            <path d="M473.909 249.795C470.785 240.327 468.197 230.646 464.592 221.345C463.575 218.721 463.15 217.058 460.424 216.07C455.987 214.463 450.626 214.029 445.986 213.105C430.033 209.936 414.708 209.179 398.533 211.174C396.759 211.396 396.74 214.204 398.533 213.982C413.119 212.172 427.214 212.44 441.707 214.888C445.247 215.488 448.778 216.144 452.299 216.827C454.342 217.225 457.309 217.28 459.167 218.185C462.226 219.673 462.448 222.499 463.501 225.298C466.635 233.593 470.508 241.611 473.89 249.805C473.89 249.823 473.927 249.814 473.918 249.805L473.909 249.795Z" fill="black"/>
            <path d="M364.816 292.509C370.491 314.309 378.403 335.167 394.032 351.849C402.434 360.809 412.213 368.282 422.704 374.638C433.86 381.399 446.328 388.383 458.834 392.253C459.73 392.53 460.202 391.265 459.453 390.784C448.62 383.727 436.198 378.951 425.07 372.282C414.533 365.964 404.735 358.556 396.315 349.577C389.235 342.03 383.292 333.652 378.939 324.267C374.058 313.755 370.029 302.891 365.121 292.389C365.037 292.213 364.769 292.342 364.816 292.518V292.509Z" fill="black"/>
            <path d="M353.77 261.998C353.077 266.072 355.24 270.219 356.617 274.006C358.114 278.145 359.261 282.819 361.941 286.357C362.385 286.939 363.475 286.828 363.438 285.95C363.263 281.526 361.229 277.267 359.732 273.147C358.336 269.314 357.292 264.603 354.057 261.924C353.974 261.85 353.798 261.859 353.77 261.998Z" fill="black"/>
            <path d="M450.802 387.847C452.05 388.891 453.473 389.343 454.906 390.101C456.662 391.025 458.168 392.17 459.989 393.001C461.893 393.879 464.25 395.265 466.154 393.833C466.783 393.362 466.579 392.419 465.757 392.355C463.076 392.161 461.108 390.951 458.612 390.239C456.116 389.528 453.408 388.17 450.82 387.829C450.811 387.829 450.793 387.838 450.811 387.856L450.802 387.847Z" fill="black"/>
            <path d="M353.447 260.695C352.144 256.021 361.322 248.881 364.002 245.472C367.145 241.473 370.417 237.556 373.947 233.889C381.157 226.397 389.328 220.033 397.96 214.278C399.458 213.28 398.053 210.851 396.546 211.858C386.86 218.333 377.977 225.474 370.269 234.24C366.71 238.286 362.93 242.452 359.889 246.904C357.403 250.553 351.534 255.929 353.419 260.695C353.419 260.714 353.447 260.705 353.447 260.695Z" fill="black"/>
            <path d="M415.956 263.097C417.186 269.037 420.411 274.367 422.704 279.918C424.996 285.47 427.297 291.373 429.321 297.174C433.305 308.572 436.947 320.064 441.134 331.407C445.182 342.39 449.748 353.142 453.732 364.144C455.645 369.428 457.688 374.675 459.573 379.968C461.2 384.522 462.485 389.334 464.564 393.704C464.897 394.396 465.951 393.898 465.775 393.195C464.518 388.069 462.189 383.164 460.47 378.176C458.63 372.836 456.791 367.507 454.887 362.195C450.922 351.184 447.53 340.016 443.463 329.033C439.239 317.634 434.359 306.559 429.904 295.271C427.648 289.571 425.375 283.816 423.424 278.006C421.668 272.778 420.421 267.208 417.537 262.432C417.019 261.582 415.771 262.155 415.966 263.097H415.956Z" fill="black"/>
            <path d="M396.657 212.449C395.908 213.327 396.417 214.204 396.842 215.119C397.563 216.689 398.459 217.696 398.709 219.488C398.894 220.827 398.885 221.871 399.264 223.21C400.077 226.046 401.408 228.402 402.545 231.099C403.164 232.559 403.441 234.443 404.458 235.653C404.828 236.096 405.613 235.736 405.586 235.182C405.493 233.085 404.07 230.951 403.626 228.891C402.988 225.862 402.536 223.072 401.103 220.245C400.391 218.832 399.319 217.603 398.986 216.005C398.801 215.119 399.153 214.324 398.7 213.456C398.385 212.874 397.461 211.507 396.648 212.449H396.657Z" fill="black"/>
            <path d="M472.384 410.072C469.14 410.183 465.84 411.966 462.845 413.12C460.581 413.989 457.346 414.155 455.506 415.661C455.386 415.762 455.405 415.965 455.506 416.067C457.475 418.016 460.701 416.012 462.771 415.18C465.978 413.878 469.971 412.954 472.643 410.682C472.874 410.488 472.689 410.072 472.393 410.081L472.384 410.072Z" fill="black"/>
            <path d="M392.831 197.17C389.938 197.355 386.712 199.184 384.013 200.256C381.684 201.179 378.671 201.835 376.831 203.6C376.535 203.877 376.776 204.329 377.146 204.357C379.789 204.533 382.793 202.75 385.196 201.817C387.784 200.81 391.148 199.951 393.228 198.103C393.57 197.799 393.311 197.143 392.84 197.17H392.831Z" fill="black"/>
            <path d="M386.204 200.228C383.421 200.45 380.63 201.078 378.033 202.26C375.436 203.443 373.411 205.66 371.369 207.673C371.323 207.719 371.378 207.775 371.433 207.756C373.957 206.556 376.73 205.909 379.151 204.505C381.573 203.101 383.893 201.743 386.204 200.256C386.213 200.256 386.204 200.228 386.204 200.228Z" fill="black"/>
            <path d="M392.895 196.542C390.936 197.17 389.3 198.094 387.525 199.11C385.945 200.016 383.643 200.653 382.46 202.011C382.192 202.325 382.395 202.713 382.774 202.768C384.364 202.971 386.046 201.761 387.405 201.05C389.328 200.034 391.333 199.027 393.376 198.279C394.448 197.891 394.014 196.191 392.895 196.552V196.542Z" fill="black"/>
            <path d="M335.701 253.823C333.168 253.666 329.989 255.125 327.567 255.938C325.497 256.631 322.714 257.037 321.069 258.488C320.69 258.82 321.032 259.328 321.439 259.375C323.676 259.652 326.624 258.349 328.759 257.629C331.024 256.862 334.203 255.744 335.747 253.934C335.784 253.888 335.756 253.823 335.701 253.823Z" fill="black"/>
            <path d="M344.796 242.138C340.387 244.623 331.421 251.504 335.885 257.37C336.19 257.767 337.013 257.85 337.124 257.213C337.346 255.901 337.29 253.841 337.725 252.807C338.178 251.708 339.046 250.368 339.583 249.287C340.877 246.673 343.021 244.521 345.008 242.415C345.138 242.276 344.971 242.055 344.805 242.147L344.796 242.138Z" fill="black"/>
            <path d="M255.815 140.694C254.918 140.934 253.522 140.869 252.515 141.266C251.101 141.83 249.835 142.938 248.513 143.668C246.017 145.054 243.494 146.162 241.119 147.806C236.368 151.113 232.985 155.215 228.89 159.214C228.16 159.926 229.278 161.043 230.009 160.332C233.743 156.748 238.29 153.894 242.486 150.836C244.862 149.109 247.071 147.012 249.511 145.377C250.787 144.518 252.349 144.019 253.587 143.095C254.437 142.458 255.094 141.331 255.824 140.703C255.833 140.703 255.824 140.675 255.815 140.684V140.694Z" fill="black"/>
            <path d="M402.203 196.718C399.911 189.984 397.452 183.194 393.589 177.199C389.725 171.204 384.983 165.505 379.946 160.203C370.472 150.226 359.27 142.356 346.607 136.906C321.448 126.089 292.814 125.738 267.082 134.883C266.13 135.225 266.536 136.758 267.507 136.407C292.315 127.586 320.015 129.544 344.25 139.483C356.423 144.472 367.782 151.557 377.423 160.526C382.978 165.699 387.71 171.869 391.74 178.28C395.539 184.312 399.31 190.178 402.184 196.727C402.184 196.736 402.212 196.727 402.212 196.718H402.203Z" fill="black"/>
            <path d="M209.554 298.762C214.906 308.055 220.84 315.704 229.306 322.382C237.079 328.516 245.592 333.781 254.752 337.559C273.099 345.134 295.467 348.598 315.043 344.367C326.559 341.882 337.706 339.111 348.437 334.141C349.362 333.716 348.557 332.349 347.633 332.774C324.341 343.563 297.38 345.263 272.424 339.813C247.468 334.363 224.408 320.147 209.573 298.753C209.564 298.744 209.545 298.753 209.554 298.762Z" fill="black"/>
            <path d="M367.93 170.105C365.111 167.001 362.403 163.621 359.029 161.136C355.314 158.411 351.339 156.138 347.291 153.949C339.62 149.802 331.837 146.513 323.297 144.545C306.04 140.583 288.275 142.55 271.685 148.425C270.733 148.767 271.139 150.291 272.11 149.949C304.293 138.541 342.392 148.351 367.912 170.114C367.921 170.124 367.94 170.114 367.93 170.096V170.105Z" fill="black"/>
            <path d="M387.997 200.173C387.775 196.228 386.296 192.801 384.484 189.254C382.386 185.134 379.484 182.529 376.757 178.954C376.147 178.16 374.779 178.927 375.389 179.758C377.894 183.121 379.512 187.24 381.739 190.861C383.745 194.131 385.436 197.364 387.969 200.191H387.987L387.997 200.173Z" fill="black"/>
            <path d="M215.71 278.403C219.342 288.167 223.807 296.444 231.118 303.963C237.828 310.863 245.546 316.868 254.123 321.237C270.853 329.754 292.102 334.095 310.717 330.465C321.818 328.303 332.521 325.782 342.799 320.941C343.723 320.507 342.919 319.14 341.995 319.574C319.951 329.948 294.08 330.936 270.76 324.368C247.441 317.801 226.598 301.266 215.728 278.394C215.728 278.385 215.701 278.394 215.701 278.403H215.71Z" fill="black"/>
            <path d="M253.43 159.963C250.934 160.849 249.807 161.136 247.589 162.725C245.37 164.313 243.06 165.644 240.934 167.343C236.137 171.167 233.234 175.684 229.426 180.368C228.789 181.153 229.898 182.28 230.545 181.486C233.881 177.458 238.161 174.225 242.015 170.65C245.869 167.075 249.844 163.722 253.439 159.981C253.439 159.981 253.439 159.953 253.43 159.963Z" fill="black"/>
            <path d="M322.243 260.991C321.79 258.811 322.973 255.864 322.973 255.864L344.962 230.656C345.064 228.688 344.925 226.804 344.426 225.307C343.834 222.37 342.734 219.552 340.913 217.326C337.762 213.465 333.076 209.964 328.417 207.969C328.149 207.803 327.992 207.701 327.992 207.701L328.251 206.962C328.852 205.918 329.489 204.533 329.563 204.357C330.275 202.63 330.876 200.875 331.421 199.092C331.892 197.54 332.262 195.757 332.771 194.03L333.436 192.136C333.695 191.499 334 190.898 334.36 190.344C334.527 190.141 334.702 189.891 334.841 189.651C335.044 189.383 335.248 189.116 335.488 188.885C335.784 188.598 335.617 188.155 335.257 188.026C331.763 186.751 328.232 185.661 324.6 184.811C324.406 184.765 324.128 184.839 324.036 185.042C322.289 188.912 320.635 192.829 319.091 196.792C318.657 197.9 317.871 201.521 316.697 202.112L315.126 201.909C314.359 201.614 313.545 201.17 313.046 201.004C312.067 200.662 311.087 200.32 310.107 199.988C311.235 197.06 312.362 194.131 313.49 191.203C314.082 189.67 314.673 188.136 315.283 186.612C315.856 185.171 316.281 183.259 317.289 182.067C317.529 181.781 317.427 181.402 317.076 181.273C313.74 180.063 310.412 178.881 307.029 177.781C306.789 177.606 306.419 177.587 306.271 177.901C304.201 182.382 302.685 187.139 300.716 191.674C300.273 192.69 299.792 193.706 299.237 194.658C299.136 194.824 299.043 195.12 298.886 195.24C298.794 195.305 298.757 195.351 298.738 195.369C298.738 195.351 298.692 195.323 298.554 195.323C298.415 195.323 297.509 194.76 297.269 194.667L295.365 193.9C290.595 191.979 285.761 190.169 281.048 188.099C280.373 187.804 279.901 188.432 280.049 188.931C278.986 190.612 278.321 192.681 277.6 194.51C276.75 196.69 275.973 198.898 275.225 201.115C275.077 201.54 275.456 201.882 275.844 201.918C278.21 202.168 281.131 202.519 283.34 203.812C284.449 204.662 285.595 205.798 286.113 207.091C286.667 209.096 285.53 211.174 284.735 213.049C283.673 215.525 282.684 218.038 281.676 220.541C280.169 224.291 278.922 228.134 277.36 231.857C275.714 235.782 273.94 239.662 272.304 243.588C271.019 246.655 269.734 249.685 268.671 252.825C268.671 252.825 268.671 252.835 268.671 252.844C268.061 254.035 267.461 255.227 266.721 256.326C265.399 257.472 263.884 258.091 261.915 257.259C261.573 257.111 261.249 256.954 260.935 256.788C259.382 255.55 257.414 253.629 256.083 255.744C254.863 257.693 253.43 259.809 252.321 261.989L252.256 262.09L252.228 262.173C251.72 263.19 251.286 264.215 250.99 265.249C250.953 265.36 251.008 265.536 251.128 265.591C254.077 266.838 256.72 268.556 259.549 270.044C262.201 271.438 264.836 272.852 267.396 274.413C266.046 276.307 265.436 279.069 264.651 281.175C263.569 284.057 262.617 287.003 261.545 289.895C261.453 290.144 261.601 290.541 261.85 290.652C264.678 291.89 267.396 293.405 270.261 294.523C270.64 294.67 271.038 294.356 271.158 294.014C272.11 291.225 273.2 288.509 274.43 285.839C275.28 283.992 276.685 282.034 277.082 280.011C279.06 280.685 280.918 281.553 282.721 282.616C281.63 284.943 280.752 287.391 279.818 289.784C278.728 292.573 277.591 295.409 276.935 298.338C276.879 298.596 277.008 298.818 277.258 298.901C280.16 299.945 283.007 301.109 285.724 302.568C286.094 302.762 286.566 302.596 286.686 302.18C288.072 297.109 290.161 292.352 293.063 287.973C296.132 289.451 299.533 290.606 302.787 291.474C306.234 292.389 309.654 292.749 313.213 292.352C316.364 292.001 319.082 290.929 321.614 289.008C324.23 287.022 327.012 284.842 329.027 282.237C329.027 282.237 322.677 263.208 322.224 261.028L322.243 260.991ZM283.34 267.143C283.303 266.506 284.005 265.351 284.227 264.741C284.597 263.735 284.948 262.728 285.29 261.721C285.946 259.827 286.658 257.952 287.36 256.077C288.063 254.202 288.765 252.317 289.459 250.442C289.884 249.287 290.503 248.05 290.854 246.803C290.993 246.766 291.113 246.719 291.279 246.71C291.843 246.276 292.379 246.267 292.888 246.682C293.313 246.803 293.738 247.061 294.145 247.237C296.344 248.216 298.563 249.195 300.679 250.35C301.557 250.83 302.417 251.329 303.258 251.855C303.887 252.28 304.506 252.714 305.116 253.167C309.553 256.465 314.026 261.721 312.556 267.679C310.967 274.145 302.981 274.487 297.666 273.415C294.736 272.824 291.917 271.743 289.218 270.496C287.804 269.84 286.418 269.129 285.031 268.427C284.384 268.095 283.571 267.919 283.331 267.152C283.331 267.152 283.331 267.152 283.331 267.143C283.331 267.143 283.331 267.143 283.34 267.143ZM307.75 239.034C305.218 238.554 302.704 237.889 300.411 236.678C298.849 235.856 297.398 234.96 295.697 234.637C295.91 233.815 296.132 232.993 296.372 232.171C297.481 229.501 298.526 226.795 299.663 224.143C301.114 220.763 302.842 217.557 304.386 214.232C309.035 215.423 313.416 217.733 317.132 220.772C319.008 222.305 321.088 224.143 321.901 226.499C322.788 229.058 321.827 231.986 320.653 234.304C319.627 236.309 318.139 238.166 315.967 238.969C313.481 239.893 310.31 239.505 307.759 239.025L307.75 239.034Z" fill="black"/>
            <path d="M351.903 140.924C358.299 140.324 364.695 139.4 370.944 138.301C371.202 138.255 371.313 138.042 371.313 137.839C371.341 137.811 371.378 137.775 371.406 137.728C372.691 135.539 373.55 132.953 374.585 130.625C375.639 128.251 376.693 125.886 377.746 123.512C378.8 121.138 379.854 118.773 380.907 116.399C381.906 114.155 383.07 111.91 383.884 109.591C384.318 109.702 384.586 109.046 384.142 108.853C375.99 105.49 367.801 102.192 359.649 98.8208C351.506 95.4584 343.418 91.8467 335.211 88.6321C334.98 88.5397 334.786 88.6967 334.739 88.8815C334.619 88.9369 334.527 89.057 334.536 89.2233C335.072 97.9063 335.756 106.58 336.569 115.235C337.207 122.006 337.78 128.824 338.584 135.585" fill="black"/>
            <path d="M375.334 157.127C379.049 158.337 382.793 159.464 386.582 160.452C386.693 160.591 386.897 160.628 387.072 160.572C387.405 160.581 387.544 160.184 387.414 159.907C387.22 152.148 387.082 144.388 387.008 136.629C386.971 132.768 386.952 128.907 386.943 125.055C386.943 123.124 386.943 121.194 386.943 119.263C386.943 117.295 387.211 115.088 386.813 113.166C386.786 113.037 386.712 112.963 386.619 112.917C386.527 112.64 386.083 112.538 385.935 112.88C383.81 117.831 381.711 122.801 379.632 127.771C378.634 130.154 377.645 132.546 376.646 134.939C375.731 137.137 374.474 139.456 373.975 141.802C368.744 142.356 363.531 143.188 358.29 143.723" fill="black"/>
            <path d="M288.969 84.5861C288.026 85.9902 286.76 87.2095 285.946 88.669C284.92 90.498 284.449 92.7242 283.747 94.6917C282.286 98.7839 280.78 102.71 279.957 107.005C278.386 115.273 279.097 123.198 279.92 131.502C280.022 132.509 281.602 132.519 281.51 131.502C280.733 123.401 281.981 115.097 283.257 107.07C283.839 103.393 284.384 99.5413 285.429 95.9757C285.956 94.1744 286.741 92.4655 287.407 90.7104C288.174 88.6967 288.34 86.6368 288.997 84.5861C288.997 84.5676 288.978 84.5676 288.969 84.5769V84.5861Z" fill="black"/>
            <path d="M439.119 136.047C441.744 121.268 441.208 107.144 435.865 93.0198C431.077 80.3647 423.508 68.5871 413.424 59.5253C392.387 40.6258 360.296 33.0789 333.658 44.1821C317.474 50.9254 303.166 61.1511 293.202 75.7183C292.629 76.5589 293.997 77.3533 294.57 76.522C311.494 51.7567 343.529 37.9931 373.282 43.3877C398.912 48.0249 421.964 65.6589 432.325 89.6759C438.462 103.911 440.884 120.676 439.091 136.056C439.091 136.075 439.109 136.075 439.119 136.056V136.047Z" fill="black"/>
            <path d="M400.382 192.404C402.628 191.314 404.911 190.584 406.954 189.152C408.996 187.721 410.799 185.975 412.712 184.395C416.548 181.245 420.208 178.04 423.387 174.188C429.515 166.761 433.259 158.318 436.54 149.349C436.891 148.388 435.357 147.973 435.015 148.924C431.669 158.023 425.744 166.05 419.672 173.56C416.954 176.922 414.043 180.451 410.836 183.361C408.904 185.107 406.602 186.427 404.68 188.164C403.164 189.522 401.944 191.074 400.363 192.386C400.354 192.395 400.363 192.413 400.382 192.404Z" fill="black"/>
            <path d="M342.689 192.7C342.689 192.7 342.708 192.681 342.689 192.681C342.67 192.681 342.67 192.7 342.689 192.7Z" fill="black"/>
            <path d="M370.26 52.3571C359.945 50.5004 350.415 50.8145 340.359 53.9275C330.303 57.0405 321.457 61.4282 313.499 68.1437C295.42 83.4037 288.239 107.273 290.706 130.339C290.799 131.179 292.121 131.188 292.028 130.339C289.634 107.984 298.119 85.5745 314.867 70.4807C329.73 57.0774 350.332 50.5189 370.25 52.3849C370.26 52.3849 370.269 52.3664 370.25 52.3664L370.26 52.3571Z" fill="black"/>
            <path d="M396.518 181.994C406.242 175.842 414.2 168.609 420.208 158.725C426.216 148.841 429.802 138.126 430.532 126.634C431.826 106.146 424.229 84.4845 408.691 70.7302C400.04 63.0724 390.622 57.0867 379.493 53.715C378.68 53.4656 378.329 54.7404 379.142 54.9898C403.321 62.3242 421.446 83.2652 426.521 107.92C429.21 120.972 428.6 134.892 423.933 147.437C418.895 160.988 408.1 173.523 396.509 181.984C396.5 181.984 396.509 182.012 396.518 182.003V181.994Z" fill="black"/>
            <path d="M296.28 97.0195C293.359 101.851 291.603 107.273 290.697 112.935C289.791 118.598 290.448 124.251 290.91 130.126C290.974 130.967 292.296 130.976 292.232 130.126C291.427 119.134 294.32 107.726 296.298 97.038C296.298 97.0288 296.289 97.0195 296.28 97.038V97.0195Z" fill="black"/>
            <path d="M234.186 123.3C233.197 127.115 231.996 132.186 233.392 136.01C233.66 136.731 234.713 136.814 234.944 136.01C236.063 132.168 235.416 127.475 235.591 123.494C235.628 122.681 234.39 122.524 234.186 123.3Z" fill="black"/>
            <path d="M229.038 130.403C231.164 130.902 233.391 130.773 235.564 130.939C237.403 131.078 239.649 131.992 241.257 130.847C241.516 130.662 241.682 130.292 241.479 129.997C240.37 128.389 238.281 128.537 236.469 128.408C234.038 128.232 231.367 128.075 229.047 128.934C228.391 129.175 228.252 130.228 229.047 130.412L229.038 130.403Z" fill="black"/>
            <path d="M143.412 44.1359C121.34 53.909 109.667 82.2583 105.951 104.474C105.859 105.047 106.644 105.287 106.829 104.714C110.646 92.7242 113.955 80.6603 120.361 69.7048C126.359 59.4422 134.271 51.729 143.727 44.6625C144.05 44.4223 143.782 43.9604 143.412 44.1267V44.1359Z" fill="black"/>
            <path d="M129.761 41.1338C116.377 49.2257 106.746 64.0608 105.822 79.8104C105.785 80.5032 106.857 80.6326 107.023 79.9767C110.841 64.7629 118.133 51.9045 130.177 41.6603C130.472 41.4109 130.094 40.9306 129.77 41.1338H129.761Z" fill="black"/>
            <path d="M262.322 356.856C273.995 361.419 286.621 363.562 299.154 363.267C310.957 362.989 323.722 361.096 334.203 355.406C334.582 355.202 334.323 354.602 333.917 354.713C322.077 357.918 310.736 361.234 298.35 361.558C285.965 361.881 274.143 359.969 262.479 356.302C262.118 356.191 261.989 356.717 262.331 356.856H262.322Z" fill="black"/>
            <path d="M291.409 371.885C306.983 377.169 326.67 374.388 340.276 365.096C340.525 364.92 340.313 364.578 340.035 364.689C331.874 368.181 323.768 371.091 314.895 372.079C307.085 372.947 299.256 372.31 291.483 371.294C291.132 371.248 291.104 371.774 291.4 371.885H291.409Z" fill="black"/>
            <path d="M459.139 164.36C458.159 166.493 457.854 168.867 457.586 171.186C457.318 173.504 456.957 175.832 457.873 177.975C458.048 178.391 458.741 178.354 458.926 177.975C459.814 176.183 459.767 174.151 459.971 172.174C460.22 169.717 460.775 167.232 460.673 164.766C460.645 164.018 459.508 163.565 459.148 164.35L459.139 164.36Z" fill="black"/>
            <path d="M454.776 170.743C458.048 170.622 462.614 171.195 465.59 169.625C466.154 169.329 465.951 168.553 465.424 168.369C462.328 167.269 457.965 168.489 454.776 168.821C453.575 168.95 453.519 170.789 454.776 170.743Z" fill="black"/>
            <path d="M227.31 342.889C226.376 344.45 226.478 346.519 226.524 348.284C226.58 350.214 226.69 351.923 227.726 353.595C228.058 354.131 228.909 354.048 229.084 353.42C229.565 351.683 229.362 350.066 229.306 348.284C229.251 346.501 229.547 344.69 228.918 343.092C228.65 342.409 227.726 342.187 227.301 342.88L227.31 342.889Z" fill="black"/>
            <path d="M220.267 348.542C222.356 347.997 224.454 347.6 226.589 347.304C228.262 347.074 230.23 347.295 231.524 346.094C231.839 345.808 231.719 345.328 231.395 345.115C229.935 344.145 228.012 344.792 226.404 345.134C224.176 345.614 222.014 346.381 219.906 347.231C219.121 347.545 219.398 348.764 220.267 348.533V348.542Z" fill="black"/>
            <path d="M323.232 333.596C325.496 331.823 327.567 329.827 329.628 327.832C329.841 327.629 333.381 324.405 333.307 324.22C333.02 323.398 332.216 325.855 332.022 326.206C329.563 330.844 327.493 335.675 325.589 340.561C325.423 340.995 326.042 341.291 326.338 340.995C331.19 336.201 335.941 331.305 340.544 326.262C340.886 325.892 343.132 323.112 342.513 323.435C341.644 323.888 340.682 327.204 340.285 328.008C338.806 331.056 337.318 334.104 335.839 337.153C335.627 337.596 336.172 338.086 336.551 337.707C338.612 335.61 340.627 333.439 342.753 331.416C345.516 328.793 344.296 332.165 344.195 334.455C344.176 334.825 344.583 334.982 344.879 334.843C347.587 333.596 344.953 334.908 345.248 334.345C345.064 334.686 345.535 334.936 345.757 334.64L346.505 333.652C346.801 333.264 346.2 332.931 345.886 333.171C344.869 333.966 345.35 328.968 345.369 328.571C345.387 328.174 344.86 327.98 344.592 328.248C342.938 329.929 341.283 331.601 339.629 333.282C338.862 334.067 335.839 338.123 338.104 334.557C340.368 330.991 342.097 326.336 344.038 322.364C344.25 321.93 343.686 321.403 343.326 321.81C338.594 327.112 333.741 332.303 328.731 337.347C328.131 337.956 327.53 338.557 326.92 339.157C327.206 339.444 327.345 339.222 327.354 338.492C327.132 336.977 329.194 334.104 329.896 332.553C331.375 329.31 332.928 326.096 334.591 322.946C334.776 322.585 334.333 322.244 334.037 322.521C330.201 325.957 326.134 329.227 322.668 333.042C322.326 333.421 322.835 333.901 323.223 333.596H323.232Z" fill="black"/>
            <path d="M383.884 190.741C386.555 189.116 389.041 187.13 391.574 185.291L390.668 184.598C389.032 188.746 387.313 192.857 385.612 196.986C385.381 197.549 386.167 197.836 386.527 197.522C390.354 194.288 394.199 191.065 398.016 187.813L397.156 187.314C395.853 190.427 394.393 193.476 392.997 196.552C392.775 197.032 393.339 197.531 393.755 197.134C395.835 195.157 398.053 193.411 400.465 191.85L399.754 191.305C399.522 193.004 398.959 194.418 398.081 195.905C397.803 196.376 398.478 196.727 398.792 196.321C399.92 194.843 400.438 193.411 400.687 191.563C400.743 191.185 400.373 190.76 399.975 191.018C397.498 192.626 395.215 194.427 393.08 196.459L393.838 197.041C395.252 193.928 396.602 190.788 398.108 187.721C398.376 187.185 397.748 186.723 397.295 187.093C393.441 190.298 389.605 193.531 385.76 196.755L386.675 197.291C388.366 193.217 390.03 189.134 391.786 185.088C391.999 184.598 391.509 183.841 390.945 184.247C388.376 186.123 385.695 187.915 383.283 189.993C382.858 190.353 383.403 191.046 383.874 190.76L383.884 190.741Z" fill="black"/>
            <path d="M281.843 113.915C284.643 112.464 287.277 111.042 290.309 110.072L289.551 109.083C286.612 113.425 283.58 117.702 280.586 121.997C280.197 122.561 280.937 123.106 281.445 122.856C284.532 121.378 287.564 119.974 290.503 118.191L289.856 117.36C286.695 121.36 283.516 125.341 280.354 129.341C279.994 129.803 280.438 130.523 281.02 130.2C283.858 128.583 286.695 126.967 289.533 125.35L288.793 124.611C288.045 126.034 287.287 127.447 286.575 128.879C286.288 129.452 287.12 129.941 287.434 129.378C288.229 127.983 288.978 126.57 289.727 125.147C289.976 124.676 289.468 124.131 288.987 124.408C286.15 126.025 283.312 127.632 280.475 129.248L281.14 130.108C284.31 126.117 287.453 122.108 290.614 118.108C290.965 117.665 290.531 116.935 289.967 117.277C287.102 119.014 284.144 120.63 280.964 121.711L281.676 122.635C284.68 118.339 287.656 114.016 290.716 109.758C291.067 109.268 290.485 108.622 289.958 108.769C286.769 109.702 283.765 110.931 281.14 112.991C280.595 113.416 281.288 114.201 281.852 113.905L281.843 113.915Z" fill="black"/>
            <path d="M403.599 189.162C401.907 188.081 400.299 187.25 398.949 185.725L398.395 187.065C402.471 187.185 406.51 186.982 410.512 186.178C410.984 186.086 411.085 185.337 410.651 185.125C407.203 183.435 404.449 180.793 401.168 178.844L400.872 179.934C405.789 180.275 410.642 180.257 415.55 179.897C415.688 179.887 415.79 179.666 415.633 179.601C412.61 178.317 409.911 175.86 407.573 173.597L407.129 174.354C408.054 174.65 408.95 174.844 409.911 175.038C410.189 175.093 410.42 174.668 410.124 174.539C409.209 174.142 408.331 173.763 407.379 173.477C406.963 173.347 406.584 173.939 406.935 174.234C408.257 175.361 409.606 176.414 411.058 177.366C411.834 177.874 412.758 178.234 413.498 178.779C414.699 179.657 414.875 179.352 413.119 179.481C409.153 179.758 404.846 179.075 400.89 178.761C400.29 178.714 400.123 179.573 400.595 179.851C403.885 181.8 406.63 184.432 410.087 186.113L410.374 185.042C406.353 185.402 402.443 185.698 398.404 185.485C397.665 185.448 397.443 186.344 397.849 186.825C399.301 188.552 401.112 189.873 403.423 189.836C403.793 189.836 403.913 189.346 403.608 189.152L403.599 189.162Z" fill="black"/>
        </g>
    </g>
</svg>
