<svg width="574" height="456" viewBox="0 0 574 456" fill="none" xmlns="http://www.w3.org/2000/svg">
    <g clip-path="url(#clip0_1_380)">
        <mask id="mask0_1_380" style="mask-type:luminance" maskUnits="userSpaceOnUse" x="113" y="17" width="348" height="422">
            <path d="M461 17H113V439H461V17Z" fill="white"/>
        </mask>
        <g mask="url(#mask0_1_380)">
            <path d="M125.742 157.2C125.742 157.2 135.63 133.075 164.969 119.157C194.308 105.24 206.049 104.933 215.316 106.474C215.316 106.474 225.454 118.963 232.302 119.464C239.15 119.965 246.508 118.842 246.508 118.842C246.508 118.842 282.343 51.9154 314.462 39.0459C316.01 38.4243 347.202 15.8495 366.357 27.29C366.357 27.29 380.257 33.4788 356.163 53.8917C356.163 53.8917 329.91 76.4665 324.962 82.6554C324.962 82.6554 350.603 61.0084 400.024 55.7474C400.024 55.7474 425.044 51.7298 430.91 69.9715C433.829 79.046 426.99 86.3111 419.382 91.3216C419.382 91.3216 416.185 93.8918 416.695 93.6783C417.205 93.4649 439.658 89.6607 448.1 102.233C456.543 114.806 446.451 126.766 438.009 131.516C429.567 136.267 410.931 140.999 405.88 141.927C400.83 142.855 381.888 141.621 360.065 166.775C360.065 166.775 377.672 163.685 383.028 162.34C388.385 160.995 415.259 155.325 438.63 167.388C462.001 179.45 460.666 193.061 458.813 197.803C456.96 202.544 448.1 215.228 423.191 210.171C398.282 205.114 392.304 199.445 376.134 205.736C376.134 205.736 357.294 231.716 336.388 246.042C315.482 260.368 289.432 271.716 259.992 256.657C259.992 256.657 206.864 255.831 189.155 230.055L185.041 229.229C185.041 229.229 156.211 242.219 145.091 214.792C145.091 214.792 138.502 196.031 151.884 183.041C151.884 183.041 137.465 179.329 125.733 157.163L125.742 157.2Z" fill="#53B266"/>
            <path d="M192.306 348.023C192.306 348.023 192.519 348.144 192.89 348.385C196.226 350.575 212.693 362.739 209.913 387.921C206.827 415.915 179.638 422.874 173.309 423.486C166.98 424.099 138.716 424.108 130.987 390.705C130.987 390.705 124.964 363.027 154.923 346.789C154.923 346.789 171.91 337.817 192.297 348.023H192.306Z" fill="#9BE887"/>
            <path d="M329.299 291.257C329.299 291.257 322.97 291.257 315.704 297.91C308.439 304.562 305.353 308.116 304.742 317.395C304.13 326.673 305.047 334.718 315.862 348.636C326.676 362.554 343.347 370.283 357.869 363.018C358.795 362.554 364.05 358.842 366.83 356.68C366.83 356.68 383.353 346.938 372.39 321.264C361.427 295.59 338.408 292.194 338.408 292.194C338.408 292.194 334.701 291.108 329.299 291.266V291.257Z" fill="#9BE887"/>
            <path d="M426.601 266.047C426.601 266.047 447.452 266.975 453.781 288.009C460.11 309.044 445.747 320.327 441.734 323.574C441.734 323.574 425.054 338.42 403.74 324.196C403.74 324.196 385.364 311.67 394.315 286.618C394.315 286.618 401.886 266.205 426.592 266.047H426.601Z" fill="#9BE887"/>
            <path d="M404.666 364.242C404.666 364.242 409.921 367.648 411.922 371.044C413.924 374.439 419.336 383.263 409.3 404.446C399.264 425.63 383.195 438.777 367.293 438.777H366.524C366.524 438.777 360.658 437.692 353.708 432.44C353.708 432.44 338.26 422.54 355.098 390.844C371.936 359.148 394.945 359.297 398.495 360.067L404.676 364.242H404.666Z" fill="#9BE887"/>
            <path d="M219.634 178.086C214.556 178.466 211.674 175.952 207.671 173.511C204.872 171.804 201.758 170.468 198.645 169.447C192.047 167.285 184.893 166.766 178.035 167.722C165.173 169.522 153.32 176.824 146.12 187.68C131.154 210.264 152.56 236.977 177.822 233.247C193.186 230.974 205.539 219.877 221.432 219.199C222.071 219.171 222.247 218.216 221.59 218.049C207.856 214.541 195.587 224.896 183.058 228.784C167.165 233.711 148.214 226.065 144.822 208.529C141.607 191.92 157.852 177.251 172.29 172.713C180.565 170.115 189.461 170.245 197.755 172.695C204.937 174.81 211.85 180.35 219.643 179.645C220.635 179.552 220.654 178.002 219.643 178.076L219.634 178.086Z" fill="black"/>
            <path d="M293.862 55.8495C299.913 50.0782 307.114 45.0492 313.999 40.2893C320.505 35.7892 327.473 32.0128 334.942 29.3869C343.023 26.5477 353.254 23.662 361.705 26.3621C367.942 28.357 369.73 34.1747 366.867 39.8161C365.023 43.444 361.844 46.3204 358.971 49.1132C346.591 61.1383 332.663 71.5489 320.959 84.2791C311.719 94.3371 300.21 108.422 299.904 122.73C299.895 123.259 300.664 123.491 300.914 123.008C304.167 116.726 306.391 110.064 310.061 103.959C313.953 97.4826 318.633 91.535 323.766 86.005C334.581 74.3325 347.119 64.4786 358.795 53.7247C365.43 47.6194 378.293 35.1026 368.025 26.0745C358.36 17.5846 340.123 23.7363 329.92 27.9859C323.09 30.8251 316.492 34.4252 310.441 38.6934C303.778 43.3976 298.625 49.1689 293.13 55.1165C292.676 55.6083 293.38 56.3227 293.871 55.8588L293.862 55.8495Z" fill="black"/>
            <path d="M193.678 170.199C203.223 167.638 206.522 160.141 211.09 152.115C214.315 146.455 218.531 141.417 223.499 137.204C228.53 132.936 234.517 130.171 239.762 126.218C249.14 119.148 255.423 108.394 261.993 98.8651C265.783 93.3629 269.537 87.8421 273.447 82.4234C277.08 77.3944 282.093 72.4396 284.206 66.5755C284.373 66.1209 283.798 65.7312 283.409 65.9632C278.859 68.6911 275.792 73.7479 272.687 77.9604C268.897 83.1007 265.274 88.3617 261.669 93.6319C254.756 103.746 248.454 114.936 238.807 122.757C234.063 126.608 228.456 129.215 223.619 132.955C219.412 136.211 215.677 140.016 212.49 144.284C206.874 151.818 202.796 165.69 193.39 169.188C192.77 169.42 193.01 170.375 193.668 170.19L193.678 170.199Z" fill="black"/>
            <path d="M323.748 83.8245C330.318 79.8439 336.564 75.6036 343.57 72.3561C351.372 68.7375 359.629 65.8518 367.877 63.4301C376.578 60.8785 385.419 58.8372 394.417 57.6681C403.434 56.4897 412.441 55.9237 420.717 60.5073C428.992 65.091 433.524 75.3809 426.824 83.175C421.977 88.8163 414.276 92.6391 407.697 95.831C392.369 103.272 375.55 106.668 360 113.47C347.944 118.74 336.694 126.747 327.686 136.369C326.435 137.705 328.335 139.58 329.679 138.364C340.799 128.39 352.16 119.529 366.376 114.342C383.973 107.93 402.201 103.272 418.326 93.4C423.83 90.0318 430.169 85.8936 432.31 79.4264C434.45 72.9592 431.309 65.5456 426.268 61.0362C412.515 48.7235 392.286 55.1165 376.606 59.1155C366.969 61.5744 357.433 64.627 348.398 68.8302C339.826 72.82 330.652 77.2367 323.609 83.6482C323.516 83.7317 323.637 83.8801 323.739 83.8152L323.748 83.8245Z" fill="black"/>
            <path d="M427.166 135.571C413.785 139.774 399.681 140.823 386.392 145.249C381.008 147.049 375.615 149.74 371.176 153.312C366.737 156.884 360.945 161.941 358.072 167.165C357.581 168.056 358.628 169.318 359.555 168.649C364.207 165.356 367.932 160.41 372.269 156.652C377.913 151.772 382.815 148.524 390.025 146.344C402.322 142.614 415.537 141.584 427.472 136.703C428.149 136.425 427.899 135.339 427.157 135.571H427.166Z" fill="black"/>
            <path d="M412.664 94.5691C418.761 93.5948 424.887 93.0845 430.984 94.3557C436.498 95.5062 443.513 97.3156 446.886 102.205C450.065 106.817 449.731 112.013 447.795 117.005C445.756 122.275 441.715 125.077 438.315 129.243C437.721 129.976 438.25 131.526 439.371 131.062C449.87 126.71 455.171 112.161 449.463 102.27C442.948 90.9876 423.274 90.6535 412.349 93.4464C411.598 93.6412 411.932 94.699 412.664 94.5784V94.5691Z" fill="black"/>
            <path d="M361.427 167.1C369.684 166.877 377.663 164.205 385.771 162.85C395.038 161.291 404.518 160.503 413.906 161.356C430.345 162.841 448.462 169.392 456.682 184.859C461.788 194.481 454.587 203.073 445.691 206.571C437.777 209.689 429.372 209.327 421.18 207.62C412.988 205.912 404.444 203.008 395.835 201.858C389.181 200.976 380.322 200.614 374.577 204.697C373.771 205.272 374.28 206.395 375.225 206.246C379.349 205.606 383.158 204.326 387.393 204.214C391.628 204.103 395.789 204.595 399.894 205.337C407.947 206.803 415.731 209.457 423.812 210.784C435.155 212.639 448.629 212.083 456.793 202.739C465.559 192.709 459.193 181.398 450.454 173.92C445.598 169.763 439.334 166.859 433.663 163.936C428.492 161.273 422.107 160.197 416.38 159.501C407.474 158.415 398.476 158.87 389.617 160.104C380.183 161.412 370.916 164.502 361.418 165.226C360.232 165.318 360.204 167.128 361.418 167.1H361.427Z" fill="black"/>
            <path d="M376.82 204.595C362.113 224.089 343.44 241.44 322.154 253.558C312.479 259.069 300.979 262.66 289.766 262.27C283.659 262.057 277.59 261.12 271.659 259.626C267.201 258.503 262.827 256.778 258.268 256.174C257.008 256.007 256.887 257.743 257.684 258.318C261.789 261.278 267.248 262.493 272.122 263.569C278.155 264.896 284.373 265.769 290.563 265.518C301.48 265.082 312.637 261.918 322.182 256.629C344.181 244.456 363.605 226 377.07 204.752C377.181 204.585 376.921 204.446 376.81 204.595H376.82Z" fill="black"/>
            <path d="M285.633 249.123C288.181 249.123 290.943 248.186 293.371 247.434C294.585 247.054 295.789 246.664 296.939 246.107C298.458 245.356 299.033 244.242 300.414 243.203C300.59 243.073 300.571 242.683 300.284 242.721C299.089 242.869 297.902 242.563 296.725 242.73C295.372 242.915 293.881 243.75 292.676 244.344C290.266 245.541 287.412 246.877 285.485 248.752C285.346 248.881 285.448 249.123 285.642 249.123H285.633Z" fill="black"/>
            <path d="M188.136 229.573C197.57 242.275 211.053 249.364 226.139 252.946C242.449 256.815 259.065 260.136 275.069 253.205C275.356 253.085 275.143 252.667 274.865 252.732C266.089 254.588 258.249 254.894 249.325 253.883C241.578 253.001 233.803 251.452 226.158 249.884C219.041 248.427 211.869 246.478 205.456 242.962C199.043 239.445 194.234 233.748 188.433 229.285C188.266 229.155 188.006 229.415 188.136 229.582V229.573Z" fill="black"/>
            <path d="M278.09 127.36C284.771 130.746 292.129 132.853 298.922 136.054C306.567 139.645 313.804 144.015 320.56 149.109C327.649 154.462 334.46 160.41 340.623 166.803C347.629 174.059 352.911 182.809 359.907 189.999C360.398 190.501 361.409 189.999 361.14 189.276C357.785 180.294 350.594 172.268 344.107 165.365C337.815 158.666 330.883 152.588 323.108 147.68C315.88 143.115 308.439 139.079 300.701 135.423C293.658 132.101 285.939 128.362 278.247 126.961C278.025 126.924 277.849 127.239 278.081 127.36H278.09Z" fill="black"/>
            <path d="M153.089 181.927C151.383 180.136 148.918 179.923 146.722 178.819C143.84 177.381 141.199 175.553 138.827 173.372C133.98 168.909 130.551 163.184 126.956 157.729C126.02 156.309 123.842 157.561 124.667 159.065C128.253 165.634 132.294 172.296 138.011 177.241C141.403 180.173 148.325 185.351 152.959 182.911C153.33 182.716 153.357 182.205 153.089 181.918V181.927Z" fill="black"/>
            <path d="M247.398 117.561C243.228 118.378 238.622 119.974 234.48 118.675C231.134 117.626 227.557 115.604 224.852 113.377C220.876 110.102 217.901 106.186 213.036 104.163C211.692 103.607 211.109 105.796 212.434 106.344C216.456 108.004 219.125 111.252 222.285 114.063C224.657 116.17 227.252 117.784 230.069 119.241C232.738 120.623 235.508 122.21 238.622 121.839C241.736 121.468 244.812 119.343 247.555 117.96C247.787 117.84 247.62 117.515 247.389 117.561H247.398Z" fill="black"/>
            <path d="M127.039 158.146C133.823 140.405 150.531 127.146 166.952 118.536C175.079 114.277 183.466 111.54 192.352 109.424C200.906 107.383 212.554 104.108 219.875 110.779C220.459 111.308 221.552 110.593 221.033 109.879C216.113 103.161 207.161 103.866 199.775 105.017C189.452 106.622 179.527 110.454 170.158 115.019C152.153 123.797 133.156 138.475 124.648 157.144C123.87 158.851 126.353 159.918 127.03 158.146H127.039Z" fill="black"/>
            <path d="M158.167 176.935C157.064 174.059 158.287 172.899 161.864 173.465C163.82 172.083 165.543 172.055 167.035 173.382C168.342 174.096 169.778 175.562 170.788 176.713C172.716 178.902 174.171 181.528 175.246 184.228C177.312 189.434 178.1 195.075 178.647 200.614C179.305 207.388 179.907 214.291 178.535 221.018C177.905 224.108 176.886 227.142 175.348 229.897C174.801 230.881 173.068 234.017 172.132 234.342L167.082 233.191C166.729 232.523 166.396 231.855 166.09 231.169C165.849 230.658 165.191 231.057 165.256 231.521C165.617 234.184 166.896 237.283 170.056 237.098C173.633 236.884 176.07 232.171 177.433 229.406C182.372 219.376 181.251 207.601 179.444 196.949C178.007 188.469 175.718 178.939 168.527 173.419C166.007 171.489 162.318 169.791 159.233 171.507C156.944 172.778 156.165 175.033 157.166 177.362C157.407 177.937 158.417 177.52 158.176 176.935H158.167Z" fill="black"/>
            <path d="M163.217 172.129C165.497 168.417 166.285 163.75 166.229 159.436C166.201 157.682 166.479 153.284 163.885 152.904C157.87 152.013 161.985 168.538 162.383 171.053L163.421 170.616C161.929 167.564 156.156 151.428 149.938 157.385C148.029 159.213 148.789 162.21 150.253 164.01C151.421 165.439 153.163 166.441 154.655 167.471C157.222 169.253 159.77 171.21 162.495 172.732C162.995 173.01 163.597 172.305 163.125 171.915C161.364 170.431 159.427 169.188 157.528 167.889C155.952 166.803 150.17 163.908 150.466 161.542L153.552 158.053C154.998 158.554 156.091 159.464 156.833 160.781C157.49 161.746 157.991 162.832 158.538 163.862C159.835 166.311 161.105 168.77 162.43 171.201C162.745 171.776 163.607 171.377 163.468 170.765C162.939 168.557 162.42 166.358 162.059 164.121C161.855 162.85 161.318 160.262 161.494 158.814L161.457 157.459C163.838 155.891 164.987 155.919 164.904 157.524C165.682 159.343 164.83 163.342 164.496 165.068C164.042 167.406 163.18 169.577 162.476 171.841C162.337 172.287 162.976 172.537 163.208 172.147L163.217 172.129Z" fill="black"/>
            <path d="M169.649 236.374C171.595 271.772 168.722 307.337 169.954 342.772C169.982 343.495 171.057 343.495 171.085 342.772C172.382 307.337 169.408 271.79 171.104 236.374C171.15 235.437 169.593 235.437 169.649 236.374Z" fill="black"/>
            <path d="M166.627 343.384C150.132 344.869 136.408 357.228 131.793 372.955C126.928 389.545 133.22 407.564 147.528 417.353C164.932 429.267 187.923 424.108 201.212 408.613C213.166 394.667 214.157 374.041 204.233 358.657C198.895 350.389 191.407 345.268 181.797 343.254C172.188 341.241 159.761 341.909 151.263 348.023C150.559 348.534 151.152 349.554 151.939 349.183C166.943 342.169 187.608 341.705 199.275 355.261C210.942 368.817 212.462 387.782 203.964 402.86C194.196 420.183 171.187 427.968 153.061 419.172C137.196 411.47 128.55 393.6 132.164 376.407C135.806 359.083 149.678 347.095 166.702 343.876C166.98 343.82 166.915 343.356 166.637 343.384H166.627Z" fill="black"/>
            <path d="M163.819 415.423C177.924 418.494 192.399 410.969 199.414 398.62C206.948 385.36 204.51 368.093 193.103 357.794C180.908 346.789 162.902 347.958 150.179 357.33C138.956 365.597 134.471 380.99 138.057 394.231C142.255 409.735 161.262 421.176 176.988 415.544C177.646 415.302 177.618 414.124 176.812 414.217C163.949 415.72 148.168 412.101 142.014 399.315C136.176 387.188 138.326 372.25 147.028 362.071C157.036 350.352 174.541 347.365 187.876 355.372C200.804 363.147 205.891 380.025 200.396 393.86C194.456 408.826 179.443 416.416 163.903 414.931C163.625 414.903 163.56 415.367 163.838 415.423H163.819Z" fill="black"/>
            <path d="M171.011 342.131C171.196 340.619 171.465 339.153 171.798 337.678C171.947 337.01 172.114 336.342 172.28 335.674C174.301 334.282 174.977 334.18 174.301 335.339C174.254 336.304 173.263 337.668 172.855 338.568C172.29 339.821 171.734 341.074 171.168 342.336L171.956 342.438C170.585 338.893 169.723 334.402 166.628 331.953C165.099 330.737 162.346 327.527 160.447 329.893C158.76 331.999 160.187 335.117 161.531 336.935C163.662 339.812 166.989 342.02 170.538 342.577C171.261 342.688 171.604 341.621 170.853 341.445C168.555 340.888 166.507 340.22 164.607 338.763C163.486 337.9 162.439 336.908 161.679 335.701C161.012 334.644 158.955 329.448 163.264 330.58C163.579 330.663 164.292 331.48 164.598 331.712C165.756 332.593 166.98 333.298 167.842 334.532C169.371 336.713 170.167 340.201 171.131 342.66C171.252 342.957 171.752 343.143 171.919 342.762C173.105 340.034 175.051 336.917 175.7 334.003C175.913 333.038 175.913 332.537 174.931 332.231C171.224 331.062 170.464 340.508 170.269 342.122C170.214 342.595 170.955 342.586 171.011 342.122V342.131Z" fill="black"/>
            <path d="M170.483 343.208C166.526 361.422 165.247 379.979 164.644 398.564C164.487 403.342 164.292 408.139 164.292 412.927C164.292 415.117 164.394 417.279 164.561 419.459C164.672 420.925 164.311 424.154 165.024 425.416C166.47 427.968 168.435 426.149 168.991 423.941C169.157 423.291 168.157 423.013 167.99 423.662C165.895 423.932 164.941 423.347 165.126 421.9C165.061 421.083 165.08 420.266 165.182 419.459C165.256 417.826 165.414 416.193 165.497 414.56C165.645 411.628 165.692 408.687 165.766 405.745C165.933 398.861 166.155 391.976 166.544 385.101C167.341 371.09 168.592 357.228 171.409 343.458C171.53 342.855 170.622 342.595 170.492 343.208H170.483Z" fill="black"/>
            <path d="M171.354 343.301C171.826 342.966 171.938 342.363 172.401 342.001C172.948 341.575 173.698 341.751 173.809 342.503C173.847 342.753 174.236 342.781 174.347 342.577C174.847 341.603 173.874 340.684 172.892 340.74C171.91 340.795 170.659 341.899 170.687 342.92C170.687 343.236 171.066 343.505 171.354 343.301Z" fill="black"/>
            <path d="M328.613 28.8302C324.851 25.7589 322.219 30.5096 321.644 33.8499C320.579 40.048 321.394 46.7564 323.386 52.6762C325.379 58.5959 328.576 64.7755 333.395 68.8024C336.305 71.2334 341.438 72.5788 342.884 67.9209C343.069 67.3364 342.217 66.9931 341.911 67.5127C337.908 74.3603 330.068 62.9012 328.567 60.6372C326.565 57.6402 325.017 54.4669 323.961 51.0153C323.034 48.009 319.392 25.3507 328.168 29.4147C328.52 29.5725 328.965 29.1178 328.613 28.8302Z" fill="black"/>
            <path d="M328.001 28.0972C324.406 26.0002 322.812 21.9733 324.582 18.1041H323.303C325.268 21.0362 326.5 24.2466 327.019 27.7446C327.121 28.4312 328.122 28.3199 328.298 27.7446C329.252 24.4971 330.958 21.7506 333.441 19.4403L332.366 19.1526C333.376 22.7434 329.178 26.2507 327.714 29.2385C327.529 29.6096 327.983 29.9807 328.298 29.6838C330.003 28.0694 331.439 25.9724 332.635 23.9497C333.608 22.3166 334.136 20.6836 333.608 18.8093C333.478 18.3268 332.885 18.1969 332.533 18.5217C329.892 20.9619 328.057 23.9311 327.019 27.3735L328.316 27.5498C327.835 23.829 326.639 20.4795 324.573 17.3433C324.285 16.8979 323.572 16.833 323.294 17.3433C320.903 21.8341 322.728 27.2992 327.649 28.8952C328.131 29.0529 328.428 28.3292 327.992 28.0786L328.001 28.0972Z" fill="black"/>
            <path d="M337.389 69.9715C336.314 95.2557 337.092 120.707 337.101 146.01C337.12 184.525 337.194 223.041 337.342 261.565C337.379 271.475 337.278 281.412 337.685 291.313C337.704 291.702 338.306 291.702 338.297 291.313C337.268 266.056 338.158 240.559 338.112 215.284C338.037 176.768 337.982 138.243 337.926 99.728C337.917 89.7999 337.963 79.8903 337.611 69.9808C337.611 69.8416 337.398 69.8416 337.398 69.9808L337.389 69.9715Z" fill="black"/>
            <path d="M375.939 332.602C375.939 332.602 375.948 332.584 375.939 332.584C375.93 332.584 375.93 332.602 375.939 332.602Z" fill="black"/>
            <path d="M372.325 321.134C377.097 332.454 377.579 347.884 366.413 355.743C356.191 362.934 342.819 358.898 333.423 352.375C323.09 345.212 315.574 334.606 312.405 322.424C309.236 310.241 313.36 295.441 327.325 292.259C327.927 292.12 327.668 291.201 327.075 291.34C317.604 293.502 311.525 301.315 310.255 310.798C308.745 322.053 312.85 332.751 319.578 341.658C330.8 356.504 356.164 370.876 371.306 352.82C379.21 343.393 377.311 331.433 372.334 321.143C372.334 321.143 372.316 321.143 372.325 321.143V321.134Z" fill="black"/>
            <path d="M304.491 320.985C305.372 313.331 307.299 307.133 312.822 301.602C314.953 299.468 317.14 297.566 319.522 295.692C320.004 295.312 319.327 294.644 318.846 295.015C315.565 297.585 311.766 299.422 309.06 302.623C304.751 307.726 303.388 314.555 304.463 320.976C304.463 320.985 304.482 320.976 304.482 320.976L304.491 320.985Z" fill="black"/>
            <path d="M374.086 347.3C368.655 356.727 356.673 365.207 345.534 364.391C329.558 363.212 315.13 349.731 308.587 335.887C308.328 335.33 307.503 335.813 307.763 336.369C314.639 350.928 328.474 365.411 345.534 366.2C357.517 366.757 369.304 357.812 374.104 347.3C374.104 347.3 374.104 347.281 374.095 347.3H374.086Z" fill="black"/>
            <path d="M329.02 295.923C329.02 295.923 329.029 295.905 329.02 295.905C329.012 295.905 329.012 295.923 329.02 295.923Z" fill="black"/>
            <path d="M333.033 348.664C324.693 341.853 317.187 331.099 315.843 320.197C314.639 310.361 318.985 299.403 329.586 297.316C339.622 295.339 349.195 301.139 356.581 307.262C363.966 313.386 368.906 322.182 371.065 331.814C371.194 332.417 372.121 332.157 371.982 331.563C369.554 320.735 363.531 310.798 355.042 303.597C347.666 297.344 335.767 292.556 326.204 296.239C316.64 299.923 313.23 309.693 314.333 318.851C315.843 331.368 322.951 341.482 333.006 348.691C333.006 348.691 333.024 348.691 333.015 348.682L333.033 348.664Z" fill="black"/>
            <path d="M335.341 296.119C352.262 298.346 367.775 314.824 370.499 331.452C371.611 338.244 369.647 345.082 364.921 350.111C359.861 355.483 352.021 356.133 345.247 354.314C344.654 354.156 344.404 355.075 344.997 355.233C359.703 359.176 373.567 349.397 372.677 333.725C371.648 315.502 353.532 296.982 335.341 296.1C335.331 296.1 335.331 296.119 335.341 296.119Z" fill="black"/>
            <path d="M341.911 293.205C346.22 295.395 350.585 297 354.514 299.904C358.443 302.809 362.243 306.455 365.403 310.13C365.449 310.185 365.542 310.111 365.505 310.055C359.87 302.577 351.66 294.606 341.967 293.075C341.892 293.066 341.837 293.168 341.911 293.205Z" fill="black"/>
            <path d="M331.161 291.322C328.298 290.811 322.701 291.192 321.051 294.05C320.986 294.161 321.088 294.263 321.199 294.245C322.867 293.975 324.359 292.964 326.046 292.593C327.733 292.222 329.503 292.018 331.161 291.424C331.208 291.405 331.217 291.331 331.161 291.322Z" fill="black"/>
            <path d="M306.882 333.168C306.854 333.577 306.789 333.957 306.882 334.356C306.984 334.82 307.216 335.349 307.42 335.776C307.716 336.425 308.124 337.427 308.791 337.743C308.856 337.77 308.958 337.752 308.976 337.668C309.106 336.935 308.606 336.063 308.328 335.395C308.152 334.978 307.966 334.56 307.772 334.152C307.577 333.744 307.262 333.474 306.947 333.14C306.919 333.113 306.882 333.14 306.882 333.168Z" fill="black"/>
            <path d="M337.333 291.711C341.781 292.315 341.364 308.404 341.661 311.967C342.18 318.211 342.402 324.474 342.662 330.737C342.921 337 343.208 342.679 343.672 348.645C343.931 351.948 344.052 355.186 344.005 358.499C343.987 359.826 343.959 361.153 343.922 362.489L343.857 364.029C344.283 366.015 343.31 366.516 340.938 365.523C341.031 365.133 340.428 364.957 340.326 365.356C339.743 367.685 342.143 369.54 343.82 367.323C345.497 365.105 344.283 359.176 344.246 356.708C344.172 351.326 344.561 345.963 344.524 340.582C344.441 330.134 343.32 319.677 342.235 309.285C341.735 304.553 341.448 299.673 340.586 294.996C340.16 292.667 339.789 291.48 337.407 291.22C337.129 291.192 337.064 291.674 337.342 291.711H337.333Z" fill="black"/>
            <path d="M337.602 291.313C337.639 287.583 336.397 283.806 334.794 280.466C334.488 279.835 332.95 275.873 331.56 276.374C329.781 277.014 330.679 281.273 331.004 282.47C332.014 286.209 334.655 288.928 337.111 291.758C337.259 291.925 337.565 291.841 337.611 291.628C337.871 290.413 338.176 289.197 338.742 288.084C339.159 287.249 339.678 286.488 340.298 285.792C340.799 284.827 341.244 284.882 341.642 285.94C342.773 287.295 341.485 288.167 340.28 289.281C339.233 290.246 338.028 290.923 336.786 291.582C336.518 291.721 336.712 292.203 336.999 292.083C339.261 291.127 343.838 288.325 343.672 285.421C343.459 281.672 339.65 285.254 338.825 286.469C338.269 287.295 337.824 288.186 337.509 289.132C337.074 290.431 337.463 290.979 336.342 289.8C334.321 287.666 332.468 284.613 331.745 281.765C331.513 280.846 330.828 276.727 332.829 278.276C333.821 279.046 334.442 281.691 334.84 282.748C335.887 285.578 336.36 288.483 337.083 291.396C337.157 291.693 337.611 291.628 337.62 291.322L337.602 291.313Z" fill="black"/>
            <path d="M392.397 359.918C375.8 360.234 361.566 378.364 354.338 391.521C350.103 399.223 346.758 408.288 346.934 417.186C347.073 424.108 349.918 432.672 357.73 433.878C358.165 433.943 358.341 433.368 357.915 433.21C339.39 426.4 350.409 398.415 357.785 387.086C361.798 380.925 366.533 375.052 372.158 370.283C378.358 365.04 384.798 362.516 392.425 360.123C392.536 360.086 392.518 359.918 392.397 359.918Z" fill="black"/>
            <path d="M394.028 360.253C407.28 359.399 408.327 374.328 406.26 383.792C404.518 391.79 401.191 399.547 397.114 406.627C389.126 420.508 376.477 433.229 359.685 433.553C359.24 433.553 359.101 434.277 359.574 434.361C367.886 435.78 376.069 431.122 382.37 426.158C390.507 419.756 396.512 411.146 401.052 401.932C405.593 392.718 409.235 382.92 407.919 372.667C407.048 365.857 401.886 357.784 393.991 360.03C393.87 360.067 393.889 360.252 394.019 360.243L394.028 360.253Z" fill="black"/>
            <path d="M391.239 365.077C377.088 364.957 364.726 381.231 358.526 392.236C354.857 398.749 351.808 406.349 351.549 413.892C351.363 419.571 353.022 427.235 359.546 428.543C359.907 428.617 360.195 428.079 359.815 427.912C345.21 421.287 355.422 397.886 361.575 388.561C365.078 383.245 369.202 378.169 374.049 374.022C379.321 369.494 384.752 367.36 391.276 365.291C391.387 365.254 391.368 365.087 391.248 365.087L391.239 365.077Z" fill="black"/>
            <path d="M395.909 400.791C391.424 407.026 387.875 413.391 382.176 418.745C376.087 424.47 369.6 428.218 361.131 428.19C360.676 428.19 360.556 428.905 361.019 428.998C368.303 430.454 375.457 426.196 380.813 421.677C387.18 416.314 393.333 408.845 396.113 400.874C396.159 400.744 395.983 400.698 395.909 400.791Z" fill="black"/>
            <path d="M392.545 365.43C408.809 365.987 400.274 388.673 397.308 397.209C397.151 397.655 397.837 397.924 398.059 397.525C401.784 390.909 404.444 382.131 403.286 374.486C402.544 369.596 398.143 363.314 392.517 365.207C392.397 365.244 392.416 365.421 392.545 365.421V365.43Z" fill="black"/>
            <path d="M365.588 438.657C374.91 440.382 384.168 435.242 391.192 429.601C400.052 422.484 406.779 411.934 411.246 401.57C414.86 393.192 417.232 381.278 413.377 372.584C411.218 367.703 406.149 364.91 402.201 361.598C401.803 361.264 401.219 361.839 401.618 362.182C404.565 364.651 408.271 367.211 410.718 370.181C417.205 378.067 413.572 393.192 409.847 401.579C405.908 410.45 400.32 418.717 393.639 425.732C385.855 433.906 376.903 438.165 365.616 438.443C365.495 438.443 365.458 438.638 365.588 438.657Z" fill="black"/>
            <path d="M352.438 431.271C356.071 434.648 360.519 438.174 365.625 438.796C365.875 438.824 365.94 438.462 365.745 438.35C363.28 436.894 360.417 436.216 357.943 434.704C356.108 433.581 354.338 432.347 352.624 431.039C352.485 430.937 352.318 431.16 352.438 431.271Z" fill="black"/>
            <path d="M407.715 365.848L407.929 365.81C407.929 365.81 407.929 365.792 407.929 365.801L407.715 365.838C407.715 365.838 407.715 365.857 407.715 365.848Z" fill="black"/>
            <path d="M386.957 56.4711C384.817 53.27 381.953 55.7938 381.258 58.5681C380.285 62.4651 381.184 66.891 381.073 70.8437C380.962 75.0283 380.712 79.2037 380.619 83.3976C380.526 87.5916 380.517 91.7576 380.684 95.9516C380.813 99.3104 380.22 104.135 381.824 107.253C383.177 109.888 386.003 110.723 387.893 108.227C388.069 107.995 387.699 107.726 387.504 107.921C383.649 107.856 381.907 106.251 382.278 103.115C382.203 101.918 382.148 100.73 382.083 99.5331C381.99 97.7423 381.925 95.9516 381.851 94.1608C381.694 90.2731 381.481 86.3853 381.388 82.5069C381.295 78.6284 381.166 74.7036 381.332 70.853C381.434 68.589 381.722 67.5034 382.009 65.4807C382.12 64.293 382.231 63.0961 382.315 61.8991C381.805 59.3197 382.889 57.7794 385.558 57.2877C386.142 58.132 387.523 57.3433 386.948 56.4711H386.957Z" fill="black"/>
            <path d="M382.407 57.297C381.601 55.5155 380.767 53.734 380.137 51.8783C379.905 51.2009 379.711 50.505 379.535 49.8091C379.321 48.9833 378.404 47.2575 379.609 47.1091C380.647 46.9884 380.341 47.9163 380.48 48.8163C380.619 49.7163 380.776 50.6628 380.915 51.5813C381.203 53.4278 381.481 55.2742 381.74 57.1299C381.823 57.7516 382.824 57.7052 382.945 57.1299C383.26 55.6454 383.473 54.1422 383.89 52.6762C384.307 51.2102 385.299 47.9163 386.846 47.3689C387.495 46.5338 387.977 46.9235 388.273 48.538C387.967 48.8813 387.662 49.2246 387.347 49.5679C386.726 50.2545 386.105 50.9318 385.484 51.6185C384.316 52.9082 383.102 54.133 382.166 55.599C381.935 55.9608 382.426 56.2485 382.713 56.0165C383.844 55.1258 393.815 46.2461 388.7 45.3647C386.67 45.0214 384.946 47.2018 384.066 48.705C382.62 51.1638 382.037 54.1515 381.722 56.9536L382.954 56.7866C382.389 53.2886 382.268 49.4844 381.351 46.0698C380.971 44.6595 379.979 43.6389 378.478 44.4275C376.486 45.476 377.366 48.1761 377.867 49.8091C378.738 52.6762 379.998 55.3577 381.925 57.6588C382.176 57.9557 382.556 57.5753 382.417 57.2784L382.407 57.297Z" fill="black"/>
            <path d="M384.909 108.227C383.946 111.011 384.492 115.028 384.474 118.053C384.446 123.37 384.391 128.696 384.381 134.012C384.353 151.725 384.326 169.447 384.289 187.16C384.214 230.584 384.057 274.017 384.122 317.441C384.14 331.934 384.15 346.427 384.205 360.911C384.205 361.245 384.724 361.245 384.724 360.911C384.854 328.464 385.086 296.017 385.197 263.579C385.345 222.475 385.53 181.37 385.438 140.266C385.419 133.623 385.391 126.97 385.289 120.326C385.234 116.875 384.4 111.642 385.447 108.376C385.558 108.023 385.021 107.884 384.9 108.227H384.909Z" fill="black"/>
            <path d="M385.03 360.512C380.656 358.536 379.711 371.619 379.322 373.66C377.357 384.006 375.392 394.491 374.679 405.003C374.317 410.394 373.854 415.776 373.798 421.185C373.761 425.008 373.261 429.545 374.771 433.182C375.439 434.788 380.99 442.173 381.888 437.014C381.935 436.755 381.527 436.643 381.49 436.903C380.878 441.32 376.115 434.509 375.958 434.222C375.04 432.57 374.651 430.77 374.503 428.914C374.243 425.769 374.364 422.54 374.438 419.376C374.586 413.038 375.114 406.803 375.883 400.512C376.653 394.221 377.691 387.467 378.849 380.981C379.108 379.533 382.315 360.577 384.437 361.533C385.132 361.848 385.743 360.819 385.039 360.503L385.03 360.512Z" fill="black"/>
            <path d="M384.307 361.023C385.994 359.306 386.828 357.2 387.977 355.121C388.116 354.871 391.572 349.462 392.277 352.579C392.545 353.767 389.654 356.142 388.82 356.986C387.912 357.896 386.615 359.687 385.456 360.188C383.714 360.939 382.241 358.981 381.258 357.877C380.684 357.228 379.182 355.168 380.952 356.105C381.221 356.244 381.768 357.534 381.99 357.868C382.695 358.926 383.51 359.854 384.409 360.754C384.706 361.05 385.16 360.596 384.872 360.29C383.649 359.018 382.611 357.645 381.796 356.086C381.499 355.53 381.221 354.658 380.61 354.351C379.646 353.869 378.636 354.24 378.626 355.4C378.626 357.256 381.824 359.872 383.102 360.791C384.919 362.099 385.679 360.726 387.235 359.343C388.125 358.564 395.696 352.013 392.128 350.649C388.561 349.285 385.308 359.018 384.196 360.93C384.15 361.004 384.251 361.088 384.316 361.023H384.307Z" fill="black"/>
            <path d="M428.047 90.9875C425.915 86.905 422.82 92.1474 421.968 94.1979C419.104 101.083 417.659 108.626 417.557 116.068C417.473 122.414 417.807 131.98 421.226 137.575C422.533 139.709 425.619 140.721 425.952 137.455C426.017 136.796 424.952 136.666 424.803 137.297C422.867 137.251 421.819 136.378 421.68 134.671C421.338 133.669 421.032 132.648 420.744 131.628C420.318 130.097 419.948 128.547 419.651 126.989C418.873 122.887 418.632 118.647 418.789 114.472C418.947 110.296 419.558 106.112 420.624 102.057C421.097 100.275 424.034 88.5844 427.333 91.5443C427.722 91.8876 428.297 91.4608 428.047 90.9875Z" fill="black"/>
            <path d="M426.842 90.7556C428.167 88.9369 429.669 87.1926 431.346 85.6894C432.217 84.91 433.144 84.1863 434.117 83.5368C434.413 83.342 434.988 82.8131 435.34 82.7667C435.72 82.4048 435.998 82.5718 436.174 83.2584C436.813 83.6389 436.869 84.0471 436.331 84.4739C435.646 86.1812 433.06 87.6008 431.568 88.4452C430.706 88.9369 429.826 89.4009 428.927 89.7999C427.88 90.2731 427.083 90.2545 425.98 90.338C425.851 90.3473 425.758 90.4308 425.749 90.57L425.73 90.8947C425.721 91.0803 425.841 91.3123 426.017 91.3958C426.972 91.8597 427.63 91.535 428.547 91.1081C430.123 90.3659 431.707 89.5308 433.153 88.5658C434.756 87.4988 438.185 85.0585 437.833 82.7388C437.453 80.1965 434.432 82.3955 433.431 83.0914C430.577 85.0771 428.232 87.5544 426.471 90.5514C426.332 90.7834 426.675 90.969 426.824 90.7556H426.842Z" fill="black"/>
            <path d="M423.636 138.856C422.941 153.284 423.191 167.851 423.145 182.289C423.08 204.567 423.006 226.836 423.126 249.113C423.154 254.634 423.46 260.22 423.247 265.741C423.228 266.205 423.942 266.205 423.96 265.741C425.341 229.062 424.396 192.171 424.071 155.483C424.025 149.953 423.812 144.386 423.96 138.856C423.96 138.642 423.645 138.642 423.636 138.856Z" fill="black"/>
            <path d="M420.383 266.613C407.317 267.671 396.419 277.422 392.619 289.791C388.459 303.338 393.657 318.193 405.528 326.033C419.901 335.516 437.925 330.617 448.555 318.072C457.757 307.216 458.211 291.062 450.779 279.13C442.438 265.75 421.208 260.405 408.058 270.241C407.363 270.76 407.938 271.753 408.735 271.401C420.791 266.177 436.887 265.379 446.266 276.253C455.078 286.469 456.607 301.38 450.417 313.293C442.883 327.787 424.099 334.013 409.356 326.831C396.91 320.763 390.303 306.659 392.981 293.224C395.659 279.788 406.928 269.879 420.457 267.086C420.726 267.03 420.67 266.576 420.392 266.594L420.383 266.613Z" fill="black"/>
            <path d="M418.122 324.159C429.261 326.71 440.752 320.772 446.432 311.104C452.576 300.619 450.871 286.942 442.021 278.499C432.319 269.248 417.668 270.157 407.252 277.645C398.207 284.159 394.566 296.509 397.355 307.095C400.626 319.51 416.028 329.188 428.668 324.344C429.316 324.094 429.307 322.953 428.492 323.018C413.646 324.205 399.162 317.487 398.337 300.934C397.642 287.007 407.854 273.785 422.07 272.839C438.611 271.735 451.946 286.58 448.388 302.966C445.311 317.135 431.911 324.706 418.196 323.667C417.918 323.648 417.853 324.094 418.131 324.159H418.122Z" fill="black"/>
            <path d="M117.494 177.39C116.577 178.949 116.549 180.879 116.512 182.642C116.475 184.497 116.66 186.149 117.457 187.838C117.967 188.923 119.468 188.478 119.802 187.531C120.376 185.926 120.432 184.33 120.45 182.642C120.469 180.953 120.673 179.264 120.08 177.724C119.653 176.629 118.162 176.267 117.504 177.39H117.494Z" fill="black"/>
            <path d="M113.296 183.699C114.826 185.073 117.402 185.008 119.339 184.933C121.414 184.859 121.433 181.639 119.339 181.686C117.467 181.732 115.252 181.324 113.51 182.094C112.917 182.354 112.852 183.291 113.306 183.699H113.296Z" fill="black"/>
            <path d="M157.379 116.485C165.942 111.53 174.421 106.659 183.845 103.43C193.409 100.145 202.908 99.2919 212.842 97.9929C213.546 97.9001 213.583 96.9073 212.842 96.8609C202.908 96.2207 192 98.93 182.687 102.15C173.374 105.369 164.478 109.758 157.148 116.179C156.981 116.327 157.194 116.596 157.388 116.485H157.379Z" fill="black"/>
            <path d="M168.861 100.48C180.324 95.8124 192.149 91.3494 204.594 90.8948C205.178 90.8762 205.308 90.0411 204.733 89.8741C198.737 88.1205 192.26 90.5236 186.533 92.2958C180.277 94.2258 174.05 96.165 168.629 99.9321C168.37 100.118 168.518 100.628 168.861 100.489V100.48Z" fill="black"/>
            <path d="M417.594 25.3322C416.852 28.2642 416.389 31.2705 416.602 34.3046C416.76 36.5778 419.975 36.5871 420.133 34.3046C420.346 31.2705 419.883 28.2642 419.141 25.3322C418.947 24.562 417.788 24.562 417.594 25.3322Z" fill="black"/>
            <path d="M413.405 31.5395C415.092 31.4839 416.76 31.3076 418.456 31.3261C420.031 31.3447 421.597 31.4189 423.108 30.9179C423.756 30.7044 423.96 29.7673 423.302 29.4054C420.309 27.7724 415.944 28.8302 413.053 30.2405C412.423 30.5467 412.738 31.5581 413.405 31.5395Z" fill="black"/>
            <path d="M256.377 268.97C265.848 276.272 279.378 277.051 290.906 277.348C302.165 277.636 313.73 276.012 322.478 268.394C322.904 268.023 322.348 267.309 321.876 267.606C312.285 273.535 301.303 275.511 290.155 275.251C279.007 274.991 266.729 273.785 257.406 267.197C256.313 266.427 255.358 268.181 256.377 268.96V268.97Z" fill="black"/>
            <path d="M265.339 281.208C277.154 287.091 293.074 287.054 305.316 282.396C306.233 282.043 305.891 280.605 304.899 280.883C292.732 284.344 277.728 283.407 265.542 280.726C265.264 280.67 265.061 281.069 265.339 281.199V281.208Z" fill="black"/>
            <path d="M187.126 383.746C187.024 382.076 187.255 381.213 186.227 379.496C185.198 377.78 183.845 376.045 183.845 376.045L187.923 371.155C187.923 371.155 188.785 370.747 188.562 370.478C188.34 370.208 186.95 369.16 186.95 369.16L185.523 368.186L184.299 369.373L182.446 371.322L181.074 372.909L179.953 372.305L178.73 371.211L181.334 368.093L183.206 366.005L180.407 363.5L175.737 368.483L170.204 363.908L168.703 365.411L167.183 367.406C167.183 367.406 168.731 368.158 169.148 368.733C169.574 369.308 170.13 370.273 169.852 371.044C169.574 371.814 168.935 372.686 168.833 372.76C168.787 372.788 168.573 372.964 168.351 373.15L168.277 373.085L167.897 373.521C167.786 373.614 167.712 373.679 167.712 373.679L167.739 373.706L161.54 380.73L159.177 382.985C159.177 382.985 158.157 384.052 158.074 384.173C157.991 384.293 157.027 384.989 157.027 384.989L155.915 384.878L154.052 383.05L151.698 384.739L150.994 385.694L155.618 390.807L153.83 392.774L152.088 394.611L151.865 395.214L153.783 397.553L157.731 393.451L159.724 395.363L157.685 397.692L155.878 399.919L157.37 401.459L158.194 402.025L161.438 398.768L162.318 398.193L162.263 398.35C162.263 398.35 165.488 401.32 167.434 401.839C169.38 402.359 170.881 402.572 172.725 401.876C174.569 401.18 176.765 400.234 178.072 398.508C179.379 396.782 179.49 394.843 179.249 393.655C179.026 392.542 178.257 391.132 177.998 390.77C178.73 390.77 180.222 390.77 181.065 390.631C182.205 390.436 183.558 390.092 184.568 389.063C185.578 388.033 187.237 385.435 187.135 383.764L187.126 383.746ZM175.144 375.182C175.144 375.182 176.626 375.878 177.979 377.585C179.221 379.162 179.749 381.046 179.823 381.343C179.786 381.909 179.703 382.79 179.471 383.152C179.11 383.709 177.72 385.249 176.858 385.314C175.996 385.379 174.671 385.008 174.671 385.008L174.717 385.101C174.384 385.026 173.893 384.85 173.439 384.488C172.679 383.867 170.77 382.373 170.77 382.373L169.324 381.037L169.954 380.285L172.892 377.102L172.818 377.038L175.134 375.182H175.144ZM170.825 395.159C169.287 395.697 167.378 395.493 166.776 395.196C166.349 394.992 165.163 394.157 164.487 393.683C164.023 393.303 162.67 392.134 162.67 392.134C162.67 392.134 161.466 390.89 161.345 390.779C161.317 390.751 161.243 390.621 161.16 390.454H161.271C161.271 390.454 161.79 388.923 162.309 388.58C162.828 388.237 163.94 387.467 164.385 386.678C164.83 385.889 166.062 384.785 166.062 384.785L166.785 384.099L166.896 383.969C167.332 384.312 167.878 384.739 167.99 384.804C168.184 384.915 169.139 386.103 169.315 386.279C169.491 386.455 170.51 387.671 170.51 387.671C170.51 387.671 171.113 388.617 171.252 388.664C171.391 388.71 172.299 390.343 172.326 390.696C172.354 391.048 172.577 392.384 172.577 392.384C172.577 392.384 172.354 394.62 170.816 395.159H170.825ZM177.349 390.399C177.349 390.399 177.349 390.362 177.358 390.315L177.451 390.491C177.377 390.473 177.331 390.445 177.349 390.389V390.399Z" fill="black"/>
            <path d="M151.949 394.964C151.485 394.825 151.235 395.391 151.597 395.687C151.8 395.855 152.041 395.984 152.264 396.142C152.458 396.281 152.672 396.513 152.922 396.448C153.014 396.421 153.061 396.356 153.061 396.253C153.051 396.003 152.792 395.892 152.616 395.752C152.505 395.66 152.384 395.576 152.273 395.483C152.217 395.437 152.162 395.391 152.106 395.344C152.014 395.224 151.977 395.27 151.995 395.483L151.773 395.548H151.819C152.134 395.548 152.301 395.075 151.949 394.973V394.964Z" fill="black"/>
            <path d="M157.843 393.73C157.889 393.748 157.935 393.758 157.991 393.748C158.037 393.748 158.084 393.748 158.13 393.72C158.176 393.702 158.213 393.674 158.241 393.637C158.278 393.6 158.306 393.563 158.324 393.516L158.343 393.414C158.343 393.349 158.343 393.284 158.315 393.229L158.269 393.145C158.223 393.089 158.176 393.052 158.111 393.034C158.065 393.015 158.019 393.006 157.963 393.015C157.917 393.015 157.87 393.015 157.824 393.043C157.778 393.062 157.741 393.089 157.713 393.127C157.676 393.164 157.648 393.201 157.629 393.247L157.611 393.349C157.611 393.414 157.611 393.479 157.639 393.535L157.685 393.618C157.731 393.674 157.778 393.711 157.843 393.73Z" fill="black"/>
            <path d="M162.43 387.866C162.077 387.921 161.753 388.153 161.475 388.376C161.197 388.599 160.808 388.831 160.697 389.192C160.585 389.554 160.854 389.888 161.234 389.842C161.614 389.796 161.892 389.462 162.17 389.23C162.448 388.998 162.735 388.719 162.847 388.376C162.939 388.098 162.717 387.819 162.42 387.866H162.43Z" fill="black"/>
            <path d="M155.73 400.076C155.878 400.596 156.35 400.874 156.74 401.218C157.101 401.542 157.416 402.118 157.935 402.099C158.037 402.099 158.102 401.988 158.12 401.895C158.213 401.403 157.583 400.967 157.259 400.661C156.897 400.308 156.489 399.844 155.943 399.835C155.822 399.835 155.683 399.937 155.73 400.067V400.076Z" fill="black"/>
            <path d="M164.95 400.772C165.886 401.719 167.248 402.247 168.537 402.498C169.315 402.646 170.742 402.359 170.649 401.329C170.64 401.18 170.464 401.069 170.316 401.097C170.01 401.153 169.834 401.338 169.556 401.459C169.046 401.691 168.416 401.626 167.906 401.477C167.026 401.218 166.164 400.819 165.46 400.225C165.136 399.946 164.635 400.466 164.941 400.772H164.95Z" fill="black"/>
            <path d="M171.752 394.732C172.169 394.221 172.633 393.758 172.892 393.136C173.152 392.514 173.263 391.8 173.235 391.104C173.189 389.898 172.735 388.766 171.975 387.829C171.419 387.142 170.353 388.014 170.918 388.691C171.558 389.471 171.938 390.408 171.91 391.429C171.891 391.958 171.78 392.477 171.706 393.006C171.632 393.563 171.66 394.129 171.613 394.685C171.613 394.76 171.706 394.797 171.752 394.741V394.732Z" fill="black"/>
            <path d="M177.868 389.582C177.674 389.536 177.488 389.601 177.294 389.647C177.016 389.721 176.719 389.86 176.626 390.176C176.552 390.436 176.617 390.677 176.83 390.853C177.09 391.067 177.423 391.011 177.711 390.9C177.785 390.872 177.868 390.844 177.942 390.816C178.091 390.751 178.192 390.649 178.304 390.529C178.443 390.371 178.443 390.111 178.369 389.935C178.276 389.721 178.1 389.638 177.877 389.591L177.868 389.582Z" fill="black"/>
            <path d="M180.861 364.363C180.917 364.038 180.834 364.075 180.732 363.732L180.296 364.01C181.065 364.715 181.844 365.402 182.594 366.126C182.974 366.488 183.493 365.931 183.085 365.606C182.251 364.938 181.436 364.242 180.62 363.565C180.389 363.37 180.12 363.667 180.203 363.908C180.315 364.242 180.222 364.261 180.454 364.502C180.602 364.651 180.824 364.586 180.861 364.381V364.363Z" fill="black"/>
            <path d="M170.279 363.862C170.038 364.307 170.427 364.762 170.714 365.096C170.974 365.411 171.428 365.922 171.882 365.81C172.021 365.773 172.095 365.662 172.086 365.523C172.067 365.133 171.613 364.827 171.381 364.558C171.15 364.289 170.946 363.778 170.538 363.751C170.446 363.751 170.334 363.778 170.288 363.862H170.279Z" fill="black"/>
            <path d="M170.26 363.649C169.658 364.075 169.148 364.725 168.657 365.272C168.101 365.894 167.563 366.534 167.035 367.184C166.933 367.314 167.017 367.471 167.137 367.536C168.231 368.084 169.686 368.845 169.908 370.19C170.065 371.127 169.296 371.777 168.713 372.389C168.045 373.085 167.397 373.799 166.748 374.514C165.775 375.581 164.867 376.713 163.884 377.761C162.837 378.865 161.762 379.942 160.715 381.055C159.9 381.918 159.093 382.772 158.334 383.69C158.213 383.839 158.426 384.034 158.565 383.913C160.697 382.131 162.346 379.821 164.2 377.78C165.914 375.906 167.665 374.059 169.398 372.194C170.195 371.34 170.408 370.468 169.991 369.373C169.547 368.214 168.342 367.629 167.295 367.1L167.397 367.453C167.897 366.84 168.407 366.237 168.935 365.643C169.463 365.05 170.065 364.502 170.482 363.853C170.575 363.704 170.399 363.537 170.26 363.639V363.649Z" fill="black"/>
            <path d="M154.164 383.059C154.349 383.607 154.747 384.052 155.127 384.488C155.368 384.776 155.6 385.026 155.971 385.138C156.749 385.379 157.546 385.026 157.963 384.368C157.981 384.33 157.954 384.275 157.907 384.303C157.101 384.748 156.276 385.064 155.507 384.331C155.044 383.894 154.747 383.356 154.173 383.041C154.173 383.041 154.154 383.041 154.154 383.05L154.164 383.059Z" fill="black"/>
            <path d="M155.359 384.228C154.97 383.635 154.544 382.493 153.756 383.087C152.783 383.829 151.597 384.637 150.865 385.629C150.837 385.667 150.837 385.732 150.865 385.759C151.699 386.548 152.366 387.457 153.116 388.311C153.867 389.165 154.618 390.018 155.322 390.918C155.535 391.187 155.952 390.844 155.739 390.584C155.109 389.805 154.469 389.035 153.802 388.283C153.135 387.532 152.347 386.91 151.615 386.205C151.161 385.769 151.152 385.694 151.615 385.268C152.004 384.915 152.403 384.572 152.811 384.228C153.126 383.959 153.487 383.607 153.876 383.44C154.367 383.236 154.377 383.44 154.692 383.727C154.896 383.913 155.109 384.08 155.322 384.256C155.35 384.275 155.378 384.238 155.359 384.219V384.228Z" fill="black"/>
            <path d="M155.396 390.631C154.608 391.048 154.006 392.013 153.422 392.681C152.699 393.516 152.014 394.379 151.291 395.214C151.226 395.288 151.226 395.437 151.291 395.502C152.079 396.272 152.801 397.126 153.617 397.859C153.728 397.961 153.895 397.905 153.978 397.803C154.646 396.986 155.35 396.216 156.1 395.474C156.656 394.927 157.453 394.407 157.815 393.711C157.87 393.59 157.731 393.498 157.629 393.535C156.823 393.841 156.11 394.797 155.507 395.409C154.84 396.096 154.201 396.792 153.561 397.506H153.969C153.246 396.69 152.412 395.984 151.662 395.214V395.502C152.375 394.704 153.107 393.943 153.811 393.154C154.414 392.477 155.322 391.726 155.637 390.872C155.693 390.733 155.535 390.566 155.387 390.64L155.396 390.631Z" fill="black"/>
            <path d="M157.509 393.683C158.232 394.249 158.862 394.889 159.418 395.613L159.455 395.279C158.732 395.966 158.074 396.745 157.407 397.488C156.693 398.285 155.952 399.093 155.368 399.993C155.313 400.067 155.331 400.16 155.405 400.225C156.249 400.939 157.055 401.691 157.778 402.517C157.88 402.628 158.056 402.628 158.148 402.507C159.307 400.902 160.678 399.51 162.3 398.378C162.606 398.165 162.226 397.692 161.929 397.924C160.345 399.167 158.936 400.596 157.768 402.229L158.093 402.173C157.277 401.412 156.462 400.661 155.6 399.946L155.637 400.178C156.295 399.455 156.888 398.657 157.537 397.924C158.241 397.126 159.019 396.411 159.761 395.65C159.844 395.567 159.891 395.418 159.798 395.316C159.149 394.639 158.436 394.017 157.676 393.461C157.528 393.349 157.37 393.572 157.509 393.683Z" fill="black"/>
            <path d="M166.729 383.839C166.21 384.117 165.867 384.655 165.478 385.091C164.941 385.704 164.403 386.316 163.866 386.928C163.328 387.541 162.8 388.135 162.253 388.729C161.883 389.137 161.253 389.647 161.049 390.157C161.012 390.241 161.049 390.343 161.123 390.399L161.16 390.426C161.29 390.519 161.447 390.399 161.438 390.259V390.241C161.419 390.139 161.308 390.092 161.215 390.13C161.141 390.157 161.114 390.259 161.141 390.324C161.178 390.259 161.215 390.185 161.253 390.12H161.234C161.299 390.204 161.364 390.278 161.429 390.352C161.493 390.139 161.873 389.833 162.031 389.656C162.281 389.369 162.522 389.072 162.763 388.775C163.217 388.218 163.699 387.689 164.162 387.142C164.626 386.594 165.108 386.056 165.571 385.518C165.997 385.026 166.581 384.535 166.813 383.922C166.831 383.876 166.776 383.811 166.72 383.839H166.729Z" fill="black"/>
            <path d="M166.804 383.978C168.129 385.333 169.445 386.799 170.473 388.404C171.502 390.009 172.373 392.394 171.141 394.203C169.797 396.17 167.082 395.279 165.441 394.249C164.533 393.683 163.727 392.969 162.986 392.208C162.597 391.809 162.217 391.401 161.846 390.983C161.67 390.788 161.42 390.631 161.438 390.343C161.438 390.213 161.596 389.907 161.624 389.777C161.661 389.629 161.457 389.601 161.383 389.684C161.188 389.907 161.068 390.12 160.919 390.371C160.873 390.464 160.854 390.575 160.919 390.658C162.495 392.449 164.172 394.277 166.387 395.27C168.194 396.086 170.464 396.523 171.734 394.63C172.874 392.941 172.466 390.649 171.465 388.988C170.872 388.014 170.131 387.123 169.398 386.251C168.666 385.379 167.86 384.525 166.869 383.913C166.832 383.894 166.785 383.932 166.813 383.969L166.804 383.978Z" fill="black"/>
            <path d="M156.675 384.98C157.138 384.989 157.564 384.702 157.935 384.442C158.538 384.024 159.186 383.523 159.677 382.985C159.77 382.883 159.622 382.688 159.501 382.762C158.482 383.393 157.75 384.433 156.675 384.971V384.98Z" fill="black"/>
            <path d="M156.406 395.038C156.777 394.611 157.148 393.943 157.629 393.646C157.815 393.526 157.602 393.284 157.472 393.451C157.138 393.869 156.656 394.157 156.304 394.555C155.998 394.899 155.646 395.27 155.442 395.687C155.396 395.78 155.517 395.845 155.591 395.79C156.415 395.224 156.879 394.231 157.666 393.628L157.472 393.451C157.305 393.748 156.999 393.98 156.786 394.249C156.601 394.491 156.452 394.723 156.323 394.992C156.295 395.047 156.378 395.084 156.415 395.038H156.406Z" fill="black"/>
            <path d="M155.656 390.723C155.294 391.057 155.007 391.456 154.673 391.818C154.303 392.227 153.848 392.561 153.496 392.987C153.45 393.043 153.533 393.108 153.589 393.071C154.034 392.755 154.395 392.301 154.784 391.92C155.127 391.577 155.507 391.243 155.785 390.844C155.841 390.77 155.739 390.658 155.656 390.723Z" fill="black"/>
            <path d="M177.525 390.705C178.749 392.459 179.129 394.277 178.517 396.365C178.23 397.358 177.702 398.267 176.997 399.028C176.608 399.455 176.154 399.789 175.718 400.16C175.237 400.577 174.755 400.772 174.162 401.004C172.077 401.839 169.945 402.758 167.684 401.988C166.581 401.617 165.59 401.004 164.7 400.271C163.81 399.538 163.078 398.638 162.217 397.868C161.976 397.645 161.605 398.044 161.818 398.285C162.708 399.269 163.801 400.169 164.876 400.93C165.951 401.691 167.017 402.22 168.249 402.535C169.343 402.813 170.39 402.795 171.483 402.47C172.577 402.145 173.809 401.756 174.82 401.134C175.339 400.809 175.913 400.587 176.404 400.225C176.895 399.863 177.349 399.399 177.739 398.916C178.397 398.081 178.851 397.107 179.073 396.059C179.453 394.268 178.999 391.883 177.627 390.584C177.563 390.519 177.479 390.631 177.525 390.696V390.705Z" fill="black"/>
            <path d="M169.519 380.962C170.473 379.997 171.363 378.967 172.299 377.993C173.235 377.019 174.273 376.119 175.236 375.154H174.986C176.46 376.156 177.674 377.52 178.563 379.06C178.999 379.812 179.462 380.684 179.444 381.584C179.416 382.549 178.73 383.412 178.044 384.043C177.451 384.59 176.719 385.017 175.894 385.017C174.949 385.017 173.93 384.488 173.142 384.006C172.354 383.523 171.595 382.985 170.983 382.289C170.492 381.732 170.065 381.166 169.37 380.86L169.491 381.25C170.742 379.422 172.262 377.659 173.911 376.165C174.032 376.054 173.874 375.868 173.754 375.97C172.892 376.685 172.058 377.372 171.289 378.197C170.492 379.07 169.76 379.988 169.074 380.953C168.972 381.102 169.046 381.269 169.194 381.343C170.167 381.816 170.862 382.911 171.659 383.635C172.456 384.358 173.355 384.906 174.338 385.323C176.043 386.047 177.59 385.5 178.813 384.163C179.397 383.523 179.963 382.744 180.018 381.853C180.074 380.962 179.675 380.062 179.221 379.301C178.183 377.557 176.793 376.119 175.246 374.829C175.181 374.774 175.06 374.783 174.995 374.829C173.93 375.738 172.966 376.796 172.002 377.817C171.103 378.773 170.186 379.784 169.435 380.86C169.389 380.925 169.482 381.018 169.537 380.953L169.519 380.962Z" fill="black"/>
            <path d="M165.071 385.713C165.34 385.435 165.627 385.166 165.896 384.887C166.053 384.516 166.303 384.386 166.646 384.498C166.887 384.423 167.072 384.488 167.184 384.692C167.313 384.785 167.425 384.924 167.536 385.036C168.147 385.639 168.768 386.251 169.334 386.901C169.899 387.55 170.399 388.209 170.844 388.933C171.261 389.601 171.493 390.473 171.984 391.067C172.058 391.15 172.234 391.122 172.234 390.993C172.225 390.111 171.539 389.183 171.067 388.469C170.436 387.513 169.686 386.65 168.917 385.806C168.527 385.379 168.129 384.961 167.73 384.562C167.499 384.331 167.221 383.932 166.896 383.848C166.572 383.765 166.507 383.941 166.331 384.154C165.886 384.655 165.479 385.193 165.052 385.713C165.052 385.713 165.052 385.732 165.062 385.722L165.071 385.713Z" fill="black"/>
            <path d="M170.279 363.918C172.077 365.43 173.791 367.044 175.542 368.603C175.607 368.659 175.709 368.64 175.774 368.603C176.71 367.991 177.442 367.007 178.183 366.191C178.98 365.3 179.805 364.446 180.611 363.565C180.75 363.417 180.5 363.175 180.352 363.314C179.101 364.558 177.989 365.959 176.766 367.23C176.488 367.518 176.2 367.796 175.895 368.047C175.839 368.093 175.774 368.176 175.709 368.195C175.542 368.251 175.728 368.232 175.589 368.186C175.542 368.167 175.311 367.861 175.246 367.805L174.708 367.304C173.355 366.061 171.965 364.845 170.649 363.556C170.39 363.305 170.028 363.686 170.306 363.918H170.279Z" fill="black"/>
            <path d="M180.472 363.481C181.408 364.372 182.363 365.226 183.326 366.079L183.354 365.783C182.928 365.959 182.669 366.395 182.372 366.729C181.955 367.211 181.529 367.685 181.102 368.158C180.213 369.141 179.333 370.125 178.443 371.108C178.378 371.183 178.415 371.294 178.48 371.35C179.24 371.934 180 372.528 180.76 373.113C180.815 373.159 180.88 373.131 180.926 373.085C182.103 371.749 183.336 370.478 184.587 369.206C184.772 369.021 185.133 368.483 185.384 368.408C185.717 368.306 186.144 368.78 186.403 368.974C187.126 369.513 187.83 370.069 188.525 370.645V370.357C187.348 371.183 186.616 372.231 185.736 373.345C185.217 373.994 184.67 374.607 184.086 375.191C183.836 375.442 183.391 375.738 183.419 376.128C183.419 376.193 183.484 376.23 183.54 376.24C183.651 376.258 183.679 376.23 183.753 376.147C183.79 376.11 183.781 376.035 183.753 375.998L183.725 375.97C183.642 375.868 183.484 375.97 183.53 376.091C183.605 376.267 184.698 375.2 184.772 375.117C185.226 374.625 185.653 374.115 186.06 373.586C186.811 372.612 187.534 371.192 188.711 370.672C188.85 370.617 188.84 370.44 188.738 370.357C187.728 369.485 186.681 368.677 185.578 367.935C185.523 367.898 185.421 367.889 185.365 367.935C184.29 369.012 183.252 370.116 182.233 371.248C181.936 371.582 181.14 372.816 180.685 372.732C180.38 372.677 179.925 372.101 179.685 371.897C179.351 371.619 179.017 371.34 178.684 371.062L178.721 371.303C179.499 370.422 180.287 369.54 181.065 368.668C181.455 368.232 181.844 367.787 182.242 367.351C182.613 366.942 183.002 366.349 183.484 366.079C183.604 366.015 183.614 365.875 183.512 365.783C182.539 364.947 181.557 364.122 180.556 363.324C180.463 363.25 180.37 363.389 180.454 363.463L180.472 363.481Z" fill="black"/>
            <path d="M183.716 375.701C183.623 375.794 183.558 375.859 183.465 375.961C183.428 376.008 183.428 376.1 183.465 376.147C184.114 376.824 184.605 377.622 185.068 378.429C185.485 379.153 185.94 379.886 186.264 380.656C187.005 382.447 186.56 384.488 185.865 386.223C185.17 387.958 184.031 389.332 182.344 390.074C181.538 390.427 180.648 390.649 179.759 390.677C178.962 390.696 178.165 390.464 177.377 390.547C177.303 390.547 177.284 390.659 177.34 390.705C178.656 391.633 181.047 391.085 182.39 390.473C184.068 389.712 185.504 388.376 186.282 386.687C187.061 384.999 187.571 382.735 186.95 380.888C186.329 379.042 185.096 377.186 183.678 375.924L183.716 376.137C183.79 376.063 183.855 375.98 183.919 375.896C184.012 375.766 183.836 375.59 183.716 375.701Z" fill="black"/>
            <path d="M177.34 390.649C177.979 391.308 178.628 392.171 178.563 393.136L178.851 393.089C178.545 392.199 178.174 391.15 177.396 390.556C177.229 390.427 177.016 390.658 177.145 390.816C177.859 391.651 178.637 392.496 178.758 393.628C178.813 394.129 178.823 394.63 178.786 395.131C178.749 395.558 178.656 395.947 178.749 396.374C178.776 396.476 178.897 396.476 178.943 396.393C179.36 395.604 179.305 394.268 179.073 393.433C178.776 392.375 178.1 391.419 177.423 390.584L177.173 390.844C177.961 391.382 178.165 392.394 178.573 393.201C178.656 393.359 178.86 393.275 178.851 393.117C178.804 391.985 178.081 391.391 177.34 390.64V390.649Z" fill="black"/>
            <path d="M178.517 396.476C179.091 395.381 178.878 394.129 178.619 392.969C178.387 391.967 177.989 390.946 177.118 390.343L176.923 390.696C178.017 391.095 179.388 391.373 180.528 391.03C180.658 390.992 180.685 390.761 180.519 390.761C179.286 390.733 178.239 390.761 177.062 390.315C176.849 390.232 176.664 390.547 176.867 390.668C177.831 391.252 178.23 392.18 178.461 393.247C178.693 394.314 178.869 395.409 178.508 396.458L178.517 396.476Z" fill="black"/>
            <path d="M395.974 387.643C395.103 387.225 394.288 386.734 393.528 386.168C393.518 386.168 393.509 386.158 393.5 386.149C393.491 386.112 393.453 386.103 393.398 386.121C391.063 387.207 388.625 388.673 386.253 389.972C385.085 390.612 383.807 391.438 382.685 391.828C382.157 392.013 381.666 392.069 381.249 391.995C381.036 391.957 380.869 391.855 380.702 391.753C380.721 391.698 380.721 391.651 380.702 391.614C380.257 390.937 379.924 390.241 379.85 389.183C379.776 388.051 379.942 386.752 380.137 385.444C380.498 382.957 381.036 380.248 380.971 378.021C381.027 377.938 381.064 377.835 381.036 377.789C380.767 377.39 380.211 377.325 379.831 377.075C379.414 376.806 379.053 376.481 378.71 376.119C378.71 376.091 378.71 376.073 378.71 376.045C378.682 375.868 378.413 376.035 378.348 376.24C378.274 376.369 378.228 376.527 378.293 376.601L378.311 376.62C378.209 378.188 377.95 379.793 377.57 381.538C377.116 383.635 376.931 385.5 376.736 387.448C376.56 389.23 376.291 391.095 376.458 392.635C376.551 393.516 376.801 394.528 377.357 395.001C377.644 396.216 379.201 396.049 380.276 395.984C381.814 395.882 383.427 395.121 385.215 394.045C387.041 392.95 388.811 392.041 390.599 391.187C392.332 390.362 394.01 389.508 395.798 388.227C396.002 388.079 396.113 387.689 395.983 387.634L395.974 387.643Z" fill="black"/>
            <path d="M378.089 405.504C378.256 403.751 378.395 402.025 378.302 400.457C378.117 397.478 375.485 397.107 372.835 398.007C370.712 398.731 368.368 400.076 366.144 401.292C363.809 402.572 361.464 403.964 359.101 405.458C358.934 405.569 358.879 405.838 358.99 405.829C359.083 406.404 359.629 406.599 359.972 406.868C360.38 407.184 360.806 407.573 361.325 407.722C361.399 407.74 361.483 407.675 361.548 407.583C363.753 406.256 365.949 404.845 368.127 403.713C370.129 402.674 372.964 400.958 374.28 401.858C374.568 402.22 374.92 402.489 375.096 402.999C375.272 403.5 375.272 404.122 375.216 404.799C375.096 406.349 374.762 408.037 374.493 409.67C374.188 411.48 373.91 413.28 373.873 414.931C373.863 415.674 374.067 416.054 374.503 416.305C375.059 416.629 375.624 416.945 376.115 417.362C376.208 417.446 376.375 417.307 376.486 417.14C376.597 417.084 376.727 416.945 376.745 416.778C377.236 412.992 377.737 409.197 378.089 405.486V405.504Z" fill="black"/>
            <path d="M434.089 308.756C434.024 308.432 433.718 308.292 433.385 308.246C433.366 308.227 433.348 308.209 433.31 308.209C432.273 308.116 431.161 308.292 430.123 308.339C429.057 308.394 427.991 308.413 426.926 308.413C425.86 308.413 424.794 308.385 423.728 308.357C422.755 308.329 421.708 308.144 420.726 308.2C421.004 306.817 421.338 305.435 421.718 304.071C421.903 303.412 422.098 302.762 422.301 302.113C422.487 301.538 422.774 300.953 422.885 300.359C422.904 300.359 422.932 300.368 422.959 300.359C423.617 300.174 424.266 299.969 424.915 299.775C425.471 299.608 426.166 299.515 426.675 299.246C427.028 299.06 427.028 298.615 427.092 298.244C427.204 297.622 427.296 296.982 427.324 296.342C427.324 296.277 427.268 296.249 427.213 296.258C426.045 296.509 424.692 296.768 423.682 297.455C423.858 296.796 424.127 296.128 424.34 295.479C424.785 294.078 425.239 292.676 425.693 291.275C426.416 289.039 427.259 286.812 427.834 284.53C428.038 283.713 427.787 283.24 426.944 283.12C425.424 282.906 423.766 283.027 422.264 283.305C422.264 283.296 422.255 283.277 422.237 283.277C421.171 282.628 420.837 284.558 420.624 285.17C420.077 286.738 419.558 288.306 419.077 289.893C418.103 293.094 417.214 296.314 416.435 299.57C415.852 299.719 415.296 300.025 414.721 300.211C414.211 300.378 413.637 300.461 413.155 300.702C412.831 300.869 412.701 301.12 412.562 301.454C412.302 302.094 412.08 302.781 411.876 303.44C411.848 303.532 411.95 303.644 412.043 303.607C413.109 303.208 414.202 302.697 415.342 302.503C415.333 302.549 415.342 302.595 415.37 302.623C414.61 304.238 414.211 306.056 413.757 307.763C413.238 309.758 412.71 311.763 412.191 313.757C412.173 313.822 412.21 313.887 412.275 313.915C412.877 314.11 413.72 313.989 414.341 313.999C415.861 314.017 417.381 314.008 418.9 313.999C422.311 313.999 425.721 314.017 429.131 313.85C429.474 313.832 429.817 313.832 430.169 313.822C430.883 313.924 431.633 313.971 432.198 313.702C432.912 313.368 433.06 312.477 433.273 311.8C433.459 311.197 433.644 310.603 433.82 310C433.931 309.628 434.163 309.137 434.089 308.738V308.756Z" fill="black"/>
            <path d="M349.955 322.656C347.184 320.085 344.404 317.534 341.642 314.964C338.881 312.393 336.147 309.731 333.358 307.216C333.274 307.142 333.209 307.179 333.191 307.253C333.144 307.253 333.107 307.3 333.107 307.364C333.07 311.067 333.089 314.797 333.154 318.527C333.219 322.257 333.246 325.996 333.45 329.763C333.45 329.874 333.524 329.949 333.599 329.976C333.617 330.004 333.636 330.032 333.673 330.041C337.287 331.424 341.003 332.38 344.598 333.075C344.691 333.094 344.737 333.02 344.737 332.936C344.747 332.936 344.765 332.918 344.774 332.899C345.284 332.166 345.646 331.21 346.072 330.385L347.36 327.861C347.786 327.017 348.222 326.181 348.648 325.337C349.056 324.539 349.519 323.769 349.862 322.915C350.01 323.027 350.121 322.786 349.973 322.646L349.955 322.656Z" fill="black"/>
            <path d="M350.474 324.595C349.602 326.358 348.741 328.139 347.888 329.921C347.48 330.774 347.073 331.637 346.665 332.491C346.294 333.28 345.794 334.068 345.553 334.978C343.709 334.458 341.865 334.068 340.02 333.539C339.112 333.28 338.204 333.011 337.296 332.732C336.453 332.472 335.48 331.999 334.664 331.971C334.636 331.971 334.618 331.99 334.618 332.027C334.581 332.046 334.553 332.111 334.609 332.175C335.118 332.788 335.767 333.242 336.341 333.734C336.953 334.263 337.574 334.783 338.195 335.302C339.492 336.406 340.799 337.511 342.096 338.615C344.533 340.684 346.971 342.725 349.491 344.581C349.528 344.655 349.593 344.702 349.658 344.702C349.779 344.757 349.834 344.609 349.797 344.47C349.927 341.194 350.075 337.937 350.251 334.681C350.335 333.066 350.427 331.442 350.529 329.828C350.575 329.021 350.631 328.214 350.677 327.406C350.724 326.58 350.881 325.699 350.789 324.836C350.789 324.78 350.761 324.734 350.724 324.706C350.696 324.576 350.548 324.465 350.483 324.595H350.474Z" fill="black"/>
            <path d="M423.664 265.481C424.22 262.864 425.406 260.424 427.241 258.457C427.463 258.216 428.102 257.39 428.427 257.344L430.011 258.689L429.483 259.505C429.038 260.907 427.176 262.521 426.166 263.569C424.868 264.924 423.191 265.518 421.347 264.971C420.392 264.683 419.503 264.33 418.706 263.718C417.214 262.577 417.001 262.326 418.27 260.758C419.883 258.763 419.049 259.357 419.799 260.387C420.142 260.851 420.327 261.51 420.624 262.02C421.236 263.096 421.903 263.913 422.83 264.748C422.95 264.859 423.163 264.711 423.07 264.562C422.023 262.976 421.162 261.38 420.281 259.7C419.92 259.004 419.595 258.253 418.845 257.891C417.39 257.186 416.259 258.123 415.944 259.589C415.536 261.491 416.658 263.328 418.159 264.414C419.558 265.425 422.728 266.678 424.414 266C425.99 265.37 433.31 257.919 430.808 255.905C429.52 254.866 427.509 257.167 426.749 257.974C424.785 260.044 423.645 262.558 423.172 265.351C423.117 265.666 423.589 265.806 423.654 265.481H423.664Z" fill="black"/>
            <path d="M423.154 266.251C421.208 278.118 419.855 290.691 419.994 302.725C420.068 308.636 420.198 314.639 420.819 320.521C421.217 324.261 421.606 329.234 424.405 331.99C424.525 332.11 424.729 332.11 424.841 331.99L425.508 331.294C425.684 331.118 425.452 330.774 425.23 330.932C423.543 332.166 421.764 321.718 421.718 321.301C421.449 318.898 421.328 316.467 421.18 314.045C420.865 308.821 420.661 303.597 420.763 298.364C420.985 287.499 422.783 277.107 424.081 266.372C424.146 265.843 423.228 265.713 423.145 266.242L423.154 266.251Z" fill="black"/>
            <path d="M270.556 259.617C270.352 258.438 270.148 257.269 269.944 256.091C270.537 256.045 270.982 256.369 271.307 257.065C272.27 257.464 273.466 258.735 274.318 259.338C277.339 261.445 280.583 263.254 283.845 264.961C284.076 265.082 284.327 264.841 284.197 264.609C283.011 262.428 281.732 259.329 281.398 256.843C281.12 256.091 281.129 255.33 281.417 254.551C281.204 252.676 281.676 252.472 282.825 253.938C284.011 254.495 285.503 256.082 286.504 256.917C289.173 259.144 291.444 261.482 294.946 262.206C295.243 262.27 295.502 262.029 295.428 261.723C294.604 258.262 293.074 255.265 291.935 251.916C291.694 251.275 291.49 250.617 291.332 249.949C291.471 248.213 292.055 248.139 293.084 249.717C294.344 250.227 295.901 252.101 297.059 252.973C297.235 253.103 297.448 252.816 297.3 252.667C295.271 250.709 293.056 248.946 290.915 247.119C290.749 246.97 290.415 247.054 290.433 247.323C290.6 249.698 291.249 251.814 292.129 254.031C292.148 254.068 293.723 257.084 293.732 257.91C294.576 259.051 294.27 259.895 292.815 260.424C292.027 259.988 291.295 259.478 290.628 258.875C288.404 257.167 283.576 251.387 280.462 252.027C280.323 252.055 280.193 252.185 280.166 252.324C279.869 253.688 280.147 254.996 280.462 256.341C280.833 257.9 282.964 261.361 282.658 262.92C283.029 263.839 282.853 263.978 282.149 263.338C281.5 262.957 280.861 262.577 280.221 262.187C279.183 261.556 278.155 260.916 277.135 260.248C274.485 258.503 272.029 256.555 269.731 254.365C269.425 254.078 268.86 254.272 268.879 254.718C268.934 256.676 269.175 258.114 270.278 259.756C270.38 259.904 270.584 259.812 270.556 259.635V259.617Z" fill="black"/>
            <path d="M299.654 254.328C298.774 252.676 298.004 250.914 297.263 249.197L297.068 249.345C298.505 250.579 299.988 251.721 301.581 252.732C301.85 252.899 302.184 252.491 301.924 252.287C300.432 251.118 298.866 250.088 297.217 249.151C297.106 249.086 296.994 249.216 297.05 249.318C297.94 250.96 298.857 252.639 299.608 254.347C299.617 254.374 299.663 254.347 299.645 254.319L299.654 254.328Z" fill="black"/>
            <path d="M213.147 143.449C215.965 135.608 218.43 127.647 221.265 119.816C221.673 118.693 222.303 115.734 223.369 115.028C223.665 114.833 223.285 115.307 223.156 116.216C222.942 117.71 222.766 119.204 222.525 120.698C221.812 125.142 221.015 129.679 220.876 134.179C220.857 134.69 221.617 135.07 221.96 134.625C225.639 129.865 226.529 123.639 230.356 118.99L229.216 118.517C229.086 122.423 228.632 126.255 227.835 130.088C227.706 130.718 228.484 131.284 228.975 130.756C231.589 127.935 231.987 123.769 234.86 121.199L233.701 120.716C233.887 122.822 234.183 124.91 234.489 126.998C234.526 127.22 234.888 127.258 234.98 127.063C235.342 126.237 235.731 125.42 236.148 124.622C236.695 123.212 237.77 122.312 239.354 121.922C239.354 122.349 239.966 122.331 240.003 121.922C240.114 120.865 240.17 121.152 239.604 120.262C239.493 120.085 239.243 120.039 239.085 120.197C237.77 121.514 236.982 123.045 235.786 124.418C235.49 124.762 235.406 125.921 234.869 125.383C234.387 124.901 234.999 121.319 235.045 120.716C235.101 120.085 234.294 119.881 233.887 120.234C230.921 122.841 230.625 126.933 227.993 129.781L229.133 130.449C229.948 126.487 230.412 122.563 230.523 118.517C230.541 117.979 229.763 117.589 229.383 118.044C225.509 122.776 224.629 129.021 220.932 133.845L222.108 134.17C222.294 127.369 223.999 120.707 224.045 113.887C224.045 113.544 223.563 113.293 223.322 113.59C220.496 116.921 219.013 121.922 217.558 125.959C215.52 131.628 213.639 137.343 211.896 143.105C211.655 143.894 212.842 144.191 213.11 143.439L213.147 143.449Z" fill="black"/>
        </g>
    </g>
</svg>
