<svg width="766" height="686" viewBox="0 0 766 686" fill="none" xmlns="http://www.w3.org/2000/svg">
<g clip-path="url(#clip0_4155_22445)">
<path d="M84.0674 324.554L84.9323 110.973C84.9323 110.973 84.4762 91.0648 92.8736 86.3944C101.255 81.7082 102.026 80.3087 132.879 80.3087C163.732 80.3087 396.813 80.7018 396.813 80.7018L496.873 79.774L509.296 17.1558C509.296 17.1558 511.104 1.14737 527.868 1.1631C544.631 1.17882 676.032 1.1631 676.032 1.1631L694.021 1.80784L702.906 5.22023C702.906 5.22023 713.159 10.6926 716.037 17.1558C718.915 23.6189 721.053 31.8904 718.191 42.0332C715.329 52.1761 711.178 80.4974 711.178 80.4974C711.178 80.4974 724.937 79.318 730.142 86.7718C735.347 94.2256 737.565 103.189 737.612 110.957C737.659 118.726 739.2 520.633 739.2 520.633C739.2 520.633 741.197 538.309 707.388 538.356C673.578 538.419 297.853 539.331 297.853 539.331" fill="#53B266"/>
<path d="M507.41 218.677C507.834 218.221 665.716 219.196 665.716 219.196C665.716 219.196 685.64 220.769 689.304 199.272C692.968 177.776 716.038 53.0266 716.038 53.0266C716.038 53.0266 721.809 32.0648 717.61 22.0949C713.411 12.1408 710.801 8.99572 700.312 4.79706L694.022 1.79352L673.846 1.65199L575.83 1.38466H531.013C531.013 1.38466 509.517 -2.02773 506.906 26.5452L476.761 182.745C476.761 182.745 469.952 194.539 480.173 202.669C490.395 210.799 494.593 216.035 498.776 217.089C502.975 218.143 507.425 218.661 507.425 218.661L507.41 218.677Z" fill="#9BE887"/>
<path d="M509.8 12.9257C503.604 32.0005 500.443 52.412 496.638 72.0529C490.898 101.617 485.001 131.164 479.969 160.87C478.601 168.905 477.327 176.957 475.927 184.976C475.802 185.716 476.855 186.03 477.06 185.291C482.453 165.902 485.929 145.773 489.719 126.038C495.38 96.4744 501.638 66.9736 506.623 37.2842C507.96 29.28 508.73 21.0557 510.728 13.1773C510.885 12.5798 509.988 12.3439 509.8 12.9257Z" fill="black"/>
<path d="M478.554 173.923C476.541 181.66 469.402 198.14 480.331 202.637C483.665 204.005 487.612 203.911 491.181 203.958C502.928 204.131 514.691 204.037 526.438 204.037C561.426 204.037 596.415 204.807 631.388 204.792C637.851 204.792 644.346 205.027 650.778 204.54C653.703 204.32 656.911 203.612 659.851 203.785C660.323 203.817 660.323 203.078 659.851 203.046C607.58 199.885 554.9 201.741 502.472 201.159C498.116 201.112 493.76 201.128 489.42 201.002C488.571 200.97 487.706 201.002 486.857 200.955C481.809 200.656 483.633 201.128 480.126 196.819C476.84 192.793 477.107 192.856 477.532 188.563C478.004 183.688 478.365 178.829 478.695 173.939C478.695 173.86 478.57 173.844 478.554 173.923Z" fill="black"/>
<path d="M678.123 160.996C676.944 166.516 675.466 171.91 674.318 177.461C673.17 183.012 672.494 190.89 669.616 195.844C666.738 200.797 655.196 201.395 649.315 201.536C642.631 201.694 635.822 200.341 629.186 201.19C628.054 201.332 627.566 203.046 628.887 203.36C637.709 205.42 647.569 203.832 656.58 204.272C661.344 204.508 666.597 205.043 670.009 201.237C673.673 197.149 674.396 190.261 675.576 185.15C677.447 176.958 678.186 169.394 678.422 161.059C678.422 160.902 678.171 160.855 678.139 161.028L678.123 160.996Z" fill="black"/>
<path d="M705.218 17.0938C696.711 46.5473 691.427 76.8972 685.939 107.074C680.451 137.251 674.35 166.484 671.157 196.41C671.11 196.913 671.896 196.992 672.022 196.52C680.011 167.365 684.335 136.874 689.839 107.168C695.343 77.4633 699.589 46.9562 705.643 17.2039C705.706 16.9208 705.297 16.8107 705.218 17.0938Z" fill="black"/>
<path d="M507.457 19.9084C510.13 13.6655 513.07 7.53259 519.565 4.57623C524.676 2.23316 530.526 2.28034 536.045 2.26461C538.671 2.26461 541.297 2.26461 543.924 2.28033C554.963 2.31179 566.002 2.64202 577.041 2.65774C605.504 2.68919 634.014 1.5727 662.43 2.26461C670.434 2.46904 679.161 3.88432 687.103 2.46904C687.905 2.32751 687.905 0.975133 687.103 0.833605C679.995 -0.440146 672.101 0.566275 664.946 0.833605C650.683 1.38399 636.389 0.251768 622.157 0.173141C595.283 0.0158882 568.424 0.125965 541.549 0.0630641C536.328 0.0630641 530.95 -0.251442 525.792 0.582C514.612 2.35896 510.24 9.70269 507.315 19.8612C507.299 19.9399 507.409 20.0028 507.457 19.9242V19.9084Z" fill="black"/>
<path d="M683.376 3.12942L685.813 2.75201C685.908 2.75201 685.86 2.59476 685.782 2.61048L683.344 2.98789C683.25 2.98789 683.297 3.14514 683.376 3.12942Z" fill="black"/>
<path d="M678.171 1.84003C687.386 2.95652 702.954 1.00658 703.001 14.3102C703.017 18.8234 701.067 23.1007 700.989 27.5352C700.926 31.3407 700.753 34.6116 699.715 38.4171C697.686 45.9338 695.956 53.4191 694.698 61.1088C693.519 68.2795 690.861 75.4031 690.736 82.6682C690.736 83.4702 691.773 83.5016 692.041 82.8412C694.148 77.4788 694.29 71.7391 695.469 66.1252C696.648 60.5112 698.079 55.0703 699.086 49.4563C700.155 43.5121 700.249 36.8446 702.357 31.2778C704.055 26.7804 705.297 21.9999 705.832 17.2037C706.367 12.4074 705.738 6.68343 701.665 3.45973C695.846 -1.13206 684.917 1.28964 678.171 1.72995C678.124 1.72995 678.124 1.80858 678.171 1.80858V1.84003Z" fill="black"/>
<path d="M695.893 2.98696C710.376 6.52515 719.623 21.7001 717.484 35.9944C717.059 38.8879 716.415 41.7499 715.896 44.6276C713.6 57.0663 711.335 69.5051 709.055 81.9438C703.221 113.772 697.151 145.537 691.679 177.428C690.138 186.423 689.194 195.544 687.511 204.507C687.26 205.859 689.32 206.425 689.572 205.073C699.777 150.601 710.203 96.1595 720.142 41.6084C721.054 36.6234 722.029 31.7957 721.274 26.685C719.513 14.7495 707.703 4.48086 696.035 2.56237C695.767 2.5152 695.641 2.92406 695.925 2.98696H695.893Z" fill="black"/>
<path d="M477.579 196.645C477.532 196.566 477.626 196.393 477.642 196.315L477.72 196.016C477.799 195.717 477.28 195.717 477.359 196.016L477.437 196.315C477.437 196.315 477.532 196.566 477.5 196.645C477.469 196.724 477.61 196.724 477.563 196.645H477.579Z" fill="black"/>
<path d="M476.494 194.995C476.588 194.995 476.588 194.854 476.494 194.854C476.399 194.854 476.399 194.995 476.494 194.995Z" fill="black"/>
<path d="M474.764 193.405C474.072 197.415 475.078 199.428 477.704 202.463C482.092 207.527 487.942 213.848 493.854 217.166C498.934 220.013 504.956 219.981 510.633 220.044C521.437 220.17 532.24 220.091 543.027 220.091C576.334 220.091 609.671 220.406 642.962 220.186C652.413 220.123 662.225 219.226 671.598 219.509C672.494 219.541 672.494 218.141 671.598 218.11C621.198 216.569 570.531 216.93 520.037 216.569C516.42 216.537 512.803 216.569 509.202 216.474C504.673 216.364 499.736 216.317 495.694 214.021C492.392 212.15 489.64 208.91 486.935 206.3C483.822 203.297 476.871 198.186 476.509 193.641C476.431 192.713 474.953 192.352 474.78 193.405H474.764Z" fill="black"/>
<path d="M650.51 219.242C658.797 221.318 673.374 222.749 680.687 216.915C683.895 214.352 686.977 210.546 688.707 206.835C691.348 201.174 689.556 196.016 691.034 190.135C691.128 189.742 690.531 189.459 690.358 189.852C687.244 196.991 687.999 205.09 682.92 211.6C675.309 221.365 661.502 218.409 650.541 219.022C650.415 219.022 650.384 219.211 650.51 219.242Z" fill="black"/>
<path d="M111.666 81.3465C155.902 83.8311 200.546 81.6925 244.844 81.3465C310.371 80.8276 375.836 81.6296 441.348 81.6767C459.369 81.6767 477.374 81.205 495.364 81.0006C496.779 81.0006 496.795 78.7676 495.364 78.7833C450.987 79.2708 406.579 78.5789 362.186 79.428C296.69 80.686 231.179 78.8147 165.683 78.9405C147.646 78.972 129.64 78.5946 111.666 79.9941C110.817 80.057 110.801 81.2679 111.666 81.3151V81.3465Z" fill="black"/>
<path d="M127.785 80.7807C114.984 77.6357 100.721 75.7801 90.3741 86.0802C83.0461 93.361 83.1405 103.944 83.0619 113.584C82.9675 127.469 83.0304 141.355 83.0619 155.24C83.1405 196.409 83.0776 237.547 82.3857 278.7C82.1341 293.922 81.0805 309.348 81.9454 324.555C82.1026 327.322 86.0182 327.291 86.2227 324.555C88.4714 295.101 85.8452 264.877 85.8767 235.345C85.9239 199.476 86.2698 163.606 86.6472 127.737C86.7101 122.343 86.7259 116.965 86.8045 111.571C86.9303 101.46 87.7166 91.2381 97.4034 85.577C106.021 80.5291 118.098 80.9852 127.785 80.8436C127.832 80.8436 127.832 80.7807 127.785 80.765V80.7807Z" fill="black"/>
<path d="M85.4048 110.785C98.8342 113.223 112.956 112.374 126.526 112.389C158.386 112.421 190.246 112.405 222.105 112.389C294.269 112.374 366.432 112.358 438.58 112.279C455.579 112.263 473.254 110.125 490.206 111.43C491.102 111.493 491.102 110.093 490.206 110.03C476.273 108.961 462.105 109.197 448.141 108.93C416.391 108.348 384.579 108.804 352.814 108.835C280.902 108.898 208.99 108.993 137.094 108.993C124.907 108.993 112.735 108.977 100.548 109.118C95.5004 109.181 90.5155 110.156 85.4677 110.282C85.1846 110.282 85.106 110.738 85.4048 110.785Z" fill="black"/>
<path d="M712.373 80.4033C721.557 81.5826 730.898 87.0079 734.011 96.2072C735.725 101.239 735.647 106.775 735.694 112.027C735.725 114.606 735.725 117.185 735.741 119.764C735.788 128.995 735.82 138.21 735.867 147.44C735.977 177.318 736.103 207.181 736.26 237.043C736.622 307.178 736.685 377.297 736.244 447.432C736.119 467.812 736.15 488.161 736.339 508.525C736.37 511.277 740.648 511.277 740.616 508.525C740.113 456.962 739.657 405.351 739.515 353.772C739.327 284.644 739.735 215.5 739.625 146.371C739.625 136.307 739.594 126.227 739.562 116.163C739.531 110.391 739.751 104.542 738.65 98.8648C736.166 86.0172 725.001 79.8214 712.358 80.3089C712.31 80.3089 712.31 80.3718 712.358 80.3875L712.373 80.4033Z" fill="black"/>
<path d="M110.895 90.4844C108.583 89.2264 106.508 88.7861 104.322 90.5316C102.388 92.0726 101.444 94.4157 101.727 96.8689C102.356 102.514 108.599 104.606 113.364 102.609C118.129 100.611 120.031 94.6516 116.902 90.39C115.502 88.4873 113.128 87.4494 110.769 87.5909C108.41 87.7325 105.187 89.5409 105.47 92.167C105.611 93.4879 106.665 94.5258 108.08 94.1641C109.826 93.7081 111.477 91.4122 113.442 93.0633C115.613 94.8875 113.993 98.1583 111.901 99.1805C109.464 100.376 105.768 99.3849 105.643 96.2556C105.548 94.1169 108.489 91.9154 110.486 91.9311C111.241 91.9311 111.555 90.8618 110.879 90.4844H110.895Z" fill="black"/>
<path d="M134.31 90.7037C131.747 90.0904 129.593 89.713 127.187 91.2541C125.268 92.465 124.152 94.525 124.23 96.7894C124.403 101.774 129.42 104.794 134.012 103.646C138.069 102.624 143.588 97.733 140.695 93.2198C138.116 89.1941 130.238 88.5808 126.998 91.8989C126.18 92.748 126.825 94.0218 127.91 94.1004C130.914 94.3363 133.854 92.5593 136.795 94.1948C140.585 96.2862 135.6 100.107 133.178 100.642C130.521 101.224 127.155 99.3055 127.627 96.2076C127.894 94.4149 129.64 93.6758 131.181 93.2041C132.313 92.8581 133.21 92.3234 134.326 91.9303C134.876 91.7416 134.971 90.8767 134.326 90.7195L134.31 90.7037Z" fill="black"/>
<path d="M156.876 90.122C151.985 88.2193 147.441 92.984 148.683 97.8903C150.051 103.253 155.948 105.454 160.917 103.835C165.886 102.215 169.142 96.9468 165.493 92.2921C162.568 88.5809 154.863 86.631 151.907 91.3486C151.498 92.0091 151.608 93.0469 152.19 93.5816C153.668 94.934 155.099 93.1885 156.561 92.8111C159.47 92.0877 164.77 94.8711 162.851 98.2992C161.09 101.491 155.917 102.199 153.369 99.6358C150.381 96.6638 152.441 91.6631 156.671 91.6159C157.583 91.6159 157.662 90.4051 156.876 90.0906V90.122Z" fill="black"/>
<path d="M107.845 156.247C111.651 155.681 115.944 156.436 119.765 156.514C129.074 156.735 138.368 156.64 147.677 156.609C177.351 156.514 207.025 156.562 236.698 156.609C302.509 156.735 368.335 156.908 434.161 157.175C450.107 157.238 466.288 156.216 482.218 156.876C483.256 156.923 483.256 155.304 482.218 155.256C439.508 153.479 396.656 154.187 353.915 154.045C287.491 153.841 221.052 153.747 154.628 154.03C143.542 154.077 132.44 154.03 121.353 154.486C116.997 154.675 111.918 154.423 107.656 155.524C107.185 155.649 107.389 156.294 107.845 156.231V156.247Z" fill="black"/>
<path d="M705.565 111.524C709.59 113.505 714.324 113.285 718.742 113.49C724.639 113.757 730.584 113.898 736.481 113.883C738.729 113.883 738.682 110.58 736.481 110.423C730.584 109.983 724.639 109.731 718.742 109.653C714.339 109.605 709.653 109.181 705.565 110.942C705.344 111.036 705.36 111.414 705.565 111.508V111.524Z" fill="black"/>
<path d="M709.983 81.0639C713.93 82.8095 718.758 82.1962 722.957 83.6429C726.228 84.7594 728.602 86.7251 730.458 89.65C731.606 91.4584 732.235 93.3297 733.776 94.8236C734.326 95.3583 735.49 95.0123 735.411 94.1474C734.939 89.2411 730.536 83.926 726.117 81.8659C722.265 80.0575 713.679 77.3528 709.983 80.1833C709.716 80.3878 709.59 80.891 709.983 81.0797V81.0639Z" fill="black"/>
<path d="M696.962 158.024C700.721 159.628 705.423 158.669 709.464 158.731C713.789 158.794 718.396 159.659 722.658 158.983C723.192 158.904 723.098 158.134 722.658 157.992C718.553 156.687 713.757 156.986 709.464 156.939C705.47 156.892 700.626 156.121 696.962 157.835C696.9 157.867 696.884 157.992 696.962 158.024Z" fill="black"/>
<path d="M297.571 537.068C297.571 537.068 297.602 537.021 297.571 537.021C297.539 537.021 297.539 537.068 297.571 537.068Z" fill="black"/>
<path d="M235.896 548.877H235.377C235.377 548.877 235.33 548.94 235.377 548.94H235.896C235.896 548.94 235.944 548.877 235.896 548.877Z" fill="black"/>
<path d="M227.09 335.704C227.467 335.704 227.467 335.106 227.09 335.106C226.712 335.106 226.712 335.704 227.09 335.704Z" fill="black"/>
<path d="M738.352 520.131C734.924 526.579 732.125 532.601 724.608 534.96C717.485 537.193 709.936 536.328 702.593 536.328C699.778 536.328 696.979 536.234 694.164 536.187C687.056 536.045 679.948 536.108 672.84 536.092C643.12 536.014 613.399 536.029 583.678 536.029C544.27 536.029 504.862 536.061 465.455 536.092C429.412 536.124 393.401 537.445 357.359 537.429C338.143 537.429 318.14 538.058 299.285 538.074C297.618 538.074 297.618 540.653 299.285 540.653C351.289 540.637 404.425 541.612 456.774 541.549C528.388 541.47 600.001 540.653 671.598 540.401C679.461 540.37 687.323 540.244 695.186 540.37C712.625 540.653 737.299 543.373 740.192 520.65C740.318 519.644 738.777 519.329 738.336 520.147L738.352 520.131Z" fill="black"/>
<path d="M20.632 163.449C18.9022 166.248 19.1538 169.912 19.028 173.12C18.8865 176.8 18.7449 180.432 20.0501 183.923C20.3961 184.851 21.9686 185.402 22.4718 184.238C23.9186 180.904 24.123 177.476 24.1702 173.875C24.2173 170.274 24.752 166.563 23.0537 163.465C22.5347 162.505 21.1509 162.584 20.6162 163.465L20.632 163.449Z" fill="black"/>
<path d="M12.4706 175.07C15.6471 175.856 19.0281 175.51 22.2518 175.306C24.9723 175.133 28.1645 175.683 30.1931 173.545C30.6334 173.073 30.6491 172.35 30.1931 171.878C28.0073 169.598 24.4533 170.415 21.607 170.746C18.3676 171.123 14.9552 171.846 12.3134 173.828C11.8731 174.158 11.8573 174.913 12.4706 175.07Z" fill="black"/>
<path d="M753.055 182.87C750.57 190.056 750.665 198.218 750.382 205.735C750.036 214.321 749.894 222.922 749.941 231.508C750.036 247.69 750.728 264.201 753.495 280.162C753.637 280.964 754.879 280.76 754.879 279.974C754.895 263.321 753.951 246.652 753.873 229.999C753.841 221.916 753.983 213.817 754.282 205.735C754.549 198.218 755.587 190.292 754.203 182.87C754.093 182.257 753.244 182.367 753.071 182.87H753.055Z" fill="black"/>
<path d="M764.378 184.364C760.415 193.296 761.736 203.643 761.453 213.236C761.091 225.329 759.031 237.469 759.298 249.546C759.314 250.489 760.635 250.662 760.918 249.766C767.538 228.678 764.11 206.222 765.321 184.632C765.352 184.16 764.598 183.924 764.393 184.38L764.378 184.364Z" fill="black"/>
<path d="M746.528 41.7039C744.783 47.4279 744.453 53.0891 747.252 58.5929C747.896 59.8667 750.098 59.6151 750.381 58.1841C751.513 52.46 750.46 47.1921 748.919 41.7039C748.588 40.5088 746.89 40.5403 746.528 41.7039Z" fill="black"/>
<path d="M739.845 52.2396C745.16 53.0101 750.507 52.727 755.854 52.1924C757.363 52.0351 757.945 49.755 756.231 49.3618C750.743 48.0881 745.066 48.0566 739.845 50.2582C739.043 50.5884 738.697 52.0823 739.845 52.2553V52.2396Z" fill="black"/>
<path d="M98.1424 55.0385C82.9361 52.7269 66.1886 57.1772 59.9299 72.7138C56.6119 80.9381 57.178 90.0274 57.5397 98.692C58.0586 110.989 56.4074 123.019 56.376 135.253C56.376 136.716 58.6719 137.109 58.9864 135.599C62.4774 118.993 60.3388 102.262 61.6754 85.5771C62.4617 75.7802 65.9055 67.32 75.1677 62.7596C82.2913 59.2529 90.6572 57.8219 98.1424 55.1329C98.1896 55.1171 98.2053 55.0228 98.1424 55.0228V55.0385Z" fill="black"/>
<path d="M81.8195 41.3883C70.1985 41.5298 57.917 44.3132 49.4882 53.1194C41.6727 61.2966 40.0058 78.0598 42.8993 88.4699C43.261 89.7594 45.3053 89.5392 45.2738 88.1554C44.975 75.8268 44.0473 60.2115 55.7626 52.7105C59.8512 50.0844 64.6474 48.6062 69.2549 47.128C73.8625 45.6499 77.5265 43.7628 81.9138 41.7657C82.1025 41.6713 82.0082 41.3726 81.8038 41.3883H81.8195Z" fill="black"/>
<path d="M111.195 228.662C110.613 233.946 110.896 239.229 110.487 244.513C110.393 245.614 111.509 246.589 112.547 246.573C182.54 245.787 252.502 245.803 322.496 244.906C332.953 244.765 343.411 244.655 353.836 244.246C354.324 244.23 354.324 243.459 353.836 243.475C326.396 244.576 298.499 242.862 271.027 242.752C228.647 242.579 186.283 242.186 143.888 242.264C133.493 242.28 122.91 241.73 112.547 242.453L114.607 244.513C114.717 239.198 113.962 233.961 113.899 228.662C113.884 226.869 111.368 226.964 111.179 228.662H111.195Z" fill="black"/>
<path d="M355.046 243.098C355.628 237.814 355.345 232.53 355.754 227.247C355.848 226.146 354.732 225.171 353.694 225.187C283.701 225.973 213.739 225.957 143.745 226.854C133.288 226.995 122.831 227.105 112.405 227.514C111.917 227.53 111.917 228.3 112.405 228.285C139.845 227.184 167.742 228.898 195.214 229.008C237.594 229.181 279.958 229.574 322.354 229.495C332.748 229.48 343.331 230.03 353.694 229.307L351.634 227.247C351.524 232.562 352.279 237.798 352.342 243.098C352.357 244.891 354.873 244.796 355.062 243.098H355.046Z" fill="black"/>
<path d="M114.811 270.634C114.811 270.634 114.89 270.508 114.811 270.508C114.732 270.508 114.732 270.634 114.811 270.634Z" fill="black"/>
<path d="M112.421 270.554C112.216 276.042 112.373 281.452 112.892 286.924C112.987 287.962 113.757 289.094 114.968 289C137.298 287.239 160.084 288.041 182.446 288.135C216.475 288.276 250.489 288.088 284.519 288.324C293.199 288.387 302.791 287.333 311.377 288.166C312.588 288.276 312.573 286.389 311.377 286.279C290.133 284.219 266.639 285.021 244.702 284.943C210.421 284.817 176.124 285.383 141.843 284.911C132.926 284.785 123.884 284.219 114.968 284.864L117.044 286.94C116.556 281.467 116.431 276.058 116.682 270.57C116.808 267.834 112.546 267.834 112.436 270.57L112.421 270.554Z" fill="black"/>
<path d="M311.267 286.17C311.267 286.17 311.346 286.044 311.267 286.044C311.188 286.044 311.188 286.17 311.267 286.17Z" fill="black"/>
<path d="M313.658 286.122C313.862 280.634 313.705 275.225 313.186 269.752C313.092 268.714 312.321 267.582 311.11 267.676C288.78 269.438 265.994 268.636 243.633 268.541C209.603 268.4 175.59 268.588 141.56 268.353C132.88 268.29 123.287 269.343 114.701 268.51C113.49 268.4 113.506 270.287 114.701 270.397C135.946 272.457 159.44 271.655 181.376 271.734C215.658 271.859 249.955 271.293 284.236 271.765C293.152 271.891 302.194 272.457 311.11 271.812L309.035 269.736C309.522 275.209 309.648 280.618 309.396 286.107C309.271 288.843 313.532 288.843 313.642 286.107L313.658 286.122Z" fill="black"/>
<path d="M298.718 480.047C310.968 477.987 327.464 479.276 340.721 479.166C370.992 478.899 401.279 478.836 431.55 478.726C500.396 478.474 569.226 478.27 638.071 478.27C656.894 478.27 675.749 477.845 694.556 477.845C696.035 477.845 696.035 475.549 694.556 475.549C647.506 475.549 600.409 475.015 553.343 474.732C485.064 474.323 416.753 474.386 348.473 474.983C336.727 475.077 324.98 475.188 313.249 475.439C308.122 475.549 302.713 475.266 297.649 476.131C295.07 476.571 296.171 480.487 298.734 480.062L298.718 480.047Z" fill="black"/>
<path d="M316.504 486.149C316.221 487.407 316.504 488.476 316.755 489.718C317.007 490.898 317.259 492.061 318.092 492.958C318.925 493.854 320.388 493.351 320.734 492.266C321.08 491.181 320.797 489.985 320.545 488.916C320.294 487.847 320.136 486.699 319.413 485.771C318.658 484.78 316.834 484.67 316.504 486.149Z" fill="black"/>
<path d="M432.196 485.473C432.133 487.14 431.614 489.121 432.117 490.741C432.479 491.905 434.13 492.203 434.759 491.087C435.86 489.137 434.979 486.699 433.784 485.048C433.296 484.372 432.227 484.577 432.196 485.473Z" fill="black"/>
<path d="M553.815 485.016C553.83 486.007 554.208 486.809 554.396 487.784C554.585 488.759 554.632 489.655 555.088 490.505C555.544 491.354 556.818 491.307 557.306 490.505C558.485 488.555 557.447 485.189 555.639 483.979C554.868 483.46 553.799 484.152 553.815 485.016Z" fill="black"/>
<path d="M676.866 485.095C675.45 486.887 675.545 489.907 676.583 491.904C677.259 493.209 679.35 493.209 680.042 491.904C681.08 489.922 681.174 486.903 679.759 485.095C679.13 484.293 677.51 484.308 676.881 485.095H676.866Z" fill="black"/>
<path d="M630.601 273.919C636.09 273.888 645.871 272.488 651.06 274.533C652.68 275.162 651.296 272.52 652.239 275.57C653.183 278.621 652.538 283.04 652.601 286.232C652.853 298.985 652.868 311.754 653.01 324.508C653.372 356.823 653.214 389.17 653.057 421.517C652.994 433.626 652.916 445.734 652.931 457.843C652.931 459.808 655.998 459.824 655.998 457.843C656.076 403.59 657.633 349.307 656.863 295.07C656.753 287.632 657.35 279.549 655.935 272.19C655.762 271.277 654.818 270.759 653.985 270.696C646.169 270.13 638.433 270.082 630.601 270.491C628.416 270.601 628.384 273.919 630.601 273.919Z" fill="black"/>
<path d="M652.523 456.003C647.035 456.035 637.253 457.434 632.064 455.39C630.444 454.761 631.828 457.403 630.885 454.352C629.941 451.301 630.586 446.882 630.523 443.69C630.271 430.937 630.256 418.168 630.114 405.415C629.752 373.099 629.91 340.752 630.067 308.405C630.13 296.297 630.208 284.188 630.193 272.08C630.193 270.114 627.126 270.098 627.126 272.08C627.048 326.332 625.491 380.616 626.261 434.853C626.371 442.291 625.774 450.373 627.189 457.733C627.362 458.645 628.306 459.164 629.139 459.227C636.955 459.793 644.691 459.84 652.523 459.431C654.709 459.321 654.74 456.003 652.523 456.003Z" fill="black"/>
<path d="M484.403 328.392C490.222 328.408 496.134 329.005 501.937 328.848C506.293 328.722 505.129 327.433 506.073 330.138C507.126 333.173 506.419 338 506.481 341.177C506.717 353.726 507.126 366.274 507.111 378.792C507.079 405.147 506.717 431.503 506.733 457.859C506.733 459.824 509.8 459.84 509.8 457.859C509.847 433.06 510.24 408.277 510.381 383.478C510.444 371.118 510.9 358.773 510.743 346.398C510.649 339.934 510.979 333.047 509.752 326.662C509.579 325.75 508.636 325.231 507.787 325.168C499.955 324.618 492.25 324.508 484.403 324.98C482.217 325.106 482.186 328.392 484.403 328.408V328.392Z" fill="black"/>
<path d="M506.324 456.003C500.506 455.988 494.593 455.39 488.79 455.547C484.434 455.673 485.598 456.963 484.654 454.258C483.601 451.223 484.308 446.395 484.246 443.219C484.01 430.67 483.601 418.121 483.617 405.604C483.648 379.248 484.01 352.892 483.994 326.537C483.994 324.571 480.927 324.555 480.927 326.537C480.88 351.336 480.487 376.119 480.346 400.918C480.283 413.278 479.827 425.622 479.984 437.998C480.078 444.461 479.748 451.349 480.975 457.733C481.148 458.645 482.091 459.164 482.94 459.227C490.771 459.777 498.477 459.888 506.324 459.416C508.51 459.29 508.541 456.003 506.324 455.988V456.003Z" fill="black"/>
<path d="M335.343 439.287C343.127 439.884 350.958 439.176 358.726 439.727L357.154 438.532C357.468 439.947 358.035 443.061 360.22 442.133C361.368 441.645 361.588 440.057 361.085 439.035C360.849 438.563 360.205 438.201 359.686 438.233C357.909 438.359 357.972 440.12 357.877 441.441C357.468 446.866 357.657 452.401 357.689 457.827C357.689 459.792 360.739 459.808 360.755 457.827C360.771 453.911 360.802 449.98 360.912 446.064C360.944 444.932 361.636 441.818 361.164 440.733C360.802 439.931 358.207 440.324 358.129 439.963C358.16 440.136 360.708 439.758 360.786 439.554C360.896 439.239 360.378 437.95 360.315 437.635C360.157 436.896 359.434 436.487 358.742 436.44C350.754 435.796 342.938 434.773 334.918 435.906C332.89 436.189 333.582 439.129 335.374 439.271L335.343 439.287Z" fill="black"/>
<path d="M357.28 456.003C349.496 455.405 341.665 456.113 333.897 455.562L335.469 456.758C335.155 455.342 334.588 452.229 332.403 453.156C331.255 453.644 331.035 455.232 331.538 456.254C331.774 456.726 332.418 457.088 332.937 457.056C334.714 456.931 334.651 455.169 334.746 453.848C335.155 448.423 334.966 442.888 334.934 437.463C334.934 435.497 331.884 435.481 331.868 437.463C331.852 441.378 331.821 445.31 331.711 449.225C331.679 450.357 330.987 453.471 331.459 454.556C331.821 455.358 334.415 454.965 334.494 455.327C334.463 455.154 331.915 455.531 331.837 455.735C331.726 456.05 332.245 457.339 332.308 457.654C332.466 458.393 333.189 458.802 333.881 458.849C341.869 459.494 349.685 460.516 357.705 459.384C359.733 459.101 359.041 456.16 357.249 456.018L357.28 456.003Z" fill="black"/>
<path d="M680.309 233.395C668.531 249.121 649.991 241.085 633.809 246.526C622.597 250.3 613.555 258.053 604.89 265.837C592.043 277.363 578.676 286.657 562.526 293.01C547.949 298.75 532.9 301.974 517.442 304.222C501.968 306.471 485.975 308.798 472.53 317.353C461.68 324.256 451.773 334.242 444.728 344.982C436.629 357.327 435.293 372.14 431.047 385.931C426.424 400.964 415.951 409.126 401.279 413.623C364.953 424.788 325.577 418.042 289.488 430.387C286.783 431.314 287.884 435.513 290.683 434.711C324.099 425.119 359.214 428.389 392.85 420.338C404.786 417.476 417.382 413.403 425.747 403.905C434.113 394.407 436.236 380.789 439.318 368.523C443.674 351.257 453.157 338.032 466.869 326.788C481.148 315.057 497.864 311.314 515.728 308.562C546.266 303.861 576.176 295.086 600.063 274.596C612.549 263.887 624.736 251.369 641.578 248.224C656.139 245.504 673.736 250.284 681.441 234.04C681.803 233.27 680.812 232.719 680.325 233.38L680.309 233.395Z" fill="black"/>
<path d="M626.23 66.2828C629.878 50.4946 618.587 37.4111 601.164 37.4111C583.74 37.4111 566.395 50.5103 562.747 66.2828L560.608 75.5136H547.556L532.208 141.906L572.386 161.846L621.811 141.906L637.096 75.8124H624.044L626.23 66.2828ZM578.944 66.2828C580.658 58.8448 588.882 52.8849 597.594 52.8849C606.306 52.8849 611.778 58.8448 610.048 66.2828L607.91 75.5136H576.789L578.928 66.2828H578.944ZM606.259 131.181L576.742 143.101L552.73 131.197L561.96 91.3018H615.489L606.274 131.197L606.259 131.181Z" fill="black"/>
<path d="M699.541 99.5263C698.472 97.372 692.606 86.663 694.084 85.6409C696.191 84.1941 705.627 87.4493 708.158 87.9525C708.834 88.0783 709.684 87.4964 709.385 86.7259C705.689 76.9605 701.978 67.1951 698.267 57.4296L696.93 58.7663C701.066 60.4961 705.155 62.3516 709.196 64.3016C710.061 64.7262 711.005 63.8613 710.533 62.9649C709.857 61.6912 700.909 46.3747 701.727 45.3054C703.661 42.7579 714.181 49.1424 716.776 50.7778C717.515 51.2338 718.222 50.3532 717.892 49.6613C714.464 42.6006 711.728 35.3198 709.102 27.9446C708.772 27.0011 705.548 19.8146 705.988 19.3586C706.759 18.5566 714.983 23.4472 716.178 24.0605C717.027 24.4851 718.018 23.3843 717.248 22.6767C712.876 18.6195 708.489 14.7354 703.629 11.2601C702.859 10.7097 702.136 11.9834 702.89 12.5338C707.561 16.0091 712.011 19.6731 716.005 23.919L717.075 22.5351C712.986 20.5066 708.85 18.5409 704.746 16.5438C704.227 16.2922 703.394 16.7168 703.661 17.3772C707.058 25.7903 709.684 34.4864 713.159 42.868C715.549 48.6392 716.949 48.2775 711.335 45.7772C707.639 44.126 703.739 43.1353 699.808 42.2547C699.022 42.0817 698.409 42.868 698.786 43.5913C702.261 50.3218 705.375 57.2409 708.866 63.9556L710.203 62.619C706.067 60.4017 701.868 58.4518 697.528 56.6591C696.789 56.3446 695.908 57.2724 696.191 57.9957C699.006 65.308 701.837 72.6203 704.652 79.9326C705.218 81.395 705.784 82.8575 706.35 84.3199C706.24 86.0654 705.218 86.2856 703.268 84.9961C699.84 85.1062 695.751 83.5966 692.323 83.1091C691.788 83.0305 691.128 83.4393 691.364 84.0683C693.424 89.698 695.814 94.7615 699.258 99.715C699.399 99.9037 699.682 99.7465 699.572 99.5263H699.541Z" fill="black"/>
<path d="M299.819 601.211L299.787 634.769C299.787 634.769 296.391 645.368 284.754 652.429L248.145 674.004C248.145 674.004 234.905 677.479 228.284 678.627C221.664 679.775 201.63 677.227 201.63 677.227C201.63 677.227 194.066 674.727 185.433 665.575C176.8 656.423 140.883 611.59 140.883 611.59L102.733 558.643C102.733 558.643 83.9102 532.79 74.931 500.019C65.9519 467.232 30.3654 343.725 30.3654 343.725L10.6144 274.848C10.6144 274.848 4.62308 257.125 5.39362 252.565C6.16416 248.005 9.38785 245.803 9.38785 245.803L44.3767 216.727C44.3767 216.727 73.044 214.195 88.9108 214.29C104.778 214.368 188.138 215.076 188.138 215.076C188.138 215.076 212.213 212.953 223.016 230.88C223.016 230.88 229.684 242.061 238.773 277.946C247.862 313.831 287.254 439.602 287.254 439.602C287.254 439.602 297.413 462.435 297.46 503.007L299.819 601.258V601.211Z" fill="#99E686"/>
<path d="M235.927 676.299C235.927 676.299 227.404 677.636 209.477 649.047C191.55 620.459 148.635 565.766 148.635 565.766L127.485 529.362C127.485 529.362 115.817 505.853 109.668 481.038L40.1464 247.124C40.1464 247.124 37.1586 237.154 40.9641 226.838C44.7696 216.522 49.8175 218.661 49.8175 218.661L45.9333 212.622C45.9333 212.622 40.052 212.355 36.105 216.617C32.1579 220.878 15.2218 236.148 15.2218 236.148L3.22334 246.432L2.65723 257.078C2.65723 257.078 6.21115 279.282 12.69 294.63C19.1688 309.978 54.8496 440.467 54.8653 440.467C54.881 440.467 73.3583 508.809 73.3583 508.809C73.3583 508.809 80.4819 531.516 88.9264 543.499C97.3709 555.482 143.745 621.717 143.745 621.717C143.745 621.717 174.425 663.955 185.354 670.937C185.354 670.937 193.641 681.803 201.96 682.165C210.279 682.511 221.853 683.879 221.853 683.879L236.32 682.259L236.147 677.054" fill="#99E686"/>
<path d="M237.531 675.041L234.842 675.088L236.336 682.243C236.336 682.243 251.353 678.831 254.483 675.639C257.612 672.447 272.866 663.986 272.866 663.986L289.865 654.724C289.865 654.724 301.407 647.333 301.03 634.973C300.637 622.597 300.448 561.127 300.448 561.127C300.448 561.127 298.199 489.75 298.199 489.734C298.199 489.718 297.602 466.13 286.657 433.359C275.712 400.587 254.907 328.203 254.907 328.203L228.898 240.959C228.898 240.959 224.101 215.374 204.162 212.481C204.162 212.481 152.079 210.908 151.718 210.908C151.356 210.908 72.242 210.594 72.242 210.594L43.9521 213.188L49.8334 218.645C49.8334 218.645 101.067 215.909 110.376 215.752C119.701 215.594 188.672 218.016 188.672 218.016L202.888 218.991C202.888 218.991 211.002 219.337 218.299 229.511C225.595 239.686 237.405 287.978 237.405 287.978L248.57 327.952L267.551 392.127L285.32 452.591C285.32 452.591 288.748 466.366 290.006 474.009C291.264 481.651 294.362 533.482 294.362 533.482L296.8 602.013L296.375 630.35C296.375 630.35 294.174 641.971 288.166 649.094C282.159 656.218 259.452 666.581 259.452 666.581L237.531 674.994V675.041Z" fill="#99E686"/>
<path d="M54.9285 211.301C37.8508 207.999 28.5414 219.242 30.3341 235.801C31.0732 242.595 33.1018 249.183 34.9888 255.725C39.9266 272.866 44.943 289.991 49.9279 307.116C64.1278 355.817 79.6487 404.219 92.402 453.267C96.3176 468.347 101.586 482.972 105.957 497.879C106.665 500.285 110.439 499.263 109.731 496.842C87.3541 420.652 65.1343 344.337 42.9301 268.022C41.1531 261.905 39.3762 255.772 37.6149 249.64C36.4985 245.803 35.2404 241.997 34.4384 238.097C33.0703 231.493 32.3627 222.859 37.2375 217.371C42.1124 211.883 48.8428 213.062 54.9443 211.348C54.9757 211.348 54.9914 211.285 54.9443 211.27L54.9285 211.301Z" fill="#1D1D1B"/>
<path d="M107.247 497.36C106.382 503.981 110.69 511.435 113.269 517.41C117.028 526.169 121.368 534.677 126.038 542.98C136.386 561.425 150.082 577.78 161.672 595.439C173.702 613.759 187.367 631.214 200.419 648.811C206.458 656.957 212.575 665.04 218.818 673.012C222.859 678.17 227.876 684.24 235.109 682.589C236.226 682.337 236.304 680.45 235.109 680.246C223.85 678.343 217.78 666.376 211.38 657.932C205.341 649.959 199.413 641.923 193.532 633.841C181.722 617.643 170.022 601.494 157.788 585.611C146.654 571.159 137.282 555.937 128.397 540.023C124.167 532.459 120.236 524.707 116.776 516.765C114.087 510.57 112.672 502.141 108.285 496.92C107.907 496.48 107.341 496.889 107.278 497.345L107.247 497.36Z" fill="#1D1D1B"/>
<path d="M299.143 627.236C299.536 635.115 298.986 643.795 293.152 649.786C287.742 655.353 279.376 658.404 272.693 662.131C260.789 668.782 244.498 681.378 230.203 678.689C228.82 678.422 227.577 679.806 228.332 681.127C231.839 687.275 240.299 684.618 245.677 682.511C255.474 678.674 264.752 672.352 273.7 666.848C281.358 662.146 291.626 656.91 297.335 649.786C302.335 643.543 303.263 634.926 302.886 627.236C302.76 624.83 299.002 624.814 299.127 627.236H299.143Z" fill="#1D1D1B"/>
<path d="M291.217 449.068C294.409 458 294.378 468.41 295.038 477.735C296.752 502.204 297.475 526.672 297.821 551.188C298.183 577.544 297.13 604.591 299.897 630.805C300.086 632.551 302.46 632.567 302.618 630.805C304.851 606.683 303.53 581.664 302.854 557.462C302.413 541.564 301.879 525.666 301.014 509.783C300.149 493.901 299.3 477.704 295.258 462.246C294.095 457.827 292.192 453.534 291.311 449.036C291.311 448.989 291.217 449.005 291.233 449.052L291.217 449.068Z" fill="#1D1D1B"/>
<path d="M215.893 218.928C224.636 227.75 227.451 242.5 230.926 254.2C235.88 270.821 240.786 287.443 245.708 304.065C257.581 344.227 269.469 384.374 281.593 424.473C284.597 434.412 288.151 444.712 291.453 454.242C291.972 455.751 294.394 455.106 293.875 453.581C291.029 445.388 289.487 436.503 286.987 428.169C281.42 409.534 275.948 390.868 270.287 372.265C258.43 333.204 246.605 294.126 234.685 255.08C230.989 242.972 227.923 224.966 216.726 217.827C216.05 217.402 215.327 218.362 215.877 218.928H215.893Z" fill="#1D1D1B"/>
<path d="M298.105 481.587C297.303 474.495 298.309 467.765 296.359 460.893C294.535 454.461 292.648 447.18 289.361 441.362C288.905 440.56 287.805 441.142 287.946 441.959C289 448.202 291.437 454.131 292.506 460.437C293.764 467.906 297.035 474.039 298.026 481.587C298.026 481.634 298.105 481.634 298.105 481.587Z" fill="#1D1D1B"/>
<path d="M213.707 217.072C213.345 216.694 212.984 216.317 212.653 215.924C212.245 215.452 211.584 216.333 212.15 216.584C212.622 216.789 213.094 217.04 213.565 217.276C213.691 217.339 213.833 217.182 213.723 217.072H213.707Z" fill="#1D1D1B"/>
<path d="M217.953 219.856C214.886 209.949 198.249 209.949 189.726 209.225C173.151 207.81 156.278 208.109 139.656 207.779C106.837 207.134 73.9401 206.945 41.2314 210.122C37.5831 210.483 37.5517 216.255 41.2314 215.877C70.0559 212.921 99.0692 212.559 128.019 212.858C142.392 212.999 156.765 213.314 171.138 213.597C178.293 213.739 185.48 213.691 192.619 214.179C200.183 214.698 210.798 215.327 217.025 220.406C217.418 220.721 218.126 220.438 217.953 219.871V219.856Z" fill="#1D1D1B"/>
<path d="M67.3988 223.865C61.1244 223.142 54.1424 222.985 49.9437 228.457C45.7451 233.93 45.4463 241.997 46.1696 248.334C46.893 254.671 48.7486 260.317 50.4469 266.182C55.023 282.033 59.6462 297.884 64.2695 313.72C77.5259 359.135 91.5215 404.376 103.976 449.995C107.75 463.818 112.295 477.389 116.336 491.117C116.761 492.564 119.025 491.951 118.6 490.488C97.8431 419.819 77.1957 349.086 56.6113 278.338C54.9601 272.63 53.2932 266.937 51.6578 261.229C50.6514 257.722 49.5506 254.215 48.8272 250.646C47.6635 244.796 47.4119 238.506 49.6292 232.86C52.8214 224.699 60.1337 225.281 67.4303 223.912C67.4617 223.912 67.446 223.865 67.4303 223.865H67.3988Z" fill="#1D1D1B"/>
<path d="M118.349 495.175C118.616 501.685 121.919 508.164 124.466 514.061C128.13 522.537 132.345 530.777 136.889 538.813C146.45 555.749 158.653 571.113 169.598 587.152C181.14 604.073 193.422 620.569 205.562 637.065C210.955 644.377 216.381 651.673 221.979 658.813C225.328 663.09 229.826 668.924 235.927 668.154C236.855 668.028 236.871 666.817 235.927 666.691C226.209 665.496 219.699 652.664 214.446 645.682C209.194 638.7 203.722 631.23 198.438 623.934C187.855 609.309 177.633 594.433 166.61 580.123C155.587 565.813 146.592 551.802 138.021 536.564C134.121 529.645 130.489 522.568 127.265 515.303C124.356 508.73 122.611 501.198 119.009 495.002C118.836 494.703 118.333 494.829 118.349 495.175Z" fill="#1D1D1B"/>
<path d="M292.004 616.811C292.412 623.195 292.507 630.114 289.519 635.964C285.572 643.685 278.008 646.956 270.743 650.714C264.783 653.812 258.776 656.863 252.785 659.898C246.117 663.279 238.616 668.28 230.974 665.402C230.203 665.103 229.322 666.188 229.857 666.864C233.411 671.519 239.67 669.616 244.466 667.729C253.571 664.16 262.33 658.483 270.869 653.765C278.024 649.818 285.462 645.619 290.069 638.637C294.315 632.206 294.724 624.312 294.252 616.811C294.158 615.364 291.909 615.364 292.004 616.811Z" fill="#1D1D1B"/>
<path d="M281.813 447.684C284.565 456.16 285.194 465.391 285.996 474.197C288.041 496.669 288.858 519.235 289.503 541.785C290.195 566.379 289.943 591.209 291.925 615.741C292.003 616.779 293.513 616.81 293.56 615.741C295.211 578.519 292.868 540.511 290.541 503.32C289.629 488.869 288.733 474.197 285.352 460.076C284.345 455.893 282.836 451.851 281.861 447.669C281.861 447.637 281.813 447.653 281.813 447.669V447.684Z" fill="#1D1D1B"/>
<path d="M214.242 236.289C222.199 244.985 224.888 258.886 228.143 270.083C232.656 285.572 237.138 301.077 241.619 316.567C252.438 353.961 263.242 391.372 274.218 428.72C277.001 438.186 279.895 447.59 283.04 456.931C283.354 457.843 284.801 457.45 284.487 456.538C281.908 448.848 280.272 440.687 277.992 432.887C272.85 415.259 267.771 397.615 262.597 379.987C251.888 343.598 241.226 307.21 230.47 270.837C227.089 259.405 224.306 243.475 214.839 235.691C214.43 235.345 213.88 235.88 214.242 236.289Z" fill="#1D1D1B"/>
<path d="M203.8 225.69C193.83 221.366 180.873 222.561 170.211 222.246C157.678 221.869 145.161 221.538 132.627 221.334C106.964 220.909 81.2371 221.067 55.6677 223.488C53.4819 223.693 53.4662 227.152 55.6677 226.932C80.2621 224.495 105.014 224.149 129.703 224.432C142.267 224.573 154.816 224.872 167.365 225.187C179.253 225.486 191.802 226.964 203.627 226.303C203.926 226.288 204.115 225.831 203.8 225.69Z" fill="#1D1D1B"/>
<path d="M47.978 211.553C35.2563 206.741 29.1234 226.036 31.5923 235.156C31.7652 235.785 32.6301 235.612 32.6773 235.015C33.212 229.023 34.2341 223.472 38.307 218.739C41.0746 215.531 45.2418 215.154 48.1825 212.292C48.4341 212.04 48.2926 211.663 47.9938 211.553H47.978Z" fill="#1D1D1B"/>
<path d="M45.0061 212.009L44.2198 211.16C43.6537 210.531 42.7574 210.389 41.9554 210.562C34.2343 212.292 30.2715 218.818 24.4217 223.536C16.2917 230.093 8.38182 236.824 1.32115 244.545C-1.00619 247.092 2.78361 250.913 5.12668 248.35C12.5019 240.252 20.8363 233.427 29.2179 226.429C32.9291 223.331 35.7439 219.133 39.9426 216.664C42.3328 215.264 44.2198 215.201 45.1319 212.481C45.1791 212.308 45.1319 212.135 45.0061 212.009Z" fill="#1D1D1B"/>
<path d="M5.394 243.694C1.76145 242.672 0.267541 250.551 0.078837 252.925C-0.613077 261.7 2.72069 269.861 5.26819 278.039C6.24316 281.152 7.06088 284.329 7.9415 287.474C12.6748 304.379 17.5025 321.268 22.283 338.157C35.052 383.272 47.7895 428.404 60.5899 473.52C63.8765 485.094 67.8864 497.187 71.6605 508.132C72.2266 509.783 74.8685 509.075 74.2866 507.408C71.5976 499.608 70.2138 489.34 67.8078 480.895C62.2568 461.396 56.7529 441.881 51.2333 422.381C39.5022 380.882 27.8026 339.383 15.9929 297.9C14.326 292.05 12.6276 286.216 10.8821 280.397C10.5205 279.202 10.1745 277.991 9.79709 276.812C8.61769 273.227 7.17096 269.751 6.16454 266.103C5.7714 264.672 2.95657 244.591 5.22102 244.732C5.81858 244.764 5.91293 243.867 5.36255 243.726L5.394 243.694Z" fill="#1D1D1B"/>
<path d="M79.083 524.314C81.2845 541.093 94.0849 557.652 103.206 571.411C113.647 587.153 125.017 602.107 136.59 617.015C138.415 619.374 142.582 616.213 140.758 613.807C129.561 598.946 118.192 584.149 107.672 568.801C102.561 561.347 97.686 553.705 93.0785 545.921C88.754 538.593 85.1058 530.526 79.3346 524.204C79.2559 524.11 79.0672 524.173 79.083 524.314Z" fill="#1D1D1B"/>
<path d="M238.474 682.086C227.797 681.913 217.119 681.599 206.426 680.891C203.674 680.702 201.284 680.891 198.799 679.9C194.491 678.202 190.795 674.428 187.54 671.299C180.401 664.442 173.969 656.831 167.726 649.142C162.316 642.474 157.08 635.649 151.953 628.746C146.308 621.135 141.26 612.69 134.687 605.865C133.225 604.34 130.944 606.274 131.857 608.051C136.511 617.172 143.713 625.333 149.956 633.432C154.988 639.958 160.115 646.421 165.446 652.727C172.223 660.747 179.221 668.751 187.115 675.702C190.26 678.469 193.814 681.74 197.777 683.328C200.529 684.429 203.47 684.429 206.426 684.712C217.308 685.782 228.048 686.363 238.726 683.879C239.748 683.643 239.512 682.086 238.474 682.07V682.086Z" fill="#1D1D1B"/>
<path d="M224.589 683.407C224.903 681.567 224.951 679.727 224.73 677.872C224.683 676.991 223.582 676.693 223.095 677.432C217.969 685.31 220.5 676.755 221.271 672.793C221.57 671.267 219.746 670.575 218.849 671.77C216.412 674.994 213.974 678.218 211.537 681.442L213.911 682.448C214.729 677.605 215.547 672.745 216.349 667.902C216.569 666.613 214.713 665.543 214.037 666.927C211.411 672.368 209.115 677.211 204.382 681.237L206.41 682.416C207.841 675.356 208.706 668.578 211.616 661.895C212.339 660.212 210.279 659.001 209.178 660.464C204.539 666.613 200.026 672.824 195.576 679.114L197.478 680.231C201.709 671.723 204.288 662.98 206.489 653.765C206.992 651.642 204.193 650.478 202.998 652.303C198.296 659.489 194.098 667.069 188.232 673.39L190.103 674.821C194.679 665.213 197.966 655.306 199.79 644.817C200.042 643.386 198.233 641.861 197.07 643.229C190.89 650.541 185.527 658.404 180.574 666.597L182.429 667.383C184.364 661.942 186.612 656.643 188.546 651.202C190.481 645.761 190.323 639.99 192.258 634.533C192.95 632.599 189.71 631.183 188.892 633.118C187.115 637.301 185.842 641.531 183.294 645.32C180.385 649.661 177.004 653.796 173.623 657.759L175.636 659.316C178.058 654.551 180.495 649.566 181.737 644.33C183.326 637.646 181.627 630.444 184.426 624.028C185.464 621.638 182.351 619.657 180.857 621.937C175.133 630.696 170.683 640.556 165.745 649.802L168.277 650.871C170.384 641.578 173.199 632.803 174.394 623.305C174.803 620.066 169.503 619.956 169.236 623.305C168.528 632.347 167.412 641.232 165.603 650.132C165.304 651.579 167.396 652.68 168.135 651.202C172.963 641.625 178.954 633.196 184.411 624.013L180.637 622.424C178.687 627.488 179.221 631.985 179.143 637.348C179.033 644.927 176.737 651.265 173.419 658.011C172.821 659.237 174.441 660.763 175.432 659.568C181.69 652.082 187.446 643.512 192.069 634.973L188.704 633.558C187.021 637.851 186.329 642.317 185.7 646.877C184.678 654.268 183.483 659.725 180.574 666.597C180.071 667.776 181.564 668.72 182.319 667.619C187.603 659.945 193.421 652.696 199.365 645.525L196.645 643.937C194.947 654.205 192.179 664.049 188.043 673.61C187.556 674.727 188.94 676.158 189.915 675.041C195.78 668.264 201.866 662.052 206.3 654.205L202.809 652.743C201.205 661.974 200.262 670.827 195.576 679.114C194.978 680.152 196.503 681.457 197.305 680.451C202.165 674.318 206.945 668.169 211.616 661.895L209.178 660.464C206.222 667.352 204.681 674.617 204.02 682.086C203.91 683.407 205.656 683.58 206.285 682.7C209.666 677.935 213.628 673.469 216.207 668.185L213.896 667.21C213.062 672.054 212.213 676.897 211.38 681.74C211.128 683.234 212.858 683.91 213.754 682.747C216.207 679.539 218.66 676.315 221.114 673.107L218.645 672.431C218.409 676.001 218.283 679.586 218.142 683.171C218.126 683.596 218.645 683.737 218.928 683.502C220.878 681.882 222.718 680.341 224.463 678.485L223.001 677.636C222.875 679.507 222.419 681.3 221.617 682.998C220.909 684.933 224.353 685.735 224.589 683.407Z" fill="#1D1D1B"/>
<path d="M177.901 325.357C203.926 331.002 223.725 357.043 229.732 381.842C235.739 406.641 225.879 433.437 199.964 439.916C149.753 452.496 101.036 374.608 138.352 336.396C148.935 325.561 164.707 325.294 178.719 328.25C193.233 331.317 204.571 338.755 214.274 349.747C215.249 350.848 216.805 349.448 216.224 348.253C205.2 325.986 165.808 315.78 144.61 327.401C120.676 340.532 118.176 373.681 127.438 396.577C137.565 421.564 163.67 445.891 192.258 444.146C218.582 442.526 235.864 418.718 234.449 393.369C232.845 364.591 210.106 325.435 178.011 324.476C177.524 324.476 177.398 325.231 177.901 325.341V325.357Z" fill="black"/>
<path d="M178.514 410.336L154.36 390.931L161.405 382.172L175.338 393.384L194.098 363.459L201.945 370.331L178.514 410.336Z" fill="black"/>
<path d="M178.53 410.494C170.227 404.66 161.421 398.37 153.48 392.032C152.866 391.545 152.772 390.664 153.259 390.051C155.587 387.126 157.961 384.217 160.446 381.418C160.855 380.883 161.641 380.789 162.16 381.229C166.673 385.145 171.06 389.186 175.652 392.992L174.913 393.117C178.121 388.18 181.125 383.116 184.018 377.99L188.39 370.316L192.871 362.705C193.265 362.028 194.129 361.808 194.79 362.201C194.884 362.249 194.963 362.311 195.026 362.374L202.999 369.105C203.596 369.608 203.722 370.441 203.36 371.086C195.875 384.468 187.022 397.741 178.53 410.478V410.494ZM178.483 410.179C185.512 396.64 192.62 382.44 200.545 369.514L200.876 371.558L193.139 364.544L195.309 364.23C189.066 373.838 181.644 383.871 175.762 393.652C175.605 393.904 175.259 393.967 175.023 393.794C170.321 390.114 165.415 386.701 160.619 383.132L162.333 382.943C160.131 385.978 157.804 388.903 155.445 391.812L155.225 389.831C162.018 395.319 171.847 404.188 178.467 410.179H178.483Z" fill="black"/>
</g>
<defs>
<clipPath id="clip0_4155_22445">
<rect width="765.32" height="685.656" fill="white"/>
</clipPath>
</defs>
</svg>
